<svg width="24" height="24" viewBox="0 0 24 24" fill="none" xmlns="http://www.w3.org/2000/svg">
<g clip-path="url(#clip0_724_735)">
<path d="M11.9995 1.91903C17.4784 1.91903 21.9305 6.37117 21.9305 11.85C21.9305 17.3288 17.4784 21.781 11.9995 21.781C9.99415 21.781 8.04634 21.1669 6.36719 20.0059L5.58038 19.4589L4.66885 19.766L2.95132 20.3417L3.59419 18.4131L3.87245 17.5879L3.43107 16.8395C2.53872 15.3138 2.06856 13.5963 2.06856 11.8596C2.06856 6.37117 6.52071 1.91903 11.9995 1.91903ZM11.9995 0C5.45565 0 0.149534 5.30611 0.149534 11.85C0.149534 13.9417 0.725243 15.9951 1.77111 17.799L0.168725 22.6157C0.0823683 22.8844 0.283866 23.1339 0.542935 23.1339C0.581316 23.1339 0.629291 23.1339 0.667672 23.1147L5.27334 21.5795C7.24994 22.942 9.59115 23.7 11.9899 23.7C18.5242 23.7 23.8399 18.3939 23.8399 11.85C23.8399 5.30611 18.5338 0 11.9995 0Z" fill="url(#paint0_linear_724_735)"/>
<path d="M8.03762 10.6602C7.38516 10.6602 6.85742 11.1975 6.85742 11.8404C6.85742 12.4929 7.39475 13.0206 8.03762 13.0206C8.6805 13.0206 9.21783 12.4833 9.21783 11.8404C9.21783 11.1975 8.6805 10.6602 8.03762 10.6602Z" fill="url(#paint1_linear_724_735)"/>
<path d="M12.0005 10.6602C11.348 10.6602 10.8203 11.1975 10.8203 11.8404C10.8203 12.4929 11.3576 13.0206 12.0005 13.0206C12.6434 13.0206 13.1807 12.4833 13.1807 11.8404C13.1807 11.188 12.6434 10.6602 12.0005 10.6602Z" fill="url(#paint2_linear_724_735)"/>
<path d="M15.9341 10.6602C15.2816 10.6602 14.7539 11.1975 14.7539 11.8404C14.7539 12.4929 15.2912 13.0206 15.9341 13.0206C16.577 13.0206 17.1143 12.4833 17.1143 11.8404C17.1143 11.188 16.577 10.6602 15.9341 10.6602Z" fill="url(#paint3_linear_724_735)"/>
</g>
<defs>
<linearGradient id="paint0_linear_724_735" x1="0.148437" y1="11.85" x2="23.8399" y2="11.85" gradientUnits="userSpaceOnUse">
<stop stop-color="#FBAB51"/>
<stop offset="1" stop-color="#FE8705"/>
</linearGradient>
<linearGradient id="paint1_linear_724_735" x1="6.85742" y1="11.8404" x2="9.21783" y2="11.8404" gradientUnits="userSpaceOnUse">
<stop stop-color="#FBAB51"/>
<stop offset="1" stop-color="#FE8705"/>
</linearGradient>
<linearGradient id="paint2_linear_724_735" x1="10.8203" y1="11.8404" x2="13.1807" y2="11.8404" gradientUnits="userSpaceOnUse">
<stop stop-color="#FBAB51"/>
<stop offset="1" stop-color="#FE8705"/>
</linearGradient>
<linearGradient id="paint3_linear_724_735" x1="14.7539" y1="11.8404" x2="17.1143" y2="11.8404" gradientUnits="userSpaceOnUse">
<stop stop-color="#FBAB51"/>
<stop offset="1" stop-color="#FE8705"/>
</linearGradient>
<clipPath id="clip0_724_735">
<rect width="23.7" height="23.7" fill="white" transform="translate(0.150391)"/>
</clipPath>
</defs>
</svg>
