<svg width="17" height="17" viewBox="0 0 17 17" fill="none" xmlns="http://www.w3.org/2000/svg">
<g clip-path="url(#clip0_2240_8476)">
<path d="M9.2513 16.1132C9.05536 16.3333 8.78161 16.4687 8.48776 16.4909C7.86265 16.489 7.35635 15.9827 7.3545 15.3576L7.35447 1.71027C7.3753 1.08285 7.90076 0.591112 8.52818 0.611942C9.09554 0.630787 9.56203 1.06531 9.621 1.62991L9.621 15.3577C9.5989 15.6475 9.46662 15.9178 9.2513 16.1132Z" fill="#1D1D1D"/>
<path d="M16.0669 9.2974C15.8552 9.50734 15.5694 9.62573 15.2712 9.62695L1.6238 9.62692C0.997943 9.57849 0.52981 9.03185 0.578219 8.40597C0.621441 7.84737 1.06522 7.40359 1.6238 7.36039L15.3114 7.32022C15.9388 7.29955 16.4642 7.79142 16.4848 8.41883C16.4857 8.44379 16.4857 8.46873 16.4848 8.49368C16.4629 8.80791 16.3116 9.09895 16.0669 9.2974Z" fill="#1D1D1D"/>
</g>
<defs>
<clipPath id="clip0_2240_8476">
<rect width="12" height="12" fill="white" transform="translate(0.0147705 8.48535) rotate(-45)"/>
</clipPath>
</defs>
</svg>
