<svg width="31" height="31" viewBox="0 0 31 31" fill="none" xmlns="http://www.w3.org/2000/svg">
<g clip-path="url(#clip0_4535_503)">
<path d="M15.5 0C6.95278 0 0 6.95278 0 15.5C0 24.0472 6.95278 31 15.5 31C24.0472 31 31 24.046 31 15.5C31 6.95399 24.0472 0 15.5 0ZM15.5 28.5988C8.27827 28.5988 2.40123 22.7229 2.40123 15.5C2.40123 8.27706 8.27827 2.40123 15.5 2.40123C22.7217 2.40123 28.5988 8.27706 28.5988 15.5C28.5988 22.7229 22.7229 28.5988 15.5 28.5988Z" fill="#FE8808"/>
<path d="M21.5037 14.1913H16.7013V9.38888C16.7013 8.72613 16.1646 8.18823 15.5006 8.18823C14.8367 8.18823 14.3 8.72613 14.3 9.38888V14.1913H9.49752C8.83356 14.1913 8.29688 14.7292 8.29688 15.392C8.29688 16.0547 8.83356 16.5926 9.49752 16.5926H14.3V21.3951C14.3 22.0578 14.8367 22.5957 15.5006 22.5957C16.1646 22.5957 16.7013 22.0578 16.7013 21.3951V16.5926H21.5037C22.1677 16.5926 22.7044 16.0547 22.7044 15.392C22.7044 14.7292 22.1677 14.1913 21.5037 14.1913Z" fill="#FE8808"/>
</g>
<defs>
<clipPath id="clip0_4535_503">
<rect width="31" height="31" fill="white"/>
</clipPath>
</defs>
</svg>
