<svg width="16" height="20" viewBox="0 0 16 20" fill="none" xmlns="http://www.w3.org/2000/svg">
<path d="M13.2119 17.9194H2.98436C2.54519 17.9194 2.18919 17.5634 2.18919 17.1242V2.43951H0.87127C0.390072 2.43951 0 2.82959 0 3.31078V18.8888C0 19.37 0.390072 19.76 0.87127 19.76H12.3407C12.8219 19.76 13.212 19.37 13.212 18.8888V17.9194H13.2119Z" fill="#8AC9FE"/>
<path d="M2.18966 2.43951V17.1242C2.18966 17.5634 2.54566 17.9194 2.98484 17.9194H13.2124V18.8888C13.2124 19.0585 13.1637 19.2168 13.0798 19.3507H2.26576C1.7846 19.3507 1.39453 18.9606 1.39453 18.4794V17.8433L1.79212 2.90139L2.18966 2.43951Z" fill="#60B7FF"/>
<path d="M14.6064 16.5253H4.37885C3.93968 16.5253 3.58368 16.1693 3.58368 15.7302V1.39401H2.26576C1.7846 1.39401 1.39453 1.78408 1.39453 2.26528V17.8433C1.39453 18.3245 1.7846 18.7145 2.26576 18.7145H13.7352C14.2164 18.7145 14.6065 18.3245 14.6065 17.8433V16.5253H14.6064Z" fill="#FED402"/>
<path d="M3.58228 1.39401V15.7302C3.58228 16.1693 3.93828 16.5253 4.37745 16.5253H14.605V17.8433C14.605 17.9142 14.5964 17.983 14.5804 18.049H3.65834C3.17718 18.049 2.78711 17.6589 2.78711 17.1777V16.4492L3.1847 15.3493V1.59976L3.58228 1.39401Z" fill="#FAC600"/>
<path d="M15.0483 17.3205H3.65834C3.17718 17.3205 2.78711 16.9304 2.78711 16.4492V0.87127C2.78711 0.390072 3.17718 0 3.65834 0H12.4695L15.9195 3.52953V16.4492C15.9195 16.9304 15.5295 17.3205 15.0483 17.3205Z" fill="#EFEDEF"/>
<path d="M14.8068 2.33678V16.4493C14.8068 16.9305 14.4167 17.3205 13.9355 17.3205H15.1283C15.6095 17.3205 15.9995 16.9305 15.9995 16.4493V3.52954L14.8068 2.33678Z" fill="#D7D0D6"/>
<path d="M16.0003 3.52953H13.3419C12.8608 3.52953 12.4708 3.13954 12.4708 2.65842V0L16.0003 3.52953ZM13.3733 6.74835H5.41538C5.33629 6.74835 5.26045 6.71693 5.20453 6.66101C5.1486 6.60509 5.11719 6.52924 5.11719 6.45016C5.11719 6.37107 5.1486 6.29523 5.20453 6.23931C5.26045 6.18338 5.33629 6.15197 5.41538 6.15197H13.3733C13.4524 6.15197 13.5282 6.18338 13.5842 6.23931C13.6401 6.29523 13.6715 6.37107 13.6715 6.45016C13.6715 6.52924 13.6401 6.60509 13.5842 6.66101C13.5282 6.71693 13.4524 6.74835 13.3733 6.74835ZM13.3733 8.95845H5.41538C5.33629 8.95845 5.26045 8.92703 5.20453 8.87111C5.1486 8.81519 5.11719 8.73934 5.11719 8.66026C5.11719 8.58117 5.1486 8.50533 5.20453 8.44941C5.26045 8.39349 5.33629 8.36207 5.41538 8.36207H13.3733C13.4524 8.36207 13.5282 8.39349 13.5842 8.44941C13.6401 8.50533 13.6715 8.58117 13.6715 8.66026C13.6715 8.73934 13.6401 8.81519 13.5842 8.87111C13.5282 8.92703 13.4524 8.95845 13.3733 8.95845ZM13.3733 11.1685H5.41538C5.33629 11.1685 5.26045 11.1371 5.20453 11.0812C5.1486 11.0253 5.11719 10.9494 5.11719 10.8704C5.11719 10.7913 5.1486 10.7154 5.20453 10.6595C5.26045 10.6036 5.33629 10.5722 5.41538 10.5722H13.3733C13.4524 10.5722 13.5282 10.6036 13.5842 10.6595C13.6401 10.7154 13.6715 10.7913 13.6715 10.8704C13.6715 10.9494 13.6401 11.0253 13.5842 11.0812C13.5282 11.1371 13.4524 11.1685 13.3733 11.1685Z" fill="#B5ADB6"/>
</svg>
