<svg width="17" height="17" viewBox="0 0 17 17" fill="none" xmlns="http://www.w3.org/2000/svg">
<g clip-path="url(#clip0_4953_698)">
<path d="M8.56185 1.4375C7.11146 1.4375 5.69363 1.86759 4.48767 2.67339C3.28171 3.47919 2.34178 4.6245 1.78674 5.96449C1.23169 7.30448 1.08647 8.77897 1.36943 10.2015C1.65239 11.624 2.35082 12.9307 3.3764 13.9563C4.40199 14.9819 5.70866 15.6803 7.13119 15.9633C8.55372 16.2462 10.0282 16.101 11.3682 15.5459C12.7082 14.9909 13.8535 14.051 14.6593 12.845C15.4651 11.6391 15.8952 10.2212 15.8952 8.77083C15.8929 6.82662 15.1195 4.96269 13.7448 3.58792C12.37 2.21315 10.5061 1.43979 8.56185 1.4375ZM11.8952 9.4375H9.22852V12.1042C9.22852 12.281 9.15828 12.4505 9.03326 12.5756C8.90823 12.7006 8.73866 12.7708 8.56185 12.7708C8.38504 12.7708 8.21547 12.7006 8.09045 12.5756C7.96542 12.4505 7.89518 12.281 7.89518 12.1042V9.4375H5.22852C5.05171 9.4375 4.88214 9.36726 4.75711 9.24224C4.63209 9.11721 4.56185 8.94764 4.56185 8.77083C4.56185 8.59402 4.63209 8.42445 4.75711 8.29943C4.88214 8.1744 5.05171 8.10417 5.22852 8.10417H7.89518V5.4375C7.89518 5.26069 7.96542 5.09112 8.09045 4.9661C8.21547 4.84107 8.38504 4.77083 8.56185 4.77083C8.73866 4.77083 8.90823 4.84107 9.03326 4.9661C9.15828 5.09112 9.22852 5.26069 9.22852 5.4375V8.10417H11.8952C12.072 8.10417 12.2416 8.1744 12.3666 8.29943C12.4916 8.42445 12.5619 8.59402 12.5619 8.77083C12.5619 8.94764 12.4916 9.11721 12.3666 9.24224C12.2416 9.36726 12.072 9.4375 11.8952 9.4375Z" fill="#1D1D1D"/>
</g>
<defs>
<clipPath id="clip0_4953_698">
<rect width="16" height="16" fill="white" transform="translate(0.562012 0.770996)"/>
</clipPath>
</defs>
</svg>
