<svg width="14" height="14" viewBox="0 0 14 14" fill="none" xmlns="http://www.w3.org/2000/svg">
<path d="M6.5011 0.5V3C6.5011 3.13261 6.55378 3.25979 6.64755 3.35355C6.74131 3.44732 6.86849 3.5 7.0011 3.5C7.13371 3.5 7.26088 3.44732 7.35465 3.35355C7.44842 3.25979 7.5011 3.13261 7.5011 3V0.5C7.5011 0.367392 7.44842 0.240215 7.35465 0.146447C7.26088 0.0526784 7.13371 0 7.0011 0C6.86849 0 6.74131 0.0526784 6.64755 0.146447C6.55378 0.240215 6.5011 0.367392 6.5011 0.5Z" fill="#FE9600"/>
<path d="M7.0011 14C7.13371 14 7.26088 13.9473 7.35465 13.8536C7.44842 13.7598 7.5011 13.6326 7.5011 13.5V11C7.5011 10.8674 7.44842 10.7402 7.35465 10.6464C7.26088 10.5527 7.13371 10.5 7.0011 10.5C6.86849 10.5 6.74131 10.5527 6.64755 10.6464C6.55378 10.7402 6.5011 10.8674 6.5011 11V13.5C6.5011 13.6326 6.55378 13.7598 6.64755 13.8536C6.74131 13.9473 6.86849 14 7.0011 14Z" fill="#FE9600"/>
<path d="M2.05055 2.05043C1.95742 2.14411 1.90515 2.27083 1.90515 2.40293C1.90515 2.53502 1.95742 2.66174 2.05055 2.75543L3.82055 4.52543C3.91368 4.6178 4.03938 4.66987 4.17055 4.67043C4.23635 4.67081 4.30158 4.65819 4.3625 4.63331C4.42342 4.60843 4.47883 4.57177 4.52555 4.52543C4.61867 4.43174 4.67094 4.30502 4.67094 4.17293C4.67094 4.04083 4.61867 3.91411 4.52555 3.82043L2.75555 2.05043C2.66187 1.9573 2.53514 1.90503 2.40305 1.90503C2.27095 1.90503 2.14423 1.9573 2.05055 2.05043Z" fill="#FE9600"/>
<path d="M11.9498 11.2451L10.1798 9.50006C10.0848 9.44722 9.9752 9.42678 9.86754 9.44183C9.75989 9.45688 9.66008 9.5066 9.58321 9.58346C9.50635 9.66032 9.45663 9.76014 9.44158 9.86779C9.42653 9.97544 9.44698 10.0851 9.49981 10.1801L11.2698 11.9501C11.3629 12.0424 11.4886 12.0945 11.6198 12.0951C11.6856 12.0954 11.7508 12.0828 11.8118 12.0579C11.8727 12.0331 11.9281 11.9964 11.9748 11.9501C12.0647 11.8531 12.1125 11.7245 12.1078 11.5924C12.1032 11.4603 12.0463 11.3354 11.9498 11.2451Z" fill="#FE9600"/>
<path d="M0 6.99976C0 7.13236 0.0526784 7.25954 0.146447 7.35331C0.240215 7.44708 0.367392 7.49976 0.5 7.49976H3C3.13261 7.49976 3.25979 7.44708 3.35355 7.35331C3.44732 7.25954 3.5 7.13236 3.5 6.99976C3.5 6.86715 3.44732 6.73997 3.35355 6.6462C3.25979 6.55243 3.13261 6.49976 3 6.49976H0.5C0.367392 6.49976 0.240215 6.55243 0.146447 6.6462C0.0526784 6.73997 0 6.86715 0 6.99976Z" fill="#FE9600"/>
<path d="M13.5001 6.49976H11.0001C10.8675 6.49976 10.7403 6.55243 10.6466 6.6462C10.5528 6.73997 10.5001 6.86715 10.5001 6.99976C10.5001 7.13236 10.5528 7.25954 10.6466 7.35331C10.7403 7.44708 10.8675 7.49976 11.0001 7.49976H13.5001C13.6327 7.49976 13.7599 7.44708 13.8537 7.35331C13.9474 7.25954 14.0001 7.13236 14.0001 6.99976C14.0001 6.86715 13.9474 6.73997 13.8537 6.6462C13.7599 6.55243 13.6327 6.49976 13.5001 6.49976Z" fill="#FE9600"/>
<path d="M2.40555 12.0949C2.53672 12.0943 2.66242 12.0422 2.75555 11.9499L4.52555 10.1799C4.58714 10.0826 4.61328 9.96707 4.59956 9.85277C4.58584 9.73846 4.5331 9.6324 4.45024 9.55248C4.36738 9.47256 4.25948 9.42368 4.14476 9.41409C4.03004 9.4045 3.91552 9.4348 3.82055 9.49986L2.05055 11.2449C1.95742 11.3385 1.90515 11.4653 1.90515 11.5974C1.90515 11.7295 1.95742 11.8562 2.05055 11.9499C2.09727 11.9962 2.15268 12.0329 2.21359 12.0577C2.27451 12.0826 2.33974 12.0952 2.40555 12.0949Z" fill="#FE9600"/>
<path d="M11.9509 2.05043C11.8572 1.9573 11.7305 1.90503 11.5984 1.90503C11.4663 1.90503 11.3395 1.9573 11.2459 2.05043L9.50086 3.82043C9.40774 3.91411 9.35547 4.04083 9.35547 4.17293C9.35547 4.30502 9.40774 4.43174 9.50086 4.52543C9.54759 4.57177 9.60299 4.60843 9.66391 4.63331C9.72483 4.65819 9.79006 4.67081 9.85586 4.67043C9.98703 4.66987 10.1127 4.6178 10.2059 4.52543L11.9509 2.75543C12.044 2.66174 12.0963 2.53502 12.0963 2.40293C12.0963 2.27083 12.044 2.14411 11.9509 2.05043Z" fill="#FE9600"/>
<path d="M3.99902 7.00049C3.99902 7.59383 4.17497 8.17385 4.50461 8.6672C4.83426 9.16055 5.30279 9.54506 5.85097 9.77213C6.39915 9.99919 7.00235 10.0586 7.58429 9.94284C8.16624 9.82709 8.70079 9.54137 9.12034 9.12181C9.5399 8.70225 9.82562 8.1677 9.94138 7.58576C10.0571 7.00382 9.99773 6.40062 9.77066 5.85244C9.5436 5.30426 9.15908 4.83572 8.66573 4.50608C8.17239 4.17644 7.59237 4.00049 6.99902 4.00049C6.20337 4.00049 5.44031 4.31656 4.8777 4.87917C4.31509 5.44178 3.99902 6.20484 3.99902 7.00049ZM6.99902 5.00049C7.39459 5.00049 7.78127 5.11779 8.11016 5.33755C8.43906 5.55731 8.69541 5.86967 8.84678 6.23512C8.99816 6.60057 9.03776 7.00271 8.96059 7.39067C8.88342 7.77863 8.69294 8.135 8.41324 8.4147C8.13353 8.69441 7.77717 8.88489 7.3892 8.96206C7.00124 9.03923 6.59911 8.99962 6.23366 8.84825C5.8682 8.69687 5.55585 8.44053 5.33608 8.11163C5.11632 7.78273 4.99902 7.39605 4.99902 7.00049C4.99902 6.47006 5.20974 5.96135 5.58481 5.58627C5.95988 5.2112 6.46859 5.00049 6.99902 5.00049Z" fill="#FE9600"/>
</svg>
