<svg width="20" height="20" viewBox="0 0 20 20" fill="none" xmlns="http://www.w3.org/2000/svg">
<path fill-rule="evenodd" clip-rule="evenodd" d="M9.375 6.77375V7.5H4.375C3.8775 7.5 3.40062 7.6975 3.04937 8.04937C2.6975 8.40062 2.5 8.8775 2.5 9.375V17.5H1.875C1.53 17.5 1.25 17.78 1.25 18.125C1.25 18.47 1.53 18.75 1.875 18.75H18.125C18.47 18.75 18.75 18.47 18.75 18.125C18.75 17.78 18.47 17.5 18.125 17.5H17.5V9.375C17.5 8.8775 17.3025 8.40062 16.9506 8.04937C16.5994 7.6975 16.1225 7.5 15.625 7.5H10.625V6.77375C11.4069 6.51188 11.9712 5.77313 11.9712 4.90375C11.9712 4.56938 11.8388 4.09688 11.6313 3.605C11.2169 2.62688 10.5275 1.54 10.5275 1.54C10.4131 1.35937 10.2137 1.25 10 1.25C9.78625 1.25 9.58687 1.35937 9.4725 1.54C9.4725 1.54 8.78312 2.62688 8.36875 3.605C8.16125 4.09688 8.02875 4.56938 8.02875 4.90375C8.02875 5.77313 8.59312 6.51188 9.375 6.77375ZM16.25 14.0837L13.1213 11.9931C12.8906 11.8387 12.5856 11.855 12.3731 12.0331L10.9037 13.2619C10.2075 13.8438 9.19438 13.8438 8.49813 13.2619L7.04375 12.045C6.8275 11.8644 6.51687 11.8506 6.28562 12.0119L3.75 13.7794V17.5H16.25V14.0837ZM16.25 12.5806V9.375C16.25 9.20937 16.1844 9.05 16.0669 8.93313C15.95 8.81563 15.7906 8.75 15.625 8.75H4.375C4.20937 8.75 4.05 8.81563 3.93312 8.93313C3.81562 9.05 3.75 9.20937 3.75 9.375V12.2556L5.57063 10.9862C6.265 10.5025 7.19688 10.5438 7.84563 11.0863L9.3 12.3031C9.5325 12.4969 9.87 12.4969 10.1019 12.3025L11.5712 11.0744C12.2094 10.54 13.1238 10.4912 13.8156 10.9537L16.25 12.5806ZM10 3.11437C10.1025 3.30312 10.2094 3.50813 10.3088 3.71563C10.5206 4.15688 10.7212 4.60563 10.7212 4.90375C10.7212 5.30188 10.3981 5.625 10 5.625C9.60188 5.625 9.27875 5.30188 9.27875 4.90375C9.27875 4.60563 9.47937 4.15688 9.69125 3.71563C9.79062 3.50813 9.8975 3.30312 10 3.11437Z" fill="#ADADAD"/>
</svg>
