<svg width="38" height="25" viewBox="0 0 38 25" fill="none" xmlns="http://www.w3.org/2000/svg">
<path d="M4.17463 12.0168L4.684 15.0659C4.69491 15.1315 4.71461 15.1933 4.74017 15.2515C4.78441 15.3916 4.85321 15.5265 4.9501 15.6484L6.92342 18.1336L4.14987 22.5352C3.78558 23.1135 3.95894 23.8776 4.5371 24.242C4.74198 24.371 4.9702 24.4328 5.19569 24.4328C5.60666 24.4328 6.00864 24.2282 6.24393 23.8547L9.48512 18.7109C9.76526 18.2663 9.73405 17.6932 9.40723 17.2817L8.54922 16.2011L12.1747 18.4248L13.2479 23.4357C13.3724 24.0167 13.8857 24.4145 14.4568 24.4145C14.5427 24.4145 14.6298 24.4054 14.7172 24.3868C15.3855 24.2436 15.8113 23.5858 15.6682 22.9175L14.484 17.3881C14.413 17.057 14.2096 16.7694 13.9208 16.5923L10.0822 14.2379C10.0805 14.2139 10.0778 14.1898 10.0738 14.1657L9.94065 13.3689C9.86094 13.3685 9.78113 13.3591 9.70324 13.3405L4.17463 12.0168Z" fill="black"/>
<path d="M5.73797 7.91046C6.95371 7.59769 7.68584 6.35851 7.37297 5.14278C7.06019 3.92694 5.82102 3.19501 4.60528 3.50778C3.38934 3.82046 2.65741 5.05953 2.97018 6.27537C3.28306 7.49121 4.52203 8.22324 5.73797 7.91046ZM5.4055 5.95239C6.0661 5.70094 6.71954 5.80712 6.86501 6.1896C7.01069 6.57198 6.32958 6.39337 5.66918 6.64482C5.00857 6.89627 4.61882 7.48252 4.47314 7.10024C4.32766 6.71776 4.7451 6.20395 5.4055 5.95239Z" fill="black"/>
<path d="M8.20566 0.579571C8.14535 0.55381 8.07534 0.569772 8.0322 0.619072L7.01892 1.7746L6.53733 0.726563C6.51096 0.669282 6.45206 0.63463 6.38892 0.638671C6.32598 0.643116 6.27244 0.686153 6.25436 0.746667L5.97462 1.68842L5.02761 0.773237C4.98023 0.727472 4.9088 0.717471 4.85081 0.748587C4.79272 0.779702 4.7614 0.844662 4.77322 0.909419L5.02619 2.29367C5.04124 2.376 5.12065 2.43025 5.20248 2.4155C5.28482 2.40045 5.33937 2.32155 5.32432 2.23921L5.15611 1.31898L5.9434 2.0799C5.98139 2.11667 6.03584 2.13092 6.08716 2.11748C6.13838 2.10404 6.17889 2.06484 6.19394 2.01413L6.43004 1.21936L6.84091 2.11374C6.86233 2.16031 6.90597 2.19305 6.95668 2.20042C7.0076 2.20749 7.05862 2.18901 7.09246 2.15031L7.95421 1.16744L7.84348 2.42561C7.83914 2.47501 7.85924 2.5234 7.89733 2.55522C7.93532 2.58704 7.98664 2.59816 8.03442 2.58502L9.1452 2.28084L8.42549 3.31877C8.39609 3.3611 8.39033 3.41545 8.41003 3.46303C8.42973 3.51072 8.47227 3.54497 8.52298 3.55416L9.58526 3.74671L8.34265 4.39247C8.30123 4.41399 8.27203 4.45349 8.26355 4.49935C8.25506 4.54532 8.2682 4.5925 8.29921 4.62745L8.82899 5.22532L8.04725 5.16895C7.96411 5.1642 7.89127 5.22583 7.88521 5.30917C7.87915 5.39262 7.94198 5.46515 8.02543 5.47122L9.17813 5.55426C9.18177 5.55446 9.1854 5.55466 9.18904 5.55466C9.24632 5.55466 9.29916 5.52223 9.32482 5.47031C9.3521 5.41505 9.34331 5.34877 9.30239 5.30271L8.65482 4.57179L10.1186 3.81117C10.1761 3.78126 10.2082 3.71812 10.1986 3.65407C10.1889 3.59002 10.1396 3.53921 10.0757 3.52759L8.80878 3.29796L9.63183 2.11091C9.6681 2.05858 9.6678 1.98908 9.63103 1.93705C9.59415 1.88502 9.52859 1.86148 9.46726 1.87845L8.16444 2.23517L8.29668 0.732321C8.30285 0.666857 8.26587 0.605333 8.20566 0.579571Z" fill="black"/>
<path d="M0.0124243 2.89335C-0.113251 3.62204 0.726774 3.1159 1.97585 3.29896C1.60974 2.46975 0.145879 2.11909 0.0124243 2.89335Z" fill="black"/>
<path d="M2.9885 3.04985C3.26541 2.38723 2.66865 1.35475 2.1509 1.70026C1.66355 2.02546 2.41255 2.23215 2.9885 3.04985Z" fill="black"/>
<path d="M0.715139 4.58967C0.72312 5.10186 1.22996 4.64947 2.10393 4.61391C1.74833 4.09636 0.706653 4.04544 0.715139 4.58967Z" fill="black"/>
<path d="M10.4672 12.9446C10.5233 12.8971 10.5733 12.8421 10.6151 12.7802C10.6251 12.7857 10.6335 12.79 10.644 12.7961C10.6694 12.8108 10.6905 12.8227 10.8771 12.7907C11.1573 12.7425 11.813 12.5947 13.4186 12.208C13.5665 12.3351 13.7539 12.4042 13.9451 12.4042C14.091 12.4042 14.2388 12.3647 14.3718 12.2818C14.4152 12.2548 14.4547 12.2239 14.4911 12.1905L30 17.5C25.337 15.8357 30.0165 17.5058 30 17.5C30.0274 17.421 30.0791 17.0273 30 17L14.6779 11.9345C14.7879 11.6958 14.7797 11.4083 14.6304 11.1685L12.5846 7.88521C12.4699 7.70114 12.286 7.57092 12.0743 7.52374L8.39883 6.70513C8.27144 6.67685 8.14475 6.68099 8.02635 6.71089L7.42434 6.81141C7.1736 7.32442 6.74727 7.75155 6.18961 7.99876C6.06313 8.05483 5.93068 8.1008 5.79571 8.13555C5.14754 8.30224 4.47329 8.20667 3.89705 7.86632C3.80531 7.81207 3.71944 7.75105 3.6365 7.6869C3.34383 7.78126 3.11814 8.03857 3.08086 8.36387L2.97711 9.27178L2.81143 10.7212C2.76506 11.1272 3.02883 11.5039 3.42627 11.599L9.75722 13.1144C9.82046 13.1295 9.8837 13.1368 9.94604 13.1368C10.0083 13.1368 10.0694 13.129 10.1286 13.1152C10.1676 13.1838 10.2115 13.2526 10.2589 13.3206C10.3778 13.4911 10.5163 13.6545 10.6436 13.7839C11.3763 14.5281 12.1311 14.7341 12.6628 14.3355C12.8659 14.1831 13.0466 14.0173 12.9948 13.8366C12.9356 13.6302 12.6631 13.6072 12.2118 13.569C11.5684 13.5145 10.9679 13.4306 10.6198 13.121C10.5615 13.0689 10.5104 13.0103 10.4672 12.9446ZM4.49875 10.1934L4.61311 9.19329L4.8483 9.18197L4.75303 10.0153L9.57325 11.1691L9.13137 8.5242L11.392 9.02771L13.2102 11.9458C12.3562 12.1501 11.4226 12.3696 10.977 12.4653C10.8753 12.4871 10.7982 12.5028 10.7541 12.51C10.7481 12.5066 10.7413 12.5029 10.7347 12.4992C10.8275 12.0709 10.562 11.645 10.1336 11.5424L4.49875 10.1934ZM12.1864 13.8708C12.3595 13.8855 12.5668 13.9029 12.6692 13.9305C12.6395 13.9633 12.584 14.0156 12.4812 14.0927C12.0912 14.3853 11.6066 14.1614 11.2688 13.922C11.1484 13.8367 11.0365 13.7426 10.9344 13.6449C11.3492 13.7999 11.8249 13.8401 12.1864 13.8708Z" fill="black"/>
<path d="M35.4158 18.4657C35.3145 18.3041 35.2524 18.2948 34.8093 18.1683C34.3662 18.0419 34.4034 17.5636 34.2815 17.2155C34.248 17.1197 34.179 17.0239 34.0974 16.935C34.4555 16.5788 34.8456 16.3466 34.8456 16.3466C34.8456 16.3466 34.258 16.0324 33.6921 16.3099C33.7996 15.8429 33.9834 15.4673 33.9834 15.4673C33.9834 15.4673 33.0539 15.5495 32.8619 16.4177C32.4983 16.6718 31.4124 17.4115 30.6743 17.7158C30.6743 17.7158 30.7658 18.2279 31.074 18.8494C31.5284 19.1518 32.062 19.4295 32.4833 19.627C32.7147 19.2017 32.939 18.9024 33.0772 18.8653C33.2768 18.8116 33.7704 19.6579 34.2977 19.6019C34.4746 19.5832 34.6697 19.4664 34.8476 19.3145L34.6949 19.0736L34.3372 19.1796L34.1991 18.8154L33.9368 18.8997L33.875 18.7074L34.3199 18.5644L34.4596 18.9327L34.7838 18.8366L34.998 19.1748C35.2758 18.8916 35.4733 18.5572 35.4158 18.4657ZM33.9613 17.6966C33.9269 17.8171 33.8013 17.8869 33.6808 17.8526C33.5603 17.8182 33.4905 17.6927 33.5248 17.5721C33.5592 17.4516 33.9956 17.5761 33.9613 17.6966Z" fill="black"/>
<path d="M30.0266 18.3256C28.9645 18.7486 28.0601 18.5067 27.2488 18.3965C27.2397 18.3945 27.2312 18.3911 27.2219 18.3898C27.1903 18.3852 24.0451 17.9129 22.8158 16.2687C22.6989 16.1122 22.4773 16.0801 22.3209 16.1973C22.1645 16.3142 22.1324 16.5358 22.2493 16.6921C22.923 17.5931 24.0372 18.176 25.0308 18.5415C25.0231 18.5566 25.014 18.5708 25.0076 18.5869L23.4231 22.677C23.3332 22.9092 23.4258 23.1722 23.6413 23.2968C23.7205 23.3426 23.8075 23.3647 23.8938 23.3647C24.0422 23.3647 24.1883 23.2995 24.2871 23.1769L26.3126 20.6682C27.2558 20.6811 29.153 21.348 29.8301 21.2732L29.301 22.7969C29.2266 23.0111 29.3214 23.2473 29.5232 23.3507C29.5892 23.3844 29.6601 23.4006 29.7301 23.4006C29.8742 23.4006 30.0147 23.3321 30.1024 23.2072L32.1757 20.2549C32.1763 20.2554 32.1768 20.2558 32.1774 20.2563C32.1789 20.2528 32.1804 20.2494 32.1819 20.246L32.2071 20.2102C32.247 20.1533 32.2706 20.0905 32.2816 20.0263C32.3023 19.9825 32.323 19.9394 32.3438 19.897C31.6739 19.5844 30.5057 18.9744 30.0266 18.3256Z" fill="black"/>
<path d="M28.4594 15.1462C28.4455 15.1794 28.4332 15.2136 28.4228 15.2488C28.2649 15.7839 28.5706 16.3454 29.1056 16.5034C29.6406 16.6612 30.2022 16.3555 30.3601 15.8204C30.3634 15.8095 30.3652 15.7986 30.368 15.7876L31.5614 16.3759L31.6353 16.2437L30.6767 15.7083L29.8939 15.2711L29.7806 15.4981L30.2049 15.7072C30.0454 16.1042 29.6073 16.3223 29.1888 16.1988C28.7613 16.0726 28.511 15.6364 28.6087 15.2077C28.6186 15.211 28.628 15.215 28.638 15.218C28.8456 15.2794 29.0571 15.2723 29.2486 15.2104C29.144 15.2194 29.0361 15.2104 28.9293 15.1788C28.4712 15.0438 28.2094 14.5629 28.3445 14.1047C28.4797 13.6467 28.9606 13.3849 29.4187 13.52C29.636 13.5841 29.8082 13.7266 29.9158 13.907C29.8801 13.7966 29.8252 13.6935 29.7553 13.6009C29.9518 13.4783 30.1975 13.4362 30.4372 13.507C30.8818 13.6381 31.136 14.105 31.0049 14.5497C30.9593 14.7043 30.8725 14.835 30.7609 14.9354L30.4181 14.5993L30.2413 14.7813L30.8935 15.3582L31.7354 16.1029L31.8358 15.9893L30.9426 15.1134C31.1121 14.9818 31.244 14.7986 31.3094 14.577C31.4751 14.0153 31.1541 13.4255 30.5924 13.2598C30.2436 13.1568 29.8841 13.2419 29.6219 13.4555C29.5107 13.3556 29.3769 13.2774 29.2239 13.2323C28.6756 13.0705 28.0999 13.3837 27.9381 13.9321C27.7948 14.4177 28.0243 14.924 28.4594 15.1462Z" fill="black"/>
<path d="M32.8257 14.528C32.8407 14.6103 32.9201 14.6645 33.002 14.6498C33.0843 14.6347 33.1388 14.5557 33.1238 14.4735L32.9556 13.5533L33.7429 14.3141C33.781 14.351 33.8354 14.3648 33.8866 14.3518C33.9379 14.3382 33.9784 14.2991 33.9934 14.2483L34.2295 13.4537L34.6404 14.3479C34.6618 14.3946 34.7054 14.4272 34.7562 14.4346C34.8071 14.4421 34.8581 14.4232 34.8919 14.3846L35.7537 13.4017L35.643 14.6598C35.6386 14.7092 35.6587 14.7577 35.6968 14.7894C35.7349 14.8211 35.7862 14.8323 35.8339 14.8192L36.9447 14.5151L36.225 15.553C36.1956 15.5953 36.1898 15.6496 36.2095 15.6973C36.2292 15.7449 36.2717 15.7793 36.3225 15.7883L37.3847 15.9809L36.1421 16.6267C36.1007 16.6482 36.0715 16.6877 36.063 16.7335C36.0545 16.7794 36.0677 16.8267 36.0987 16.8617L36.6285 17.4596L35.8467 17.4032C35.7642 17.3971 35.6906 17.4601 35.6847 17.5436C35.6786 17.627 35.7415 17.6995 35.8249 17.7056L36.9776 17.7886C36.9812 17.7889 36.9849 17.7891 36.9885 17.7891C37.0458 17.7891 37.0986 17.7566 37.1243 17.7046C37.1516 17.6493 37.1428 17.5832 37.1019 17.537L36.4543 16.8062L37.9181 16.0456C37.9755 16.0157 38.0077 15.9525 37.9981 15.8884C37.9884 15.8243 37.9391 15.7735 37.8752 15.762L36.6083 15.5323L37.4313 14.3453C37.4676 14.2929 37.4673 14.2235 37.4305 14.1714C37.3936 14.1193 37.3281 14.096 37.2667 14.1128L35.9639 14.4695L36.0962 12.9667C36.1019 12.9014 36.065 12.8398 36.0047 12.8141C35.9445 12.7881 35.8744 12.8042 35.8313 12.8535L34.818 14.0091L34.3364 12.9611C34.3101 12.9037 34.2507 12.8681 34.188 12.8732C34.1251 12.8776 34.0715 12.9206 34.0534 12.9812L33.7737 13.9228L32.8267 13.0076C32.7793 12.9619 32.7079 12.9519 32.6499 12.983C32.5918 13.0141 32.5605 13.079 32.5723 13.1438L32.8257 14.528Z" fill="black"/>
<path d="M15.0311 11.0198C15.0199 11.0745 15.0551 11.1278 15.1097 11.1391C15.112 11.1396 15.3309 11.1888 15.4422 11.3659C15.5143 11.4807 15.5285 11.6287 15.484 11.8057C15.4704 11.8597 15.5032 11.9146 15.5574 11.9282C15.5657 11.9303 15.5739 11.9313 15.5821 11.9313C15.6273 11.9313 15.6685 11.9006 15.68 11.8548C15.7384 11.6223 15.716 11.4217 15.6133 11.2584C15.4548 11.0062 15.1628 10.9438 15.1504 10.9412C15.0954 10.9303 15.0424 10.9652 15.0311 11.0198Z" fill="black"/>
<path d="M16 11.9882C16.0095 11.991 16.019 11.9923 16.0284 11.9923C16.0722 11.9923 16.1125 11.9637 16.1253 11.9195C16.2255 11.5768 16.2053 11.2776 16.0652 11.0302C15.852 10.6537 15.4396 10.5422 15.4221 10.5376C15.3684 10.5232 15.3133 10.5557 15.299 10.6095C15.2848 10.6634 15.3169 10.7186 15.3707 10.733C15.3742 10.734 15.7205 10.8296 15.8904 11.1315C16.0017 11.3292 16.0155 11.5753 15.9313 11.8629C15.9158 11.9164 15.9465 11.9726 16 11.9882Z" fill="black"/>
<path d="M2.61316 11.9243C2.65661 11.9243 2.69681 11.8961 2.70995 11.8523C2.72601 11.7989 2.6956 11.7425 2.64216 11.7265C2.64004 11.7259 2.42627 11.6574 2.3311 11.4712C2.26938 11.3505 2.26847 11.2019 2.32848 11.0295C2.34686 10.9769 2.31898 10.9193 2.26624 10.901C2.21351 10.8824 2.15592 10.9105 2.13764 10.9633C2.05884 11.1896 2.06349 11.3914 2.15118 11.5632C2.28675 11.8284 2.57205 11.9164 2.58417 11.9201C2.59377 11.923 2.60357 11.9243 2.61316 11.9243Z" fill="black"/>
<path d="M2.40675 12.2373C2.42574 12.1848 2.39857 12.1271 2.34624 12.108C2.3428 12.1067 2.00639 11.9809 1.86394 11.665C1.7707 11.4582 1.77878 11.2119 1.88799 10.9328C1.90829 10.8809 1.88273 10.8223 1.83081 10.802C1.77898 10.7814 1.72018 10.8074 1.69988 10.8592C1.56966 11.1917 1.56319 11.4915 1.68089 11.7503C1.8598 12.1441 2.26087 12.2918 2.27784 12.298C2.28916 12.302 2.30068 12.3039 2.31189 12.3039C2.35311 12.3039 2.3918 12.2784 2.40675 12.2373Z" fill="black"/>
</svg>
