<svg width="18" height="15" viewBox="0 0 18 15" fill="none" xmlns="http://www.w3.org/2000/svg">
<path d="M16.7537 8.38919H1.89497C1.20639 8.38919 0.648438 7.83124 0.648438 7.14265C0.648438 6.45407 1.20639 5.89612 1.89497 5.89612H16.7537C17.4423 5.89612 18.0002 6.45407 18.0002 7.14265C18.0002 7.83124 17.4423 8.38919 16.7537 8.38919Z" fill="#4F4F4F"/>
<path d="M7.6034 14.2853C7.30024 14.2853 6.99609 14.1751 6.75625 13.9527L0.398923 8.05663C0.142635 7.81879 -0.00246146 7.48422 3.16065e-05 7.13419C0.00252468 6.78467 0.15161 6.45159 0.411388 6.21724L6.94323 0.321131C7.45431 -0.140087 8.24262 -0.099699 8.70384 0.41138C9.16506 0.92246 9.12467 1.71077 8.61359 2.17199L3.09293 7.15514L8.45154 12.1248C8.95614 12.593 8.98605 13.3818 8.51786 13.8864C8.27204 14.1512 7.93847 14.2853 7.6034 14.2853Z" fill="#4F4F4F"/>
</svg>
