<svg width="35" height="33" viewBox="0 0 35 33" fill="none" xmlns="http://www.w3.org/2000/svg">
<path fill-rule="evenodd" clip-rule="evenodd" d="M28.9271 10.968L29.5827 27.1468H24.7376L25.3932 10.968H28.9271ZM8.22519 10.968L8.88082 27.1468H4.03564L4.69128 10.968H8.22519ZM15.1258 10.968L15.7814 27.1468H10.9363L11.592 10.968H15.1258ZM22.0264 10.968L22.682 27.1468H17.8369L18.4925 10.968H22.0264Z" fill="#8D9CA8"/>
<path fill-rule="evenodd" clip-rule="evenodd" d="M3.18554 27.0587H30.4328L31.744 30.2073H1.87427L3.18554 27.0587ZM2.20212 9.15973H31.4162L30.105 12.1684H3.51339L2.20212 9.15973Z" fill="#7A8C98"/>
<path fill-rule="evenodd" clip-rule="evenodd" d="M1.27087 29.1845H32.3477L33.0033 31.2302H0.615234L1.27087 29.1845ZM16.8092 0.0842896L33.0033 8.55244L32.3477 9.99777H1.27087L0.615234 8.55251L16.8092 0.0842896Z" fill="#8D9CA8"/>
<path fill-rule="evenodd" clip-rule="evenodd" d="M16.8092 8.43423C18.4735 8.43423 19.8308 7.07689 19.8308 5.41261C19.8308 3.74833 18.4735 2.39099 16.8092 2.39099C15.1449 2.39099 13.7876 3.7484 13.7876 5.41261C13.7875 7.07689 15.1449 8.43423 16.8092 8.43423Z" fill="#FDB800"/>
<path fill-rule="evenodd" clip-rule="evenodd" d="M16.2622 3.6167C16.2622 3.31469 16.5071 3.06982 16.8091 3.06982C17.1111 3.06982 17.3559 3.31469 17.3559 3.6167V3.6869C17.3949 3.70208 17.4331 3.71924 17.4702 3.73831C17.6385 3.82479 17.7822 3.94797 17.8892 4.09576C18.0661 4.34001 18.0116 4.6814 17.7674 4.85838C17.6206 4.96468 17.4388 4.98744 17.2786 4.93569C17.4425 4.9951 17.5895 5.08991 17.7105 5.21077C17.9233 5.42364 18.0555 5.71779 18.0555 6.04182C18.0555 6.36577 17.9233 6.65992 17.7105 6.87286C17.6089 6.97438 17.4889 7.0575 17.356 7.11677V7.20857C17.356 7.51059 17.1112 7.75545 16.8091 7.75545C16.5071 7.75545 16.2623 7.51059 16.2623 7.20857V7.13837C16.2233 7.12319 16.1852 7.10604 16.148 7.08689C15.9797 7.00049 15.836 6.8773 15.7291 6.72944C15.5521 6.4852 15.6066 6.14381 15.8508 5.96683C15.9974 5.8606 16.179 5.83783 16.339 5.88937C16.1754 5.82997 16.0285 5.73522 15.9078 5.61443C15.6949 5.40156 15.5627 5.10734 15.5627 4.78339C15.5627 4.45943 15.6949 4.16521 15.9078 3.95234C16.0093 3.85083 16.1293 3.76771 16.2622 3.70844V3.6167ZM16.365 5.89847C16.4613 5.9349 16.5485 5.99896 16.6134 6.08864C16.6232 6.10211 16.6336 6.11202 16.6436 6.11715C16.6523 6.12166 16.665 6.12419 16.6814 6.12419H16.8795C16.9016 6.12419 16.922 6.11476 16.9372 6.09958C16.9524 6.0844 16.9618 6.0639 16.9618 6.04188C16.9618 6.0198 16.9524 5.99937 16.9372 5.98419C16.922 5.96901 16.9015 5.95958 16.8795 5.95958H16.7389C16.6082 5.95951 16.4825 5.93805 16.365 5.89847ZM16.8794 4.86576C17.0101 4.86576 17.136 4.8873 17.2536 4.92694C17.1571 4.89051 17.0698 4.82639 17.0047 4.73663C16.9949 4.7231 16.9846 4.71325 16.9746 4.70812C16.9659 4.70368 16.9532 4.70108 16.9368 4.70108H16.7387C16.7167 4.70108 16.6962 4.71052 16.681 4.72569C16.6659 4.74087 16.6564 4.76138 16.6564 4.78339C16.6564 4.8054 16.6659 4.82591 16.681 4.84108C16.6962 4.85626 16.7167 4.86569 16.7387 4.86569L16.8794 4.86576Z" fill="#FFE87A"/>
<path fill-rule="evenodd" clip-rule="evenodd" d="M14.7574 21.3614H33.7289C34.0895 21.3614 34.3845 21.6564 34.3845 22.017V32.2601C34.3845 32.6207 34.0895 32.9156 33.7289 32.9156H14.7574C14.3968 32.9156 14.1018 32.6206 14.1018 32.2601V22.017C14.1018 21.6564 14.3968 21.3614 14.7574 21.3614Z" fill="#2395F0"/>
<path fill-rule="evenodd" clip-rule="evenodd" d="M24.1097 26.4716C23.8077 26.4716 23.5628 26.2268 23.5628 25.9248C23.5628 25.6228 23.8077 25.3779 24.1097 25.3779H31.8961C32.1981 25.3779 32.443 25.6228 32.443 25.9248C32.443 26.2268 32.1981 26.4716 31.8961 26.4716H24.1097ZM16.5901 31.3266C16.2881 31.3266 16.0432 31.0817 16.0432 30.7797C16.0432 30.4777 16.2881 30.2328 16.5901 30.2328H31.8961C32.1981 30.2328 32.443 30.4777 32.443 30.7797C32.443 31.0817 32.1981 31.3266 31.8961 31.3266H16.5901ZM24.1097 28.8991C23.8077 28.8991 23.5628 28.6542 23.5628 28.3522C23.5628 28.0502 23.8077 27.8053 24.1097 27.8053H31.8961C32.1981 27.8053 32.443 28.0502 32.443 28.3522C32.443 28.6542 32.1981 28.8991 31.8961 28.8991H24.1097ZM24.1097 24.0441C23.8077 24.0441 23.5628 23.7993 23.5628 23.4973C23.5628 23.1952 23.8077 22.9504 24.1097 22.9504H31.8961C32.1981 22.9504 32.443 23.1952 32.443 23.4973C32.443 23.7993 32.1981 24.0441 31.8961 24.0441H24.1097Z" fill="#EFF4F7"/>
<path fill-rule="evenodd" clip-rule="evenodd" d="M19.3443 26.038C20.1641 26.038 20.8329 25.3693 20.8329 24.5494C20.8329 23.7296 20.1642 23.0608 19.3443 23.0608C18.5244 23.0608 17.8557 23.7295 17.8557 24.5494C17.8557 25.3693 18.5245 26.038 19.3443 26.038Z" fill="#FFD6BD"/>
<path fill-rule="evenodd" clip-rule="evenodd" d="M16.6178 28.7703C16.8088 27.4385 17.9619 26.4064 19.3443 26.4064C20.7268 26.4064 21.8798 27.4385 22.0708 28.7703C22.0854 28.872 22.058 28.9651 21.9908 29.0427C21.9235 29.1203 21.8352 29.1606 21.7325 29.1606H16.9563C16.8536 29.1606 16.7652 29.1203 16.698 29.0427C16.6307 28.9651 16.6033 28.872 16.6178 28.7703Z" fill="#FFDA2D"/>
</svg>
