<svg width="23" height="23" viewBox="0 0 23 23" fill="none" xmlns="http://www.w3.org/2000/svg">
<path d="M21.125 9.74939C22.0212 9.74939 22.75 9.02058 22.75 8.12439V6.98445C22.75 6.38564 22.4226 5.8372 21.8944 5.55364L11.7601 0.0968906C11.5204 -0.0322969 11.2304 -0.0322969 10.9907 0.0968906L0.855562 5.55364C0.32825 5.8372 0 6.38564 0 6.98445V8.12439C0 9.02058 0.728812 9.74939 1.625 9.74939H2.4375V17.8744H1.625C0.728812 17.8744 0 18.6032 0 19.4994V21.1244C0 22.0206 0.728812 22.7494 1.625 22.7494H21.125C22.0212 22.7494 22.75 22.0206 22.75 21.1244V19.4994C22.75 18.6032 22.0212 17.8744 21.125 17.8744H20.3125V9.74939H21.125ZM1.625 6.98445L11.375 1.73489L21.125 6.98445V8.12439H1.625V6.98445ZM12.1875 17.8744V9.74939H14.625V17.8744H12.1875ZM8.125 17.8744V9.74939H10.5625V17.8744H8.125ZM4.0625 9.74939H6.5V17.8744H4.0625V9.74939ZM21.1258 21.1244H1.625V19.4994H21.125L21.1258 21.1244ZM18.6883 17.8744H16.2508V9.74939H18.6883V17.8744Z" fill="#4F4F4F"/>
</svg>
