<svg width="35" height="35" viewBox="0 0 35 35" fill="none" xmlns="http://www.w3.org/2000/svg">
<path fill-rule="evenodd" clip-rule="evenodd" d="M21.9708 2.68946C21.9708 1.67631 21.0747 0.847656 19.9794 0.847656H3.26586C2.17047 0.847656 1.27441 1.67631 1.27441 2.68946V32.7753C1.27441 33.7885 2.17047 34.6171 3.26586 34.6171H19.9793C21.0747 34.6171 21.9707 33.7885 21.9707 32.7753V2.68946H21.9708Z" fill="#64B5F6"/>
<path fill-rule="evenodd" clip-rule="evenodd" d="M10.1697 3.39307C10.0247 3.39307 9.88557 3.33545 9.78301 3.23289C9.68045 3.13033 9.62283 2.99123 9.62283 2.84619C9.62283 2.70115 9.68045 2.56205 9.78301 2.45949C9.88557 2.35693 10.0247 2.29932 10.1697 2.29932H13.0746C13.2196 2.29932 13.3587 2.35693 13.4613 2.45949C13.5638 2.56205 13.6214 2.70115 13.6214 2.84619C13.6214 2.99123 13.5638 3.13033 13.4613 3.23289C13.3587 3.33545 13.2196 3.39307 13.0746 3.39307H10.1697ZM12.7566 30.5285H10.4878C9.95362 30.5285 9.5166 30.9655 9.5166 31.4997C9.5166 32.0339 9.95362 32.4709 10.4878 32.4709H12.7566C13.2907 32.4709 13.7278 32.0339 13.7278 31.4997C13.7277 30.9655 13.2907 30.5285 12.7566 30.5285Z" fill="#EFF4F7"/>
<path fill-rule="evenodd" clip-rule="evenodd" d="M1.27441 4.84521H21.9707V28.3824H1.27441V4.84521Z" fill="#E6F8FF"/>
<path fill-rule="evenodd" clip-rule="evenodd" d="M7.50436 25.7722C6.84183 25.7722 6.2998 25.2301 6.2998 24.5676V13.4751C6.2998 12.8126 6.84183 12.2705 7.50436 12.2705H26.7257C27.3883 12.2705 27.9303 12.8125 27.9303 13.4751V24.5676C27.9303 25.2301 27.3882 25.7722 26.7257 25.7722H7.50436Z" fill="#004960"/>
<path fill-rule="evenodd" clip-rule="evenodd" d="M6.2998 14.6255V16.4833H27.9303V14.6255H21.9708H6.2998Z" fill="#7ED0ED"/>
<path fill-rule="evenodd" clip-rule="evenodd" d="M8.82659 19.4009H13.9096C14.2009 19.4009 14.4393 19.6392 14.4393 19.9306V22.325C14.4393 22.6164 14.2009 22.8547 13.9096 22.8547H8.82659C8.53524 22.8547 8.29688 22.6164 8.29688 22.325V19.9306C8.29688 19.6392 8.53524 19.4009 8.82659 19.4009Z" fill="#FDB800"/>
<path fill-rule="evenodd" clip-rule="evenodd" d="M9.88322 21.6747H8.29688V20.581H9.88322V19.4009H10.977V22.8548H9.88322V21.6747ZM11.7593 22.8548V19.4009H12.8531V20.581H14.4394V21.6747H12.8531V22.8548H11.7593Z" fill="#FFDA2D"/>
<path fill-rule="evenodd" clip-rule="evenodd" d="M18.834 21.6748C18.6889 21.6748 18.5498 21.6172 18.4473 21.5146C18.3447 21.4121 18.2871 21.273 18.2871 21.1279C18.2871 20.9829 18.3447 20.8438 18.4473 20.7412C18.5498 20.6387 18.6889 20.5811 18.834 20.5811H25.4041C25.5492 20.5811 25.6883 20.6387 25.7908 20.7412C25.8934 20.8438 25.951 20.9829 25.951 21.1279C25.951 21.273 25.8934 21.4121 25.7908 21.5146C25.6883 21.6172 25.5492 21.6748 25.4041 21.6748H18.834ZM18.834 23.4018C18.6889 23.4018 18.5498 23.3441 18.4473 23.2416C18.3447 23.139 18.2871 22.9999 18.2871 22.8549C18.2871 22.7099 18.3447 22.5708 18.4473 22.4682C18.5498 22.3656 18.6889 22.308 18.834 22.308H25.4041C25.5492 22.308 25.6883 22.3656 25.7908 22.4682C25.8934 22.5708 25.951 22.7099 25.951 22.8549C25.951 22.9999 25.8934 23.139 25.7908 23.2416C25.6883 23.3441 25.5492 23.4018 25.4041 23.4018H18.834Z" fill="#EFF4F7"/>
<path fill-rule="evenodd" clip-rule="evenodd" d="M24.9462 1.47656C24.8012 1.47656 24.6621 1.41895 24.5595 1.31639C24.4569 1.21383 24.3993 1.07473 24.3993 0.929688C24.3993 0.784647 24.4569 0.645547 24.5595 0.542988C24.6621 0.44043 24.8012 0.382813 24.9462 0.382812C27.3704 0.382812 29.5652 1.36548 31.1539 2.95415C32.7426 4.54282 33.7252 6.73764 33.7252 9.1618C33.7252 9.30684 33.6676 9.44594 33.5651 9.5485C33.4625 9.65105 33.3234 9.70867 33.1784 9.70867C33.0333 9.70867 32.8942 9.65105 32.7917 9.5485C32.6891 9.44594 32.6315 9.30684 32.6315 9.1618C32.6315 7.03951 31.7713 5.11813 30.3806 3.72743C28.9899 2.3368 27.0685 1.47656 24.9462 1.47656ZM25.2949 7.113C25.0716 7.11273 24.8504 7.15658 24.6441 7.24204C24.4378 7.32751 24.2504 7.45289 24.0927 7.611C23.785 7.91868 23.5947 8.34374 23.5947 8.81316C23.5947 9.28259 23.785 9.70765 24.0927 10.0153C24.4004 10.323 24.8255 10.5133 25.2949 10.5133C25.7643 10.5133 26.1894 10.3229 26.4971 10.0153C26.6552 9.85764 26.7806 9.67025 26.866 9.46394C26.9515 9.25764 26.9953 9.03647 26.9951 8.81316C26.9953 8.58986 26.9515 8.36869 26.866 8.16239C26.7806 7.95608 26.6552 7.76869 26.4971 7.611C26.3394 7.45289 26.152 7.3275 25.9457 7.24203C25.7394 7.15657 25.5182 7.11272 25.2949 7.113ZM25.7238 8.38435C25.6141 8.27463 25.4624 8.20675 25.2949 8.20675C25.1273 8.20675 24.9757 8.27463 24.866 8.38435C24.7563 8.49406 24.6884 8.64568 24.6884 8.81323C24.6884 8.98078 24.7563 9.1324 24.866 9.24212C24.9757 9.35184 25.1273 9.41972 25.2949 9.41972C25.4624 9.41972 25.6141 9.35184 25.7238 9.24212C25.8335 9.1324 25.9014 8.98078 25.9014 8.81323C25.9014 8.64568 25.8335 8.49399 25.7238 8.38435ZM24.9462 5.86708C25.8561 5.86708 26.6798 6.23588 27.276 6.83211C27.8722 7.42827 28.241 8.25207 28.241 9.16193C28.241 9.30697 28.2987 9.44607 28.4012 9.54863C28.5038 9.65119 28.6429 9.70881 28.7879 9.70881C28.933 9.70881 29.0721 9.65119 29.1746 9.54863C29.2772 9.44607 29.3348 9.30697 29.3348 9.16193C29.3348 7.95013 28.8436 6.85296 28.0494 6.05883C27.2552 5.26463 26.1581 4.7734 24.9463 4.7734C24.8023 4.775 24.6648 4.83331 24.5635 4.93568C24.4623 5.03806 24.4055 5.17622 24.4055 5.32021C24.4055 5.46419 24.4622 5.60236 24.5635 5.70475C24.6647 5.80713 24.8022 5.86546 24.9462 5.86708ZM24.9462 3.67186C26.4623 3.67186 27.8349 4.28634 28.8283 5.2798C29.8218 6.27327 30.4363 7.64579 30.4363 9.16186C30.4363 9.3069 30.4939 9.446 30.5964 9.54856C30.699 9.65112 30.8381 9.70874 30.9831 9.70874C31.1282 9.70874 31.2673 9.65112 31.3698 9.54856C31.4724 9.446 31.53 9.3069 31.53 9.16186C31.53 7.34385 30.793 5.69789 29.6016 4.50645C28.4102 3.31502 26.7642 2.57804 24.9462 2.57804C24.8011 2.57804 24.662 2.63566 24.5595 2.73822C24.4569 2.84079 24.3993 2.9799 24.3993 3.12495C24.3993 3.27 24.4569 3.4091 24.5595 3.51167C24.662 3.61423 24.8011 3.67186 24.9462 3.67186Z" fill="#FFDA2D"/>
</svg>
