<svg width="20" height="18" viewBox="0 0 20 18" fill="none" xmlns="http://www.w3.org/2000/svg">
<path d="M19.1698 4.71295C18.5333 3.64135 17.6391 2.62202 17.0354 2.08725C15.7174 0.919559 14.618 0.947997 14.0799 1.06893C13.8538 1.11975 13.6461 1.20354 13.4634 1.3153C12.5244 0.618466 11.382 0.2771 9.99998 0.2771C8.61795 0.2771 7.47557 0.618466 6.53659 1.31534C6.35378 1.20358 6.1462 1.11975 5.92011 1.06897C5.3821 0.948075 4.28253 0.919599 2.96465 2.08725C2.36086 2.62206 1.46672 3.64139 0.830157 4.71299C-0.0316379 6.16381 -0.223591 7.33744 0.259611 8.20138C0.84961 9.25618 1.74453 9.52611 2.46699 9.59267C2.28941 10.2823 2.17976 11.0201 2.17976 11.9393C2.17976 13.1578 2.45711 14.2061 3.00418 15.0551C3.48507 15.8015 4.17742 16.3992 5.06195 16.8316C6.69624 17.6304 8.66292 17.7228 10 17.7228C11.3371 17.7228 13.3038 17.6304 14.9381 16.8316C15.8226 16.3992 16.515 15.8015 16.9959 15.0551C17.5429 14.2061 17.8203 13.1578 17.8203 11.9393C17.8203 11.0201 17.7106 10.2824 17.5331 9.59267C18.2555 9.52607 19.1505 9.25611 19.7404 8.20134C20.2236 7.33748 20.0316 6.16381 19.1698 4.71295ZM2.84679 8.38693C2.20742 8.37013 1.6875 8.24634 1.32809 7.6038C1.08426 7.16783 1.28641 6.34205 1.88277 5.33811C2.44875 4.38526 3.26113 3.46002 3.77644 3.0035C4.62745 2.24944 5.26542 2.20792 5.56558 2.24811C4.67234 3.33702 4.12484 4.75217 3.66699 6.12807C3.47738 6.69783 3.29464 7.18427 3.11785 7.65478C3.02332 7.9065 2.93238 8.14861 2.84679 8.38693ZM9.20135 12.4006C8.88467 12.0841 8.71893 11.7518 8.71893 11.5872C8.71893 11.4402 8.74413 11.4297 8.83776 11.3902C9.10467 11.2779 9.62889 11.265 9.99998 11.265C10.3711 11.265 10.8953 11.2779 11.1622 11.3902C11.2558 11.4296 11.281 11.4402 11.281 11.5872C11.281 11.7518 11.1153 12.084 10.7986 12.4006C10.4872 12.7118 10.1547 12.8798 9.99994 12.8798C9.84518 12.8798 9.5128 12.7118 9.20135 12.4006ZM14.4005 15.7318C13.461 16.1909 12.2173 16.44 10.6121 16.4893V13.9818C11.0927 13.7963 11.4841 13.4463 11.664 13.2665C11.917 13.0137 12.5053 12.344 12.5053 11.5872C12.5053 10.9681 12.1969 10.4974 11.637 10.2619C11.2638 10.1049 10.7895 10.0408 10 10.0408C9.21057 10.0408 8.73627 10.1049 8.36303 10.2619C7.80315 10.4974 7.49475 10.9681 7.49475 11.5872C7.49475 12.344 8.08307 13.0137 8.33596 13.2665C8.51588 13.4463 8.90733 13.7963 9.38791 13.9818V16.4893C7.78268 16.44 6.53901 16.191 5.59952 15.7318C4.1221 15.0096 3.4039 13.7691 3.4039 11.9393C3.4039 10.374 3.7646 9.414 4.26378 8.08529C4.43617 7.6265 4.63148 7.1065 4.82847 6.51459C5.9105 3.26319 7.05511 1.50128 9.99998 1.50128C12.9449 1.50128 14.0895 3.26323 15.1715 6.51459C15.3684 7.10654 15.5638 7.6265 15.7361 8.08529C16.2353 9.414 16.596 10.374 16.596 11.9393C16.5961 13.7691 15.8779 15.0096 14.4005 15.7318ZM18.672 7.6038C18.3125 8.24642 17.7926 8.37009 17.1532 8.38693C17.0676 8.14857 16.9767 7.9065 16.8822 7.65478C16.7054 7.18431 16.5227 6.69783 16.3331 6.12807C15.8752 4.75217 15.3277 3.33702 14.4345 2.24811C14.7346 2.20799 15.3726 2.24944 16.2237 3.00354C16.739 3.45998 17.5513 4.38518 18.1173 5.33803C18.7136 6.34205 18.9158 7.16787 18.672 7.6038Z" fill="#ADADAD"/>
<path d="M7.96295 6.78345C7.5201 6.78345 7.15967 7.14755 7.15967 7.59712C7.15967 8.04665 7.52006 8.41106 7.96295 8.41106C8.40638 8.41106 8.76673 8.04661 8.76673 7.59712C8.76673 7.14755 8.40638 6.78345 7.96295 6.78345Z" fill="#ADADAD"/>
<path d="M12.0311 6.7771C11.5839 6.7771 11.2212 7.14425 11.2212 7.59714C11.2212 8.05003 11.5839 8.41717 12.0311 8.41717C12.4777 8.41717 12.8404 8.05003 12.8404 7.59714C12.8404 7.14425 12.4777 6.7771 12.0311 6.7771Z" fill="#ADADAD"/>
</svg>
