<svg width="19" height="19" viewBox="0 0 19 19" fill="none" xmlns="http://www.w3.org/2000/svg">
<g clip-path="url(#clip0_2262_133)">
<path d="M4.61328 6.18311H15.1133V4.68311H4.61328V6.18311ZM4.61328 16.6831C4.20078 16.6831 3.84766 16.5362 3.55391 16.2425C3.26016 15.9487 3.11328 15.5956 3.11328 15.1831V4.68311C3.11328 4.27061 3.26016 3.91748 3.55391 3.62373C3.84766 3.32998 4.20078 3.18311 4.61328 3.18311H5.36328V1.68311H6.86328V3.18311H12.8633V1.68311H14.3633V3.18311H15.1133C15.5258 3.18311 15.8789 3.32998 16.1727 3.62373C16.4664 3.91748 16.6133 4.27061 16.6133 4.68311V8.93936C16.3758 8.82686 16.132 8.73311 15.882 8.65811C15.632 8.58311 15.3758 8.52686 15.1133 8.48936V7.68311H4.61328V15.1831H9.33828C9.42578 15.4581 9.52891 15.7206 9.64766 15.9706C9.76641 16.2206 9.90703 16.4581 10.0695 16.6831H4.61328ZM14.3633 17.4331C13.3258 17.4331 12.4414 17.0675 11.7102 16.3362C10.9789 15.605 10.6133 14.7206 10.6133 13.6831C10.6133 12.6456 10.9789 11.7612 11.7102 11.03C12.4414 10.2987 13.3258 9.93311 14.3633 9.93311C15.4008 9.93311 16.2852 10.2987 17.0164 11.03C17.7477 11.7612 18.1133 12.6456 18.1133 13.6831C18.1133 14.7206 17.7477 15.605 17.0164 16.3362C16.2852 17.0675 15.4008 17.4331 14.3633 17.4331ZM15.6195 15.4644L16.1445 14.9394L14.7383 13.5331V11.4331H13.9883V13.8331L15.6195 15.4644Z" fill="#8A8A8A"/>
</g>
<defs>
<clipPath id="clip0_2262_133">
<rect width="18" height="18" fill="white" transform="translate(0.863281 0.183105)"/>
</clipPath>
</defs>
</svg>
