<svg width="18" height="22" viewBox="0 0 18 22" fill="none" xmlns="http://www.w3.org/2000/svg">
<path d="M17.2942 9.40626C17.2942 10.362 18.2268 11.4527 17.9479 12.3143C17.6566 13.2061 16.2514 13.54 15.7114 14.2826C15.6634 14.3519 15.619 14.4229 15.5799 14.5011C15.1785 15.2845 15.2122 16.5209 14.5283 17.0183C13.7857 17.5584 12.457 17.0094 11.5634 17.299C11.3644 17.3629 11.1744 17.4784 10.9861 17.6152C10.3483 18.0806 9.73545 18.8125 9 18.8125C8.26455 18.8125 7.6499 18.0789 7.01394 17.6152C6.82563 17.4784 6.63378 17.3629 6.43659 17.299C5.54482 17.0077 4.21426 17.5584 3.47171 17.0183C2.78778 16.5227 2.82153 15.2845 2.42006 14.5011C2.38097 14.4229 2.33656 14.3519 2.2886 14.2826C1.74856 13.54 0.341618 13.2061 0.0520576 12.3143C-0.226844 11.4527 0.705788 10.362 0.705788 9.40626C0.705788 8.45054 -0.226844 7.3598 0.0520576 6.49823C0.343394 5.60645 1.74856 5.27248 2.2886 4.52993C2.83574 3.77849 2.72027 2.34135 3.47171 1.79421C4.21426 1.25417 5.54304 1.80309 6.43659 1.51353C7.29461 1.23463 8.0425 0 8.99822 0C9.95395 0 10.7018 1.23463 11.5634 1.51531C12.4552 1.80664 13.7857 1.25594 14.5283 1.79598C15.2797 2.34135 15.166 3.77849 15.7114 4.53171C16.2514 5.27426 17.6584 5.60823 17.9479 6.5C18.2268 7.3598 17.2942 8.45054 17.2942 9.40626Z" fill="#FFE36E"/>
<path d="M8.99874 15.86C12.5631 15.86 15.4526 12.9706 15.4526 9.40622C15.4526 5.84188 12.5631 2.95241 8.99874 2.95241C5.43439 2.95241 2.54492 5.84188 2.54492 9.40622C2.54492 12.9706 5.43439 15.86 8.99874 15.86Z" fill="#FFAA39"/>
<path d="M9.50019 5.8427L10.2303 7.32248C10.312 7.48769 10.4701 7.60315 10.6513 7.6298L12.2856 7.86785C12.7457 7.93535 12.9287 8.49848 12.5965 8.82357L11.4152 9.97648C11.2837 10.1044 11.2233 10.2909 11.2535 10.4721L11.5324 12.0993C11.6106 12.5577 11.131 12.9058 10.7188 12.6891L9.25859 11.9217C9.09516 11.8364 8.89975 11.8364 8.73809 11.9217L7.27786 12.6891C6.8675 12.9058 6.38608 12.5559 6.46425 12.0993L6.74315 10.4721C6.77512 10.2909 6.71472 10.1044 6.58149 9.97648L5.40016 8.82357C5.06796 8.50026 5.25093 7.93535 5.71103 7.86785L7.34536 7.6298C7.52833 7.60315 7.68466 7.48946 7.76638 7.32248L8.4965 5.8427C8.70079 5.42524 9.29412 5.42524 9.50019 5.8427Z" fill="#FFFEEB"/>
<path d="M7.01237 17.6152L5.32652 21.9391L3.10597 20.1858L0.283203 19.9744L2.41671 14.5011C2.81819 15.2845 2.78443 16.521 3.46837 17.0184C4.21092 17.5584 5.5397 17.0095 6.43325 17.299C6.63221 17.363 6.82229 17.4785 7.01237 17.6152Z" fill="#3980E5"/>
<path d="M17.7116 19.9744L14.8888 20.1858L12.6683 21.9391L10.9824 17.6153C11.1707 17.4785 11.3626 17.363 11.5598 17.2991C12.4515 17.0077 13.7821 17.5584 14.5246 17.0184C15.2086 16.5228 15.1748 15.2846 15.5763 14.5012L17.7116 19.9744Z" fill="#3980E5"/>
</svg>
