<svg width="29" height="28" viewBox="0 0 29 28" fill="none" xmlns="http://www.w3.org/2000/svg">
<path d="M16.2897 19.2386L24.2763 25.2845C23.9843 25.7364 23.6393 26.1533 23.2739 26.5613C22.765 27.1309 22.1008 27.4576 21.3627 27.5588C20.6829 27.6543 19.9765 27.7173 19.2997 27.6337C17.1158 27.3541 15.0921 26.5613 13.2171 25.4429C10.9578 24.0941 9.00551 22.4718 7.23483 20.7086C5.46416 18.9454 3.83342 16.9998 2.47477 14.7466C1.34829 12.8762 0.546801 10.8557 0.257663 8.67355C0.171211 7.99697 0.231352 7.29032 0.323587 6.61026C0.421893 5.87181 0.745727 5.20564 1.31301 4.69473C1.71954 4.32753 2.13503 3.98056 2.58551 3.6868L8.66577 11.6476C8.42059 11.865 8.16354 12.0752 7.89667 12.2941C7.82631 12.3518 7.7683 12.4231 7.7261 12.5036C7.68389 12.5842 7.65836 12.6725 7.65102 12.7632C7.64368 12.8538 7.65468 12.9451 7.68337 13.0314C7.71207 13.1177 7.75786 13.1974 7.81802 13.2656C9.33021 14.9721 12.9621 18.5886 14.6746 20.0933C14.7431 20.1532 14.823 20.1987 14.9095 20.2271C14.996 20.2554 15.0873 20.266 15.178 20.2583C15.2687 20.2505 15.3569 20.2246 15.4373 20.182C15.5177 20.1394 15.5888 20.081 15.6461 20.0103C15.8638 19.7426 16.0729 19.4847 16.2895 19.2383L16.2897 19.2386Z" fill="#C3C9FB"/>
<path d="M23.8291 25.9047C23.6557 26.1302 23.4677 26.3471 23.274 26.561C22.7651 27.1306 22.1001 27.4573 21.3628 27.5585C20.6833 27.654 19.9778 27.7176 19.3013 27.6337C17.1154 27.3533 15.0914 26.561 13.2178 25.4421C10.9596 24.0947 9.00508 22.4726 7.23556 20.7089C5.46315 18.9451 3.83242 16.9993 2.47636 14.7469C1.34873 12.8762 0.547817 10.8551 0.25868 8.67499C0.171938 7.99552 0.232657 7.29002 0.325181 6.61055C0.423488 5.87036 0.747322 5.20534 1.31403 4.69357C1.53088 4.49696 1.75352 4.30613 1.98194 4.12686C1.73906 4.51141 1.58871 4.94512 1.52799 5.40485C1.43547 6.08432 1.37764 6.79271 1.46438 7.46929C1.75352 9.65227 2.55443 11.6705 3.67917 13.5412C5.03812 15.7964 6.66885 17.7394 8.44126 19.5032C10.2108 21.2669 12.1625 22.889 14.4235 24.2393C16.2971 25.3553 18.3211 26.1504 20.5041 26.428C21.1806 26.5119 21.889 26.4483 22.5685 26.3528C23.0225 26.2892 23.4504 26.1447 23.8291 25.9047Z" fill="#8693E2"/>
<path d="M6.36901 3.64053C7.46513 5.06539 8.53783 6.5079 9.61053 7.95011C10.4334 9.06214 10.1547 10.2349 9.04035 11.307C8.91775 11.4244 8.79458 11.5357 8.6662 11.6476L2.58594 3.68679C3.05145 3.37799 3.55166 3.1221 4.10824 2.95672C5.00746 2.68811 5.79594 2.89455 6.3693 3.64053H6.36901Z" fill="#5B5476"/>
<path d="M9.18116 11.1645C9.1349 11.2136 9.08863 11.2599 9.03948 11.3061C8.91804 11.4247 8.79371 11.5346 8.66649 11.6473L2.58594 3.68737C3.05145 3.37799 3.55166 3.12355 4.10969 2.95585C4.76892 2.75924 5.36744 2.81707 5.86765 3.15825C5.64513 3.16694 5.42469 3.20455 5.21188 3.27014C4.40143 3.51822 4.10622 4.51835 4.6206 5.19204L9.18116 11.1645Z" fill="#3F3B5B"/>
<path d="M24.3067 21.5014C22.8772 20.4114 21.43 19.3447 19.9832 18.2784C18.8677 17.4601 17.6961 17.7441 16.6292 18.8627C16.5121 18.9862 16.4008 19.1094 16.29 19.2386L24.2766 25.2845C24.5831 24.8178 24.8372 24.3164 25 23.7593C25.2649 22.8589 25.0549 22.0716 24.3067 21.5014Z" fill="#5B5476"/>
<path d="M24.7801 24.3664C24.6384 24.6903 24.4678 24.9939 24.277 25.2859L16.291 19.24C16.4009 19.1099 16.5108 18.9856 16.6293 18.8642C17.4447 18.0083 18.3208 17.6411 19.1853 17.8811C18.8239 18.0575 18.4682 18.3322 18.1241 18.6936C18.123 18.6948 18.1218 18.6961 18.1207 18.6973C17.9348 18.8922 17.9645 19.2068 18.1791 19.3693L24.7801 24.3664Z" fill="#3F3B5B"/>
<path d="M28.0158 1.64232V11.3718C28.0158 12.1582 27.3768 12.7972 26.5904 12.7972H18.2459L16.9939 15.0727C16.8638 15.3069 16.5284 15.3069 16.3983 15.0727L15.1463 12.7972H13.9811C13.1947 12.7972 12.5557 12.1582 12.5557 11.3718V1.64232C12.5557 0.852975 13.1947 0.216873 13.9811 0.216873H26.5904C27.3768 0.216873 28.0158 0.852975 28.0158 1.64232Z" fill="#FF84A0"/>
<path d="M28.0158 8.60764V11.3718C28.0158 12.1582 27.3768 12.7972 26.5904 12.7972H18.2459L16.9939 15.0727C16.8638 15.3069 16.5284 15.3069 16.3983 15.0727L15.1463 12.7972H13.9811C13.1947 12.7972 12.5557 12.1582 12.5557 11.3718V1.64232C12.5557 0.852975 13.1947 0.216873 13.9811 0.216873H17.6763C16.034 1.17681 15.0162 2.51262 15.0162 3.98722C15.0162 6.91329 19.0121 9.28422 23.9448 9.28422C25.5292 9.28422 26.7263 9.03845 28.0158 8.60764Z" fill="#F76189"/>
<path d="M23.9557 6.58395V10.4159C23.9557 10.6689 23.7522 10.8724 23.4992 10.8724H17.0708C17.0109 10.8724 16.9515 10.8606 16.8961 10.8377C16.8407 10.8147 16.7904 10.7811 16.748 10.7387C16.7056 10.6963 16.672 10.646 16.649 10.5906C16.6261 10.5352 16.6143 10.4758 16.6143 10.4159V6.58395L20.2851 2.88387L23.9557 6.58395Z" fill="white"/>
<path d="M23.9557 6.58395V10.4159C23.9557 10.6689 23.7522 10.8724 23.4992 10.8724H17.0708C17.0109 10.8724 16.9515 10.8606 16.8961 10.8377C16.8407 10.8147 16.7904 10.7811 16.748 10.7387C16.7056 10.6963 16.672 10.646 16.649 10.5906C16.6261 10.5352 16.6143 10.4758 16.6143 10.4159V9.38164C17.1789 9.71907 17.8191 9.90787 18.4954 9.90787C20.7801 9.90787 22.6321 8.31473 22.6321 5.66912C22.6321 5.5205 22.6263 5.37565 22.6136 5.23079L23.9557 6.58395Z" fill="#DDDDDD"/>
<path d="M24.3724 6.79847C24.3118 6.79857 24.2519 6.78663 24.196 6.76335C24.1401 6.74008 24.0894 6.70592 24.0468 6.66287L20.2854 2.87083L16.5237 6.66287C16.4375 6.74613 16.3222 6.79232 16.2023 6.79152C16.0825 6.79072 15.9677 6.74301 15.8826 6.6586C15.7975 6.5742 15.7489 6.45982 15.7471 6.33998C15.7454 6.22014 15.7906 6.10438 15.8732 6.01751L19.9599 1.89731C20.1322 1.72383 20.4387 1.72383 20.611 1.89731L24.6977 6.01751C24.7612 6.0818 24.8043 6.16344 24.8216 6.25217C24.8389 6.34091 24.8296 6.43277 24.7949 6.51622C24.7601 6.59967 24.7014 6.67099 24.6263 6.72121C24.5511 6.77143 24.4628 6.79831 24.3724 6.79847Z" fill="#3F3B5B"/>
<path d="M24.7205 6.63714C24.715 6.62789 24.706 6.62066 24.6985 6.61112L20.6116 2.49178C20.4392 2.31743 20.133 2.31743 19.961 2.49178L15.8735 6.61141C15.8662 6.62066 15.857 6.62789 15.8498 6.63714C15.7752 6.54971 15.7362 6.43741 15.7406 6.32256C15.745 6.20771 15.7924 6.09871 15.8735 6.01723L19.9604 1.89731C20.1327 1.72325 20.4389 1.72325 20.6113 1.89731L24.6988 6.01752C24.8677 6.18811 24.8746 6.45556 24.7205 6.63714Z" fill="#3F3B5B"/>
<path d="M21.6818 8.00709V10.8724H18.8916V8.00709C18.8916 7.74976 19.0998 7.54158 19.3542 7.54158H21.2163C21.4736 7.54158 21.6818 7.74976 21.6818 8.00709Z" fill="#5B5476"/>
<path d="M21.6818 8.49571V10.8724H18.8916V9.89225C20.0135 9.79683 21.0023 9.31108 21.6818 8.49571Z" fill="#3F3B5B"/>
<path d="M21.6818 11.0893H18.8917C18.8341 11.0893 18.779 11.0664 18.7383 11.0258C18.6977 10.9851 18.6748 10.9299 18.6748 10.8724V8.00707C18.6747 7.82655 18.7461 7.65334 18.8735 7.52542C19.0008 7.3975 19.1738 7.32532 19.3543 7.32471H21.2163C21.3972 7.32494 21.5707 7.3969 21.6986 7.52482C21.8265 7.65274 21.8985 7.82617 21.8987 8.00707V10.8724C21.8987 10.9299 21.8758 10.9851 21.8352 11.0258C21.7945 11.0664 21.7393 11.0893 21.6818 11.0893ZM19.1085 10.6556H21.465V8.00707C21.4649 7.94115 21.4387 7.87794 21.3921 7.83133C21.3454 7.78471 21.2822 7.75849 21.2163 7.75841H19.3543C19.2887 7.75887 19.2261 7.78531 19.18 7.83192C19.1339 7.87854 19.1082 7.94153 19.1085 8.00707V10.6556Z" fill="#0F0F0F"/>
<path d="M20.2854 6.26416C20.7245 6.26416 21.0805 5.90817 21.0805 5.46903C21.0805 5.0299 20.7245 4.6739 20.2854 4.6739C19.8462 4.6739 19.4902 5.0299 19.4902 5.46903C19.4902 5.90817 19.8462 6.26416 20.2854 6.26416Z" fill="#FFD9B0"/>
<path d="M21.0799 5.46844C21.0803 5.66087 21.0108 5.84691 20.8845 5.99205C20.7581 6.13718 20.5834 6.23157 20.3927 6.2577C20.2021 6.28382 20.0084 6.23992 19.8477 6.13413C19.6869 6.02834 19.57 5.86784 19.5186 5.6824C19.6553 5.76224 19.8129 5.79939 19.9709 5.78907C20.1289 5.77876 20.2803 5.72144 20.4055 5.62448C20.5308 5.52753 20.6242 5.39536 20.6737 5.24493C20.7233 5.09451 20.7268 4.93271 20.6838 4.78029C20.9209 4.91907 21.0799 5.17352 21.0799 5.46844Z" fill="#EDB57E"/>
<path d="M20.2854 6.48099C19.7274 6.48099 19.2734 6.02705 19.2734 5.46901C19.2734 4.91098 19.7274 4.45703 20.2854 4.45703C20.8435 4.45703 21.2974 4.91098 21.2974 5.46901C21.2974 6.02705 20.8435 6.48099 20.2854 6.48099ZM20.2854 4.89074C19.9665 4.89074 19.7071 5.15038 19.7071 5.46901C19.7071 5.78764 19.9665 6.04729 20.2854 6.04729C20.6043 6.04729 20.8637 5.78793 20.8637 5.46901C20.8637 5.15009 20.6043 4.89074 20.2854 4.89074ZM26.3825 14.1278H22.6598C22.6023 14.1278 22.5471 14.105 22.5065 14.0643C22.4658 14.0236 22.443 13.9685 22.443 13.911C22.443 13.8534 22.4658 13.7983 22.5065 13.7576C22.5471 13.7169 22.6023 13.6941 22.6598 13.6941H26.3825C26.44 13.6941 26.4951 13.7169 26.5358 13.7576C26.5765 13.7983 26.5993 13.8534 26.5993 13.911C26.5993 13.9685 26.5765 14.0236 26.5358 14.0643C26.4951 14.105 26.44 14.1278 26.3825 14.1278ZM21.7924 14.1278H21.3948C21.3373 14.1278 21.2822 14.105 21.2415 14.0643C21.2008 14.0236 21.178 13.9685 21.178 13.911C21.178 13.8534 21.2008 13.7983 21.2415 13.7576C21.2822 13.7169 21.3373 13.6941 21.3948 13.6941H21.7924C21.8499 13.6941 21.9051 13.7169 21.9457 13.7576C21.9864 13.7983 22.0093 13.8534 22.0093 13.911C22.0093 13.9685 21.9864 14.0236 21.9457 14.0643C21.9051 14.105 21.8499 14.1278 21.7924 14.1278Z" fill="#0F0F0F"/>
<path d="M1.27637 24.548C1.74968 24.4507 2.18383 24.2161 2.52457 23.8735C2.86626 23.5326 3.09989 23.0985 3.19624 22.6256C3.19807 22.6135 3.20415 22.6026 3.21338 22.5946C3.22261 22.5867 3.23438 22.5823 3.24655 22.5823C3.25872 22.5823 3.27049 22.5867 3.27972 22.5946C3.28895 22.6026 3.29503 22.6135 3.29686 22.6256C3.39322 23.0985 3.62685 23.5326 3.96852 23.8735C4.30927 24.2161 4.74342 24.4507 5.21673 24.548C5.22857 24.5501 5.23932 24.5562 5.24707 24.5654C5.25482 24.5746 5.25907 24.5862 5.25907 24.5982C5.25907 24.6102 5.25482 24.6219 5.24707 24.631C5.23932 24.6402 5.22857 24.6464 5.21673 24.6484C4.74421 24.7469 4.31077 24.9814 3.9697 25.3229C3.62862 25.6644 3.39476 26.0982 3.29686 26.5709C3.29503 26.5829 3.28895 26.5939 3.27972 26.6018C3.27049 26.6097 3.25872 26.6141 3.24655 26.6141C3.23438 26.6141 3.22261 26.6097 3.21338 26.6018C3.20415 26.5939 3.19807 26.5829 3.19624 26.5709C3.1 26.0972 2.86533 25.6628 2.52197 25.3226C2.18249 24.9798 1.74906 24.7452 1.27637 24.6484" fill="#FF84A0"/>
<path d="M5.21874 24.6472C4.74555 24.7454 4.31146 24.98 3.97 25.322C3.62853 25.6639 3.39463 26.0984 3.29713 26.5717C3.29479 26.5834 3.28848 26.5939 3.27928 26.6014C3.27009 26.6089 3.25857 26.613 3.24668 26.613C3.23479 26.613 3.22327 26.6089 3.21407 26.6014C3.20488 26.5939 3.19857 26.5834 3.19622 26.5717C3.10611 26.1208 2.88972 25.7048 2.57227 25.3721C2.94011 25.3046 3.27405 25.1139 3.51921 24.8315C3.76438 24.5491 3.9062 24.1917 3.92138 23.818C3.93439 23.8376 3.95405 23.857 3.97024 23.8732C4.31086 24.2159 4.74526 24.4501 5.21874 24.5463C5.27367 24.5593 5.27367 24.6374 5.21874 24.6472Z" fill="#F76189"/>
<path d="M25.5501 19.1686C25.2772 19.1688 25.0155 19.0606 24.8224 18.8678C24.6293 18.675 24.5207 18.4133 24.5205 18.1405C24.5203 17.8676 24.6285 17.6058 24.8214 17.4127C25.0142 17.2196 25.2758 17.111 25.5487 17.1108C25.6838 17.1107 25.8176 17.1373 25.9425 17.1889C26.0673 17.2405 26.1808 17.3162 26.2764 17.4117C26.372 17.5072 26.4479 17.6205 26.4997 17.7453C26.5515 17.8701 26.5782 18.0039 26.5783 18.139C26.5784 18.2741 26.5519 18.4079 26.5003 18.5328C26.4486 18.6577 26.3729 18.7712 26.2775 18.8668C26.182 18.9624 26.0686 19.0382 25.9438 19.09C25.819 19.1418 25.6852 19.1685 25.5501 19.1686Z" fill="#AFF2B6"/>
<path d="M25.5502 19.1686C25.3384 19.1683 25.1319 19.1028 24.9585 18.9811C24.7851 18.8594 24.6534 18.6874 24.5811 18.4883C24.7626 18.599 24.9739 18.6508 25.1861 18.6366C25.3982 18.6224 25.6008 18.543 25.766 18.4091C25.9313 18.2753 26.051 18.0936 26.1089 17.889C26.1668 17.6845 26.16 17.467 26.0895 17.2664C26.2386 17.358 26.3618 17.4863 26.4473 17.639C26.5327 17.7917 26.5777 17.9637 26.5778 18.1387C26.5778 18.4115 26.4696 18.6731 26.277 18.8662C26.0844 19.0592 25.823 19.168 25.5502 19.1686Z" fill="#7FD685"/>
<path d="M8.44348 2.79536C8.30692 2.79775 8.17124 2.77292 8.04437 2.72233C7.9175 2.67174 7.80197 2.5964 7.70452 2.5007C7.60706 2.405 7.52964 2.29085 7.47675 2.16492C7.42387 2.03899 7.39658 1.90379 7.39648 1.7672C7.39639 1.63062 7.42348 1.49538 7.47619 1.36937C7.5289 1.24337 7.60617 1.12912 7.70349 1.03328C7.8008 0.937443 7.91623 0.861939 8.04303 0.81117C8.16983 0.760401 8.30547 0.735383 8.44203 0.737574C8.71193 0.741905 8.96932 0.852114 9.15873 1.04444C9.34813 1.23677 9.45437 1.49583 9.45456 1.76576C9.45475 2.03569 9.34887 2.29489 9.15974 2.48749C8.97061 2.68008 8.71337 2.79065 8.44348 2.79536Z" fill="#DABCBC"/>
<path d="M8.44311 2.79536C8.23129 2.79507 8.02467 2.72968 7.85126 2.60803C7.67785 2.48639 7.54602 2.31438 7.47363 2.11531C7.65519 2.22598 7.86652 2.27777 8.07867 2.2636C8.29082 2.24943 8.49339 2.16998 8.65861 2.03614C8.82383 1.90231 8.9436 1.72065 9.00151 1.51606C9.05942 1.31148 9.05262 1.09399 8.98206 0.893417C9.13119 0.984957 9.25439 1.11316 9.33993 1.26581C9.42547 1.41846 9.47049 1.59047 9.4707 1.76546C9.4707 2.0382 9.36251 2.29981 9.16987 2.49289C8.97722 2.68597 8.71586 2.79475 8.44311 2.79536Z" fill="#BC9595"/>
</svg>
