<svg width="15" height="20" viewBox="0 0 15 20" fill="none" xmlns="http://www.w3.org/2000/svg">
<path d="M13.1416 3.83549L11.2325 4.56149L9.80956 2.66787V2.37949C9.80956 1.23044 8.87771 0.298584 7.72856 0.298584H6.83927C6.15002 0.298584 5.54274 0.638115 5.16391 1.15529L2.54736 2.48129C2.34491 2.58429 2.18177 2.75104 2.08314 2.95575L0.566643 6.11232C0.319776 6.62713 0.536726 7.2445 1.05129 7.49207C1.19475 7.56104 1.3477 7.59417 1.49764 7.59417C1.88285 7.59417 2.25255 7.37813 2.43035 7.00788L3.79509 4.16699L4.75872 3.67888V9.89238L5.00714 12.9796L0.715978 15.2992C0.0530807 15.6577 -0.194188 16.4854 0.164668 17.1484C0.410632 17.6051 0.880925 17.8642 1.36517 17.8642C1.58513 17.8642 1.80715 17.8113 2.01306 17.6999L7.11219 14.9434C7.60086 14.6793 7.88121 14.1452 7.81997 13.5932L7.58886 11.502L9.06821 14.1657V18.6358C9.06821 19.3891 9.6798 20.0001 10.4331 20.0001C11.1865 20.0001 11.7975 19.3892 11.7975 18.6358V13.812C11.7975 13.5802 11.7379 13.3521 11.6255 13.1495L9.80956 9.89228V6.10855L10.0469 6.42469C10.2466 6.69043 10.5547 6.83776 10.873 6.83776C10.9968 6.83776 11.121 6.81597 11.2406 6.77039L13.876 5.76782C14.4099 5.56467 14.6781 4.96753 14.4744 4.43424C14.2721 3.90095 13.6758 3.63084 13.1416 3.83549Z" fill="black"/>
</svg>
