<svg width="19" height="19" viewBox="0 0 19 19" fill="none" xmlns="http://www.w3.org/2000/svg">
<path d="M12.3383 12.7081L13.3883 11.6581L10.6133 8.88311V5.43311H9.11328V9.48311L12.3383 12.7081ZM9.86328 16.6831C8.82578 16.6831 7.85078 16.4862 6.93828 16.0925C6.02578 15.6987 5.23203 15.1644 4.55703 14.4894C3.88203 13.8144 3.34766 13.0206 2.95391 12.1081C2.56016 11.1956 2.36328 10.2206 2.36328 9.1831C2.36328 8.14561 2.56016 7.17061 2.95391 6.25811C3.34766 5.34561 3.88203 4.55186 4.55703 3.87686C5.23203 3.20186 6.02578 2.66748 6.93828 2.27373C7.85078 1.87998 8.82578 1.68311 9.86328 1.68311C10.9008 1.68311 11.8758 1.87998 12.7883 2.27373C13.7008 2.66748 14.4945 3.20186 15.1695 3.87686C15.8445 4.55186 16.3789 5.34561 16.7727 6.25811C17.1664 7.17061 17.3633 8.14561 17.3633 9.1831C17.3633 10.2206 17.1664 11.1956 16.7727 12.1081C16.3789 13.0206 15.8445 13.8144 15.1695 14.4894C14.4945 15.1644 13.7008 15.6987 12.7883 16.0925C11.8758 16.4862 10.9008 16.6831 9.86328 16.6831ZM9.86328 15.1831C11.5258 15.1831 12.9414 14.5987 14.1102 13.43C15.2789 12.2612 15.8633 10.8456 15.8633 9.1831C15.8633 7.52061 15.2789 6.10498 14.1102 4.93623C12.9414 3.76748 11.5258 3.18311 9.86328 3.18311C8.20078 3.18311 6.78516 3.76748 5.61641 4.93623C4.44766 6.10498 3.86328 7.52061 3.86328 9.1831C3.86328 10.8456 4.44766 12.2612 5.61641 13.43C6.78516 14.5987 8.20078 15.1831 9.86328 15.1831Z" fill="#8A8A8A"/>
</svg>
