<svg width="24" height="24" viewBox="0 0 24 24" fill="none" xmlns="http://www.w3.org/2000/svg">
<g clip-path="url(#clip0_693_4345)">
<path d="M24 12C24 11.8542 23.9974 11.709 23.9923 11.5645C23.763 5.13881 18.4816 0 12 0C5.51836 0 0.237 5.13881 0.00778125 11.5645C0.002625 11.709 0 11.8542 0 12C0 18.6274 6.16416 23.5645 12 23.5645C17.9416 23.5645 24 18.6274 24 12Z" fill="#FF5876"/>
<path d="M12 23.129C5.51845 23.129 0.238031 17.9901 0.00871875 11.5645C0.00351563 11.7091 0 11.8541 0 12C0 18.6274 5.37258 24 12 24C18.6274 24 24 18.6274 24 12C24 11.8541 23.9965 11.7091 23.9913 11.5645C23.762 17.9901 18.4815 23.129 12 23.129Z" fill="#E6485D"/>
<path d="M22.0044 11.5645C21.7764 6.23635 17.3847 1.98666 12.0004 1.98666C6.6161 1.98666 2.22438 6.23635 1.99638 11.5645C1.99019 11.7089 1.99633 21.3764 12.0004 21.3764C22.0045 21.3764 22.0106 11.7089 22.0044 11.5645Z" fill="#E4EEF9"/>
<path d="M11.9997 21.1424C6.61542 21.1424 2.22441 16.8926 1.99631 11.5645C1.99013 11.709 1.98633 11.854 1.98633 12C1.98633 17.5302 6.46945 22.0133 11.9997 22.0133C17.5299 22.0133 22.013 17.5302 22.013 12C22.013 11.854 22.0092 11.709 22.003 11.5645C21.7749 16.8926 17.3839 21.1424 11.9997 21.1424Z" fill="#D5E0F2"/>
<path d="M15.6368 8.48672C15.3514 8.20524 14.8918 8.20838 14.6104 8.49375L12.9072 10.2205L13.0784 11.0425L13.8739 11.3076L15.6439 9.51314C15.9253 9.22777 15.9222 8.76821 15.6368 8.48672Z" fill="#405B6C"/>
<path d="M10.9726 10.2866L7.11004 6.84445C6.81074 6.57773 6.35198 6.60417 6.0853 6.90346C5.81863 7.20271 5.84502 7.66153 6.14432 7.9282L10.083 11.4381L10.9037 11.1644L10.9726 10.2866Z" fill="#405B6C"/>
<path d="M17.1396 16.6799C17.0572 16.6799 16.9744 16.652 16.9064 16.5948L12.3092 12.7334C12.1558 12.6045 12.1358 12.3755 12.2647 12.2221C12.3936 12.0686 12.6225 12.0487 12.776 12.1776L17.3732 16.0391C17.5266 16.168 17.5466 16.397 17.4177 16.5504C17.3459 16.6359 17.2431 16.6799 17.1396 16.6799Z" fill="#86DCFF"/>
<path d="M10.083 11.4381L10.7608 12.0422L11.6313 11.7464L11.5841 10.8314L10.9727 10.2866C10.5473 10.5422 10.2253 10.9517 10.083 11.4381Z" fill="#2D4456"/>
<path d="M12.9073 10.2205L12.3311 10.8048V11.9516H13.2388L13.8741 11.3076C13.6995 10.8353 13.3514 10.4475 12.9073 10.2205Z" fill="#2D4456"/>
<path d="M13.1614 11.5644C12.9851 11.0943 12.5314 10.7596 11.9997 10.7596C11.4679 10.7596 11.0143 11.0943 10.838 11.5644C10.7872 11.7 10.8346 12.8048 11.9997 12.8048C13.1648 12.8048 13.2122 11.7 13.1614 11.5644Z" fill="#FF5876"/>
<path d="M12.0001 12.3694C11.4684 12.3694 11.015 12.0347 10.8386 11.5645C10.7877 11.7001 10.7598 11.8467 10.7598 12C10.7598 12.685 11.3151 13.2403 12.0001 13.2403C12.6851 13.2403 13.2404 12.685 13.2404 12C13.2404 11.8467 13.2124 11.7001 13.1616 11.5645C12.9853 12.0347 12.5319 12.3694 12.0001 12.3694Z" fill="#E6485D"/>
<path d="M12.3639 4.38624V3.25997C12.3639 3.05916 12.2011 2.89636 12.0003 2.89636C11.7995 2.89636 11.6367 3.05916 11.6367 3.25997V4.38624C11.6367 4.58705 11.7995 4.74985 12.0003 4.74985C12.2012 4.74985 12.3639 4.58705 12.3639 4.38624Z" fill="#405B6C"/>
<path d="M11.6367 19.6138V20.74C11.6367 20.9408 11.7995 21.1036 12.0003 21.1036C12.2012 21.1036 12.3639 20.9408 12.3639 20.74V19.6138C12.3639 19.4129 12.2011 19.2502 12.0003 19.2502C11.7995 19.2502 11.6367 19.4129 11.6367 19.6138Z" fill="#405B6C"/>
<path d="M20.7399 12.3636C20.9407 12.3636 21.1035 12.2008 21.1035 12C21.1035 11.7992 20.9407 11.6364 20.7399 11.6364H19.6136C19.4128 11.6364 19.25 11.7992 19.25 12C19.25 12.2008 19.4128 12.3636 19.6136 12.3636H20.7399Z" fill="#405B6C"/>
<path d="M3.26009 11.6364C3.05923 11.6364 2.89648 11.7992 2.89648 12C2.89648 12.2008 3.05923 12.3636 3.26009 12.3636H4.38636C4.58722 12.3636 4.74997 12.2008 4.74997 12C4.74997 11.7992 4.58717 11.6364 4.38636 11.6364H3.26009Z" fill="#405B6C"/>
</g>
<defs>
<clipPath id="clip0_693_4345">
<rect width="24" height="24" fill="white"/>
</clipPath>
</defs>
</svg>
