<svg width="12" height="12" viewBox="0 0 12 12" fill="none" xmlns="http://www.w3.org/2000/svg">
<g clip-path="url(#clip0_4018_165)">
<path d="M1.13754 11.9249C0.843336 11.942 0.553996 11.8442 0.330533 11.6521C-0.110178 11.2088 -0.110178 10.4927 0.330533 10.0494L9.98066 0.399244C10.439 -0.0296761 11.1583 -0.00583272 11.5872 0.452546C11.9751 0.867055 11.9977 1.50417 11.6402 1.9451L1.93317 11.6521C1.71259 11.8414 1.42789 11.939 1.13754 11.9249Z" fill="#1D1D1D"/>
<path d="M10.7763 11.9249C10.4781 11.9236 10.1923 11.8053 9.98061 11.5953L0.330442 1.94509C-0.0778544 1.4683 -0.0223444 0.750745 0.45445 0.342412C0.880002 -0.0220149 1.5076 -0.0220149 1.93312 0.342412L11.6401 9.99258C12.0984 10.4216 12.1221 11.1409 11.693 11.5992C11.676 11.6174 11.6583 11.635 11.6401 11.6521C11.4024 11.8588 11.0896 11.9576 10.7763 11.9249Z" fill="#1D1D1D"/>
</g>
<defs>
<clipPath id="clip0_4018_165">
<rect width="12" height="12" fill="white"/>
</clipPath>
</defs>
</svg>
