<svg width="17" height="17" viewBox="0 0 17 17" fill="none" xmlns="http://www.w3.org/2000/svg">
<g clip-path="url(#clip0_4953_730)">
<path d="M8.56191 1.1709C4.36396 1.1709 0.961914 4.57295 0.961914 8.7709C0.961914 12.9689 4.36396 16.3709 8.56191 16.3709C12.7599 16.3709 16.1619 12.9688 16.1619 8.7709C16.1619 4.57295 12.7599 1.1709 8.56191 1.1709ZM12.1405 11.2723C12.4367 11.5685 12.4367 12.0503 12.1405 12.3465C11.9909 12.4961 11.5092 12.7923 11.0663 12.3465L8.56191 9.84507L6.0605 12.3465C5.91089 12.4961 5.45609 12.8163 4.98632 12.3465C4.6901 12.0503 4.6901 11.5685 4.98632 11.2723L7.48774 8.7709L4.98632 6.26948C4.6901 5.97326 4.6901 5.49153 4.98632 5.19531C5.28254 4.89909 5.76428 4.89909 6.0605 5.19531L8.56191 7.69672L11.0633 5.19531C11.3596 4.89909 11.8413 4.89909 12.1375 5.19531C12.4337 5.49153 12.4337 5.97326 12.1375 6.26948L9.63609 8.7709L12.1405 11.2723Z" fill="white"/>
</g>
<defs>
<clipPath id="clip0_4953_730">
<rect width="16" height="16" fill="white" transform="translate(0.562012 0.770996)"/>
</clipPath>
</defs>
</svg>
