<svg width="44" height="44" viewBox="0 0 44 44" fill="none" xmlns="http://www.w3.org/2000/svg">
<path d="M9.5245 24.6367H8.7468C8.7326 24.5361 8.7036 24.4467 8.6598 24.3686C8.616 24.2893 8.55978 24.2218 8.49112 24.1662C8.42247 24.1106 8.34316 24.0679 8.2532 24.0384C8.16442 24.0088 8.06795 23.994 7.96378 23.994C7.77557 23.994 7.61162 24.0407 7.47195 24.1342C7.33227 24.2266 7.22396 24.3615 7.14702 24.5391C7.07008 24.7154 7.03161 24.9297 7.03161 25.1818C7.03161 25.4411 7.07008 25.6589 7.14702 25.8352C7.22514 26.0116 7.33404 26.1448 7.47372 26.2347C7.6134 26.3247 7.77498 26.3697 7.95845 26.3697C8.06143 26.3697 8.15672 26.3561 8.24432 26.3288C8.3331 26.3016 8.41181 26.262 8.48047 26.2099C8.54912 26.1566 8.60594 26.0921 8.65092 26.0163C8.69709 25.9406 8.72905 25.8542 8.7468 25.7571L9.5245 25.7607C9.50438 25.9276 9.45407 26.0885 9.37358 26.2436C9.29427 26.3975 9.18714 26.5354 9.0522 26.6573C8.91844 26.7781 8.75864 26.8739 8.5728 26.945C8.38814 27.0148 8.17921 27.0497 7.94602 27.0497C7.62169 27.0497 7.33168 26.9763 7.07599 26.8295C6.8215 26.6828 6.62027 26.4703 6.4723 26.1921C6.32552 25.9139 6.25213 25.5772 6.25213 25.1818C6.25213 24.7853 6.3267 24.4479 6.47585 24.1697C6.625 23.8916 6.82741 23.6797 7.0831 23.5341C7.33878 23.3873 7.62642 23.3139 7.94602 23.3139C8.15672 23.3139 8.35204 23.3435 8.53196 23.4027C8.71307 23.4619 8.87346 23.5483 9.01314 23.6619C9.15282 23.7744 9.26645 23.9123 9.35405 24.0756C9.44283 24.239 9.49964 24.426 9.5245 24.6367ZM13.4174 25.1818C13.4174 25.5784 13.3423 25.9157 13.1919 26.1939C13.0428 26.4721 12.8392 26.6845 12.5811 26.8313C12.3243 26.9769 12.0355 27.0497 11.7147 27.0497C11.3915 27.0497 11.1015 26.9763 10.8446 26.8295C10.5878 26.6828 10.3848 26.4703 10.2356 26.1921C10.0865 25.9139 10.0119 25.5772 10.0119 25.1818C10.0119 24.7853 10.0865 24.4479 10.2356 24.1697C10.3848 23.8916 10.5878 23.6797 10.8446 23.5341C11.1015 23.3873 11.3915 23.3139 11.7147 23.3139C12.0355 23.3139 12.3243 23.3873 12.5811 23.5341C12.8392 23.6797 13.0428 23.8916 13.1919 24.1697C13.3423 24.4479 13.4174 24.7853 13.4174 25.1818ZM12.638 25.1818C12.638 24.925 12.5995 24.7083 12.5225 24.532C12.4468 24.3556 12.3397 24.2218 12.2012 24.1307C12.0627 24.0395 11.9005 23.994 11.7147 23.994C11.5288 23.994 11.3667 24.0395 11.2282 24.1307C11.0897 24.2218 10.9819 24.3556 10.905 24.532C10.8292 24.7083 10.7914 24.925 10.7914 25.1818C10.7914 25.4387 10.8292 25.6553 10.905 25.8317C10.9819 26.008 11.0897 26.1418 11.2282 26.233C11.3667 26.3241 11.5288 26.3697 11.7147 26.3697C11.9005 26.3697 12.0627 26.3241 12.2012 26.233C12.3397 26.1418 12.4468 26.008 12.5225 25.8317C12.5995 25.6553 12.638 25.4387 12.638 25.1818ZM13.9869 23.3636H14.9351L15.9365 25.8068H15.9791L16.9806 23.3636H17.9287V27H17.183V24.6332H17.1528L16.2117 26.9822H15.7039L14.7629 24.6243H14.7327V27H13.9869V23.3636ZM18.5621 27V23.3636H19.9968C20.2726 23.3636 20.5076 23.4163 20.7017 23.5217C20.8958 23.6258 21.0438 23.7708 21.1456 23.9567C21.2486 24.1413 21.3001 24.3544 21.3001 24.5959C21.3001 24.8374 21.248 25.0504 21.1438 25.2351C21.0397 25.4197 20.8887 25.5636 20.6911 25.6665C20.4946 25.7695 20.2566 25.821 19.9773 25.821H19.0629V25.2049H19.853C20.0009 25.2049 20.1229 25.1795 20.2188 25.1286C20.3158 25.0765 20.388 25.0049 20.4354 24.9137C20.4839 24.8214 20.5082 24.7154 20.5082 24.5959C20.5082 24.4751 20.4839 24.3698 20.4354 24.2798C20.388 24.1887 20.3158 24.1183 20.2188 24.0685C20.1217 24.0176 19.9986 23.9922 19.8494 23.9922H19.331V27H18.5621ZM21.7994 27V23.3636H22.5683V26.3661H24.1272V27H21.7994ZM24.6364 27V23.3636H27.0866V23.9975H25.4052V24.864H26.9606V25.4979H25.4052V26.3661H27.0938V27H24.6364ZM27.5594 23.9975V23.3636H30.5459V23.9975H29.4326V27H28.6727V23.9975H27.5594ZM31.0377 27V23.3636H33.488V23.9975H31.8066V24.864H33.3619V25.4979H31.8066V26.3661H33.4951V27H31.0377ZM35.3883 27H34.0993V23.3636H35.399C35.7647 23.3636 36.0796 23.4364 36.3436 23.582C36.6075 23.7264 36.8105 23.9342 36.9526 24.2053C37.0958 24.4763 37.1674 24.8007 37.1674 25.1783C37.1674 25.5571 37.0958 25.8826 36.9526 26.1548C36.8105 26.4271 36.6064 26.636 36.34 26.7816C36.0749 26.9272 35.7576 27 35.3883 27ZM34.8681 26.3413H35.3564C35.5836 26.3413 35.7748 26.301 35.9299 26.2205C36.0861 26.1388 36.2033 26.0128 36.2814 25.8423C36.3607 25.6707 36.4004 25.4493 36.4004 25.1783C36.4004 24.9096 36.3607 24.69 36.2814 24.5195C36.2033 24.3491 36.0867 24.2236 35.9316 24.1431C35.7766 24.0626 35.5854 24.0224 35.3581 24.0224H34.8681V26.3413Z" fill="#3EAE0A"/>
<path d="M42.2645 19.4711H31.8925V16H42.2645C43.223 16 44 16.777 44 17.7355C44 18.6941 43.223 19.4711 42.2645 19.4711Z" fill="#3EAE0A"/>
<path d="M30.0339 19.4604L30.268 19.4323L30.9412 19.3476L32.0199 18.1764L32.044 17.1902L31.4754 16.4976L30.3416 16.0501L30.0423 16H29.81H1.73551C0.776997 16 0 16.7771 0 17.7356C0 18.6941 0.776997 19.4711 1.73551 19.4711H29.8946L30.0339 19.4604Z" fill="#3EAE0A"/>
<path d="M31.8925 16H29.8099C30.7684 16 31.5454 16.777 31.5454 17.7355C31.5454 18.694 30.7684 19.471 29.8099 19.471H31.8925C32.851 19.471 33.628 18.694 33.628 17.7355C33.628 16.7771 32.851 16 31.8925 16Z" fill="#3EAE0A"/>
</svg>
