<svg width="20" height="20" viewBox="0 0 20 20" fill="none" xmlns="http://www.w3.org/2000/svg">
<path d="M17.6475 6.85582V4.39748C17.6475 3.84495 17.428 3.31505 17.0373 2.92435C16.6466 2.53364 16.1167 2.31415 15.5642 2.31415H13.1579L11.4496 0.605818C11.0592 0.217795 10.5312 0 9.98082 0C9.43043 0 8.90241 0.217795 8.51207 0.605818L6.85582 2.31415H4.39748C3.84495 2.31415 3.31505 2.53364 2.92435 2.92435C2.53364 3.31505 2.31415 3.84495 2.31415 4.39748V6.85582L0.605818 8.51207C0.217795 8.90241 0 9.43043 0 9.98082C0 10.5312 0.217795 11.0592 0.605818 11.4496L2.31415 13.1579V15.5642C2.31415 16.1167 2.53364 16.6466 2.92435 17.0373C3.31505 17.428 3.84495 17.6475 4.39748 17.6475H6.85582L8.51207 19.3558C8.90241 19.7438 9.43043 19.9616 9.98082 19.9616C10.5312 19.9616 11.0592 19.7438 11.4496 19.3558L13.1579 17.6475H15.5642C16.1167 17.6475 16.6466 17.428 17.0373 17.0373C17.428 16.6466 17.6475 16.1167 17.6475 15.5642V13.1579L19.3558 11.4496C19.7438 11.0592 19.9616 10.5312 19.9616 9.98082C19.9616 9.43043 19.7438 8.90241 19.3558 8.51207L17.6475 6.85582Z" fill="#03A878"/>
<path d="M9.1999 12.585C9.06281 12.5858 8.92691 12.5595 8.8 12.5077C8.67308 12.4558 8.55765 12.3794 8.46032 12.2829L6.85615 10.7204C6.66 10.5243 6.5498 10.2582 6.5498 9.98082C6.5498 9.70342 6.66 9.43739 6.85615 9.24124C7.0523 9.04509 7.31834 8.93489 7.59573 8.93489C7.87313 8.93489 8.13917 9.04509 8.33532 9.24124L9.15823 10.0746L11.5436 7.67874C11.7398 7.47153 12.0102 7.35074 12.2954 7.34293C12.5806 7.33511 12.8573 7.44092 13.0645 7.63707C13.2717 7.83322 13.3925 8.10364 13.4003 8.38886C13.4081 8.67407 13.3023 8.9507 13.1061 9.1579L9.98115 12.2829C9.87892 12.3846 9.75671 12.4639 9.62223 12.5159C9.48775 12.5679 9.34394 12.5914 9.1999 12.585Z" fill="white"/>
</svg>
