<svg width="14" height="14" viewBox="0 0 14 14" fill="none" xmlns="http://www.w3.org/2000/svg">
<path d="M5.44428 1.16642H8.55539C8.76167 1.16642 8.9595 1.10496 9.10536 0.995568C9.25123 0.886172 9.33317 0.737799 9.33317 0.583089C9.33317 0.42838 9.25123 0.280006 9.10536 0.17061C8.9595 0.061214 8.76167 -0.000244141 8.55539 -0.000244141H5.44428C5.238 -0.000244141 5.04017 0.061214 4.89431 0.17061C4.74845 0.280006 4.6665 0.42838 4.6665 0.583089C4.6665 0.737799 4.74845 0.886172 4.89431 0.995568C5.04017 1.10496 5.238 1.16642 5.44428 1.16642Z" fill="#757575"/>
<path d="M13.3 2.3335H0.7C0.514348 2.3335 0.336301 2.4058 0.205025 2.5345C0.0737498 2.6632 0 2.83776 0 3.01977C0 3.20178 0.0737498 3.37634 0.205025 3.50504C0.336301 3.63374 0.514348 3.70605 0.7 3.70605H2.1V11.9413C2.10017 12.4873 2.32147 13.0109 2.71526 13.397C3.10905 13.783 3.6431 14 4.2 14.0002H9.8C10.3569 14 10.891 13.7831 11.2848 13.397C11.6786 13.0109 11.8999 12.4873 11.9 11.9413V3.70605H13.3C13.4857 3.70605 13.6637 3.63374 13.795 3.50504C13.9263 3.37634 14 3.20178 14 3.01977C14 2.83776 13.9263 2.6632 13.795 2.5345C13.6637 2.4058 13.4857 2.3335 13.3 2.3335ZM6.3 9.88252C6.3 10.0645 6.22625 10.2391 6.09497 10.3678C5.9637 10.4965 5.78565 10.5688 5.6 10.5688C5.41435 10.5688 5.2363 10.4965 5.10503 10.3678C4.97375 10.2391 4.9 10.0645 4.9 9.88252V6.45114C4.9 6.26913 4.97375 6.09458 5.10503 5.96587C5.2363 5.83717 5.41435 5.76487 5.6 5.76487C5.78565 5.76487 5.9637 5.83717 6.09497 5.96587C6.22625 6.09458 6.3 6.26913 6.3 6.45114V9.88252ZM9.1 9.88252C9.1 10.0645 9.02625 10.2391 8.89497 10.3678C8.7637 10.4965 8.58565 10.5688 8.4 10.5688C8.21435 10.5688 8.0363 10.4965 7.90503 10.3678C7.77375 10.2391 7.7 10.0645 7.7 9.88252V6.45114C7.7 6.26913 7.77375 6.09458 7.90503 5.96587C8.0363 5.83717 8.21435 5.76487 8.4 5.76487C8.58565 5.76487 8.7637 5.83717 8.89497 5.96587C9.02625 6.09458 9.1 6.26913 9.1 6.45114V9.88252Z" fill="#757575"/>
</svg>
