<svg width="11" height="13" viewBox="0 0 11 13" fill="none" xmlns="http://www.w3.org/2000/svg">
<path d="M5.40637 0C3.97309 0.00157684 2.59896 0.571607 1.58542 1.58504C0.571889 2.59847 0.00172045 3.97255 0 5.40583C0 6.79792 1.07792 8.9765 3.20396 11.8809C3.45706 12.2277 3.78845 12.5097 4.17116 12.7042C4.55387 12.8987 4.97709 13 5.40637 13C5.83566 13 6.25888 12.8987 6.64159 12.7042C7.0243 12.5097 7.35569 12.2277 7.60879 11.8809C9.73483 8.9765 10.8128 6.79792 10.8128 5.40583C10.811 3.97255 10.2409 2.59847 9.22733 1.58504C8.21379 0.571607 6.83966 0.00157684 5.40637 0ZM5.40637 7.56058C4.97785 7.56058 4.55895 7.43351 4.20264 7.19543C3.84633 6.95736 3.56863 6.61897 3.40464 6.22306C3.24065 5.82716 3.19774 5.39151 3.28134 4.97122C3.36494 4.55093 3.5713 4.16487 3.87431 3.86185C4.17732 3.55884 4.56339 3.35248 4.98368 3.26888C5.40397 3.18528 5.83962 3.22819 6.23552 3.39218C6.63143 3.55617 6.96982 3.83387 7.20789 4.19018C7.44597 4.54649 7.57304 4.96539 7.57304 5.39392C7.57304 5.96855 7.34477 6.51965 6.93844 6.92598C6.53211 7.33231 5.98101 7.56058 5.40637 7.56058Z" fill="#7D7D7D"/>
</svg>
