<svg width="60" height="60" viewBox="0 0 126 125" fill="none" xmlns="http://www.w3.org/2000/svg">
<path d="M69.4714 80.416C71.2787 77.7344 74.3066 76.1328 77.5688 76.1328H84.6366C87.7551 76.1328 90.6217 74.7266 92.4979 72.2754L98.5636 64.3809C99.5854 63.0625 99.8433 61.3516 99.2605 59.8027C98.6778 58.2519 97.3528 57.1289 95.7187 56.7949L90.4346 55.6992C88.8596 55.3867 87.4342 54.5977 86.3258 53.4199L75.3599 41.7598C73.838 40.1367 71.7827 39.1191 69.5698 38.8926L59.35 37.8379C56.6312 37.5723 53.8907 37.9473 51.4238 38.9219C50.8706 39.1504 50.1875 39.5234 49.4748 39.9883C45.0392 42.9102 42.3873 47.9902 42.3873 53.5723V78.8652C42.3873 80.7285 43.3953 82.3281 45.0825 83.1465C46.7618 83.9609 48.644 83.7695 50.1166 82.6348L59.6867 75.2695C61.368 73.9746 61.9783 71.7695 61.2026 69.7832L52.6779 48.0488C52.2842 47.043 52.7862 45.9102 53.7981 45.5195C54.812 45.1289 55.952 45.6269 56.3477 46.6309L64.8724 68.3691C66.282 71.9824 65.1677 75.9941 62.0984 78.3555L52.5303 85.7188C49.8843 87.7578 46.3681 88.1172 43.35 86.6543C40.326 85.1875 38.4478 82.2012 38.4478 78.8633V63.0332C38.058 64.7383 37.7627 66.4043 37.6485 67.8203C37.0342 71.4766 35.4592 74.5371 33.0672 76.8398C32.2462 77.6445 31.2245 78.5918 30.059 79.6738C26.6077 82.8789 21.9438 87.2227 17.1243 92.7793C27.0172 107.48 43.8835 117.186 62.9981 117.186C67.6719 117.186 72.2119 116.602 76.5471 115.51C75.3264 110.416 72.0071 98 68.5579 89.666C67.2861 86.6074 67.6247 83.1465 69.4674 80.4141L69.4714 80.416Z" fill="#556080"/>
<path d="M63 7.8125C32.6045 7.8125 7.875 32.3457 7.875 62.5C7.875 72.2285 10.46 81.3633 14.9664 89.2852C19.6225 84.0254 24.0463 79.9102 27.3696 76.8242C28.5075 75.7676 29.5017 74.8438 30.3148 74.0488C32.1103 72.3203 33.2935 70.0059 33.7444 67.3418C34.1401 62.3809 36.7251 53.6758 38.6741 50.6172C39.4774 44.9102 42.5624 39.8516 47.3012 36.7305C48.2363 36.1211 49.1203 35.6406 49.9354 35.3047C53.0106 34.0879 56.3909 33.625 59.7457 33.9531L69.9733 35.0098C73.1332 35.334 76.0686 36.7852 78.2381 39.0996L89.2021 50.7578C89.7435 51.334 90.4424 51.7207 91.2201 51.875L96.5121 52.9727C99.477 53.5762 101.885 55.6191 102.946 58.4395C104.007 61.2578 103.537 64.3691 101.688 66.7578L95.6281 74.6445C93.0412 78.0234 88.9284 80.043 84.6326 80.043H77.5648C75.5902 80.043 73.8321 80.9727 72.7394 82.5918C71.629 84.2383 71.4262 86.3281 72.2 88.1836C75.6807 96.5977 79.0256 109.031 80.325 114.408C102.255 107.184 118.121 86.6543 118.121 62.5039C118.121 32.3496 93.3916 7.81641 62.9961 7.81641L63 7.8125Z" fill="#556080"/>
</svg>
