<svg width="31" height="22" viewBox="0 0 31 22" fill="none" xmlns="http://www.w3.org/2000/svg">
<path d="M26.0108 13.7261C26.0108 20.1231 18.8293 21.9939 15.148 21.9939C11.4667 21.9939 4.28516 20.1231 4.28516 13.7261C4.28516 8.8982 6.69912 3.18918 8.50959 2.03047C10.3201 0.871772 12.1909 0.147583 15.148 0.147583C18.1051 0.147583 19.9759 0.871772 21.7864 2.03047C23.5969 3.19521 26.0108 8.8982 26.0108 13.7261Z" fill="url(#paint0_radial_693_3156)"/>
<path d="M21.3034 12.8813C21.3034 12.8813 16.8376 10.6966 18.5817 5.39194L16.4151 6.32735L15.1478 4.43239L13.8805 6.33942L11.7139 5.39194C13.458 10.6966 8.99219 12.8813 8.99219 12.8813" fill="#FFC96F"/>
<path d="M23.8977 16.4298C23.8977 13.4123 18.7077 11.0708 15.1471 11.0708C11.5865 11.0708 6.39648 13.4123 6.39648 16.4298C6.39648 17.7213 6.91549 18.9282 7.71813 19.8878C10.0778 21.4388 13.1375 22 15.1471 22C17.1567 22 20.2164 21.4388 22.5761 19.8878C23.3787 18.9282 23.8977 17.7213 23.8977 16.4298Z" fill="url(#paint1_radial_693_3156)"/>
<path d="M8.50922 2.0305C8.50922 2.0305 7.7971 0.17778 6.1194 0.17778C4.44169 0.17778 4.0796 2.47104 2.46224 3.61768C0.844887 4.76431 0 6.45408 0 7.90246C0 8.66286 1.31561 10.1173 2.05187 11.6139C2.71571 12.9597 2.83037 14.4081 3.53646 14.4081C3.74768 14.4081 4.14598 14.221 4.28478 13.7261C6.7591 4.85483 8.50922 2.0305 8.50922 2.0305Z" fill="url(#paint2_linear_693_3156)"/>
<path d="M4.57447 13.8105L3.99512 13.6476C6.45132 4.83664 8.18334 1.9942 8.25576 1.8735L8.76873 2.19335C8.75062 2.21749 7.0005 5.10218 4.57447 13.8105Z" fill="#B24E10"/>
<path d="M21.7861 2.0305C21.7861 2.0305 22.4983 0.17778 24.176 0.17778C25.8537 0.17778 26.2158 2.47104 27.8331 3.61768C29.4505 4.76431 30.2954 6.45408 30.2954 7.90246C30.2954 8.66286 28.9797 10.1173 28.2435 11.6139C27.5796 12.9597 27.465 14.4081 26.7589 14.4081C26.5477 14.4081 26.1494 14.221 26.0106 13.7261C23.5363 4.85483 21.7861 2.0305 21.7861 2.0305Z" fill="url(#paint3_linear_693_3156)"/>
<path d="M25.7206 13.8105L26.3 13.6476C23.8437 4.83664 22.1117 1.9942 22.0393 1.8735L21.5263 2.19335C21.5445 2.21749 23.2946 5.10218 25.7206 13.8105ZM14.8457 14.0278H15.4492V16.6832H14.8457V14.0278Z" fill="#B24E10"/>
<path d="M17.6826 13.0442C17.6826 13.6236 15.9928 14.4503 15.1479 14.4503C14.3031 14.4503 12.6133 13.6236 12.6133 13.0442C12.6133 12.4649 12.9392 11.8553 13.1745 11.6381C13.4099 11.4208 14.0496 11.0648 15.1479 11.0648C16.2463 11.0648 16.892 11.4208 17.1214 11.6381C17.3567 11.8553 17.6826 12.4649 17.6826 13.0442Z" fill="#B24E10"/>
<path d="M8.50891 9.68271V20.3645C7.48298 20.3645 7.45281 20.9076 7.45281 21.149C7.45281 21.3904 7.36228 21.9939 9.30552 21.9939C11.2488 21.9939 11.1582 21.3603 11.1582 21.0283C11.1582 20.6964 10.5246 20.3947 10.0116 20.3947V9.62236L8.50891 9.68271ZM21.7857 9.68271V20.3645C22.8116 20.3645 22.8418 20.9076 22.8418 21.149C22.8418 21.3904 22.9323 21.9939 20.9891 21.9939C19.0459 21.9939 19.1304 21.3603 19.1304 21.0283C19.1304 20.6964 19.764 20.3947 20.277 20.3947V9.62236L21.7857 9.68271Z" fill="#9CD3FC"/>
<path d="M11.2729 8.94048C9.94524 8.42148 8.91327 8.67494 8.28564 8.98272C7.59766 9.31464 7.22953 9.7733 7.21746 9.7914C7.13297 9.90003 7.13297 10.0449 7.21143 10.1535C7.27178 10.232 7.3623 10.2802 7.45282 10.2802C7.48903 10.2802 7.52524 10.2742 7.55542 10.2621C9.83661 9.4112 10.935 10.1837 10.9772 10.2138C11.0677 10.2802 11.1884 10.2923 11.291 10.244C11.3936 10.1957 11.46 10.0871 11.46 9.97245V9.21809C11.466 9.09739 11.3876 8.98876 11.2729 8.94048ZM23.0772 9.7914C23.0591 9.7733 22.6849 9.31464 22.003 8.98272C21.3693 8.67494 20.3434 8.42148 19.0217 8.94652C18.9071 8.99479 18.8286 9.10342 18.8286 9.23016V9.98452C18.8286 10.0992 18.895 10.2018 18.9976 10.2501C19.1002 10.2983 19.2209 10.2923 19.3114 10.2259C19.3597 10.1897 20.452 9.42327 22.7392 10.2682C22.7755 10.2802 22.8117 10.2863 22.8418 10.2863C22.9384 10.2863 23.0289 10.244 23.0893 10.1595C23.1677 10.0449 23.1617 9.90003 23.0772 9.7914Z" fill="#B24E10"/>
<path d="M19.2514 18.7472C19.2514 19.8214 17.9358 19.7007 17.6703 19.7007C17.1452 19.7007 16.2883 18.6386 15.1477 18.6386C14.0071 18.6386 13.1501 19.7007 12.6251 19.7007C12.3656 19.7007 11.0439 19.8214 11.0439 18.7472C11.0439 17.673 13.301 16.4419 15.1477 16.4419C16.9944 16.4419 19.2514 17.673 19.2514 18.7472Z" fill="#B4271E"/>
<defs>
<radialGradient id="paint0_radial_693_3156" cx="0" cy="0" r="1" gradientUnits="userSpaceOnUse" gradientTransform="translate(15.148 0.268281) scale(15.4436 15.4436)">
<stop offset="0.894" stop-color="#E36415"/>
<stop offset="1" stop-color="#B24E10"/>
</radialGradient>
<radialGradient id="paint1_radial_693_3156" cx="0" cy="0" r="1" gradientUnits="userSpaceOnUse" gradientTransform="translate(15.1068 11.1814) scale(9.18453)">
<stop offset="0.663" stop-color="#FFC96F"/>
<stop offset="1" stop-color="#FFB234"/>
</radialGradient>
<linearGradient id="paint2_linear_693_3156" x1="0" y1="0.17778" x2="8.50922" y2="0.17778" gradientUnits="userSpaceOnUse">
<stop offset="0.488" stop-color="#E36415"/>
<stop offset="1" stop-color="#B24E10"/>
</linearGradient>
<linearGradient id="paint3_linear_693_3156" x1="21.7861" y1="0.17778" x2="30.2954" y2="0.17778" gradientUnits="userSpaceOnUse">
<stop offset="0.488" stop-color="#E36415"/>
<stop offset="1" stop-color="#B24E10"/>
</linearGradient>
</defs>
</svg>
