<svg width="31" height="31" viewBox="0 0 31 31" fill="none" xmlns="http://www.w3.org/2000/svg">
<path d="M27.0017 8.98401V30.081H3.99805V8.98401L5.38711 8.12449L15.4998 1.86588L27.0017 8.98401Z" fill="#E7A561"/>
<path d="M5.38711 8.12449V30.081H3.99805V8.98401L5.38711 8.12449Z" fill="#E49542"/>
<path d="M27.0015 8.98395V12.9772L15.5001 5.85888L3.99805 12.9772V8.98395L15.5001 1.8657L27.0015 8.98395Z" fill="#E49542"/>
<path d="M15.4998 15.3383C11.8809 15.3383 8.94727 18.272 8.94727 21.8908V29.1721C8.94727 29.2712 8.98666 29.3663 9.05677 29.4364C9.12689 29.5066 9.22198 29.546 9.32114 29.546H21.6784C21.7776 29.546 21.8727 29.5066 21.9428 29.4364C22.0129 29.3663 22.0523 29.2712 22.0523 29.1721V21.8908C22.0523 18.2719 19.1186 15.3383 15.4998 15.3383Z" fill="#26457D"/>
<path d="M21.6785 30.0137H9.32115C8.857 30.0137 8.47949 29.6362 8.47949 29.1721V21.8908C8.47949 18.0198 11.6288 14.8705 15.4998 14.8705C19.3709 14.8705 22.5202 18.0198 22.5202 21.8908V29.1721C22.5201 29.6362 22.1425 30.0137 21.6785 30.0137ZM9.41506 29.0781H21.5845V21.8908C21.5845 18.5356 18.8549 15.8061 15.4998 15.8061C12.1447 15.8061 9.41506 18.5356 9.41506 21.8908V29.0781Z" fill="#E49542"/>
<path d="M1.86771 12.1694C1.24287 12.1695 0.632493 11.8557 0.279505 11.2853C-0.262752 10.4092 0.00795239 9.25926 0.884125 8.71706L14.5182 0.279254C14.8131 0.0967046 15.1531 0 15.5 0C15.8469 0 16.1869 0.0967046 16.4818 0.279254L30.1158 8.717C30.992 9.25926 31.2628 10.4091 30.7205 11.2853C30.1783 12.1614 29.0285 12.4322 28.1522 11.8899L15.5 4.05986L2.84778 11.89C2.55353 12.0727 2.21407 12.1695 1.86771 12.1694Z" fill="#F9F6F6"/>
<path d="M15.5 4.05986L28.1522 11.89C28.8085 12.2961 29.6183 12.2462 30.2113 11.8273L17.6602 4.05986C17.3357 3.85904 16.9617 3.75266 16.5801 3.75266C16.1985 3.75266 15.8245 3.85904 15.5 4.05986ZM2.43975 11.2853C1.8975 10.4091 2.1682 9.2592 3.04438 8.717L16.5801 0.340103L16.4818 0.279254C16.1869 0.0967046 15.8469 0 15.5 0C15.1531 0 14.8131 0.0967046 14.5182 0.279254L0.884125 8.717C0.00795239 9.25926 -0.262752 10.4091 0.279505 11.2853C0.632493 11.8556 1.24287 12.1694 1.86771 12.1694C2.21407 12.1694 2.55353 12.0726 2.84778 11.8899L2.94938 11.827C2.74471 11.6826 2.57136 11.4984 2.43975 11.2853Z" fill="#DDDAEC"/>
<path d="M0.211914 28.6845C0.211914 27.4883 1.15535 26.4814 2.35134 26.4573C3.57808 26.4325 4.58019 27.4194 4.58019 28.6405C4.58019 27.4344 5.55784 26.4568 6.76393 26.4568C7.97002 26.4568 8.94846 27.4344 8.94846 28.6405C8.94846 27.4344 9.92611 26.4568 11.1322 26.4568C12.3383 26.4568 13.3159 27.4344 13.3159 28.6405C13.3159 27.4194 14.319 26.4324 15.5458 26.4573C16.7413 26.4815 17.6842 27.488 17.6842 28.6836V28.6868C17.6842 27.4966 18.6173 26.4904 19.807 26.4576C21.0414 26.4236 22.0525 27.4139 22.0525 28.6405C22.0525 27.4344 23.0301 26.4568 24.2362 26.4568C25.4423 26.4568 26.4208 27.4344 26.4208 28.6405C26.4208 27.4487 27.3753 26.48 28.5618 26.4572C29.7861 26.4337 30.7882 27.4591 30.7882 28.6836V29.3971C30.7882 30.2366 30.1077 30.9172 29.2682 30.9172H1.73194C0.89246 30.9172 0.211914 30.2366 0.211914 29.3971V28.6845Z" fill="#B3E59F"/>
<path d="M8.12187 30.9172H1.73182C0.892279 30.9172 0.211914 30.2368 0.211914 29.3973V28.6846C0.211914 27.4886 1.15535 26.4818 2.35128 26.4575C3.57765 26.4326 4.58019 27.4196 4.58019 28.6404C4.58019 27.4346 5.55784 26.4569 6.76369 26.4569C7.1306 26.4569 7.47699 26.5477 7.78051 26.7075C7.07714 27.0819 6.60203 27.8356 6.60203 28.6846V29.3973C6.6019 30.2368 7.28227 30.9172 8.12187 30.9172Z" fill="#95D6A4"/>
<path d="M15.5 13.1186C18.3648 13.1186 20.6871 10.7962 20.6871 7.93152C20.6871 5.0668 18.3648 2.74448 15.5 2.74448C12.6353 2.74448 10.313 5.0668 10.313 7.93152C10.313 10.7962 12.6353 13.1186 15.5 13.1186Z" fill="#FFE07D"/>
<path d="M15.4996 11.3187C16.5916 11.3187 17.4768 10.4335 17.4768 9.34154C17.4768 8.24959 16.5916 7.36438 15.4996 7.36438C14.4077 7.36438 13.5225 8.24959 13.5225 9.34154C13.5225 10.4335 14.4077 11.3187 15.4996 11.3187Z" fill="#30579D"/>
<path d="M15.5 6.88564C16.2073 6.88564 16.7828 6.3102 16.7828 5.60289C16.7828 4.89559 16.2073 4.32015 15.5 4.32015C14.7927 4.32015 14.2173 4.89559 14.2173 5.60289C14.2173 6.3102 14.7928 6.88564 15.5 6.88564Z" fill="#30579D"/>
<path d="M12.4619 8.45828C13.1704 8.45828 13.7447 7.88398 13.7447 7.17554C13.7447 6.4671 13.1704 5.89279 12.4619 5.89279C11.7535 5.89279 11.1792 6.4671 11.1792 7.17554C11.1792 7.88398 11.7535 8.45828 12.4619 8.45828Z" fill="#30579D"/>
<path d="M18.5381 5.89279C17.8308 5.89279 17.2554 6.46823 17.2554 7.17554C17.2554 7.88284 17.8308 8.45828 18.5381 8.45828C19.2454 8.45828 19.8208 7.88284 19.8208 7.17554C19.8208 6.46823 19.2454 5.89279 18.5381 5.89279Z" fill="#30579D"/>
</svg>
