<svg width="31" height="31" viewBox="0 0 31 31" fill="none" xmlns="http://www.w3.org/2000/svg">
<path fill-rule="evenodd" clip-rule="evenodd" d="M19.6901 20.0946C19.3003 20.8263 18.2746 21.3472 17.0698 21.3472V26.239C17.0698 28.016 18.7777 29.4564 20.8843 29.4564C20.925 29.4564 20.9658 29.4547 21.0065 29.4547C22.7729 29.4175 23.9068 28.5653 24.456 27.4225C24.6562 27.008 24.7785 26.5562 24.8263 26.0902C24.9379 25.0095 24.6474 23.8578 23.9848 22.9507C23.0793 21.714 21.0703 20.6811 19.6901 20.0946Z" fill="#C6805D"/>
<path fill-rule="evenodd" clip-rule="evenodd" d="M13.8492 8.94228C11.8509 9.58009 8.87815 12.133 9.35649 16.2891C9.58504 18.2928 9.13327 20.0414 8.38389 20.8758C7.99412 21.3117 7.59909 21.6022 7.21289 21.7705C7.21289 23.2498 7.74439 24.7911 9.31575 26.0897C9.20411 25.009 9.49465 23.8575 10.1572 22.9504C11.0625 21.7139 13.0715 20.681 14.4515 20.0946C14.3417 19.8909 14.2814 19.6694 14.2814 19.4391C14.2814 18.3868 15.5304 17.5328 17.0699 17.5328C18.6111 17.5328 19.8583 18.3868 19.8583 19.4391C19.8583 19.6694 19.7998 19.8909 19.69 20.0946C21.07 20.681 23.079 21.7139 23.9843 22.9504C24.6468 23.8575 24.9374 25.009 24.8257 26.0897C26.3971 24.7911 26.9286 23.2498 26.9286 21.7705C26.5424 21.6022 26.1474 21.3117 25.7558 20.8758C25.0065 20.0414 24.5547 18.2928 24.7851 16.2891C25.2634 12.133 22.2889 9.58003 20.2924 8.94228C18.2037 8.27439 15.9379 8.27439 13.8492 8.94228Z" fill="#F4AA73"/>
<path fill-rule="evenodd" clip-rule="evenodd" d="M14.4514 20.0946C13.0714 20.681 11.0624 21.7139 10.1571 22.9504C9.49457 23.8575 9.20403 25.009 9.31567 26.0897C9.36349 26.5556 9.48573 27.0074 9.68594 27.4219C10.2351 28.5628 11.3689 29.4168 13.1352 29.4539C13.1759 29.4539 13.2167 29.4557 13.2574 29.4557C15.3638 29.4557 17.0698 28.0154 17.0698 26.2384V21.347C15.8669 21.3471 14.8412 20.8263 14.4514 20.0946ZM13.8491 8.94228C6.48649 2.41571 0.0663474 15.2634 4.72382 21.0636C5.3474 21.8432 6.25092 22.1886 7.21287 21.7705C7.59907 21.6022 7.9941 21.3117 8.38387 20.8758C9.13325 20.0414 9.58501 18.2928 9.35647 16.2891C8.87813 12.133 11.8508 9.58009 13.8491 8.94228ZM20.2923 8.94228C22.2888 9.58009 25.2633 12.133 24.785 16.2891C24.5547 18.2928 25.0064 20.0414 25.7558 20.8758C26.1473 21.3117 26.5423 21.6022 26.9285 21.7705C27.8905 22.1886 28.7922 21.8432 29.4176 21.0636C34.075 15.2634 27.6531 2.41571 20.2923 8.94228Z" fill="#C6805D"/>
<path fill-rule="evenodd" clip-rule="evenodd" d="M17.0701 26.2385C17.0701 28.0155 15.364 29.456 13.2575 29.456C13.2167 29.456 13.176 29.4542 13.1353 29.4542C14.9654 31.4899 19.1749 31.4899 21.0068 29.4542C20.9661 29.4542 20.9253 29.456 20.8846 29.456C18.7781 29.456 17.0701 28.0156 17.0701 26.2385Z" fill="#AF5D41"/>
<path fill-rule="evenodd" clip-rule="evenodd" d="M19.6902 20.0946C19.4971 20.456 19.1481 20.7678 18.6981 20.9893C19.9488 21.5934 21.3802 22.4526 22.1048 23.443C22.7692 24.35 23.058 25.5016 22.9463 26.5841C22.8985 27.0482 22.7763 27.5 22.5779 27.9145C22.2749 28.5434 21.7948 29.0838 21.1305 29.4505C22.8259 29.3761 23.9207 28.5363 24.4557 27.422C24.6559 27.0075 24.7781 26.5557 24.826 26.0898C24.9375 25.0091 24.6471 23.8576 23.9845 22.9505C23.0791 21.7138 21.0702 20.681 19.6902 20.0946ZM7.50891 15.3414C7.73921 17.345 7.28745 19.0936 6.53812 19.928C6.1466 20.3639 5.75157 20.6544 5.36537 20.8227C5.12974 20.9255 4.89593 20.9822 4.6709 20.9981C4.68864 21.0194 4.70632 21.0424 4.72405 21.0637C5.34763 21.8432 6.25116 22.1887 7.2131 21.7706C7.5993 21.6023 7.99433 21.3117 8.3841 20.8759C9.13349 20.0414 9.58525 18.2929 9.3567 16.2892C8.87836 12.133 11.8511 9.58008 13.8494 8.94233C12.9548 8.14863 12.0743 7.64196 11.2257 7.37449C11.4826 7.55696 11.7412 7.76425 12.0016 7.99455C10.005 8.6323 7.03063 11.1852 7.50891 15.3414ZM23.763 7.1813C28.2486 8.61983 30.7748 16.6382 27.3664 20.8847C27.129 21.1788 26.8526 21.4126 26.5479 21.565C26.6755 21.6465 26.8031 21.7155 26.9288 21.7705C27.8908 22.1886 28.7925 21.8431 29.4179 21.0636C33.3188 16.2059 29.4479 6.40533 23.763 7.1813Z" fill="#BA6E4D"/>
<path fill-rule="evenodd" clip-rule="evenodd" d="M17.7393 9.04151C19.7376 9.67932 22.7103 12.2322 22.2337 16.3884C22.0459 18.0235 22.1948 20.4259 22.6643 21.7103C23.1922 22.0894 23.6599 22.5075 23.9841 22.9504C24.062 23.0567 24.1329 23.1666 24.202 23.2782C24.7086 24.1268 24.9248 25.1366 24.8255 26.0897C26.3969 24.7912 26.9284 23.2499 26.9284 21.7706C26.8026 21.7157 26.6751 21.6466 26.5475 21.5651C26.2853 21.3968 26.0196 21.1683 25.7556 20.876C25.0062 20.0415 24.5545 18.2929 24.7848 16.2893C25.2632 12.1331 22.2887 9.58015 20.2922 8.9424C18.7066 8.43573 17.0201 8.3135 15.3867 8.5757C16.1821 8.64115 16.974 8.79529 17.7393 9.04151Z" fill="#E29A6C"/>
<path fill-rule="evenodd" clip-rule="evenodd" d="M17.0699 17.5328C15.5302 17.5328 14.2812 18.3868 14.2812 19.4393C14.2812 19.6696 14.3415 19.891 14.4513 20.0948C14.8411 20.8265 15.8669 21.3474 17.0699 21.3474C18.2746 21.3474 19.3004 20.8265 19.6902 20.0948C19.8 19.891 19.8585 19.6696 19.8585 19.4393C19.8585 18.3868 18.6112 17.5328 17.0699 17.5328Z" fill="#736572"/>
<path fill-rule="evenodd" clip-rule="evenodd" d="M16.6594 17.5541C17.5931 17.8606 18.2379 18.5144 18.2379 19.2727C18.2379 19.5012 18.1777 19.7227 18.0679 19.9265C17.7241 20.5732 16.8826 21.055 15.8604 21.1578C16.2271 21.2801 16.6381 21.3474 17.0704 21.3474C17.6781 21.3474 18.2397 21.2145 18.6986 20.9895C19.1486 20.7681 19.4976 20.4562 19.6908 20.0948C19.8006 19.891 19.8591 19.6696 19.8591 19.4393C19.8591 18.3868 18.6119 17.5328 17.0705 17.5328C16.9304 17.5328 16.794 17.5399 16.6594 17.5541Z" fill="#615260"/>
<path d="M21.1571 24.607C21.0957 24.607 21.0349 24.5949 20.9781 24.5714C20.9213 24.5479 20.8698 24.5134 20.8263 24.47C20.7829 24.4265 20.7484 24.375 20.7249 24.3182C20.7014 24.2615 20.6893 24.2006 20.6893 24.1392C20.6893 23.8808 20.8988 23.6696 21.1571 23.6696C21.4155 23.6696 21.6249 23.8773 21.6249 24.1356V24.1391C21.6249 24.2006 21.6128 24.2614 21.5893 24.3182C21.5658 24.3749 21.5314 24.4265 21.4879 24.47C21.4445 24.5134 21.3929 24.5479 21.3362 24.5714C21.2794 24.5949 21.2186 24.607 21.1571 24.607ZM19.8581 26.4427C19.7784 26.4426 19.7 26.4222 19.6304 26.3833C19.5608 26.3444 19.5022 26.2884 19.4604 26.2206C19.4185 26.1528 19.3946 26.0753 19.3911 25.9957C19.3875 25.916 19.4044 25.8368 19.44 25.7655C19.5556 25.5345 19.8377 25.4391 20.0685 25.5546C20.2996 25.6701 20.3941 25.9493 20.2786 26.1804L20.2768 26.1839C20.238 26.2617 20.1782 26.3271 20.1043 26.3728C20.0303 26.4185 19.945 26.4427 19.8581 26.4427ZM22.454 26.4425C22.3926 26.4425 22.3317 26.4304 22.275 26.4069C22.2182 26.3834 22.1667 26.349 22.1232 26.3055C22.0798 26.2621 22.0453 26.2105 22.0218 26.1538C21.9983 26.097 21.9862 26.0362 21.9862 25.9748C21.9862 25.7163 22.1957 25.5052 22.454 25.5052C22.7124 25.5052 22.9218 25.7128 22.9218 25.9712V25.9747C22.9218 26.0361 22.9097 26.097 22.8862 26.1537C22.8627 26.2105 22.8282 26.2621 22.7848 26.3055C22.7414 26.3489 22.6898 26.3834 22.633 26.4069C22.5763 26.4304 22.5154 26.4425 22.454 26.4425ZM12.9844 24.607C12.923 24.607 12.8621 24.5949 12.8054 24.5714C12.7486 24.5479 12.697 24.5134 12.6536 24.47C12.6102 24.4265 12.5757 24.375 12.5522 24.3182C12.5287 24.2615 12.5166 24.2006 12.5166 24.1392C12.5166 23.8808 12.726 23.6696 12.9844 23.6696C13.2428 23.6696 13.4522 23.8773 13.4522 24.1356V24.1391C13.4522 24.2006 13.4401 24.2614 13.4166 24.3182C13.3931 24.3749 13.3586 24.4265 13.3152 24.4699C13.2717 24.5134 13.2202 24.5478 13.1634 24.5714C13.1067 24.5949 13.0458 24.607 12.9844 24.607ZM14.2812 26.4425C14.2198 26.4425 14.159 26.4304 14.1022 26.4069C14.0454 26.3834 13.9939 26.349 13.9504 26.3055C13.907 26.2621 13.8725 26.2105 13.849 26.1538C13.8255 26.097 13.8134 26.0362 13.8134 25.9748C13.8134 25.7163 14.0229 25.5052 14.2812 25.5052C14.5396 25.5052 14.749 25.7128 14.749 25.9712V25.9747C14.749 26.0361 14.7369 26.097 14.7134 26.1537C14.6899 26.2105 14.6555 26.2621 14.612 26.3055C14.5686 26.349 14.517 26.3834 14.4603 26.4069C14.4035 26.4304 14.3427 26.4425 14.2812 26.4425ZM11.6875 26.4425C11.6261 26.4425 11.5652 26.4304 11.5085 26.4069C11.4517 26.3834 11.4002 26.349 11.3567 26.3055C11.3133 26.2621 11.2788 26.2105 11.2553 26.1538C11.2318 26.097 11.2197 26.0362 11.2197 25.9748C11.2197 25.7163 11.4292 25.5052 11.6875 25.5052C11.9459 25.5052 12.1553 25.7128 12.1553 25.9712V25.9747C12.1553 26.0361 12.1432 26.097 12.1197 26.1537C12.0962 26.2105 12.0617 26.2621 12.0183 26.3055C11.9749 26.3489 11.9233 26.3834 11.8665 26.4069C11.8098 26.4304 11.7489 26.4425 11.6875 26.4425Z" fill="#615260"/>
<path fill-rule="evenodd" clip-rule="evenodd" d="M17.0701 26.2388V21.3471C16.6378 21.3471 16.2267 21.2798 15.86 21.1575L15.8281 21.1469V25.3069C15.8281 27.0839 14.1202 28.5244 12.0136 28.5244L11.8931 28.5226C11.2252 28.5085 10.6477 28.3773 10.1587 28.1594C10.7912 28.9142 11.7762 29.4262 13.1351 29.4546L13.2574 29.4563C15.3639 29.4563 17.0701 28.0159 17.0701 26.2388Z" fill="#BA6E4D"/>
<path fill-rule="evenodd" clip-rule="evenodd" d="M4.671 11.5613L7.30729 8.94798L7.31795 8.93732C8.32779 7.892 8.32779 6.19114 7.31795 5.14407C6.41085 4.20506 5.00588 4.35213 4.03854 5.09266C3.06945 4.35207 1.66448 4.205 0.757383 5.14407C-0.252461 6.19114 -0.252461 7.892 0.757383 8.93732L0.768039 8.94798L3.40433 11.5613C3.42207 11.579 3.43623 11.5913 3.45573 11.6073C3.63113 11.7456 3.77638 11.8554 4.01735 11.8642H4.05985C4.29901 11.8554 4.44432 11.7455 4.61972 11.6073C4.6391 11.5913 4.65502 11.5789 4.671 11.5613Z" fill="#FF7E92"/>
<path fill-rule="evenodd" clip-rule="evenodd" d="M20.0265 12.2889C21.6546 12.3935 23.6848 12.6769 25.2597 10.7405C26.0817 9.73065 26.2677 9.24705 27.2616 8.34528L30.5923 5.32721C30.6107 5.3105 30.6257 5.29026 30.6362 5.2677C30.6467 5.24513 30.6527 5.22069 30.6536 5.19581C30.6546 5.17092 30.6506 5.14609 30.6418 5.12278C30.6331 5.09947 30.6197 5.07814 30.6026 5.06004L27.5433 1.82397C27.5104 1.78908 27.4652 1.7682 27.4173 1.76565C27.3694 1.76311 27.3223 1.77909 27.2858 1.81029L24.133 4.50445C22.9177 5.45756 22.3774 5.52488 20.8574 5.78176L16.4746 6.52049C15.5321 6.67996 14.827 7.01124 14.0971 7.58348L10.7241 10.2267C9.55306 11.1427 10.4548 12.971 12.0209 12.2375L16.8005 10.2994C16.744 10.4437 16.7117 10.5963 16.7049 10.7511C16.6783 11.497 17.2682 12.1118 18.014 12.1596L20.0265 12.2889Z" fill="#FFD18D"/>
<path fill-rule="evenodd" clip-rule="evenodd" d="M21.4921 12.3656C22.2309 12.371 22.998 12.2912 23.7315 11.9546C24.2665 11.7083 24.7839 11.3274 25.2605 10.741C25.6927 10.2094 25.9496 9.8232 26.2402 9.44582C26.3895 9.25065 26.548 9.06263 26.715 8.88238C26.8692 8.71764 27.0463 8.54223 27.2625 8.34552L30.5933 5.32731C30.6117 5.31059 30.6267 5.29035 30.6372 5.26777C30.6477 5.2452 30.6537 5.22075 30.6546 5.19585C30.6556 5.17096 30.6516 5.14613 30.6428 5.12281C30.634 5.09949 30.6207 5.07816 30.6036 5.06006L29.5568 3.95347L26.3252 6.88213C25.5067 7.62448 25.2356 8.08336 24.7059 8.78672C24.5812 8.95298 24.453 9.11661 24.3214 9.2775C23.611 10.1528 22.8084 10.5726 21.9899 10.764C21.1111 10.9677 20.2164 10.9039 19.4032 10.8472C19.2969 10.8401 19.1924 10.8313 19.0897 10.826L17.0753 10.6966C16.953 10.6882 16.8323 10.665 16.7156 10.6276C16.7103 10.6687 16.7067 10.7101 16.705 10.7516C16.6784 11.4975 17.2683 12.1123 18.0142 12.1601L20.0268 12.2894C20.4893 12.3178 20.9836 12.3621 21.4921 12.3656Z" fill="#FBBD80"/>
<path d="M21.9264 15.9811C21.8605 15.9812 21.7954 15.9674 21.7353 15.9405C21.6752 15.9137 21.6215 15.8744 21.5776 15.8253C21.331 15.5499 20.9923 15.398 20.6237 15.3978H20.6229C20.2537 15.3978 19.9142 15.5498 19.6664 15.8258C19.5835 15.9182 19.4674 15.9738 19.3435 15.9805C19.2196 15.9872 19.0981 15.9444 19.0058 15.8616C18.9134 15.7787 18.8578 15.6625 18.8511 15.5386C18.8444 15.4147 18.8872 15.2933 18.97 15.2009C19.3914 14.7314 19.9938 14.4622 20.6229 14.4622H20.6243C20.9358 14.4628 21.2438 14.5288 21.5281 14.6562C21.8124 14.7835 22.0668 14.9693 22.2746 15.2014C22.3349 15.2686 22.3743 15.3519 22.3883 15.4411C22.4022 15.5303 22.3901 15.6217 22.3532 15.7041C22.3164 15.7866 22.2565 15.8566 22.1808 15.9057C22.105 15.9549 22.0167 15.981 21.9264 15.9811ZM12.2367 15.9811C12.1216 15.9812 12.0105 15.9387 11.9249 15.8618C11.8791 15.8208 11.8418 15.7712 11.8152 15.7159C11.7886 15.6605 11.7732 15.6004 11.7698 15.5391C11.7664 15.4777 11.7751 15.4163 11.7954 15.3583C11.8158 15.3004 11.8473 15.247 11.8883 15.2012C12.0961 14.9691 12.3505 14.7834 12.6349 14.656C12.9192 14.5287 13.2272 14.4626 13.5387 14.4621H13.5401C14.1691 14.4621 14.7715 14.7314 15.1929 15.2008C15.2737 15.2934 15.3148 15.4142 15.3073 15.5369C15.2998 15.6596 15.2443 15.7744 15.1528 15.8565C15.0613 15.9386 14.9411 15.9814 14.8183 15.9757C14.6955 15.9699 14.5799 15.916 14.4965 15.8257C14.2488 15.5497 13.9091 15.3977 13.5401 15.3977H13.5393C13.1707 15.3979 12.832 15.5498 12.5853 15.8252C12.5415 15.8743 12.4878 15.9136 12.4277 15.9405C12.3676 15.9674 12.3025 15.9812 12.2367 15.9811Z" fill="#615260"/>
<path fill-rule="evenodd" clip-rule="evenodd" d="M20.0443 8.45511L17.8102 8.37004C16.5948 8.30629 15.9163 9.69709 16.2795 10.5103L16.8004 10.2995C16.8282 10.229 16.8626 10.1614 16.9031 10.0975C16.9793 9.96991 17.0785 9.8565 17.1919 9.76084C17.3242 9.6514 17.4756 9.56731 17.6384 9.51278C17.7916 9.46033 17.9531 9.43632 18.1149 9.44195L20.4412 9.51811C21.0099 9.43135 21.2649 8.45511 20.0443 8.45511Z" fill="#FBBD80"/>
<path fill-rule="evenodd" clip-rule="evenodd" d="M11.6811 4.30454L13.2845 2.71351L13.2916 2.70819C13.9063 2.07034 13.9063 1.03567 13.2916 0.399635C12.7388 -0.172645 11.8848 -0.0822497 11.2949 0.367727C10.7067 -0.0823102 9.85098 -0.172645 9.29995 0.399635C8.68517 1.03567 8.68517 2.0704 9.29995 2.70819L9.30528 2.71351L10.9104 4.30454C10.9193 4.31338 10.9299 4.32228 10.9405 4.33112C11.0468 4.41618 11.1354 4.48351 11.2825 4.48702C11.2913 4.48878 11.2984 4.48878 11.309 4.48702C11.4543 4.48345 11.5429 4.41612 11.6492 4.33112C11.6616 4.32228 11.6704 4.31338 11.6811 4.30454Z" fill="#FF7E92"/>
<path fill-rule="evenodd" clip-rule="evenodd" d="M8.04424 7.46175C8.16824 6.64323 7.92551 5.77507 7.31787 5.14436C6.72259 4.52958 5.91472 4.379 5.15463 4.55967C5.28766 4.64752 5.41064 4.7497 5.52136 4.8644C6.53302 5.91148 6.53302 7.61233 5.52136 8.65947L5.51252 8.66831L2.99854 11.1593L3.40425 11.5616C3.42199 11.5793 3.43616 11.5916 3.45566 11.6076C3.63106 11.7459 3.77631 11.8557 4.01728 11.8645H4.05978C4.29894 11.8557 4.44425 11.7458 4.61965 11.6076C4.63915 11.5917 4.65507 11.5793 4.67105 11.5616L7.30734 8.94827L7.318 8.93762C7.72002 8.523 7.96099 8.00212 8.04424 7.46175ZM13.292 2.70818C13.9068 2.07033 13.9068 1.03566 13.292 0.399628C13.2672 0.374805 13.2424 0.350041 13.2176 0.32879C12.8491 0.000994769 12.3672 -0.0645158 11.9207 0.0577262C11.9928 0.141537 12.0563 0.232343 12.1103 0.32879C12.4575 0.952412 12.3742 1.76566 11.8587 2.29895L11.8534 2.30428L10.3722 3.77124L10.9108 4.30453C10.9197 4.31337 10.9303 4.32227 10.9409 4.33111C11.0473 4.41618 11.1358 4.4835 11.2829 4.48702C11.2917 4.48877 11.2988 4.48877 11.3095 4.48702C11.4547 4.48344 11.5434 4.41612 11.6496 4.33111C11.662 4.32227 11.6709 4.31337 11.6815 4.30453L13.2849 2.71351L13.292 2.70818Z" fill="#FF5F7A"/>
</svg>
