<svg width="30" height="30" viewBox="0 0 30 30" fill="none" xmlns="http://www.w3.org/2000/svg">
<path d="M11.01 14.6267C10.8163 15.1394 10.5632 15.7568 10.3214 16.329C4.51498 13.8994 1.59275 7.17197 3.84652 0.61987C4.01167 0.140346 4.53397 -0.114568 5.01407 0.0500064C5.49359 0.215158 5.74909 0.738091 5.58388 1.21761C4.07996 5.58967 5.26541 10.3747 8.53404 13.1252C9.3303 13.7954 10.1729 14.2803 11.01 14.6267Z" fill="#6DC847"/>
<path d="M17.271 21.5666V28.4126C17.271 29.0438 17.7826 29.5554 18.4138 29.5554H21.6437C22.2748 29.5554 22.7865 29.0438 22.7865 28.4126V28.2132C22.7865 27.719 22.3859 27.3184 21.8917 27.3184C21.3975 27.3184 20.9969 26.9178 20.9969 26.4236V21.5391L17.271 21.5666Z" fill="#D97C41"/>
<path d="M6.08622 21.5666V28.4126C6.08622 29.0438 6.59784 29.5554 7.22901 29.5554H10.4589C11.0901 29.5554 11.6017 29.0438 11.6017 28.4126V28.2132C11.6017 27.719 11.2011 27.3184 10.7069 27.3184C10.2127 27.3184 9.8121 26.9178 9.8121 26.4236V21.5391L6.08622 21.5666ZM6.27932 17.5008L4.85506 19.5805C4.85448 19.5805 4.85385 19.5799 4.85327 19.5799C3.16417 18.8517 1.20071 17.0921 0.106872 15.1217C-0.112368 14.7432 0.0165324 14.2595 0.39446 14.0402C0.733133 13.8441 1.1562 13.9267 1.39865 14.2167C2.70959 15.7898 4.2142 17.1603 6.27932 17.5008Z" fill="#C76D33"/>
<path d="M22.7863 13.8691V18.8591C22.7863 21.0455 21.4624 23.2644 19.2758 23.2644C18.4968 23.2644 17.8652 23.8961 17.8652 24.6751V26.3959C17.8652 26.8944 18.2728 27.2848 18.7707 27.2907C19.2597 27.2972 19.6543 27.6954 19.6543 28.1856V28.3395C19.6543 28.996 19.1225 29.5279 18.4659 29.5279H15.9216C15.265 29.5279 14.7332 28.996 14.7332 28.3395V24.3179C14.7332 23.7362 14.2614 23.2644 13.6797 23.2644H11.3398C11.3398 23.2644 5.82459 20.0564 11.1093 15.6077H14.5217L16.5229 13.9333L22.7863 13.8691Z" fill="#E4996D"/>
<path d="M6.68034 24.3179V26.3958C6.68034 26.8861 7.07679 27.2907 7.57519 27.2907C8.06955 27.2907 8.47005 27.6917 8.47005 28.1855V28.3394C8.47005 28.996 7.93765 29.5278 7.28166 29.5278H4.73673C4.08074 29.5278 3.54834 28.996 3.54834 28.3394V19.9138C3.54834 17.5363 5.46228 15.6077 7.96438 15.6077H11.1094C10.2288 17.1431 9.32092 19.9239 11.34 23.2644H7.73382C7.15213 23.2644 6.68034 23.7362 6.68034 24.3179Z" fill="#D97C41"/>
<path d="M23.0322 17.3343C20.5372 18.0828 17.8774 18.0828 15.3824 17.3343C15.1948 17.2781 15.0304 17.1628 14.9134 17.0057C14.7965 16.8485 14.7334 16.6579 14.7334 16.462V13.2669H23.6812V16.462C23.6812 17.2219 22.8916 17.3765 23.0322 17.3343Z" fill="#9CDA82"/>
<path d="M19.2071 1.34242C18.7073 1.34242 18.2314 1.3987 17.7804 1.50325C17.7804 1.50325 8.06299 7.7632 18.2492 15.5679C22.6894 16.0795 25.8952 13.316 25.8952 8.65355C25.8952 5.28454 23.3973 1.34242 19.2071 1.34242Z" fill="#E4996D"/>
<path d="M18.4911 15.5917C14.6889 15.2792 12.5195 12.4544 12.5195 8.65354C12.5195 7.42186 12.8535 6.11375 13.4821 4.94931C14.4179 3.21432 15.9262 1.93352 17.7805 1.50317C16.2279 3.45902 12.1987 9.70789 18.4911 15.5917ZM24.7045 17.8612C20.945 14.7916 24.9415 11.3988 25.2326 7.84238C25.2483 7.64993 25.3826 7.39669 25.5218 7.18068C25.7254 6.86498 26.1419 6.75784 26.4698 6.94106C27.6437 7.59688 28.1795 9.61247 29.1693 12.5296C29.7752 14.3148 29.6168 16.1088 28.058 17.698C27.1978 18.5748 25.6703 18.6499 24.7045 17.8612Z" fill="#D97C41"/>
<path d="M10.3569 17.698C8.79799 16.1087 8.63971 14.3147 9.24553 12.5295C10.2354 9.61243 10.7712 7.59689 11.9451 6.94102C12.2729 6.75786 12.6895 6.86494 12.893 7.18064C13.0323 7.39665 13.1665 7.64989 13.1823 7.84234C13.4733 11.3987 17.4698 14.7916 13.7104 17.8612C12.7445 18.6499 11.217 18.5748 10.3569 17.698Z" fill="#C76D33"/>
<path d="M19.6348 15.717C19.4421 15.6062 19.214 15.5744 18.9984 15.6285C15.6329 14.9915 15.9021 11.856 15.9021 11.856C16.4349 11.0004 17.2443 10.1973 17.3971 10.1209V10.1215C18.7464 9.02096 20.3217 9.01889 22.0199 11.1589C24.9599 14.8994 21.9206 17.029 19.6348 15.717Z" fill="#D97C41"/>
<path d="M18.9986 15.6285C18.9218 15.6474 18.848 15.677 18.7794 15.7164C16.6337 16.9476 13.8428 15.1525 15.9023 11.856C16.5113 13.1044 17.4983 14.3778 18.9986 15.6285Z" fill="#C76D33"/>
<path d="M17.8649 12.5913C17.8649 13.209 18.4659 13.9334 19.2071 13.9334C20.4962 13.9334 21.4364 11.6965 19.2071 11.6965C18.4659 11.6965 17.8649 11.9736 17.8649 12.5913ZM16.3691 9.01041C16.3105 9.01041 16.2526 8.99888 16.1985 8.97649C16.1444 8.95409 16.0953 8.92127 16.0539 8.87989C16.0126 8.8385 15.9797 8.78938 15.9573 8.73531C15.9349 8.68124 15.9234 8.62329 15.9234 8.56477C15.9234 8.3595 15.7564 8.19256 15.5511 8.19256C15.3459 8.19256 15.1789 8.35956 15.1789 8.56477C15.1789 8.81091 14.9794 9.01041 14.7332 9.01041C14.4871 9.01041 14.2876 8.81091 14.2876 8.56477C14.2876 7.86803 14.8544 7.30122 15.5511 7.30122C16.8124 7.30122 17.2107 9.01041 16.3691 9.01041ZM23.6802 9.01041C23.6217 9.01041 23.5638 8.99888 23.5097 8.97649C23.4556 8.95409 23.4065 8.92127 23.3651 8.87989C23.3237 8.8385 23.2909 8.78938 23.2685 8.73531C23.2461 8.68124 23.2346 8.62329 23.2346 8.56477C23.2346 8.3595 23.0676 8.19256 22.8623 8.19256C22.6571 8.19256 22.4901 8.35956 22.4901 8.56477C22.4901 8.81091 22.2906 9.01041 22.0444 9.01041C21.7983 9.01041 21.5988 8.81091 21.5988 8.56477C21.5988 7.86803 22.1656 7.30122 22.8623 7.30122C23.5591 7.30122 24.1259 7.86803 24.1259 8.56477C24.1259 8.68296 24.0789 8.79631 23.9954 8.87989C23.9118 8.96346 23.7984 9.01041 23.6802 9.01041Z" fill="#495560"/>
</svg>
