<svg width="31" height="32" viewBox="0 0 31 32" fill="none" xmlns="http://www.w3.org/2000/svg">
<path d="M27.6917 12.9049C28.4399 12.9049 29.0464 12.2984 29.0464 11.5502C29.0464 10.8019 28.4399 10.1954 27.6917 10.1954C26.9435 10.1954 26.3369 10.8019 26.3369 11.5502C26.3369 12.2984 26.9435 12.9049 27.6917 12.9049Z" fill="#CBAFEA"/>
<path d="M28.9877 8.17505C30.099 8.17505 30.9999 7.27419 30.9999 6.16291C30.9999 5.05164 30.099 4.15077 28.9877 4.15077C27.8765 4.15077 26.9756 5.05164 26.9756 6.16291C26.9756 7.27419 27.8765 8.17505 28.9877 8.17505Z" fill="#CBAFEA"/>
<path d="M1.72834 11.3851C2.68287 11.3851 3.45668 10.6113 3.45668 9.65672C3.45668 8.70219 2.68287 7.92838 1.72834 7.92838C0.773803 7.92838 0 8.70219 0 9.65672C0 10.6113 0.773803 11.3851 1.72834 11.3851Z" fill="#CBAFEA"/>
<path d="M28.2539 12.7827C28.0774 12.8634 27.8856 12.9051 27.6916 12.9048C26.9433 12.9048 26.3365 12.2986 26.3365 11.5503C26.3365 10.802 26.9433 10.1953 27.6916 10.1953C27.8926 10.1953 28.083 10.2391 28.2539 10.3174C27.7862 10.5309 27.4611 11.003 27.4611 11.5503C27.4611 12.0976 27.7861 12.5691 28.2539 12.7827ZM29.5501 8.09567C29.3673 8.14869 29.178 8.17546 28.9877 8.17517C27.8762 8.17517 26.9758 7.27411 26.9758 6.16328C26.9758 5.05178 27.8763 4.15071 28.9877 4.15071C29.1831 4.15071 29.3716 4.17825 29.5501 4.23022C28.7122 4.47378 28.0998 5.24714 28.0998 6.16321C28.0998 7.07929 28.7123 7.8521 29.5501 8.09567ZM2.29059 11.2911C2.10967 11.3534 1.91963 11.3851 1.72828 11.385C0.773965 11.385 0 10.6117 0 9.65673C0 8.70241 0.773965 7.92845 1.72828 7.92845C1.92491 7.92845 2.11462 7.96164 2.29059 8.02236C1.61181 8.25529 1.12463 8.89899 1.12463 9.65666C1.12463 10.4151 1.61175 11.0582 2.29059 11.2911Z" fill="#BC95E2"/>
<path d="M26.7782 23.0275L26.4237 24.0707L25.1138 27.9305C24.4663 29.8385 22.6761 31.1215 20.6616 31.1215H8.34468C6.33023 31.1215 4.53941 29.8385 3.89193 27.9305L2.58197 24.0707L2.22754 23.0275L14.4287 21.3199L26.7782 23.0275Z" fill="#F9F6F6"/>
<path d="M26.7782 23.0275L26.4238 24.0707H2.58197L2.22754 23.0275L14.4287 21.3199L26.7782 23.0275Z" fill="#DDDAEC"/>
<path d="M11.0809 31.1215H8.34456C6.33017 31.1215 4.53929 29.8385 3.89181 27.9305L2.22803 23.0275L14.4285 21.3199L14.4498 21.323L7.68268 23.0275L8.60757 27.9305C8.96693 29.8385 9.96197 31.1215 11.0809 31.1215ZM14.503 21.3299L14.4498 21.323L14.4617 21.3199L14.503 21.3299Z" fill="#DDDAEC"/>
<path d="M25.3303 20.9037C26.5551 20.9037 27.548 19.9108 27.548 18.686C27.548 17.7414 26.9571 16.9352 26.125 16.6156C26.2189 16.414 26.2675 16.1941 26.2673 15.9717C26.2673 15.1281 25.5834 14.4442 24.7399 14.4442C24.659 14.4442 24.5796 14.4506 24.5021 14.4628C24.4038 13.3289 23.4528 12.4391 22.2934 12.4391C22.068 12.4391 21.8505 12.473 21.6455 12.5355H7.55916V12.607C7.29058 12.4959 7.00273 12.4388 6.71207 12.4391C5.55273 12.4391 4.60176 13.3288 4.50335 14.4627C4.42471 14.4504 4.34523 14.4442 4.26563 14.4442C3.42206 14.4442 2.73818 15.128 2.73818 15.9716C2.73818 16.2017 2.78942 16.4198 2.88054 16.6155C2.0484 16.9351 1.45752 17.7413 1.45752 18.686C1.45752 19.9108 2.45037 20.9036 3.67517 20.9036" fill="#CBAFEA"/>
<path d="M7.55953 12.535H9.36354C8.51445 12.7943 7.88199 13.5488 7.80309 14.4624C7.72457 14.4503 7.64524 14.4443 7.56579 14.4443C6.72168 14.4443 6.03791 15.128 6.03791 15.9715C6.03791 16.2014 6.08928 16.4199 6.1807 16.6152C5.3485 16.9352 4.75737 17.7411 4.75737 18.686C4.75737 19.9108 5.75053 20.9033 6.97533 20.9033H3.67596C2.45116 20.9033 1.45801 19.9108 1.45801 18.686C1.45801 17.7411 2.04913 16.9352 2.88133 16.6152C2.78709 16.4137 2.73834 16.194 2.73855 15.9715C2.73855 15.1281 3.42237 14.4443 4.26642 14.4443C4.3472 14.4443 4.4261 14.4505 4.50372 14.4624C4.60201 13.3285 5.55322 12.4386 6.71226 12.4386C7.01283 12.4386 7.29834 12.4988 7.55946 12.6071L7.55953 12.535Z" fill="#BC95E2"/>
<path d="M17.6406 1.8324H15.7207L14.2603 2.47495L13.2848 1.8324H11.366C8.70557 1.8324 6.54883 3.98908 6.54883 6.64955V12.3411C6.54883 15.0015 8.70551 17.1582 11.366 17.1582H17.6405C20.3009 17.1582 22.4577 15.0015 22.4577 12.3411V6.64955C22.4577 3.98908 20.301 1.8324 17.6406 1.8324Z" fill="#D09080"/>
<path d="M16.5182 17.1581H11.366C8.70539 17.1581 6.54883 15.0015 6.54883 12.3409V6.64955C6.54883 3.98951 8.70539 1.83234 11.366 1.83234H13.2848L14.3643 1.98558L15.7206 1.83234H16.5182C13.8576 1.83234 11.701 3.98951 11.701 6.64955V12.3409C11.701 15.0015 13.8576 17.1581 16.5182 17.1581Z" fill="#C67D66"/>
<path d="M14.503 18.6922C16.1092 18.6922 17.4113 17.3901 17.4113 15.7839C17.4113 14.1777 16.1092 12.8756 14.503 12.8756C12.8968 12.8756 11.5947 14.1777 11.5947 15.7839C11.5947 17.3901 12.8968 18.6922 14.503 18.6922Z" fill="#DA4A54"/>
<path d="M13.2847 1.83222H15.7205V10.411H13.2847V1.83222Z" fill="#F9F6F6"/>
<path d="M15.7205 1.83222V1.8986C14.7919 2.05263 13.9528 2.47283 13.2847 3.07836V1.83222H15.7205Z" fill="#DDDAEC"/>
<path d="M14.5028 10.4115H11.8599C10.4215 10.4115 9.25537 11.5776 9.25537 13.016V15.7839C9.25537 17.2329 10.43 18.4076 11.8791 18.4076C13.3281 18.4076 14.5027 17.2329 14.5027 15.7839C14.5027 17.2329 15.6774 18.4076 17.1264 18.4076C18.5755 18.4076 19.7501 17.2329 19.7501 15.7839V13.016C19.7501 11.5776 18.584 10.4115 17.1456 10.4115H14.5028Z" fill="#F9F6F6"/>
<path d="M13.2398 18.0275C12.8297 18.2767 12.3589 18.4082 11.8791 18.4076C10.4301 18.4076 9.25537 17.2329 9.25537 15.7839V13.0155C9.25537 11.5772 10.4219 10.4112 11.8603 10.4112H14.581C13.1427 10.4112 11.9767 11.5772 11.9767 13.0155V15.7839C11.9768 16.735 12.4821 17.5672 13.2398 18.0275Z" fill="#DDDAEC"/>
<path d="M15.7941 9.41201H13.2121C12.4761 9.41201 11.8794 10.0087 11.8794 10.7447C11.8794 11.4807 12.4761 12.0774 13.2121 12.0774H13.6286V12.8687C13.6286 13.3517 14.0202 13.7432 14.5031 13.7432C14.9861 13.7432 15.3777 13.3517 15.3777 12.8687V12.0774H15.7942C16.5302 12.0774 17.1269 11.4807 17.1269 10.7447C17.1268 10.0087 16.5301 9.41201 15.7941 9.41201Z" fill="#30579D"/>
<path d="M14.9076 13.6439C14.7828 13.7092 14.644 13.7432 14.5031 13.7429C14.0197 13.7429 13.6283 13.3515 13.6283 12.8681V12.0772H13.2119C13.0369 12.0775 12.8635 12.0432 12.7018 11.9762C12.54 11.9093 12.3931 11.811 12.2695 11.6871C12.0284 11.4454 11.8794 11.1123 11.8794 10.7447C11.8794 10.0083 12.4755 9.41158 13.2119 9.41158H14.438C13.7016 9.41158 13.1049 10.0083 13.1049 10.7447C13.1049 11.1123 13.2539 11.4454 13.495 11.6871C13.6188 11.811 13.7658 11.9092 13.9276 11.9761C14.0894 12.0431 14.2629 12.0774 14.438 12.0772V12.8681C14.438 13.2049 14.6283 13.4974 14.9076 13.6439Z" fill="#26457D"/>
<path d="M7.03443 0.555029L3.88307 3.70639C3.14314 4.44631 3.14314 5.64595 3.88307 6.38581L5.37994 7.88269C6.3641 8.86684 8.03791 8.48949 8.50461 7.17826L10.159 2.53009C10.2792 2.19247 10.3012 1.82769 10.2224 1.4781C10.1435 1.1285 9.9672 0.80843 9.71379 0.555029C8.97393 -0.184837 7.77429 -0.184837 7.03443 0.555029Z" fill="#F9F6F6"/>
<path d="M6.28465 3.65192C5.54448 4.39142 5.54448 5.59117 6.28465 6.33134L7.78122 7.82791C7.83589 7.88293 7.89404 7.93438 7.95531 7.98194C7.24146 8.59306 6.11744 8.61999 5.37982 7.88237L3.88325 6.38581C3.14308 5.64564 3.14308 4.44588 3.88325 3.70638L7.03418 0.554839C7.21006 0.37876 7.41895 0.239115 7.64889 0.143906C7.87883 0.0486963 8.1253 -0.000205997 8.37417 6.52206e-07C8.79745 -0.000319437 9.20854 0.141706 9.54135 0.403243C9.50457 0.433923 9.46926 0.466317 9.43552 0.500315L6.28465 3.65192Z" fill="#DDDAEC"/>
<path d="M21.9717 0.555013L25.123 3.70631C25.8629 4.44623 25.8629 5.64587 25.123 6.38574L23.6261 7.88261C22.6419 8.86677 20.9681 8.48942 20.5014 7.17818L18.847 2.53001C18.7268 2.19239 18.7049 1.82762 18.7837 1.47802C18.8625 1.12843 19.0388 0.808354 19.2922 0.554953C20.0322 -0.184852 21.2318 -0.184852 21.9717 0.555013Z" fill="#F9F6F6"/>
<path d="M23.251 8.1751C22.2629 8.76495 20.9128 8.33539 20.5014 7.17885L18.8471 2.53008C18.7268 2.19248 18.7049 1.82771 18.7837 1.47812C18.8625 1.12853 19.0388 0.808459 19.2922 0.555076C19.6617 0.185022 20.147 0.000298699 20.6316 0.000298699C20.9711 -7.60844e-05 21.3044 0.0909865 21.5966 0.26392C21.4598 0.34455 21.334 0.442402 21.2221 0.555076C20.9688 0.808487 20.7924 1.12852 20.7135 1.47807C20.6346 1.82763 20.6563 2.19239 20.7763 2.53008L22.4313 7.17885C22.5897 7.6247 22.8878 7.96224 23.251 8.1751Z" fill="#DDDAEC"/>
<path d="M10.713 6.99025C10.2954 6.99025 9.95557 7.53554 9.95557 8.20581C9.95557 8.87608 10.2954 9.42137 10.713 9.42137C11.1306 9.42137 11.4705 8.87608 11.4705 8.20581C11.4705 7.53554 11.1307 6.99025 10.713 6.99025ZM18.2927 6.99025C17.875 6.99025 17.5352 7.53554 17.5352 8.20581C17.5352 8.87608 17.875 9.42137 18.2927 9.42137C18.7103 9.42137 19.0501 8.87608 19.0501 8.20581C19.05 7.53554 18.7103 6.99025 18.2927 6.99025Z" fill="#26457D"/>
<path d="M26.7781 20.0916H2.22776C1.41703 20.0916 0.759766 20.7488 0.759766 21.5596C0.759766 22.3703 1.41703 23.0276 2.22776 23.0276H26.7782C27.5889 23.0276 28.2462 22.3703 28.2462 21.5596C28.2462 20.7488 27.5889 20.0916 26.7781 20.0916Z" fill="#F9F6F6"/>
<path d="M6.22882 22.5978C6.36503 22.7343 6.52688 22.8425 6.70505 22.9162C6.88322 22.9899 7.0742 23.0277 7.26702 23.0274H2.22752C1.82179 23.0274 1.45483 22.8633 1.18933 22.5978C0.923822 22.3323 0.759766 21.9653 0.759766 21.5596C0.759766 20.7487 1.4166 20.0912 2.22752 20.0912H7.26702C6.4561 20.0912 5.79865 20.7487 5.79865 21.5596C5.79842 21.7525 5.83631 21.9435 5.91013 22.1216C5.98395 22.2998 6.09226 22.4616 6.22882 22.5978Z" fill="#DDDAEC"/>
<path d="M18.4424 19.9296V20.504C18.4424 20.9168 18.7653 21.2708 19.178 21.2784C19.5984 21.286 19.9417 20.9475 19.9417 20.5289C19.9417 20.9429 20.2773 21.2785 20.6913 21.2785C21.1053 21.2785 21.441 20.9429 21.441 20.5289C21.441 20.9476 21.7842 21.2861 22.2046 21.2784C22.6173 21.2708 22.9402 20.9168 22.9402 20.504V19.9296C22.9402 19.2945 22.4255 18.7797 21.7904 18.7797H19.5922C18.9572 18.7797 18.4424 19.2945 18.4424 19.9296Z" fill="#D09080"/>
<path d="M19.6292 19.9296V20.5044C19.6292 20.6816 19.6887 20.8475 19.7895 20.9809C19.7185 21.0755 19.6259 21.1519 19.5195 21.2036C19.4131 21.2553 19.296 21.2809 19.1777 21.2784C18.765 21.2708 18.4419 20.9171 18.4419 20.5044V19.9296C18.4419 19.2946 18.9566 18.7799 19.5922 18.7799H20.7788C20.1439 18.7799 19.6292 19.2946 19.6292 19.9296Z" fill="#C67D66"/>
<path d="M6.06592 19.9296V20.504C6.06592 20.9168 6.3888 21.2708 6.80153 21.2784C7.22197 21.286 7.56516 20.9475 7.56516 20.5289C7.56516 20.9429 7.90081 21.2785 8.31481 21.2785C8.72881 21.2785 9.06446 20.9429 9.06446 20.5289C9.06446 20.9476 9.40771 21.2861 9.8281 21.2784C10.2408 21.2708 10.5637 20.9168 10.5637 20.504V19.9296C10.5637 19.2945 10.0489 18.7797 9.41385 18.7797H7.21571C6.5807 18.7797 6.06592 19.2945 6.06592 19.9296Z" fill="#D09080"/>
<path d="M7.25322 19.9296V20.5044C7.25322 20.6816 7.31272 20.8475 7.4135 20.9809C7.34248 21.0755 7.24994 21.1519 7.14355 21.2036C7.03716 21.2553 6.91998 21.2809 6.80171 21.2784C6.38905 21.2708 6.06592 20.9171 6.06592 20.5044V19.9296C6.06592 19.2946 6.58064 18.7799 7.2162 18.7799H8.40283C7.76794 18.7799 7.25322 19.2946 7.25322 19.9296Z" fill="#C67D66"/>
</svg>
