<svg width="25" height="25" viewBox="0 0 25 25" fill="none" xmlns="http://www.w3.org/2000/svg">
<g clip-path="url(#clip0_4013_93)">
<path d="M24.8786 11.6313L22.07 8.95947V4.49267C22.0697 4.38916 22.0284 4.28998 21.9552 4.21679C21.882 4.1436 21.7829 4.10235 21.6793 4.10205H19.3356C19.2321 4.10235 19.1329 4.1436 19.0597 4.21679C18.9865 4.28998 18.9453 4.38916 18.945 4.49267V5.98486L12.7692 0.107905C12.6963 0.039223 12.5998 0.000976562 12.4997 0.000976562C12.3995 0.000976563 12.3031 0.039223 12.2301 0.107905L0.120753 11.6313C0.0641252 11.6852 0.0249427 11.7548 0.00826761 11.8311C-0.00840744 11.9074 -0.00180877 11.987 0.0272111 12.0596C0.056231 12.1321 0.106339 12.1943 0.171061 12.2381C0.235783 12.2819 0.312146 12.3052 0.390285 12.3052H3.1481L3.90591 24.6333C3.91205 24.7327 3.95588 24.8261 4.02846 24.8943C4.10105 24.9625 4.19692 25.0005 4.29653 25.0005H20.7028C20.8024 25.0005 20.8983 24.9625 20.9709 24.8943C21.0434 24.8261 21.0873 24.7327 21.0934 24.6333L21.8512 12.3052H24.609C24.6872 12.3052 24.7635 12.2819 24.8283 12.2381C24.893 12.1943 24.9431 12.1321 24.9721 12.0596C25.0011 11.987 25.0077 11.9074 24.991 11.8311C24.9744 11.7548 24.9352 11.6852 24.8786 11.6313ZM19.7262 4.8833H21.2887V8.21533L19.7262 6.729V4.8833ZM21.484 11.5239C21.3844 11.5239 21.2885 11.5619 21.216 11.6301C21.1434 11.6983 21.0996 11.7917 21.0934 11.8911L20.3356 24.2192H4.66372L3.90591 11.8911C3.89977 11.7917 3.85594 11.6983 3.78335 11.6301C3.71077 11.5619 3.6149 11.5239 3.51528 11.5239H1.36685L12.4997 0.930171L23.6325 11.5239H21.484Z" fill="black"/>
<path d="M21.2891 4.88281V8.21484L19.7266 6.72852V4.88281H21.2891Z" fill="white"/>
<path d="M12.5 0.929688L1.36719 11.5234H3.51562C3.61524 11.5234 3.71111 11.5614 3.7837 11.6296C3.85628 11.6979 3.90011 11.7912 3.90625 11.8906L4.66406 24.2188H20.3359L21.0938 11.8906C21.0999 11.7912 21.1437 11.6979 21.2163 11.6296C21.2889 11.5614 21.3848 11.5234 21.4844 11.5234H23.6328L12.5 0.929688ZM12.5 4.88281C12.9249 4.88281 13.3403 5.00882 13.6936 5.24489C14.0469 5.48096 14.3223 5.8165 14.4849 6.20908C14.6475 6.60165 14.6901 7.03363 14.6072 7.45039C14.5243 7.86715 14.3196 8.24996 14.0192 8.55042C13.7187 8.85089 13.3359 9.05551 12.9191 9.13841C12.5024 9.2213 12.0704 9.17876 11.6778 9.01615C11.2853 8.85354 10.9497 8.57817 10.7136 8.22486C10.4776 7.87155 10.3516 7.45617 10.3516 7.03125C10.3519 6.46155 10.5784 5.91529 10.9812 5.51245C11.384 5.10961 11.9303 4.88315 12.5 4.88281ZM19.1406 23.0469C19.1403 23.1504 19.0991 23.2496 19.0259 23.3228C18.9527 23.3959 18.8535 23.4372 18.75 23.4375H6.25C6.14649 23.4372 6.04731 23.3959 5.97412 23.3228C5.90093 23.2496 5.85968 23.1504 5.85938 23.0469V12.1094C5.85968 12.0059 5.90093 11.9067 5.97412 11.8335C6.04731 11.7603 6.14649 11.7191 6.25 11.7188H18.75C18.8535 11.7191 18.9527 11.7603 19.0259 11.8335C19.0991 11.9067 19.1403 12.0059 19.1406 12.1094V23.0469Z" fill="black"/>
<path d="M12.5 4.88281C12.0751 4.88281 11.6597 5.00882 11.3064 5.24489C10.9531 5.48096 10.6777 5.8165 10.5151 6.20908C10.3525 6.60165 10.3099 7.03363 10.3928 7.45039C10.4757 7.86715 10.6804 8.24996 10.9808 8.55042C11.2813 8.85089 11.6641 9.05551 12.0809 9.13841C12.4976 9.2213 12.9296 9.17876 13.3222 9.01615C13.7147 8.85354 14.0503 8.57817 14.2864 8.22486C14.5224 7.87155 14.6484 7.45617 14.6484 7.03125C14.6481 6.46155 14.4216 5.91529 14.0188 5.51245C13.616 5.10961 13.0697 4.88315 12.5 4.88281ZM12.5 8.39844C12.2296 8.39844 11.9653 8.31825 11.7404 8.16802C11.5156 8.0178 11.3404 7.80427 11.2369 7.55445C11.1334 7.30463 11.1063 7.02973 11.1591 6.76453C11.2118 6.49932 11.342 6.25571 11.5333 6.0645C11.7245 5.8733 11.9681 5.74309 12.2333 5.69033C12.4985 5.63758 12.7734 5.66465 13.0232 5.76813C13.273 5.87161 13.4865 6.04685 13.6368 6.27168C13.787 6.49651 13.8672 6.76085 13.8672 7.03125C13.8668 7.39373 13.7226 7.74125 13.4663 7.99756C13.21 8.25387 12.8625 8.39804 12.5 8.39844Z" fill="black"/>
<path d="M12.5 8.39844C13.2551 8.39844 13.8672 7.78633 13.8672 7.03125C13.8672 6.27617 13.2551 5.66406 12.5 5.66406C11.7449 5.66406 11.1328 6.27617 11.1328 7.03125C11.1328 7.78633 11.7449 8.39844 12.5 8.39844Z" fill="white"/>
<path d="M12.3262 16.6465C12.2286 16.7575 12.1079 16.8457 11.9726 16.9051C11.8373 16.9645 11.6907 16.9936 11.543 16.9902C11.3603 16.994 11.1807 16.943 11.0273 16.8438C10.9849 16.8149 10.9485 16.778 10.9204 16.7351C10.8922 16.6922 10.8727 16.6441 10.8631 16.5937C10.8535 16.5433 10.8539 16.4915 10.8643 16.4412C10.8747 16.391 10.895 16.3432 10.9238 16.3008C10.9527 16.2583 10.9896 16.222 11.0325 16.1938C11.0754 16.1656 11.1234 16.1462 11.1739 16.1366C11.2243 16.127 11.2761 16.1274 11.3264 16.1378C11.3766 16.1482 11.4243 16.1684 11.4668 16.1973C11.5088 16.2096 11.5529 16.2125 11.5962 16.2058C11.6394 16.199 11.6806 16.1828 11.7168 16.1582C11.7207 16.1445 11.7305 16.0801 11.5996 15.8457C11.5781 15.8086 11.5586 15.7676 11.5351 15.7227C11.4902 15.6348 11.3867 15.4297 11.3222 15.4063C11.2252 15.3713 11.1459 15.2993 11.1018 15.206C11.0577 15.1128 11.0524 15.0058 11.087 14.9086C11.1217 14.8114 11.1934 14.7319 11.2866 14.6876C11.3797 14.6432 11.4867 14.6375 11.584 14.6719C11.9433 14.7988 12.1172 15.1426 12.2324 15.3711C12.25 15.4043 12.2656 15.4375 12.2812 15.4648C12.3926 15.6641 12.6875 16.1934 12.3262 16.6465Z" fill="black"/>
<path d="M9.83447 15.2417C9.93641 15.2417 10.019 15.1591 10.019 15.0571C10.019 14.9552 9.93641 14.8726 9.83447 14.8726C9.73254 14.8726 9.6499 14.9552 9.6499 15.0571C9.6499 15.1591 9.73254 15.2417 9.83447 15.2417Z" fill="black"/>
<path d="M18.75 11.7188H6.25C6.14649 11.7191 6.04731 11.7603 5.97412 11.8335C5.90093 11.9067 5.85968 12.0059 5.85938 12.1094V23.0469C5.85968 23.1504 5.90093 23.2496 5.97412 23.3228C6.04731 23.3959 6.14649 23.4372 6.25 23.4375H18.75C18.8535 23.4372 18.9527 23.3959 19.0259 23.3228C19.0991 23.2496 19.1403 23.1504 19.1406 23.0469V12.1094C19.1403 12.0059 19.0991 11.9067 19.0259 11.8335C18.9527 11.7603 18.8535 11.7191 18.75 11.7188ZM12.3848 22.6562V22.1836C12.6094 22.3379 12.8672 22.5 13.1387 22.6562H12.3848ZM18.3594 22.6562H14.9414C14.1602 22.3965 12.748 21.5625 12.3457 21.1699L12.334 21.1562C12.3004 21.0955 12.2512 21.0448 12.1914 21.0094C12.1317 20.974 12.0636 20.9553 11.9941 20.9551C11.9177 20.9546 11.8428 20.977 11.7793 21.0195C11.7518 21.0362 11.7263 21.0559 11.7031 21.0781C11.6544 21.1264 11.6195 21.1868 11.602 21.253C11.5845 21.3193 11.585 21.3891 11.6035 21.4551V22.6562H11.1777C11.2152 22.1416 11.1717 21.6242 11.0488 21.123C10.985 20.8895 10.8813 20.6688 10.7422 20.4707C10.6875 20.3945 10.6191 20.3184 10.5469 20.2363C10.4635 20.1495 10.3889 20.0546 10.3242 19.9531C10.2661 19.8302 10.2414 19.6942 10.2527 19.5587C10.264 19.4232 10.3109 19.2932 10.3887 19.1816C10.4297 19.1133 11.3594 17.4766 10.2793 16.459C10.0227 16.2599 9.7207 16.1277 9.40039 16.0742C9.1367 16.0333 8.87896 15.9605 8.63281 15.8574C8.52982 15.7769 8.43672 15.6845 8.35547 15.582C8.39312 15.5564 8.42386 15.5218 8.44498 15.4814C8.4661 15.441 8.47694 15.3961 8.47656 15.3505C8.47617 15.305 8.46456 15.2602 8.44276 15.2202C8.42096 15.1802 8.38964 15.1461 8.35156 15.1211C8.80771 15.1025 9.24558 14.9367 9.59961 14.6484C9.62515 14.6268 9.64693 14.601 9.66406 14.5723C9.77539 14.4062 10.1738 13.9219 10.5527 13.8965C10.5692 13.895 10.5855 13.8924 10.6016 13.8887C11.0528 13.8116 11.5169 13.8905 11.9173 14.1124C12.3178 14.3343 12.6308 14.6859 12.8047 15.1094C12.8125 15.123 12.8242 15.1445 12.832 15.1562C12.834 15.1602 13.0137 15.459 13.2168 16.3945C13.2695 16.6309 13.3418 16.9395 13.4375 17.2383C13.5768 17.6817 13.7717 18.1056 14.0176 18.5C14.474 19.2208 15.0266 19.8759 15.6602 20.4473C16.112 20.8404 16.532 21.2689 16.916 21.7285C16.9644 21.7887 17.0297 21.8331 17.1034 21.856C17.1772 21.879 17.2561 21.8795 17.3301 21.8574C17.7775 21.6999 18.1465 21.3751 18.3594 20.9512V22.6562ZM18.3594 18.1992C18.1736 17.8188 17.8939 17.492 17.5466 17.2497C17.1994 17.0074 16.7962 16.8576 16.375 16.8145C16.3488 16.8125 16.3227 16.8093 16.2969 16.8047C16.3438 16.8027 16.3965 16.8008 16.4551 16.8027C16.8318 16.8347 17.1972 16.948 17.5259 17.1348C17.8547 17.3216 18.139 17.5775 18.3594 17.8848V18.1992ZM18.3594 16.7656C17.8252 16.324 17.1645 16.0634 16.4727 16.0215C15.4492 15.9902 15.2969 16.498 15.2773 16.7148C15.2441 17.0645 15.3926 17.5 16.2969 17.5918C16.6373 17.6303 16.959 17.7677 17.2221 17.9871C17.4853 18.2065 17.6783 18.4982 17.7773 18.8262C17.9282 19.2787 17.9438 19.7653 17.8223 20.2266C17.7389 20.5296 17.5643 20.7996 17.3223 21C16.9661 20.5952 16.5831 20.2147 16.1758 19.8613C15.599 19.3393 15.0957 18.7414 14.6797 18.084C14.4675 17.745 14.3001 17.38 14.1816 16.9981C14.0957 16.7305 14.0273 16.4453 13.9785 16.2266C13.7715 15.2734 13.5762 14.8809 13.5039 14.7598C13.2529 14.1883 12.8186 13.7167 12.2697 13.4196C11.7207 13.1225 11.0884 13.0168 10.4727 13.1191C9.73242 13.1855 9.19141 13.8848 9.04492 14.0957C8.81384 14.2522 8.54266 14.3389 8.26367 14.3457C8.03871 14.3585 7.82678 14.4554 7.66992 14.6172C7.57786 14.7209 7.50885 14.8429 7.46743 14.9752C7.42602 15.1075 7.41316 15.2471 7.42969 15.3848C7.50391 15.9922 8.12109 16.4531 8.19141 16.5039C8.20312 16.5098 8.21289 16.5176 8.22461 16.5234C8.5494 16.6816 8.89654 16.789 9.25391 16.8418C9.42792 16.8686 9.59431 16.9318 9.74219 17.0273C10.3496 17.5977 9.76562 18.6934 9.7168 18.7852C9.57432 19.0024 9.48967 19.2524 9.47087 19.5114C9.45207 19.7705 9.49975 20.0301 9.60938 20.2656C9.70196 20.4458 9.82113 20.6111 9.96289 20.7559C10.0215 20.8203 10.0762 20.8828 10.1094 20.9277C10.1934 21.0504 10.2562 21.1865 10.2949 21.3301C10.3975 21.7642 10.4305 22.2118 10.3926 22.6562H6.64062V12.5H18.3594V16.7656Z" fill="black"/>
<path d="M13.1387 22.6562H12.3848V22.1836C12.6094 22.3379 12.8672 22.5 13.1387 22.6562Z" fill="white"/>
<path d="M18.3594 17.8848V18.1993C18.1736 17.8188 17.8939 17.492 17.5466 17.2498C17.1994 17.0075 16.7962 16.8577 16.375 16.8145C16.3488 16.8126 16.3227 16.8093 16.2969 16.8048C16.3438 16.8028 16.3965 16.8009 16.4551 16.8028C16.8318 16.8348 17.1972 16.9481 17.5259 17.1349C17.8547 17.3217 18.139 17.5776 18.3594 17.8848Z" fill="black"/>
<path d="M17.3301 21.8574C17.2561 21.8794 17.1772 21.8789 17.1034 21.856C17.0297 21.833 16.9644 21.7886 16.916 21.7285C16.532 21.2688 16.112 20.8404 15.6602 20.4472C15.0266 19.8758 14.474 19.2207 14.0176 18.4999C13.7717 18.1056 13.5768 17.6816 13.4375 17.2382C13.3418 16.9394 13.2695 16.6308 13.2168 16.3945C13.0137 15.4589 12.834 15.1601 12.832 15.1562C12.8242 15.1445 12.8125 15.123 12.8047 15.1093C12.6308 14.6858 12.3178 14.3342 11.9173 14.1123C11.5169 13.8905 11.0528 13.8116 10.6016 13.8886C10.5855 13.8923 10.5692 13.8949 10.5527 13.8964C10.1738 13.9218 9.77539 14.4062 9.66406 14.5722C9.64693 14.601 9.62515 14.6267 9.59961 14.6484C9.24558 14.9366 8.80771 15.1024 8.35156 15.121C8.38964 15.1461 8.42096 15.1801 8.44276 15.2201C8.46456 15.2601 8.47617 15.3049 8.47656 15.3505C8.47694 15.396 8.4661 15.441 8.44498 15.4814C8.42386 15.5217 8.39312 15.5563 8.35547 15.582C8.43672 15.6844 8.52982 15.7768 8.63281 15.8574C8.87896 15.9604 9.1367 16.0332 9.40039 16.0742C9.7207 16.1277 10.0227 16.2599 10.2793 16.4589C11.3594 17.4765 10.4297 19.1132 10.3887 19.1816C10.3109 19.2931 10.264 19.4232 10.2527 19.5587C10.2414 19.6941 10.2661 19.8302 10.3242 19.9531C10.3889 20.0546 10.4635 20.1495 10.5469 20.2363C10.6191 20.3183 10.6875 20.3945 10.7422 20.4706C10.8813 20.6688 10.985 20.8895 11.0488 21.123C11.1717 21.6242 11.2152 22.1415 11.1777 22.6562H11.6035V21.455C11.585 21.389 11.5845 21.3193 11.602 21.253C11.6195 21.1867 11.6544 21.1263 11.7031 21.0781C11.7263 21.0558 11.7518 21.0362 11.7793 21.0195C11.8428 20.977 11.9177 20.9545 11.9941 20.955C12.0636 20.9552 12.1317 20.974 12.1914 21.0094C12.2512 21.0447 12.3004 21.0954 12.334 21.1562L12.3457 21.1699C12.748 21.5624 14.1602 22.3964 14.9414 22.6562H18.3594V20.9511C18.1465 21.375 17.7775 21.6999 17.3301 21.8574ZM9.83398 15.2421C9.79756 15.2419 9.76201 15.231 9.73181 15.2106C9.70161 15.1903 9.6781 15.1614 9.66426 15.1277C9.65041 15.0941 9.64684 15.057 9.65399 15.0213C9.66114 14.9856 9.6787 14.9528 9.70445 14.9271C9.73021 14.9013 9.763 14.8837 9.79872 14.8766C9.83443 14.8694 9.87146 14.873 9.90514 14.8869C9.93883 14.9007 9.96766 14.9242 9.98802 14.9544C10.0084 14.9846 10.0193 15.0202 10.0195 15.0566C10.0196 15.081 10.0148 15.1051 10.0055 15.1277C9.99624 15.1502 9.98257 15.1707 9.96533 15.1879C9.94809 15.2052 9.92761 15.2188 9.90507 15.2281C9.88253 15.2374 9.85837 15.2422 9.83398 15.2421ZM12.3262 16.6464C12.2286 16.7574 12.1079 16.8457 11.9726 16.9051C11.8373 16.9644 11.6907 16.9935 11.543 16.9902C11.3603 16.9939 11.1807 16.9429 11.0273 16.8437C10.9849 16.8148 10.9485 16.7779 10.9204 16.735C10.8922 16.6921 10.8727 16.6441 10.8631 16.5937C10.8535 16.5432 10.8539 16.4914 10.8643 16.4412C10.8748 16.3909 10.895 16.3432 10.9238 16.3007C10.9527 16.2583 10.9896 16.2219 11.0325 16.1938C11.0754 16.1656 11.1235 16.1461 11.1739 16.1365C11.2243 16.1269 11.2761 16.1273 11.3264 16.1377C11.3766 16.1481 11.4243 16.1684 11.4668 16.1972C11.5088 16.2096 11.553 16.2125 11.5962 16.2057C11.6394 16.1989 11.6806 16.1827 11.7168 16.1582C11.7207 16.1445 11.7305 16.08 11.5996 15.8456C11.5781 15.8085 11.5586 15.7675 11.5352 15.7226C11.4902 15.6347 11.3867 15.4296 11.3223 15.4062C11.2252 15.3713 11.1459 15.2993 11.1018 15.206C11.0577 15.1127 11.0524 15.0057 11.0871 14.9085C11.1217 14.8114 11.1935 14.7319 11.2866 14.6875C11.3797 14.6431 11.4867 14.6375 11.584 14.6718C11.9434 14.7988 12.1172 15.1425 12.2324 15.371C12.25 15.4042 12.2656 15.4374 12.2813 15.4648C12.3926 15.664 12.6875 16.1933 12.3262 16.6464Z" fill="black"/>
<path d="M15.2773 16.7148C15.2441 17.0645 15.3926 17.5 16.2969 17.5918C16.6373 17.6303 16.959 17.7677 17.2221 17.9871C17.4853 18.2065 17.6783 18.4982 17.7773 18.8262C17.9282 19.2787 17.9438 19.7653 17.8223 20.2266C17.7389 20.5296 17.5643 20.7996 17.3223 21C16.9661 20.5952 16.5831 20.2147 16.1758 19.8613C15.599 19.3393 15.0957 18.7414 14.6797 18.084C14.4675 17.745 14.3001 17.38 14.1816 16.9981C14.0957 16.7305 14.0273 16.4453 13.9785 16.2266C13.7715 15.2734 13.5762 14.8809 13.5039 14.7598C13.2529 14.1883 12.8186 13.7167 12.2697 13.4196C11.7207 13.1225 11.0884 13.0168 10.4727 13.1191C9.73242 13.1855 9.19141 13.8848 9.04492 14.0957C8.81384 14.2522 8.54266 14.3389 8.26367 14.3457C8.03871 14.3585 7.82678 14.4554 7.66992 14.6172C7.57786 14.7209 7.50885 14.8429 7.46743 14.9752C7.42602 15.1075 7.41316 15.2471 7.42969 15.3848C7.50391 15.9922 8.12109 16.4531 8.19141 16.5039C8.20312 16.5098 8.21289 16.5176 8.22461 16.5234C8.5494 16.6816 8.89654 16.789 9.25391 16.8418C9.42792 16.8686 9.59431 16.9318 9.74219 17.0273C10.3496 17.5977 9.76562 18.6934 9.7168 18.7852C9.57432 19.0024 9.48967 19.2524 9.47087 19.5114C9.45207 19.7705 9.49975 20.0301 9.60938 20.2656C9.70196 20.4458 9.82113 20.6111 9.96289 20.7559C10.0215 20.8203 10.0762 20.8828 10.1094 20.9277C10.1934 21.0504 10.2562 21.1865 10.2949 21.3301C10.3975 21.7642 10.4305 22.2118 10.3926 22.6562H6.64062V12.5H18.3594V16.7656C17.8252 16.324 17.1645 16.0634 16.4727 16.0215C15.4492 15.9902 15.2969 16.498 15.2773 16.7148Z" fill="white"/>
<path opacity="0.5" d="M19.7266 4.88281H21.2891V5.27344H19.7266V4.88281Z" fill="white"/>
<path opacity="0.4" d="M23.6328 11.5234H23.2227L12.5 1.32031L1.77734 11.5234H1.36719L12.5 0.929688L23.6328 11.5234Z" fill="white"/>
<path opacity="0.5" d="M13.8672 7.03125C13.868 7.09669 13.8627 7.16206 13.8516 7.22656C13.8051 6.90128 13.6428 6.6037 13.3945 6.38843C13.1462 6.17317 12.8287 6.05466 12.5001 6.05466C12.1715 6.05466 11.8539 6.17317 11.6056 6.38843C11.3574 6.6037 11.1951 6.90128 11.1485 7.22656C11.1374 7.16206 11.1322 7.09669 11.1329 7.03125C11.1329 6.66865 11.2769 6.3209 11.5333 6.0645C11.7897 5.80811 12.1375 5.66406 12.5001 5.66406C12.8627 5.66406 13.2104 5.80811 13.4668 6.0645C13.7232 6.3209 13.8672 6.66865 13.8672 7.03125Z" fill="white"/>
<path opacity="0.5" d="M13.8672 7.03125C13.8672 7.39385 13.7232 7.7416 13.4668 7.998C13.2104 8.2544 12.8627 8.39844 12.5001 8.39844C12.1375 8.39844 11.7897 8.2544 11.5333 7.998C11.2769 7.7416 11.1329 7.39385 11.1329 7.03125C11.1322 6.96581 11.1374 6.90044 11.1485 6.83594C11.1951 7.16122 11.3574 7.4588 11.6056 7.67407C11.8539 7.88933 12.1715 8.00784 12.5001 8.00784C12.8287 8.00784 13.1462 7.88933 13.3945 7.67407C13.6428 7.4588 13.8051 7.16122 13.8516 6.83594C13.8627 6.90044 13.868 6.96581 13.8672 7.03125Z" fill="#9FA5AA"/>
<path opacity="0.5" d="M10.3926 22.6562H6.64062V22.2656H10.3926C10.3965 22.2129 10.3984 22.1621 10.4004 22.1133C10.4074 22.2943 10.4048 22.4755 10.3926 22.6562Z" fill="#9FA5AA"/>
<path opacity="0.4" d="M18.3595 22.2656V22.6563H14.9415C14.1603 22.3965 12.7482 21.5625 12.3458 21.1699L12.3341 21.1563C12.3005 21.0955 12.2513 21.0448 12.1916 21.0094C12.1318 20.974 12.0637 20.9553 11.9943 20.9551C11.9178 20.9546 11.843 20.977 11.7794 21.0195C11.752 21.0362 11.7264 21.0559 11.7032 21.0781C11.6533 21.1263 11.6187 21.1881 11.6036 21.2559V21.0645C11.5851 20.9985 11.5846 20.9287 11.6021 20.8624C11.6196 20.7961 11.6545 20.7358 11.7032 20.6875C11.7264 20.6652 11.752 20.6456 11.7794 20.6289C11.843 20.5864 11.9178 20.5639 11.9943 20.5645C12.0637 20.5647 12.1318 20.5834 12.1916 20.6188C12.2513 20.6542 12.3005 20.7049 12.3341 20.7656L12.3458 20.7793C12.7482 21.1719 14.1603 22.0059 14.9415 22.2656H18.3595Z" fill="white"/>
<path opacity="0.3" d="M18.3594 20.9511V21.3417C18.1465 21.7657 17.7775 22.0905 17.3301 22.248C17.2561 22.27 17.1772 22.2695 17.1034 22.2466C17.0297 22.2236 16.9644 22.1792 16.916 22.1191C16.532 21.6594 16.112 21.231 15.6602 20.8378C15.0266 20.2665 14.474 19.6113 14.0176 18.8906C13.7717 18.4962 13.5768 18.0722 13.4375 17.6289C13.3418 17.33 13.2695 17.0214 13.2168 16.7851C13.0137 15.8496 12.834 15.5507 12.832 15.5468C12.8242 15.5351 12.8125 15.5136 12.8047 15.4999C12.6308 15.0765 12.3178 14.7248 11.9173 14.503C11.5169 14.2811 11.0528 14.2022 10.6016 14.2792C10.5855 14.283 10.5692 14.2856 10.5527 14.2871C10.1738 14.3124 9.77539 14.7968 9.66406 14.9628C9.64693 14.9916 9.62515 15.0174 9.59961 15.039C9.26862 15.3125 8.86006 15.4751 8.43164 15.5039C8.46074 15.4591 8.47633 15.4069 8.47656 15.3535C8.47696 15.3073 8.46572 15.2618 8.44387 15.2212C8.42202 15.1806 8.39027 15.1461 8.35156 15.121C8.80771 15.1024 9.24558 14.9366 9.59961 14.6484C9.62515 14.6267 9.64693 14.601 9.66406 14.5722C9.77539 14.4062 10.1738 13.9218 10.5527 13.8964C10.5692 13.8949 10.5855 13.8923 10.6016 13.8886C11.0528 13.8116 11.5169 13.8905 11.9173 14.1123C12.3178 14.3342 12.6308 14.6858 12.8047 15.1093C12.8125 15.123 12.8242 15.1445 12.832 15.1562C12.834 15.1601 13.0137 15.4589 13.2168 16.3945C13.2695 16.6308 13.3418 16.9394 13.4375 17.2382C13.5768 17.6816 13.7717 18.1056 14.0176 18.4999C14.474 19.2207 15.0266 19.8758 15.6602 20.4472C16.112 20.8404 16.532 21.2688 16.916 21.7285C16.9644 21.7886 17.0297 21.833 17.1034 21.856C17.1772 21.8789 17.2561 21.8794 17.3301 21.8574C17.7775 21.6999 18.1465 21.375 18.3594 20.9511Z" fill="#E5D0C3"/>
<path opacity="0.5" d="M6.64062 12.5H18.3594V12.8906H6.64062V12.5Z" fill="white"/>
<path opacity="0.3" d="M23.6328 11.5234H21.4844C21.3848 11.5234 21.2889 11.5614 21.2163 11.6296C21.1437 11.6979 21.0999 11.7912 21.0938 11.8906L20.3359 24.2188H4.66406L3.90625 11.8906C3.90011 11.7912 3.85628 11.6979 3.7837 11.6296C3.71111 11.5614 3.61524 11.5234 3.51562 11.5234H1.36719L1.77734 11.1328H3.51562C3.61524 11.1328 3.71111 11.1708 3.7837 11.239C3.85628 11.3072 3.90011 11.4006 3.90625 11.5L4.66406 23.8281H20.3359L21.0938 11.5C21.0999 11.4006 21.1437 11.3072 21.2163 11.239C21.2889 11.1708 21.3848 11.1328 21.4844 11.1328H23.2227L23.6328 11.5234Z" fill="white"/>
</g>
<defs>
<clipPath id="clip0_4013_93">
<rect width="25" height="25" fill="white"/>
</clipPath>
</defs>
</svg>
