<svg width="15" height="20" viewBox="0 0 15 20" fill="none" xmlns="http://www.w3.org/2000/svg">
<path d="M9.04692 2.20501C8.58507 1.52581 8.17755 0.900945 7.7972 0.330418C7.74286 0.248915 7.66136 0.167411 7.57985 0.113075C7.25384 -0.104269 6.81915 0.00440317 6.60181 0.330418C6.24862 0.900945 5.84111 1.49864 5.35208 2.20501C3.20582 5.35649 0 10.1109 0 12.8277C0 14.8109 0.815038 16.604 2.1191 17.9081C3.42316 19.185 5.21624 20 7.1995 20C9.18276 20 10.9758 19.185 12.2799 17.8809C13.584 16.5768 14.399 14.7838 14.399 12.8005C14.399 10.0837 11.1932 5.35649 9.04692 2.20501ZM11.3019 16.9029C10.2423 17.9624 8.80241 18.5873 7.1995 18.5873C5.59659 18.5873 4.15669 17.9352 3.09714 16.9029C2.0376 15.8433 1.41273 14.4034 1.41273 12.8005C1.41273 10.5184 4.48271 5.98135 6.5203 2.96571C6.76481 2.61252 6.98216 2.25934 7.1995 1.96049C7.41685 2.25934 7.63419 2.61252 7.8787 2.96571C9.9163 6.00852 12.9863 10.5184 12.9863 12.8005C12.9863 14.4034 12.3342 15.8433 11.3019 16.9029Z" fill="#FA9700"/>
<path d="M11.4108 12.3115C11.0304 12.2843 10.7044 12.5831 10.6773 12.9635C10.6501 13.5612 10.4599 14.1317 10.1611 14.6207C9.86221 15.1098 9.42753 15.5445 8.91134 15.8161C8.58532 16.0063 8.44948 16.441 8.63966 16.767C8.857 17.1474 9.29169 17.256 9.6177 17.0659C10.3512 16.6583 10.9489 16.0606 11.3565 15.3814C11.7911 14.7022 12.0356 13.8872 12.0628 13.045C12.09 12.6647 11.7911 12.3386 11.4108 12.3115Z" fill="#FA9700"/>
</svg>
