<svg width="48" height="53" viewBox="0 0 48 53" fill="none" xmlns="http://www.w3.org/2000/svg">
<path d="M24 12.3531H28.6701C37.1204 8.32081 35.495 4.28137 34.5083 3.30342C33.5009 2.30504 31.5192 1.72623 28.9657 3.44021C25.6882 5.6401 24 12.3531 24 12.3531Z" fill="#ED6500"/>
<path d="M25.373 11.3323C26.0961 9.12115 27.5783 5.6054 29.5446 4.28546C30.451 3.67704 31.307 3.36875 32.0908 3.36875C32.9849 3.36875 33.5339 3.78015 33.7811 4.02515C34.018 4.25994 34.4218 4.96329 34.2539 5.94227C33.9449 7.742 31.8817 9.65096 28.4343 11.3312H25.373V11.3323Z" fill="#D65600"/>
<path d="M23.9999 12.3531H19.3298C10.8795 8.32081 12.5049 4.28137 13.4916 3.30342C14.499 2.30504 16.4808 1.72623 19.0342 3.44021C22.3117 5.6401 23.9999 12.3531 23.9999 12.3531Z" fill="#ED6500"/>
<path d="M22.6276 11.3323C21.9045 9.12115 20.4223 5.6054 18.456 4.28546C17.5496 3.67704 16.6937 3.36875 15.9098 3.36875C15.0158 3.36875 14.4668 3.78015 14.2195 4.02515C13.9826 4.25994 13.5789 4.96329 13.7468 5.94227C14.0558 7.742 16.1189 9.65096 19.5664 11.3312H22.6276V11.3323Z" fill="#D65600"/>
<path d="M23.9995 10.9423C20.0895 10.9423 0 15.2951 0 41.6929C0 51.5684 7.83949 52.2667 23.9995 52.2667C40.1595 52.2667 47.999 51.5694 47.999 41.6929C47.999 15.2951 27.9094 10.9423 23.9995 10.9423Z" fill="#D15900"/>
<path d="M47.9986 41.6929C47.9986 51.5694 40.1591 52.2667 23.9991 52.2667C9.38002 52.2667 1.5704 51.696 0.213867 44.2746C5.40208 48.5896 17.9745 48.5896 23.9991 48.5896C30.0237 48.5896 43.3089 45.1984 40.7936 30.1248C39.4783 22.2389 33.8234 17.9646 28.6301 16.1404C24.1062 14.551 16.414 14.4458 11.8686 15.4238C16.9816 11.8631 22.2017 10.9423 23.9991 10.9423C27.9101 10.9423 47.9986 15.2951 47.9986 41.6929Z" fill="#C64709"/>
<path d="M28.3032 0.223562C26.7191 0.818708 25.2595 1.10965 24.0008 1.10965C22.7422 1.10965 21.2826 0.818708 19.6984 0.223562C18.1143 -0.371583 16.4631 0.214375 16.6321 2.08454C16.871 4.71421 19.0341 9.08644 21.8955 12.3531H26.1062C28.9676 9.08644 31.1317 4.71421 31.3696 2.08454C31.5396 0.214375 29.8874 -0.371583 28.3032 0.223562Z" fill="#FF7900"/>
<path d="M31.3688 2.08454C31.1298 4.71421 28.9668 9.08644 26.1054 12.3531H21.8947C20.6926 10.9801 19.6142 9.41311 18.75 7.86144C18.8458 7.95025 21.0119 9.37227 23.1152 9.37227C25.2185 9.37227 26.4113 8.80775 27.3095 7.92371C28.3282 6.92023 29.6857 4.43042 30.005 2.65519C30.3233 0.88098 29.283 0.30625 28.323 0.216417C29.901 -0.366479 31.5377 0.222542 31.3688 2.08454Z" fill="#F26D00"/>
<path d="M23.6215 20.2069C22.7728 20.2549 22.0435 19.6138 21.992 18.7716C21.6655 13.5001 26.0349 10.7989 26.2213 10.6866C26.9506 10.2467 27.9002 10.4753 28.3442 11.1971C28.7871 11.9167 28.5584 12.8549 27.8353 13.2969C27.6994 13.3816 24.8658 15.1926 25.0759 18.5838C25.1284 19.428 24.4806 20.1539 23.6287 20.2059H23.6215V20.2069Z" fill="#FFAA00"/>
<path d="M28.3503 11.2082C28.0609 11.199 27.7663 11.2705 27.5005 11.4307C27.3151 11.543 22.9458 14.2452 23.2713 19.5168C23.2867 19.7699 23.364 20.0047 23.4876 20.2079C22.6975 20.1864 22.0404 19.5688 21.9909 18.7705C21.6655 13.5 26.0348 10.7978 26.2202 10.6845C26.9495 10.2445 27.9002 10.4742 28.3441 11.1949C28.3462 11.199 28.3482 11.2031 28.3513 11.2072L28.3503 11.2082Z" fill="#FC8300"/>
<path d="M32.4852 21.0302C32.2431 21.0435 31.9939 21.0016 31.758 20.8944C26.0517 18.3189 25.6325 12.3296 25.617 12.0765C25.5665 11.2322 26.2175 10.5074 27.0693 10.4584H27.0724C27.9212 10.4105 28.6494 11.0505 28.7019 11.8907C28.7163 12.0897 29.0645 16.3139 33.0383 18.1075C33.8149 18.4577 34.1579 19.3662 33.8046 20.1359C33.5585 20.6719 33.0393 20.9996 32.4852 21.0302Z" fill="#FFAA00"/>
<path d="M33.8994 19.8603C33.8767 19.9532 33.8448 20.0451 33.8036 20.1359C33.5574 20.6709 33.0383 20.9996 32.4841 21.0302C32.2421 21.0435 31.9939 21.0006 31.7569 20.8944C26.0496 18.3189 25.6324 12.3296 25.617 12.0754C25.5758 11.3843 26.0043 10.7749 26.6274 10.5472C26.5914 10.6912 26.577 10.8423 26.5862 10.9985C26.6017 11.2526 27.0199 17.2419 32.7262 19.8174C32.9621 19.9236 33.2113 19.9665 33.4534 19.9532C33.6069 19.945 33.7562 19.9134 33.8994 19.8603Z" fill="#FC8300"/>
<path d="M32.7546 10.1828H15.2442C14.391 10.1828 13.6992 10.8684 13.6992 11.7141C13.6992 12.5597 14.391 13.2453 15.2442 13.2453H32.7546C33.6079 13.2453 34.2996 12.5597 34.2996 11.7141C34.2996 10.8684 33.6079 10.1828 32.7546 10.1828Z" fill="#FFB806"/>
<path d="M34.3006 11.7141C34.3006 12.1377 34.1276 12.5195 33.8474 12.7972C33.5672 13.0748 33.182 13.2453 32.7556 13.2453H15.2452C14.3913 13.2453 13.7002 12.5603 13.7002 11.7141C13.7002 11.5354 13.7311 11.3639 13.7888 11.2036C13.9999 11.7988 14.5716 12.2245 15.2452 12.2245H32.7556C33.182 12.2245 33.5683 12.053 33.8474 11.7763C34.0091 11.6161 34.1348 11.4211 34.212 11.2036C34.2697 11.3639 34.3006 11.5354 34.3006 11.7141Z" fill="#FF9700"/>
<path d="M31.1303 25.3473H27.8991C28.3657 26.0894 28.6685 26.9255 28.8066 27.8555H31.9904L31.1148 31.1844H28.7746C28.5305 32.6462 27.965 33.8396 27.0792 34.7655C26.1934 35.6914 24.9327 36.4009 23.299 36.895L29.7614 44.7513V44.9871H23.777L16.471 36.3427L16.4556 33.2986H20.2121C21.7293 33.2669 22.7109 32.5625 23.1569 31.1844H15.9941L16.8697 27.8555H23.0292C22.5626 26.8561 21.65 26.3355 20.2914 26.2936H16.0096L17.0283 22.0184H32.0058L31.1303 25.3473Z" fill="#FFB806"/>
<path d="M28.8067 27.8545H31.9905L31.115 31.1834H28.7747C28.5646 32.4421 28.1166 33.5027 27.4285 34.3633C23.8265 35.4505 20.2091 36.1804 16.7348 36.654L16.4711 36.3417L16.4547 33.2965H20.2112C21.7284 33.2659 22.71 32.5605 23.155 31.1834H15.9922L16.8677 27.8545H23.0262C22.5586 26.8561 21.647 26.3355 20.2894 26.2926H16.0066L17.0253 22.0173H32.0028L31.1273 25.3463H27.8972C28.3638 26.0884 28.6656 26.9245 28.8046 27.8545H28.8067Z" fill="#FFDB08"/>
</svg>
