<svg width="50" height="50" viewBox="0 0 50 50" fill="none" xmlns="http://www.w3.org/2000/svg">
<path fill-rule="evenodd" clip-rule="evenodd" d="M25.1472 0.000123391C23.6084 -0.0118883 22.3486 0.854517 21.4316 1.96751C20.5146 3.08059 19.8223 4.4761 19.1641 5.91692C17.8476 8.79846 16.5674 11.8537 15.1462 12.9125C13.7251 13.9712 10.5701 14.236 7.52197 14.6026C5.99785 14.786 4.49707 15.0185 3.18018 15.5665C1.86367 16.1147 0.681838 17.0778 0.20801 18.5582C0.207912 18.5584 0.207815 18.5586 0.207717 18.5588C-0.266013 20.0395 0.121975 21.5178 0.852736 22.7676C1.5835 24.0174 2.64629 25.1393 3.75879 26.2376C5.98369 28.4344 8.36592 30.6166 8.90439 32.3894C9.44297 34.1621 8.69863 37.3958 8.09267 40.5231C7.78965 42.0867 7.54101 43.636 7.6331 45.0905C7.72529 46.5451 8.2206 47.9925 9.44492 48.9343C10.6692 49.8761 12.1936 49.955 13.5753 49.6133C14.9569 49.2716 16.3092 48.5633 17.6562 47.7998C20.3503 46.2729 23.0976 44.5967 24.82 44.6104C26.5426 44.624 29.2655 46.3438 31.9369 47.9133C33.2726 48.6979 34.6142 49.4275 35.9906 49.7911C37.3669 50.1546 38.8924 50.1001 40.1308 49.1774C41.3693 48.2548 41.8859 46.8147 41.9993 45.3618C42.1126 43.9089 41.8867 42.356 41.6065 40.7876C41.0464 37.6511 40.3495 34.4056 40.9137 32.6421C41.4778 30.8786 43.8912 28.7346 46.148 26.5733C47.2763 25.4927 48.3556 24.3878 49.1048 23.1494C49.8539 21.911 50.2633 20.4387 49.8114 18.951C49.3594 17.4633 48.1923 16.482 46.8838 15.9131C45.5755 15.3443 44.0784 15.0879 42.5572 14.8805C39.5147 14.4654 36.3642 14.1512 34.958 13.0695C33.5517 11.9877 32.3164 8.91193 31.0422 6.00998C30.4051 4.55901 29.7332 3.15286 28.8327 2.02571C27.9322 0.89856 26.6859 0.0124281 25.1474 0.000221047C25.1473 0.000221041 25.1472 0.000123385 25.1472 0.000123391Z" fill="#FFCA28"/>
<path fill-rule="evenodd" clip-rule="evenodd" d="M25.1476 0.000214648C24.7719 -0.00267196 24.3977 0.0476986 24.0361 0.149824C25.1045 0.447089 25.9964 1.16418 26.6847 2.0258C27.5852 3.15285 28.257 4.559 28.8941 6.00998C30.1684 8.91193 31.4036 11.9877 32.81 13.0695C34.2162 14.1512 37.3667 14.4655 40.4092 14.8805C41.9304 15.088 43.4274 15.3443 44.7358 15.9131C46.0442 16.4819 47.2114 17.4633 47.6634 18.951C48.1153 20.4386 47.7057 21.911 46.9567 23.1494C46.2077 24.3877 45.1283 25.4927 44 26.5732C41.7432 28.7346 39.3298 30.8786 38.7656 32.6421C38.2015 34.4056 38.8984 37.6511 39.4586 40.7876C39.7387 42.3559 39.9646 43.9089 39.8513 45.3618C39.738 46.8147 39.2214 48.2548 37.9828 49.1774C37.4971 49.5393 36.9665 49.764 36.4186 49.8858C37.6774 50.1311 39.0196 50.0057 40.1312 49.1774C41.3697 48.2548 41.8863 46.8147 41.9997 45.3618C42.1131 43.9089 41.8871 42.3559 41.607 40.7876C41.0468 37.6511 40.3499 34.4056 40.9141 32.6421C41.4782 30.8786 43.8916 28.7346 46.1484 26.5732C47.2767 25.4927 48.356 24.3877 49.1052 23.1494C49.8542 21.9111 50.2638 20.4386 49.8118 18.951C49.3599 17.4633 48.1927 16.4819 46.8843 15.9131C45.5759 15.3442 44.0788 15.0879 42.5576 14.8805C39.5151 14.4654 36.3646 14.1512 34.9584 13.0694C33.5521 11.9877 32.3168 8.91193 31.0426 6.00998C30.4055 4.559 29.7336 3.15285 28.8331 2.0257C27.9326 0.898652 26.6863 0.0125193 25.1478 0.000312304L25.1476 0.000214648Z" fill="#FFC107"/>
<path fill-rule="evenodd" clip-rule="evenodd" d="M24.9989 16.7473C22.4364 16.7473 20.336 18.8476 20.336 21.4101C20.336 22.6617 20.8423 23.7984 21.6536 24.6386C19.5795 25.5616 17.9499 27.311 17.2003 29.4759C16.8595 30.46 17.1512 31.5101 17.7596 32.1866C18.368 32.8631 19.2547 33.2511 20.2152 33.2511H29.7839C30.7443 33.2511 31.6311 32.8632 32.2395 32.1868C32.8479 31.5105 33.1395 30.4602 32.7988 29.4761C32.0491 27.3108 30.4191 25.5612 28.3445 24.6382C29.1557 23.7981 29.6619 22.6616 29.6619 21.4101C29.6619 18.8476 27.5614 16.7472 24.9988 16.7472L24.9989 16.7473Z" fill="#FFF8E1"/>
<path fill-rule="evenodd" clip-rule="evenodd" d="M24.999 16.7473C24.629 16.7473 24.2705 16.7956 23.9248 16.8782C25.974 17.3679 27.5137 19.2175 27.5137 21.4101C27.5137 22.6615 27.0073 23.7981 26.1963 24.6383C28.2709 25.5611 29.9009 27.3108 30.6505 29.4761C30.9913 30.4602 30.6997 31.5105 30.0913 32.1868C29.4829 32.8632 28.5961 33.2511 27.6355 33.2511H29.784C30.7445 33.2511 31.6312 32.8632 32.2397 32.1868C32.8481 31.5105 33.1396 30.4602 32.7989 29.4761C32.0493 27.3108 30.4193 25.5612 28.3447 24.6382C29.1558 23.7981 29.6621 22.6616 29.6621 21.4101C29.6621 18.8476 27.5615 16.7472 24.999 16.7472V16.7473Z" fill="#FFECB3"/>
</svg>
