<svg width="56" height="45" viewBox="0 0 56 45" fill="none" xmlns="http://www.w3.org/2000/svg">
<path d="M45.9019 12.1968V36.5907H5.24609V12.1968L25.5745 0.000436783L45.9019 12.1968Z" fill="#FFA001"/>
<path d="M45.9016 12.1968V36.5907H25.5742V0.000436783L45.9016 12.1968Z" fill="#F87F02"/>
<path d="M0 12.197L5.2465 0H25.5747L20.3282 12.197H0Z" fill="#FFDA2D"/>
<path d="M51.1488 12.197L45.9023 0H25.5742L30.8207 12.197H51.1488Z" fill="#FCBE00"/>
<path d="M11.7812 26.3688H15.0625V29.65H11.7812V26.3688Z" fill="#FFDA2D"/>
<path d="M56.0002 32.5257C56.0002 39.1528 50.6277 44.5252 44.0006 44.5252C37.3725 44.5252 32 39.1528 32 32.5257C32 25.8976 37.3725 20.5251 44.0006 20.5251C50.6277 20.5251 56.0002 25.8975 56.0002 32.5257Z" fill="#83E470"/>
<path d="M55.9995 32.5257C55.9995 39.1528 50.627 44.5252 44 44.5252V20.5251C50.627 20.5251 55.9995 25.8975 55.9995 32.5257Z" fill="#01B763"/>
<path d="M50.2802 30.5821L44.001 36.8612L42.9127 37.9496L37.7207 32.7575L40.0416 30.4376L42.9127 33.3087L44.001 32.2206L47.9593 28.2623L50.2802 30.5821Z" fill="#F3FDFF"/>
<path d="M50.2792 30.5821L44 36.8612V32.2206L47.9583 28.2623L50.2792 30.5821Z" fill="#D7F3F7"/>
</svg>
