<svg width="16" height="17" viewBox="0 0 16 17" fill="none" xmlns="http://www.w3.org/2000/svg">
<path fill-rule="evenodd" clip-rule="evenodd" d="M13.9498 2.05324C13.0726 1.16894 11.6623 1.16894 10.7851 2.05324L2.26233 10.6223C2.05526 10.8367 1.93366 11.0898 1.89914 11.3487L1.89842 11.3541L1.43113 14.6591L4.12001 14.2769V14.2624L4.72316 14.182C4.98471 14.147 5.22668 14.0258 5.41167 13.8292L5.41823 13.8223L13.9504 5.24371L13.9517 5.24238C14.8283 4.36578 14.8312 2.94171 13.9498 2.05324ZM9.79872 1.07382C11.2197 -0.3581 13.5158 -0.357938 14.9366 1.0743C16.3531 2.50227 16.3562 4.80291 14.9354 6.22456L14.9347 6.22528L6.41676 14.7894C6.15783 15.0623 5.8478 15.2689 5.51002 15.4028V15.4833L1.32657 16.0779L1.32439 16.0782C0.975151 16.1267 0.605284 16.0343 0.333748 15.7661C0.0606599 15.4962 -0.0362741 15.1244 0.0118259 14.7685L0.012393 14.7643L0.521711 11.162C0.598762 10.5892 0.865317 10.0659 1.26755 9.65145L1.27346 9.64539L9.79872 1.07382Z" fill="#4F4F4F"/>
<path fill-rule="evenodd" clip-rule="evenodd" d="M12.5781 3.47058C12.8506 3.74097 12.8522 4.18103 12.5819 4.45347L11.3494 5.6952C11.079 5.96764 10.6389 5.96931 10.3666 5.69892C10.0941 5.42854 10.0925 4.98846 10.3628 4.71602L11.5953 3.47428C11.8657 3.20184 12.3057 3.20018 12.5781 3.47058Z" fill="#4F4F4F"/>
</svg>
