<svg width="21" height="21" viewBox="0 0 21 21" fill="none" xmlns="http://www.w3.org/2000/svg">
<g clip-path="url(#clip0_594_9141)">
<path d="M21 7.63648C21 4.74164 18.6448 2.38648 15.75 2.38648C12.8552 2.38648 10.5 4.74164 10.5 7.63648C10.5 10.1904 12.3336 12.3215 14.7529 12.789V14.6474H13.6307C13.0802 14.6474 12.6336 15.0939 12.6336 15.6446C12.6336 16.1953 13.0802 16.6417 13.6307 16.6417H14.7529V17.6167C14.7529 18.1674 15.1995 18.6138 15.75 18.6138C16.3005 18.6138 16.7471 18.1674 16.7471 17.6167V16.6417H17.8693C18.4198 16.6417 18.8664 16.1953 18.8664 15.6446C18.8664 15.0939 18.4198 14.6474 17.8693 14.6474H16.7471V12.789C19.1664 12.3215 21 10.1904 21 7.63648ZM12.4942 7.63648C12.4942 5.84133 13.9548 4.38071 15.75 4.38071C17.5452 4.38071 19.0058 5.84133 19.0058 7.63648C19.0058 9.43185 17.5452 10.8925 15.75 10.8925C13.9548 10.8925 12.4942 9.43185 12.4942 7.63648ZM6.24711 8.21155V5.63419L6.66561 6.01378C6.85646 6.18711 7.09622 6.27237 7.33511 6.27237C7.60689 6.27237 7.87738 6.16201 8.07429 5.94519C8.44388 5.53729 8.41315 4.90674 8.00548 4.53672L5.91993 2.64506C5.91866 2.64571 5.91796 2.64627 5.91669 2.64692C5.73974 2.48669 5.50739 2.38647 5.25 2.38647C4.99212 2.38647 4.75931 2.48704 4.58225 2.64779C4.58136 2.64676 4.58095 2.64609 4.58006 2.64506L2.49451 4.53672C2.08684 4.90674 2.05611 5.5373 2.4257 5.94519C2.62262 6.16223 2.8931 6.27237 3.16489 6.27237C3.40378 6.27237 3.64354 6.18689 3.83439 6.01378L4.25288 5.63419V8.21155C1.83362 8.67898 0 10.8101 0 13.3638C0 16.2587 2.35516 18.6138 5.25 18.6138C8.14484 18.6138 10.5 16.2587 10.5 13.3638C10.5 10.8101 8.66638 8.67898 6.24711 8.21155ZM5.25 16.6196C3.45485 16.6196 1.99423 15.159 1.99423 13.3638C1.99423 11.5687 3.45485 10.1081 5.25 10.1081C7.04515 10.1081 8.50577 11.5687 8.50577 13.3638C8.50577 15.159 7.04515 16.6196 5.25 16.6196Z" fill="#ADADAD"/>
</g>
<defs>
<clipPath id="clip0_594_9141">
<rect width="21" height="21" fill="white"/>
</clipPath>
</defs>
</svg>
