<svg width="20" height="15" viewBox="0 0 20 15" fill="none" xmlns="http://www.w3.org/2000/svg">
<path d="M19.5122 0H0.487812C0.21957 0 0 0.21957 0 0.487812V13.9029C0 14.1713 0.21957 14.3907 0.487812 14.3907H19.5122C19.7804 14.3907 20 14.1713 20 13.9029V0.487812C20 0.21957 19.7804 0 19.5122 0Z" fill="#EDEBED"/>
<path d="M1.20727 13.9534V0.437461C1.20727 0.247031 1.31715 0.0816016 1.47629 0H0.487812C0.21957 0 0 0.21957 0 0.487812V13.9029C0 14.1713 0.21957 14.3907 0.487812 14.3907H1.47645C1.31715 14.3092 1.20727 14.1437 1.20727 13.9534Z" fill="#E0D9D5"/>
<path d="M19.5122 0H0.487812C0.219453 0 0 0.21957 0 0.487812V2.20641H20V0.487812C20 0.21957 19.7804 0 19.5122 0Z" fill="#71AAE2"/>
<path d="M1.47645 0H0.487812C0.219453 0 0 0.21957 0 0.487812V2.20641H1.20727V0.4375C1.20727 0.24707 1.31715 0.0816406 1.47641 3.9062e-05L1.47645 0Z" fill="#6397D6"/>
<path d="M8.56887 3.61039H1.86383C1.57453 3.61039 1.33984 3.84508 1.33984 4.13453V12.3596C1.5025 11.6696 2.13027 11.4113 2.13027 11.4113L4.36828 10.5437L5.21527 11.5891L6.06215 10.5437L8.30258 11.4112C8.30258 11.4112 8.93031 11.6696 9.09301 12.3596V4.13453C9.09301 3.84508 8.85832 3.61039 8.56887 3.61039Z" fill="#71AAE2"/>
<path d="M2.54727 3.61039H1.86383C1.57453 3.61039 1.33984 3.84508 1.33984 4.13453V12.3596C1.5025 11.6696 2.13027 11.4113 2.13027 11.4113L2.54727 11.2497V3.61039Z" fill="#6397D6"/>
<path d="M5.23875 9.92382C4.90242 9.92382 4.60797 9.81582 4.36914 9.63621V10.5139L5.21602 11.7038L6.06289 10.5139V9.63957C5.82668 9.81886 5.54336 9.92382 5.23875 9.92382Z" fill="#F4BDA4"/>
<path d="M5.39883 9.91395C5.34572 9.92049 5.29226 9.9238 5.23875 9.92387C4.90242 9.92387 4.60797 9.81582 4.36914 9.63625V10.5139L5.21602 11.7038L5.39898 11.4468V9.91395H5.39883Z" fill="#EFA78B"/>
<path d="M9.09301 12.4902V12.2792C8.93035 11.5892 8.30258 11.3309 8.30258 11.3309L6.06215 10.4631L5.21527 11.5085L4.36828 10.4631L2.13027 11.3309C2.13027 11.3309 1.50254 11.5892 1.33984 12.2791V12.4902C1.33984 12.7797 1.57437 13.0142 1.86383 13.0142H8.56887C8.85832 13.0142 9.09301 12.7797 9.09301 12.4902Z" fill="#FC5F61"/>
<path d="M2.54727 11.1691L2.13027 11.3309C2.13027 11.3309 1.50254 11.5892 1.33984 12.2791V12.4902C1.33984 12.7797 1.57453 13.0142 1.86383 13.0142H2.54727V11.1691Z" fill="#EF4D55"/>
<path d="M17.0172 4.44078H12.1391C12.0601 4.43922 11.9848 4.40673 11.9295 4.35028C11.8741 4.29384 11.8431 4.21794 11.8431 4.13888C11.8431 4.05983 11.8741 3.98393 11.9295 3.92749C11.9848 3.87104 12.0601 3.83855 12.1391 3.83699H17.0173C17.184 3.83699 17.3191 3.97215 17.3191 4.13879C17.3191 4.30558 17.184 4.44078 17.0172 4.44078ZM17.0172 5.81496H12.1391C12.0591 5.81496 11.9823 5.78316 11.9257 5.72656C11.8691 5.66996 11.8373 5.59319 11.8373 5.51314C11.8373 5.4331 11.8691 5.35633 11.9257 5.29973C11.9823 5.24312 12.0591 5.21133 12.1391 5.21133H17.0173C17.0569 5.21132 17.0962 5.21912 17.1328 5.23428C17.1694 5.24945 17.2027 5.27168 17.2307 5.29971C17.2587 5.32774 17.281 5.36102 17.2961 5.39765C17.3113 5.43427 17.3191 5.47352 17.3191 5.51316C17.3191 5.5528 17.3113 5.59205 17.2961 5.62866C17.2809 5.66528 17.2587 5.69855 17.2307 5.72658C17.2026 5.7546 17.1694 5.77683 17.1327 5.792C17.0961 5.80716 17.0569 5.81496 17.0172 5.81496ZM12.6136 7.18918H11.1007C11.061 7.18919 11.0218 7.1814 10.9851 7.16623C10.9485 7.15107 10.9152 7.12884 10.8872 7.10081C10.8592 7.07278 10.8369 7.0395 10.8218 7.00287C10.8066 6.96624 10.7988 6.92698 10.7988 6.88734C10.7988 6.84771 10.8066 6.80846 10.8218 6.77184C10.8369 6.73522 10.8592 6.70194 10.8872 6.67392C10.9152 6.64589 10.9485 6.62366 10.9851 6.6085C11.0217 6.59333 11.061 6.58554 11.1006 6.58555H12.6135C12.6532 6.58554 12.6924 6.59334 12.729 6.60851C12.7656 6.62367 12.7989 6.6459 12.8269 6.67393C12.855 6.70195 12.8772 6.73522 12.8924 6.77184C12.9075 6.80846 12.9154 6.84771 12.9154 6.88734C12.9154 7.05414 12.7802 7.18918 12.6136 7.18918ZM12.6136 8.5634H11.1007C11.061 8.56341 11.0218 8.55562 10.9851 8.54045C10.9485 8.52529 10.9152 8.50306 10.8872 8.47503C10.8592 8.44699 10.8369 8.41371 10.8218 8.37709C10.8066 8.34046 10.7988 8.3012 10.7988 8.26156C10.7988 8.22193 10.8066 8.18268 10.8218 8.14606C10.8369 8.10944 10.8592 8.07616 10.8872 8.04814C10.9152 8.02011 10.9485 7.99788 10.9851 7.98272C11.0217 7.96755 11.061 7.95975 11.1006 7.95976H12.6135C12.6532 7.95976 12.6924 7.96756 12.729 7.98273C12.7656 7.99789 12.7989 8.02012 12.8269 8.04814C12.855 8.07617 12.8772 8.10944 12.8924 8.14606C12.9075 8.18268 12.9154 8.22193 12.9154 8.26156C12.9154 8.42836 12.7802 8.5634 12.6136 8.5634ZM12.6136 9.93758H11.1007C11.061 9.93759 11.0218 9.9298 10.9851 9.91464C10.9485 9.89948 10.9152 9.87725 10.8872 9.84922C10.8592 9.82119 10.8369 9.78792 10.8218 9.75129C10.8066 9.71467 10.7988 9.67542 10.7988 9.63578C10.7988 9.59614 10.8066 9.5569 10.8218 9.52028C10.837 9.48366 10.8592 9.45038 10.8872 9.42235C10.9152 9.39432 10.9485 9.37209 10.9851 9.35692C11.0217 9.34175 11.061 9.33394 11.1006 9.33394H12.6135C12.6936 9.33394 12.7703 9.36574 12.8269 9.42234C12.8835 9.47895 12.9153 9.55571 12.9153 9.63576C12.9153 9.71581 12.8835 9.79258 12.8269 9.84918C12.7703 9.90578 12.6936 9.93758 12.6135 9.93758H12.6136ZM12.6136 11.312H11.1007C11.061 11.312 11.0218 11.3041 10.9851 11.289C10.9485 11.2738 10.9152 11.2515 10.8872 11.2235C10.8592 11.1955 10.8369 11.1622 10.8218 11.1255C10.8066 11.0889 10.7988 11.0496 10.7988 11.01C10.7988 10.9704 10.8066 10.9311 10.8218 10.8945C10.837 10.8579 10.8592 10.8246 10.8872 10.7966C10.9152 10.7685 10.9485 10.7463 10.9851 10.7311C11.0217 10.716 11.061 10.7082 11.1006 10.7082H12.6135C12.693 10.7091 12.7689 10.7413 12.8248 10.7978C12.8807 10.8543 12.912 10.9306 12.912 11.0101C12.912 11.0895 12.8807 11.1658 12.8248 11.2223C12.7689 11.2788 12.693 11.311 12.6135 11.312H12.6136ZM12.6136 12.6862H11.1007C11.061 12.6862 11.0218 12.6784 10.9851 12.6632C10.9485 12.648 10.9152 12.6258 10.8872 12.5977C10.8592 12.5697 10.8369 12.5364 10.8218 12.4998C10.8066 12.4631 10.7988 12.4239 10.7988 12.3842C10.7988 12.3446 10.8066 12.3053 10.8218 12.2687C10.837 12.2321 10.8592 12.1988 10.8872 12.1708C10.9152 12.1428 10.9485 12.1205 10.9851 12.1054C11.0217 12.0902 11.061 12.0824 11.1006 12.0824H12.6135C12.693 12.0833 12.7689 12.1155 12.8248 12.172C12.8807 12.2285 12.912 12.3048 12.912 12.3843C12.912 12.4638 12.8807 12.54 12.8248 12.5965C12.7689 12.6531 12.693 12.6853 12.6135 12.6862H12.6136ZM18.2233 7.18918H13.9461C13.9065 7.18918 13.8672 7.18137 13.8306 7.1662C13.794 7.15103 13.7607 7.1288 13.7327 7.10077C13.7047 7.07274 13.6824 7.03947 13.6673 7.00285C13.6521 6.96623 13.6443 6.92698 13.6443 6.88734C13.6443 6.72055 13.7795 6.58555 13.9461 6.58555H18.2233C18.2629 6.58554 18.3022 6.59334 18.3388 6.60851C18.3754 6.62367 18.4087 6.6459 18.4367 6.67393C18.4647 6.70195 18.487 6.73522 18.5021 6.77184C18.5173 6.80846 18.5251 6.84771 18.5251 6.88734C18.5251 7.05414 18.3899 7.18918 18.2233 7.18918ZM18.2233 8.5634H13.9461C13.9065 8.5634 13.8672 8.55559 13.8306 8.54042C13.794 8.52525 13.7607 8.50302 13.7327 8.47499C13.7047 8.44696 13.6824 8.41369 13.6673 8.37707C13.6521 8.34045 13.6443 8.3012 13.6443 8.26156C13.6443 8.09476 13.7795 7.95976 13.9461 7.95976H18.2233C18.2629 7.95976 18.3022 7.96756 18.3388 7.98273C18.3754 7.99789 18.4087 8.02012 18.4367 8.04814C18.4647 8.07617 18.487 8.10944 18.5021 8.14606C18.5173 8.18268 18.5251 8.22193 18.5251 8.26156C18.5251 8.42836 18.3899 8.5634 18.2233 8.5634ZM18.2233 9.93758H13.9461C13.866 9.93758 13.7893 9.90578 13.7327 9.84918C13.6761 9.79258 13.6443 9.71581 13.6443 9.63576C13.6443 9.55571 13.6761 9.47895 13.7327 9.42234C13.7893 9.36574 13.866 9.33394 13.9461 9.33394H18.2233C18.3033 9.33394 18.3801 9.36574 18.4367 9.42234C18.4933 9.47895 18.5251 9.55571 18.5251 9.63576C18.5251 9.71581 18.4933 9.79258 18.4367 9.84918C18.3801 9.90578 18.3033 9.93758 18.2233 9.93758ZM18.2233 11.312H13.9461C13.8671 11.3104 13.7918 11.2779 13.7364 11.2215C13.6811 11.165 13.6501 11.0891 13.6501 11.0101C13.6501 10.931 13.6811 10.8551 13.7364 10.7987C13.7918 10.7422 13.8671 10.7097 13.9461 10.7082H18.2233C18.3028 10.7091 18.3787 10.7413 18.4345 10.7978C18.4904 10.8543 18.5218 10.9306 18.5218 11.0101C18.5218 11.0895 18.4904 11.1658 18.4345 11.2223C18.3787 11.2788 18.3028 11.311 18.2233 11.312ZM18.2233 12.6862H13.9461C13.8671 12.6846 13.7918 12.6521 13.7364 12.5957C13.6811 12.5392 13.6501 12.4633 13.6501 12.3843C13.6501 12.3052 13.6811 12.2293 13.7364 12.1729C13.7918 12.1164 13.8671 12.0839 13.9461 12.0824H18.2233C18.3028 12.0833 18.3787 12.1155 18.4345 12.172C18.4904 12.2285 18.5218 12.3048 18.5218 12.3843C18.5218 12.4638 18.4904 12.54 18.4345 12.5965C18.3787 12.6531 18.3028 12.6853 18.2233 12.6862Z" fill="#CEC8C6"/>
<path d="M6.23941 12.0456L6.87285 10.7765L6.06383 10.4631L5.2168 11.5085L6.04258 12.0949C6.05829 12.1061 6.07625 12.1137 6.0952 12.1173C6.11416 12.1209 6.13367 12.1203 6.15238 12.1156C6.17109 12.1109 6.18857 12.1023 6.2036 12.0902C6.21863 12.0781 6.23083 12.0629 6.23941 12.0456Z" fill="#EF4D55"/>
<path d="M4.19574 12.0456L3.5625 10.7766L4.37137 10.4631L5.21836 11.5085L4.39258 12.0949C4.37686 12.1061 4.35891 12.1138 4.33995 12.1173C4.321 12.1209 4.30149 12.1203 4.28278 12.1157C4.26406 12.111 4.24659 12.1023 4.23156 12.0902C4.21652 12.0781 4.20429 12.0629 4.1957 12.0456L4.19574 12.0456Z" fill="#EF4D55"/>
<path d="M6.0584 11.3454L6.60344 10.6728L6.06223 10.4631L5.21535 11.5085L6.04102 12.0949C6.05674 12.106 6.07469 12.1137 6.09364 12.1172C6.11258 12.1208 6.13208 12.1202 6.15078 12.1155C6.16948 12.1109 6.18695 12.1022 6.20198 12.0901C6.21701 12.078 6.22925 12.0628 6.23785 12.0456L6.35426 11.8124L6.09746 11.6301C6.0755 11.6145 6.05697 11.5946 6.04301 11.5715C6.02905 11.5485 6.01996 11.5229 6.0163 11.4962C6.01264 11.4695 6.01449 11.4423 6.02173 11.4164C6.02897 11.3905 6.04145 11.3663 6.0584 11.3454ZM4.47336 10.6982L4.53938 10.6728L4.36957 10.4631L3.56055 10.7765L4.19395 12.0456C4.20253 12.0629 4.21476 12.0781 4.22979 12.0902C4.24481 12.1022 4.26229 12.1109 4.281 12.1156C4.29971 12.1203 4.31921 12.1209 4.33816 12.1173C4.35712 12.1137 4.37507 12.1061 4.39078 12.0949L4.78844 11.8125L4.3682 10.9702C4.35596 10.9456 4.34897 10.9188 4.34769 10.8914C4.3464 10.864 4.35085 10.8366 4.36074 10.811C4.37063 10.7854 4.38576 10.7622 4.40514 10.7428C4.42453 10.7233 4.44779 10.7082 4.47336 10.6982Z" fill="#E03F4F"/>
<path d="M6.93883 7.41914C6.89772 7.4413 6.85174 7.45288 6.80504 7.45285C6.76656 7.45285 6.72918 7.44871 6.69305 7.44114V8.51836C6.69305 8.53043 6.69242 8.54235 6.69211 8.55422C7.0841 8.6136 7.39129 8.33039 7.39129 7.9825C7.39129 7.71133 7.20543 7.48078 6.93887 7.41914H6.93883ZM3.74121 7.45285H3.55551C3.52133 7.45285 3.48824 7.44856 3.45633 7.44125C3.22652 7.52106 3.04297 7.72782 3.04297 7.9825C3.04297 8.32993 3.34938 8.61375 3.74215 8.55422C3.74184 8.54235 3.74121 8.53039 3.74121 8.51836V7.45285Z" fill="#F4BDA4"/>
<path d="M7.12086 7.49434C7.06479 7.45932 7.00327 7.43391 6.93883 7.41914C6.89772 7.4413 6.85174 7.45288 6.80504 7.45285C6.76656 7.45285 6.72918 7.44871 6.69305 7.44114V8.51836C6.69305 8.53043 6.69242 8.54235 6.69211 8.55422C6.85508 8.57895 7.00324 8.5443 7.1209 8.47047L7.12086 7.49434ZM3.74121 8.47063C3.57566 8.36684 3.47082 8.18559 3.47082 7.9825C3.47082 7.78383 3.58285 7.61461 3.74121 7.51176V7.45301H3.55551C3.52133 7.45301 3.48824 7.44871 3.45633 7.44129C3.22652 7.52106 3.04297 7.72782 3.04297 7.9825C3.04297 8.32993 3.34938 8.61375 3.74215 8.55422C3.74184 8.54235 3.74121 8.53039 3.74121 8.51852V8.47063Z" fill="#EFA78B"/>
<path d="M6.29559 6.91102C6.29559 6.88203 6.2568 6.87211 6.24309 6.89758C6.06637 7.22809 5.71816 7.45301 5.3173 7.45301H3.71094V8.51852C3.71094 9.29508 4.31945 10.0043 5.23969 10.0043C6.0591 10.0043 6.72563 9.33777 6.72563 8.51852V7.44109C6.48086 7.38906 6.29559 7.1707 6.29559 6.91102Z" fill="#F9CBB4"/>
<path d="M4.65344 8.51851V7.45285H3.71094V8.51851C3.71094 9.29508 4.31945 10.0043 5.23969 10.0043C5.39887 10.0043 5.55188 9.97894 5.69563 9.93238C5.05371 9.73355 4.65344 9.14808 4.65344 8.51851Z" fill="#F4BDA4"/>
<path d="M6.62773 5.49715C6.48582 5.50797 6.35547 5.41871 6.3282 5.27895C6.28211 5.04363 6.1657 4.8102 5.71051 4.8102H4.13137C3.55187 4.8102 3.08203 5.27984 3.08203 5.85953V7.04254C3.08203 7.28652 3.27996 7.4843 3.52395 7.4843H5.31609C5.71691 7.4843 6.06512 7.25953 6.24184 6.92902C6.25555 6.9034 6.29434 6.91344 6.29434 6.94246C6.29434 7.24043 6.53816 7.48426 6.83633 7.48426C6.99242 7.48426 7.12031 7.35656 7.12031 7.20031V5.96711C7.12031 5.68406 6.87324 5.4782 6.62773 5.49715Z" fill="#935D38"/>
<path d="M4.02273 7.08086V5.84714C4.02273 5.365 4.33477 4.9559 4.76781 4.81004H4.13137C3.55184 4.81004 3.08203 5.27984 3.08203 5.85937V7.04238C3.08203 7.28652 3.2798 7.48429 3.52379 7.48429H4.26125C4.189 7.44458 4.12875 7.38618 4.08679 7.31521C4.04483 7.24424 4.02271 7.1633 4.02273 7.08086Z" fill="#7F4D2A"/>
</svg>
