<svg width="74" height="99" viewBox="0 0 74 99" fill="none" xmlns="http://www.w3.org/2000/svg">
<g clip-path="url(#clip0_4873_849)">
<path d="M39.7291 25.7451C42.4272 22.6046 46.5846 16.2964 49.386 13.0671C49.9642 12.4049 49.4824 11.374 48.6013 11.374H43.5079L48.3054 0.593988C48.5119 0.136572 47.8786 -0.232093 47.5758 0.170707L35.9571 15.6C35.6199 16.0506 35.9915 16.6855 36.5491 16.6172L42.3171 15.914L38.8893 25.2535C38.6966 25.7724 39.3711 26.1615 39.7291 25.7451Z" fill="#FA284B"/>
<path d="M15.7415 44.8677C16.3472 41.7818 16.7327 36.047 17.3728 32.8656C17.5036 32.2102 16.8015 31.705 16.2096 32.0327L12.8231 33.9238L11.9489 24.9803C11.9145 24.5979 11.357 24.5911 11.3019 24.9666L9.41595 39.5289C9.36089 39.9521 9.8427 40.2389 10.1937 39.9794L13.7592 37.3715L15.005 44.854C15.067 45.2705 15.6658 45.2841 15.7415 44.8677Z" fill="#AEC3FF"/>
<path d="M66.6559 94.1254L8.68661 98.9726C5.83701 99.2115 3.14573 97.969 1.48691 95.6546C-0.171916 93.3402 -0.461006 90.4114 0.709118 87.8239L25.2679 33.3026C26.4725 30.6264 28.9573 28.8786 31.9032 28.6328C34.8492 28.3871 37.5887 29.6979 39.2337 32.1351L72.6442 81.8092C74.2342 84.1714 74.4407 87.1071 73.1948 89.6604C71.949 92.2206 69.5055 93.8864 66.6559 94.1254ZM32.2749 32.9817C30.9465 33.0909 29.8314 33.8761 29.2877 35.0845L4.72195 89.599C4.19884 90.7664 4.32962 92.084 5.07299 93.1218C5.81636 94.1663 7.02779 94.7193 8.31492 94.6169L66.2842 89.7697C67.5645 89.6604 68.6658 88.9094 69.2302 87.7625C69.7877 86.6087 69.6982 85.2911 68.9824 84.226L35.5719 34.5588C34.8285 33.4596 33.5965 32.8656 32.2749 32.9817Z" fill="#FA284B"/>
<path d="M30.912 83.6115C30.85 82.8673 30.9257 82.1778 31.1391 81.5224C31.3525 80.8738 31.6829 80.2935 32.1303 79.7951C32.5777 79.2967 33.1352 78.8871 33.796 78.5731C34.4568 78.259 35.2208 78.061 36.0743 77.9928C36.9347 77.9245 37.7193 77.9859 38.4352 78.1839C39.151 78.3819 39.7774 78.696 40.3005 79.1124C40.8236 79.5289 41.2504 80.0477 41.567 80.6485C41.8836 81.2561 42.0763 81.932 42.1383 82.6693C42.2002 83.4135 42.1245 84.103 41.9111 84.738C41.6978 85.3797 41.3674 85.9464 40.92 86.4516C40.4726 86.9499 39.9082 87.3596 39.2336 87.6804C38.5591 87.9945 37.795 88.1925 36.9347 88.2607C36.0743 88.3358 35.2965 88.2676 34.5875 88.0696C33.8786 87.8716 33.266 87.5576 32.736 87.1411C32.2129 86.7246 31.7861 86.2126 31.4695 85.6187C31.1666 85.0179 30.9739 84.3488 30.912 83.6115ZM39.8737 73.207L31.5246 73.9033L27.9385 45.7005L38.6554 44.8062L39.8737 73.207Z" fill="#FA284B"/>
</g>
<defs>
<clipPath id="clip0_4873_849">
<rect width="74" height="99" fill="white"/>
</clipPath>
</defs>
</svg>
