<svg width="28" height="19" viewBox="0 0 28 19" fill="none" xmlns="http://www.w3.org/2000/svg">
<path d="M25.903 0H2.09699C0.93882 0 0 0.93882 0 2.09699V6.11494H28V2.09699C28 0.93882 27.0612 0 25.903 0Z" fill="#FAB446"/>
<path d="M0 16.2478C0 17.4059 0.93882 18.3448 2.09699 18.3448H25.903C27.0611 18.3448 28 17.406 28 16.2478V12.2299H0V16.2478Z" fill="#73AF00"/>
<path d="M28 6.11475H0V12.2294H28V6.11475Z" fill="#F5F5F5"/>
<path d="M14.0001 11.7671C12.5692 11.7671 11.4053 10.6032 11.4053 9.17233C11.4053 7.74148 12.5692 6.57751 14.0001 6.57751C15.4309 6.57751 16.5949 7.74148 16.5949 9.17233C16.5949 10.6032 15.4309 11.7671 14.0001 11.7671ZM14.0001 7.06024C12.8354 7.06024 11.888 8.00759 11.888 9.17233C11.888 10.3371 12.8354 11.2844 14.0001 11.2844C15.1648 11.2844 16.1122 10.3371 16.1122 9.17233C16.1122 8.00759 15.1648 7.06024 14.0001 7.06024Z" fill="#41479B"/>
<path d="M14 9.46649C14.1624 9.46649 14.2941 9.33478 14.2941 9.17232C14.2941 9.00986 14.1624 8.87816 14 8.87816C13.8375 8.87816 13.7058 9.00986 13.7058 9.17232C13.7058 9.33478 13.8375 9.46649 14 9.46649Z" fill="#41479B"/>
<path d="M14.0002 9.21645L13.2526 9.29192L11.6467 9.21645V9.12819L13.2526 9.05272L14.0002 9.12819V9.21645Z" fill="#41479B"/>
<path d="M14 9.21645L14.7476 9.29192L16.3534 9.21645V9.12819L14.7476 9.05272L14 9.12819V9.21645Z" fill="#41479B"/>
<path d="M13.9558 9.17233L13.8804 8.42475L13.9558 6.81891H14.0441L14.1196 8.42475L14.0441 9.17233H13.9558Z" fill="#41479B"/>
<path d="M13.9558 9.17233L13.8804 9.91991L13.9558 11.5258H14.0441L14.1196 9.91991L14.0441 9.17233H13.9558Z" fill="#41479B"/>
<path d="M13.9688 9.20351L13.3868 8.72832L12.3047 7.53942L12.3671 7.47702L13.556 8.55918L14.0312 9.14116L13.9688 9.20351Z" fill="#41479B"/>
<path d="M13.969 9.2035L14.4442 9.78549L15.6331 10.8676L15.6955 10.8052L14.6133 9.61634L14.0313 9.14116L13.969 9.2035Z" fill="#41479B"/>
<path d="M13.969 9.14116L14.4442 8.55918L15.6331 7.47702L15.6955 7.53942L14.6133 8.72832L14.0313 9.20351L13.969 9.14116Z" fill="#41479B"/>
<path d="M13.9688 9.14116L13.3868 9.61634L12.3047 10.8052L12.3671 10.8676L13.556 9.78549L14.0312 9.2035L13.9688 9.14116Z" fill="#41479B"/>
<path d="M14.0169 9.21312L13.3551 9.56892L11.8426 10.1137L11.8088 10.0322L13.2636 9.34793L13.9831 9.13153L14.0169 9.21312Z" fill="#41479B"/>
<path d="M14.017 9.21313L14.7365 8.99673L16.1912 8.31248L16.1574 8.23094L14.645 8.77574L13.9832 9.13154L14.017 9.21313Z" fill="#41479B"/>
<path d="M13.9592 9.18922L13.6034 8.52739L13.0586 7.01495L13.1401 6.98116L13.8244 8.4359L14.0408 9.15542L13.9592 9.18922Z" fill="#41479B"/>
<path d="M13.9592 9.18922L14.1756 9.90875L14.8599 11.3635L14.9414 11.3297L14.3966 9.81725L14.0408 9.15543L13.9592 9.18922Z" fill="#41479B"/>
<path d="M13.9831 9.21313L13.2636 8.99673L11.8088 8.31248L11.8426 8.23094L13.3551 8.77574L14.0169 9.13154L13.9831 9.21313Z" fill="#41479B"/>
<path d="M13.9832 9.21312L14.645 9.56892L16.1574 10.1137L16.1912 10.0322L14.7365 9.34793L14.017 9.13153L13.9832 9.21312Z" fill="#41479B"/>
<path d="M13.9592 9.15542L14.1756 8.4359L14.8599 6.98116L14.9414 7.01495L14.3966 8.52739L14.0408 9.18922L13.9592 9.15542Z" fill="#41479B"/>
<path d="M13.9592 9.15543L13.6034 9.81725L13.0586 11.3297L13.1401 11.3635L13.8244 9.90875L14.0408 9.18922L13.9592 9.15543Z" fill="#41479B"/>
<path d="M14.0001 9.56914C14.2192 9.56914 14.3969 9.39148 14.3969 9.17233C14.3969 8.95317 14.2192 8.77551 14.0001 8.77551C13.7809 8.77551 13.6033 8.95317 13.6033 9.17233C13.6033 9.39148 13.7809 9.56914 14.0001 9.56914Z" fill="#F5F5F5"/>
<path d="M14.0002 9.41034C14.1316 9.41034 14.2381 9.30381 14.2381 9.17239C14.2381 9.04098 14.1316 8.93445 14.0002 8.93445C13.8687 8.93445 13.7622 9.04098 13.7622 9.17239C13.7622 9.30381 13.8687 9.41034 14.0002 9.41034Z" fill="#41479B"/>
</svg>
