<svg width="24" height="24" viewBox="0 0 24 24" fill="none" xmlns="http://www.w3.org/2000/svg">
<g clip-path="url(#clip0_693_554)">
<path d="M12 13C11.3078 13 10.6311 12.7947 10.0555 12.4101C9.47994 12.0255 9.03133 11.4789 8.76642 10.8394C8.50152 10.1998 8.4322 9.49609 8.56725 8.81715C8.7023 8.13822 9.03565 7.51457 9.52513 7.02509C10.0146 6.5356 10.6383 6.20226 11.3172 6.06721C11.9961 5.93216 12.6999 6.00147 13.3394 6.26638C13.979 6.53129 14.5256 6.97989 14.9102 7.55547C15.2948 8.13104 15.5 8.80773 15.5 9.49997C15.499 10.4279 15.1299 11.3176 14.4738 11.9737C13.8176 12.6299 12.928 12.9989 12 13ZM12 7.99997C11.7033 7.99997 11.4133 8.08794 11.1667 8.25277C10.92 8.41759 10.7277 8.65186 10.6142 8.92595C10.5007 9.20004 10.471 9.50164 10.5288 9.79261C10.5867 10.0836 10.7296 10.3509 10.9394 10.5606C11.1491 10.7704 11.4164 10.9133 11.7074 10.9711C11.9984 11.029 12.3 10.9993 12.574 10.8858C12.8481 10.7723 13.0824 10.58 13.2472 10.3333C13.412 10.0867 13.5 9.79664 13.5 9.49997C13.4996 9.10229 13.3414 8.72102 13.0602 8.43982C12.779 8.15862 12.3977 8.00045 12 8.00002V7.99997Z" fill="url(#paint0_linear_693_554)"/>
<path d="M11.9958 22.5C11.8101 22.5 11.628 22.4483 11.4701 22.3506C11.3121 22.253 11.1844 22.1133 11.1013 21.9473C10.1926 20.1294 8.98802 18.8047 7.82298 17.5237C5.85691 15.3618 4 13.3198 4 9.50414C3.99995 5.09063 7.58687 1.5 11.9958 1.5C16.4094 1.5 19.9999 5.09063 19.9999 9.50414C19.9999 13.3191 18.1408 15.3608 16.1725 17.5224C15.0058 18.804 13.7995 20.1287 12.8903 21.9474C12.8072 22.1135 12.6795 22.2531 12.5215 22.3507C12.3635 22.4483 12.1815 22.5 11.9958 22.5ZM11.9958 3.50002C8.68966 3.50002 5.99997 6.19336 5.99997 9.50414C5.99997 12.5463 7.4575 14.1492 9.30269 16.1782C10.1782 17.1408 11.1391 18.1977 11.996 19.5029C12.8538 18.1965 13.8166 17.1394 14.6938 16.176C16.541 14.1475 18 12.5452 18 9.50414C17.9982 7.91228 17.365 6.38614 16.2394 5.26053C15.1138 4.13492 13.5877 3.50178 11.9958 3.50002Z" fill="url(#paint1_linear_693_554)"/>
<path d="M1.615 14.0002C1.408 14.0002 1.20611 13.9359 1.03718 13.8163C0.868253 13.6966 0.740616 13.5275 0.671873 13.3323C-0.193264 10.8619 -0.223713 8.17589 0.585201 5.68655C0.625813 5.56115 0.690811 5.44501 0.77646 5.34482C0.862109 5.24463 0.966718 5.16235 1.08427 5.10273C1.20183 5.04311 1.33001 5.00731 1.46145 4.99739C1.59289 4.98748 1.72499 5.00364 1.85016 5.04496C1.97532 5.08627 2.09109 5.15193 2.1908 5.23814C2.29051 5.32435 2.3722 5.42942 2.43116 5.5473C2.49012 5.66519 2.5252 5.79357 2.53437 5.92507C2.54355 6.05656 2.52664 6.18857 2.48462 6.3135C2.16062 7.30318 1.99703 8.33832 2.00003 9.37969C1.99819 10.4994 2.18692 11.6112 2.55812 12.6675C2.61112 12.8184 2.62722 12.9797 2.60507 13.138C2.58292 13.2963 2.52318 13.447 2.43083 13.5775C2.33848 13.7079 2.21622 13.8144 2.07428 13.8879C1.93234 13.9615 1.77485 13.9999 1.615 14.0001V14.0002Z" fill="url(#paint2_linear_693_554)"/>
<path d="M22.385 14.0002C22.2251 14.0001 22.0676 13.9616 21.9257 13.8881C21.7838 13.8146 21.6615 13.7081 21.5692 13.5777C21.4768 13.4472 21.4171 13.2965 21.3949 13.1382C21.3728 12.9799 21.3889 12.8185 21.4419 12.6677C21.8131 11.6113 22.0018 10.4994 21.9999 9.37969C22.003 8.33824 21.8393 7.30302 21.5153 6.31326C21.4733 6.18833 21.4564 6.05632 21.4656 5.92483C21.4747 5.79334 21.5098 5.66496 21.5688 5.54707C21.6277 5.42918 21.7094 5.32411 21.8091 5.2379C21.9088 5.15169 22.0246 5.08604 22.1498 5.04472C22.2749 5.00341 22.407 4.98724 22.5385 4.99716C22.6699 5.00707 22.7981 5.04287 22.9157 5.10249C23.0332 5.16212 23.1378 5.24439 23.2235 5.34458C23.3091 5.44478 23.3741 5.56091 23.4147 5.68631C24.2236 8.17565 24.1932 10.8617 23.3281 13.332C23.2593 13.5273 23.1317 13.6964 22.9628 13.8161C22.7939 13.9358 22.592 14.0001 22.385 14.0002Z" fill="url(#paint3_linear_693_554)"/>
</g>
<defs>
<linearGradient id="paint0_linear_693_554" x1="8.5" y1="9.49997" x2="15.5" y2="9.49997" gradientUnits="userSpaceOnUse">
<stop stop-color="#FBAB51"/>
<stop offset="1" stop-color="#FE8705"/>
</linearGradient>
<linearGradient id="paint1_linear_693_554" x1="4" y1="12" x2="19.9999" y2="12" gradientUnits="userSpaceOnUse">
<stop stop-color="#FBAB51"/>
<stop offset="1" stop-color="#FE8705"/>
</linearGradient>
<linearGradient id="paint2_linear_693_554" x1="0" y1="9.4974" x2="2.61472" y2="9.4974" gradientUnits="userSpaceOnUse">
<stop stop-color="#FBAB51"/>
<stop offset="1" stop-color="#FE8705"/>
</linearGradient>
<linearGradient id="paint3_linear_693_554" x1="21.3853" y1="9.49728" x2="23.9999" y2="9.49728" gradientUnits="userSpaceOnUse">
<stop stop-color="#FBAB51"/>
<stop offset="1" stop-color="#FE8705"/>
</linearGradient>
<clipPath id="clip0_693_554">
<rect width="24" height="24" fill="white"/>
</clipPath>
</defs>
</svg>
