<svg width="22" height="22" viewBox="0 0 22 22" fill="none" xmlns="http://www.w3.org/2000/svg">
<path d="M14.2849 4.38127V3.28221C14.2849 2.66479 13.8033 2.19171 13.1859 2.19171H5.27789L5.06348 2.0998L5.02408 2.19171V2.29171H5.25736L8.32129 3.60512C9.94203 4.29971 10.9963 5.89811 10.9963 7.66141V15.2228V15.3228H11.0963H13.1859C13.8035 15.3228 14.2849 14.85 14.2849 14.2323V13.1418C14.2826 12.5372 14.7708 12.0451 15.3754 12.0428M14.2849 4.38127C14.2871 4.98296 14.7737 5.46971 15.3754 5.47177C15.9803 5.47418 16.4746 4.98609 16.4766 4.38127M14.2849 4.38127L14.3849 4.3809L14.3849 3.28221C14.3849 2.60854 13.8575 2.09171 13.1859 2.09171H5.02408L4.98468 2.28362L8.28189 3.69703L8.2819 3.69704C9.86588 4.37587 10.8963 5.93812 10.8963 7.66141V15.3228V15.4228H10.9963H13.1859C13.8577 15.4228 14.3849 14.9062 14.3849 14.2323V13.1418L14.3849 13.1414C14.3828 12.5921 14.8263 12.145 15.3756 12.1428H15.3754V12.0428M14.2849 4.38127H14.3849V4.38115C14.387 4.9278 14.8291 5.3699 15.3758 5.37177H15.3758C15.9256 5.37396 16.3746 4.93038 16.3766 4.38127M16.4766 4.38127V3.28225C16.4766 1.48152 14.9866 4.29688e-05 13.1858 0H3.33485M16.4766 4.38127H16.3766M16.4766 4.38127L16.3766 4.38092M3.33485 0C1.26689 0.0075625 0.0449916 1.69529 0.0547455 3.2908V13.9736C0.0547455 15.8711 1.03087 17.6401 2.63987 18.6457L7.4638 21.6671M3.33485 0L3.33522 0.0999993C3.33516 0.0999996 3.3351 0.0999998 3.33503 0.1M3.33485 0V0.1H3.33503M7.4638 21.6671C8.95289 22.5978 10.9962 21.4602 10.9962 19.7042V17.6125V17.5125H11.0962H13.1858C14.9868 17.5125 16.4766 16.0333 16.4766 14.2324V13.1419C16.479 12.5373 15.9908 12.0452 15.3861 12.0428M7.4638 21.6671L7.5168 21.5823M7.4638 21.6671L7.51688 21.5824L7.5168 21.5823M15.3861 12.0428H15.3754M15.3861 12.0428V12.1428H15.386C15.9353 12.1451 16.3788 12.5922 16.3766 13.1415V13.1419V14.2324C16.3766 15.9777 14.932 17.4125 13.1858 17.4125H10.9962H10.8962V17.5125V19.7042C10.8962 21.382 8.93896 22.4712 7.5168 21.5823M15.3861 12.0428L15.3857 12.1428H15.3758L15.3754 12.0428M16.3766 4.38127L16.3766 4.38092M16.3766 4.38127C16.3766 4.38115 16.3766 4.38104 16.3766 4.38092M16.3766 4.38092L16.3766 3.28225C16.3766 1.53709 14.9317 0.100042 13.1858 0.1H3.33503M3.33503 0.1C1.33087 0.107428 0.145275 1.7413 0.154744 3.29019L0.154747 3.2908L0.154745 13.9736C0.154745 15.8367 1.11324 17.5737 2.69287 18.5609L2.69296 18.561L7.5168 21.5823M17.961 5.86516L17.9606 5.86562C17.5711 6.2531 17.5694 6.88296 17.9568 7.27245L17.9607 7.27638L17.89 7.3471L17.9608 7.27639L18.2751 7.5907L18.4458 7.76141H18.2044H14.2849H14.2845C13.7352 7.75927 13.2881 8.20275 13.2859 8.75207L17.961 5.86516ZM17.961 5.86516C18.1385 5.68633 18.3772 5.58149 18.6289 5.5718C18.7647 5.56799 18.8998 5.59202 19.026 5.64241C19.1522 5.69285 19.2668 5.76865 19.3627 5.86512L19.3629 5.86538L21.5033 8.00364L21.5033 8.00366L21.505 8.00526L21.5143 8.01431L21.5142 8.0144L21.518 8.01783C21.6218 8.11152 21.7047 8.22605 21.7613 8.35394C21.8179 8.48182 21.8468 8.62018 21.8463 8.76002C21.8458 8.90251 21.8146 9.04321 21.7549 9.1726C21.6952 9.302 21.6085 9.41707 21.5005 9.51003L21.5003 9.50981L21.495 9.51514L19.3634 11.6489C18.9754 12.0346 18.3488 12.0347 17.9608 11.6491C17.5752 11.2611 17.5752 10.6346 17.9608 10.2467C17.9608 10.2466 17.9609 10.2466 17.961 10.2465L18.2858 9.92168L18.4565 9.75097H18.2151H14.2849L14.2845 9.75097C13.7352 9.75312 13.2881 9.30959 13.2859 8.76032L17.961 5.86516ZM2.28381 3.28658L2.14435 3.22668L2.14435 3.37846L2.14439 13.9736C2.14439 15.153 2.7406 16.2445 3.74159 16.8702C3.7416 16.8702 3.74161 16.8702 3.74162 16.8702L8.57622 19.8937L8.57625 19.8937C8.61201 19.916 8.64927 19.935 8.68649 19.9443C8.72452 19.9538 8.77295 19.9556 8.81792 19.9281C8.86172 19.9014 8.88263 19.8587 8.89298 19.8229C8.9034 19.7869 8.90671 19.7459 8.90671 19.7041V7.66141C8.90671 6.7279 8.35464 5.89294 7.49684 5.5253L2.28381 3.28658Z" fill="#4F4F4F" stroke="white" stroke-width="0.2"/>
</svg>
