<svg width="13" height="13" viewBox="0 0 13 13" fill="none" xmlns="http://www.w3.org/2000/svg">
<g clip-path="url(#clip0_491_1128)">
<path d="M6.47642 13.0042L6.09884 12.6805C5.5783 12.2447 1.0332 8.31937 1.0332 5.4481C1.0332 2.4419 3.47022 0.00488281 6.47642 0.00488281C9.48262 0.00488281 11.9196 2.4419 11.9196 5.4481C11.9196 8.3194 7.37454 12.2447 6.85616 12.6827L6.47642 13.0042ZM6.47642 1.18187C4.12136 1.18453 2.21288 3.09302 2.21021 5.44807C2.21021 7.25187 5.00653 10.1334 6.47642 11.4523C7.94633 10.1329 10.7426 7.24969 10.7426 5.44807C10.74 3.09302 8.8315 1.18456 6.47642 1.18187Z" fill="#8A8A8A"/>
<path d="M6.476 7.60582C5.28437 7.60582 4.31836 6.6398 4.31836 5.44817C4.31836 4.25654 5.28437 3.29053 6.476 3.29053C7.66764 3.29053 8.63365 4.25654 8.63365 5.44817C8.63365 6.6398 7.66766 7.60582 6.476 7.60582ZM6.476 4.36932C5.88019 4.36932 5.39718 4.85233 5.39718 5.44815C5.39718 6.04396 5.88019 6.52697 6.476 6.52697C7.07182 6.52697 7.55483 6.04396 7.55483 5.44815C7.55483 4.85233 7.07185 4.36932 6.476 4.36932Z" fill="#8A8A8A"/>
</g>
<defs>
<clipPath id="clip0_491_1128">
<rect width="13" height="13" fill="white"/>
</clipPath>
</defs>
</svg>
