<svg width="19" height="18" viewBox="0 0 19 18" fill="none" xmlns="http://www.w3.org/2000/svg">
<g clip-path="url(#clip0_2423_234)">
<path d="M9.23305 18.0061L8.71024 17.558C7.9895 16.9545 1.69629 11.5195 1.69629 7.54384C1.69629 3.38141 5.07062 0.00708008 9.23305 0.00708008C13.3955 0.00708008 16.7698 3.38141 16.7698 7.54384C16.7698 11.5195 10.4766 16.9545 9.75885 17.561L9.23305 18.0061ZM9.23305 1.63675C5.9722 1.64044 3.32968 4.28296 3.32599 7.54381C3.32599 10.0414 7.19782 14.0312 9.23305 15.8573C11.2683 14.0304 15.1401 10.0384 15.1401 7.54381C15.1364 4.28296 12.4939 1.64047 9.23305 1.63675Z" fill="#FA9700"/>
<path d="M9.23311 10.5314C7.58316 10.5314 6.24561 9.19386 6.24561 7.5439C6.24561 5.89395 7.58316 4.5564 9.23311 4.5564C10.8831 4.5564 12.2206 5.89395 12.2206 7.5439C12.2206 9.19386 10.8831 10.5314 9.23311 10.5314ZM9.23311 6.05012C8.40814 6.05012 7.73936 6.71889 7.73936 7.54387C7.73936 8.36885 8.40814 9.03762 9.23311 9.03762C10.0581 9.03762 10.7269 8.36885 10.7269 7.54387C10.7269 6.71889 10.0581 6.05012 9.23311 6.05012Z" fill="#FA9700"/>
</g>
<defs>
<clipPath id="clip0_2423_234">
<rect width="18" height="18" fill="white" transform="translate(0.264648)"/>
</clipPath>
</defs>
</svg>
