<svg width="29" height="26" viewBox="0 0 29 26" fill="none" xmlns="http://www.w3.org/2000/svg">
<path d="M23.6463 25.0191C23.6444 25.0211 23.6463 25.0191 23.6482 25.0191H23.6463ZM6.49633 24.4962C5.63494 24.5504 4.7876 24.3352 4.0239 23.8934C3.06481 23.3378 2.23407 22.4215 1.66513 21.2254C1.09108 20.016 0.843327 18.6462 0.914204 17.3008C0.955709 16.5064 1.10768 15.7203 1.37012 14.9821C1.39758 16.2184 1.66321 17.4132 2.13062 18.4719C2.78768 19.9579 3.83745 21.1782 5.17136 21.8729C5.21861 22.083 5.27608 22.2893 5.34312 22.4904C5.5896 23.2184 5.96634 23.8953 6.49633 24.4962ZM20.8444 11.2714C20.8297 11.3978 20.8207 11.5249 20.8156 11.6482C20.7869 12.2689 20.8571 12.8468 21.0276 13.3806C21.2741 14.4955 21.0097 15.3646 20.709 16.3493C20.3814 17.4298 20.0123 18.6424 20.1605 20.4457C20.186 20.7625 20.2473 21.0556 20.345 21.3308C20.4446 21.6079 20.5787 21.8646 20.7543 22.1054L21.3514 22.931H21.3533C21.3916 22.9853 21.4471 23.0268 21.5161 23.0485L23.2593 23.5881C23.2631 23.59 23.2663 23.5932 23.2721 23.5971C23.2829 23.6098 23.2938 23.6296 23.3027 23.6533L23.6884 24.7988C23.6954 24.8244 23.6993 24.8512 23.6993 24.8787C23.6993 24.924 23.6903 24.9636 23.6718 24.993C23.6629 25.0057 23.6552 25.0147 23.6501 25.0185H20.7013C20.5909 25.0185 20.4893 24.9898 20.3993 24.9355C20.3016 24.8742 20.2128 24.7778 20.1349 24.6532L19.0762 22.901C19.0181 22.8071 18.9747 22.7146 18.9402 22.6188C18.9038 22.5211 18.877 22.4163 18.8585 22.3001L18.2302 18.4917C18.2283 18.4808 18.2263 18.47 18.2251 18.4591C17.9243 16.8608 17.9339 15.228 18.5271 13.834C18.9568 12.8302 19.6931 11.9432 20.8444 11.2714ZM28.6658 6.25034C28.5809 6.10922 28.5081 5.94447 28.4526 5.75992C28.3619 5.47001 28.3095 5.13732 28.3095 4.78036C28.3095 4.72416 28.3115 4.6718 28.3134 4.62135C28.3606 4.62646 28.4072 4.63221 28.4545 4.63604C28.4634 4.63604 28.4743 4.63796 28.4851 4.63987C28.632 4.66158 28.7623 4.7612 28.8542 4.90424C28.9589 5.06707 29.0132 5.28227 28.9972 5.51407C28.9953 5.53962 28.9921 5.56644 28.9883 5.59581C28.9577 5.79121 28.8887 5.9649 28.7929 6.10475C28.7546 6.15775 28.7112 6.20692 28.6658 6.25034ZM14.026 10.2254H15.1262V11.2663C15.1262 11.4438 15.2692 11.5869 15.4468 11.5869H16.4876V12.6871H15.4468C15.2692 12.6871 15.1262 12.8302 15.1262 13.0077V14.0485H14.026V13.0077C14.026 12.8302 13.883 12.6871 13.7055 12.6871H12.6666V11.5869H13.7055C13.883 11.5869 14.026 11.4438 14.026 11.2663V10.2254ZM15.4468 9.58814H13.7055C13.5299 9.58814 13.3868 9.73118 13.3868 9.90679V10.9477H12.346C12.1704 10.9477 12.0274 11.0907 12.0274 11.2663V13.0077C12.0274 13.1833 12.1704 13.3263 12.346 13.3263H13.3868V14.3672C13.3868 14.5428 13.5299 14.6858 13.7055 14.6858H15.4468C15.6224 14.6858 15.7654 14.5428 15.7654 14.3672V13.3263H16.8062C16.9818 13.3263 17.1249 13.1833 17.1249 13.0077V11.2663C17.1249 11.0907 16.9818 10.9477 16.8062 10.9477H15.7654V9.90679C15.7654 9.73118 15.6224 9.58814 15.4468 9.58814ZM13.1608 19.5964C13.3472 19.8391 13.5388 20.0779 13.7348 20.3148C14.0139 20.6533 14.298 20.9828 14.5873 21.3014C13.9392 21.7995 13.2661 22.2484 12.5727 22.6424C12.5312 22.6533 12.4878 22.6641 12.4443 22.675C12.5095 22.2874 12.6308 21.8135 12.763 21.3014C12.9022 20.7605 13.0522 20.1775 13.1608 19.5964ZM17.6989 9.70053C17.8004 9.91956 17.9237 10.1098 18.059 10.2599C18.2289 10.4445 18.4211 10.5786 18.6293 10.6488L18.6382 10.6507L18.642 10.6526C18.718 10.6782 18.7959 10.6941 18.8738 10.7031H18.8757H18.8847C19.0437 10.7178 19.2052 10.6973 19.368 10.636C19.5002 10.5869 19.6324 10.5128 19.7607 10.4081C19.9632 10.5058 20.1592 10.5945 20.3488 10.6763C20.3961 10.698 20.4446 10.7178 20.4938 10.7376C19.232 11.4815 18.4192 12.4662 17.9435 13.583C17.31 15.0658 17.2794 16.7708 17.5744 18.4381C16.8484 19.2944 16.07 20.0747 15.2469 20.7695C15.1945 20.8148 15.1403 20.8582 15.0879 20.9036C14.791 20.5779 14.5049 20.2465 14.2265 19.91C13.9079 19.5224 13.595 19.1207 13.2872 18.7063C13.2962 18.6124 13.3019 18.5198 13.3051 18.4291C13.3741 16.9611 12.9341 15.721 11.1622 15.4023C10.818 14.7867 10.4891 14.1482 10.1756 13.4872C9.86975 12.8429 9.58176 12.182 9.3123 11.509C9.8027 10.9227 10.3244 10.3761 10.8614 9.88316C12.0178 8.82633 13.2559 8.02237 14.4506 7.61879L14.4615 7.61496C14.7348 7.52429 14.9774 7.42467 15.1945 7.31611C15.5508 7.63987 15.9129 7.94766 16.2826 8.23948C16.6753 8.54727 17.0808 8.84038 17.499 9.12071C17.5495 9.32186 17.6133 9.5096 17.6893 9.67818L17.6912 9.68009L17.6989 9.70053ZM22.8462 3.30016C23.009 3.23502 23.0888 3.05048 23.0237 2.88764C22.9605 2.72481 22.7759 2.64498 22.6112 2.7082C20.6636 3.48662 20.6292 4.28994 20.5679 5.72033C20.5372 6.42084 20.5008 7.28993 20.1713 8.40998C19.974 9.07792 19.7403 9.52492 19.4983 9.78737C19.4894 9.79312 19.4817 9.80206 19.4747 9.80908C19.3572 9.93041 19.2429 10.0083 19.1343 10.0447H19.1324C19.0833 10.0613 19.0366 10.0703 18.9913 10.0703H18.9894H18.9875H18.9856C18.9351 10.0722 18.884 10.0632 18.8336 10.0447C18.7487 10.016 18.6637 9.9617 18.582 9.8838C18.5763 9.87869 18.5692 9.87103 18.5641 9.86592L18.5622 9.864L18.5584 9.86017L18.5565 9.85825C18.5475 9.84931 18.5386 9.84037 18.5309 9.8308C18.4875 9.78163 18.4441 9.72735 18.4045 9.66796L18.4026 9.66605L18.3955 9.65327C18.2634 9.45085 18.1586 9.18073 18.0916 8.86209C18.0897 8.85315 18.0878 8.84421 18.0859 8.83654C18.0367 8.59389 18.0137 8.32441 18.0188 8.03259C18.0188 8.02365 18.0188 8.01471 18.0188 8.00704V8.00513C17.9684 7.24332 18.1855 6.66541 18.3879 6.12646C18.5526 5.6884 18.7103 5.27206 18.7372 4.77972C18.748 4.60411 18.612 4.45405 18.4364 4.44511C18.2608 4.43425 18.1108 4.57027 18.1018 4.74587C18.0801 5.13859 17.939 5.51152 17.7921 5.90232C17.5642 6.50513 17.3234 7.14753 17.3828 8.04344C17.3809 8.11943 17.3828 8.19542 17.3847 8.2695C17.1478 8.09964 16.9103 7.92211 16.6753 7.73757C16.3637 7.49172 16.0598 7.23629 15.7628 6.97192C16.6568 6.31292 16.9722 5.42787 17.3247 4.43745C17.6778 3.44894 18.0705 2.34869 19.2033 1.31165C19.3393 1.18841 19.4804 1.069 19.6267 0.951501C20.5589 0.22034 21.4746 -0.0912819 22.3673 0.0230219C23.274 0.137326 24.1788 0.685217 25.0824 1.67181C25.2413 1.84741 25.408 2.04281 25.5804 2.26184C25.6436 2.34486 25.7017 2.42468 25.756 2.50833C25.8084 2.59326 25.8595 2.68011 25.908 2.77972C26.1832 3.3174 26.5542 3.75929 26.9852 4.07602C27.2042 4.23694 27.4379 4.36593 27.6838 4.4598L27.6819 4.48534C27.6748 4.58687 27.671 4.68649 27.671 4.78036C27.671 5.20054 27.7323 5.59836 27.8409 5.94958C27.9334 6.24268 28.058 6.50322 28.2099 6.71905C27.1978 8.97831 26.7292 8.84804 25.7286 8.5709C25.3595 8.46745 24.9323 8.34804 24.4106 8.28482C23.6501 8.18904 23.0026 8.25225 22.4701 8.47128C21.9177 8.69925 21.4982 9.08878 21.2083 9.64242C21.1994 9.65902 21.1917 9.6769 21.1866 9.69286C21.1253 9.88827 21.071 10.0786 21.0238 10.2669C20.8846 10.2107 20.7435 10.1526 20.5985 10.0894C20.4612 10.0294 20.3271 9.97192 20.1969 9.91189C20.4159 9.58431 20.6151 9.14817 20.7799 8.5907C21.1311 7.39593 21.1706 6.48214 21.2013 5.74523C21.2537 4.57985 21.2805 3.92404 22.8462 3.30016ZM24.7976 2.65903C24.7522 2.48917 24.5766 2.38764 24.4068 2.43298C24.2369 2.47832 24.1354 2.65392 24.1807 2.82378L24.3602 3.4879C24.4055 3.65775 24.5792 3.75929 24.749 3.71395C24.9189 3.66669 25.0204 3.493 24.9751 3.32314L24.7976 2.65903ZM7.39987 24.4911C7.39093 24.4821 7.37816 24.4732 7.3673 24.4636C7.25492 24.371 7.14637 24.2682 7.04165 24.152C6.53464 23.5983 6.17642 22.97 5.94846 22.2893C5.87439 22.0683 5.81437 21.8423 5.76584 21.6124C5.76393 21.5996 5.76201 21.5849 5.75882 21.5728C5.40953 19.8352 5.78436 17.8314 6.61127 15.8838C7.17765 14.5517 7.95412 13.2503 8.85574 12.0792C9.09136 12.6475 9.33912 13.2088 9.59964 13.7593C9.85314 14.2931 10.1207 14.8218 10.4036 15.341C10.2714 15.3774 10.1737 15.493 10.1667 15.636C10.1596 15.8116 10.295 15.9598 10.4706 15.9674C12.2949 16.0505 12.7298 17.1169 12.6697 18.4023C12.664 18.5147 12.6551 18.6284 12.6442 18.7446C12.6423 18.7573 12.6404 18.7701 12.6404 18.7829C12.5574 19.5575 12.3415 20.3921 12.1481 21.145C11.9795 21.7963 11.8275 22.3902 11.779 22.8646C11.6289 22.9119 11.484 22.9585 11.3429 23.0057C11.1762 23.0619 11.0874 23.2427 11.1436 23.4093C11.1998 23.576 11.3805 23.6667 11.5472 23.6105C11.7605 23.5383 11.9674 23.4713 12.1679 23.4131L12.173 23.4112C12.3645 23.355 12.5567 23.3046 12.7521 23.2554C12.763 23.2535 12.7738 23.2516 12.7847 23.2484L12.7975 23.2446C12.8262 23.2375 12.8536 23.2267 12.8773 23.2139C13.2866 23.067 13.7099 23.0383 14.1154 23.12C14.5554 23.2069 14.9749 23.4208 15.3446 23.7497C15.448 23.8435 15.533 23.954 15.6 24.0792C15.6671 24.2056 15.7156 24.3487 15.7411 24.5045C15.7462 24.537 15.7501 24.5715 15.7501 24.606C15.7501 24.7203 15.7175 24.8212 15.6651 24.8972C15.6236 24.9572 15.5726 24.9968 15.5183 25.0057C15.5113 25.0077 15.5017 25.0077 15.4895 25.0077H8.85063C8.68078 25.0077 8.51731 24.9911 8.36023 24.9585C7.94582 24.0479 7.7268 23.0377 7.70509 22.0204C7.68338 20.9527 7.88069 19.8774 8.29702 18.9036C8.36598 18.7407 8.29191 18.5543 8.12844 18.4853C7.96753 18.4164 7.77916 18.4923 7.7102 18.6539C7.25747 19.7095 7.0442 20.8748 7.06974 22.0332C7.08762 22.9036 7.23959 23.7727 7.52374 24.5856C7.48096 24.5543 7.44137 24.5236 7.39987 24.4911Z" fill="black"/>
</svg>
