<svg width="20" height="11" viewBox="0 0 20 11" fill="none" xmlns="http://www.w3.org/2000/svg">
<path d="M18.6597 4.99987C18.4979 4.71964 18.1395 4.62354 17.8593 4.78542L16.2287 5.72686C15.9485 5.8887 15.8525 6.24702 16.0143 6.52725C16.1228 6.71522 16.3197 6.82034 16.5222 6.82034C16.6216 6.82034 16.7224 6.79503 16.8147 6.74171L18.4452 5.80026C18.7254 5.63843 18.8215 5.28011 18.6597 4.99987Z" fill="#2973D5"/>
<path d="M14.9993 1.34037C14.719 1.17845 14.3606 1.27459 14.1989 1.55482L13.2575 3.18541C13.0958 3.46568 13.1918 3.82404 13.472 3.9858C13.5643 4.03908 13.665 4.06443 13.7644 4.06443C13.9669 4.06443 14.1639 3.95931 14.2724 3.77134L15.2138 2.14076C15.3756 1.86048 15.2796 1.50213 14.9993 1.34037Z" fill="#2973D5"/>
<path d="M10 0C9.67641 0 9.41406 0.262344 9.41406 0.585938V2.46875C9.41406 2.79234 9.67641 3.05469 10 3.05469C10.3236 3.05469 10.5859 2.79234 10.5859 2.46875V0.585938C10.5859 0.262344 10.3236 0 10 0Z" fill="#2973D5"/>
<path d="M6.74188 3.18538L5.80047 1.55483C5.63867 1.27456 5.28032 1.17846 5.00008 1.34038C4.71985 1.50217 4.62383 1.86053 4.78563 2.14077L5.72703 3.77131C5.83555 3.95932 6.0325 4.0644 6.235 4.0644C6.33438 4.0644 6.43516 4.03909 6.52743 3.98577C6.80766 3.82397 6.90368 3.46565 6.74188 3.18538Z" fill="#2973D5"/>
<path d="M3.77409 5.72712L2.14354 4.78567C1.86323 4.6238 1.50491 4.71985 1.34315 5.00012C1.18131 5.28036 1.27733 5.63872 1.5576 5.80052L3.18815 6.74196C3.28041 6.79524 3.38116 6.82059 3.48057 6.82059C3.68307 6.82059 3.88002 6.71551 3.98854 6.52751C4.15034 6.24727 4.05432 5.88891 3.77409 5.72712Z" fill="#2973D5"/>
<path d="M19.4141 9.41378H14.312C14.0249 7.29046 12.2007 5.64819 10 5.64819C7.79922 5.64819 5.97508 7.29046 5.68801 9.41378H0.585938C0.262344 9.41378 0 9.67612 0 9.99972C0 10.3233 0.262344 10.5857 0.585938 10.5857H19.4141C19.7377 10.5857 20 10.3233 20 9.99972C20 9.67612 19.7377 9.41378 19.4141 9.41378ZM6.87531 9.41378C7.15121 7.93956 8.44691 6.82007 10 6.82007C11.553 6.82007 12.8488 7.93956 13.1246 9.41378H6.87531Z" fill="#2973D5"/>
</svg>
