<svg width="24" height="24" viewBox="0 0 24 24" fill="none" xmlns="http://www.w3.org/2000/svg">
<path d="M11.717 0.00147639C14.8241 0.00343157 17.8033 1.23845 20.0004 3.43531C22.1975 5.63216 23.4329 8.61123 23.4353 11.7182C23.4273 13.7861 22.8721 15.815 21.826 17.5988L23.4176 22.3661C23.4404 22.435 23.4437 22.5089 23.427 22.5795C23.4103 22.6501 23.3742 22.7147 23.3229 22.766C23.2716 22.8173 23.207 22.8534 23.1364 22.8701C23.0657 22.8868 22.9919 22.8836 22.923 22.8607L18.3653 21.3415C16.4139 22.6988 14.0956 23.43 11.7185 23.438C8.61125 23.436 5.63181 22.2008 3.43463 20.0036C1.23746 17.8064 0.00223351 14.827 0.000278473 11.7197C0.00145149 8.61233 1.23618 5.6325 3.43316 3.43497C5.63014 1.23743 8.60965 0.00343272 11.717 0.00147639ZM15.6325 10.546C14.9902 10.546 14.4617 11.0745 14.4617 11.7182C14.4617 12.3605 14.9902 12.889 15.6325 12.889C16.2747 12.889 16.8047 12.3605 16.8047 11.7182C16.8047 11.0745 16.2762 10.546 15.6325 10.546ZM11.717 10.546C11.0748 10.546 10.5448 11.0745 10.5448 11.7182C10.5448 12.3605 11.0748 12.889 11.717 12.889C12.3593 12.889 12.8893 12.3605 12.8893 11.7182C12.8893 11.0745 12.3593 10.546 11.717 10.546ZM7.81933 10.546C7.17709 10.546 6.64854 11.0745 6.64854 11.7182C6.64854 12.3605 7.17709 12.889 7.82081 12.889C8.46452 12.889 8.9916 12.3605 8.9916 11.7182C8.9916 11.0745 8.46304 10.546 7.82081 10.546H7.81933Z" fill="#7D7D7D"/>
</svg>
