<svg width="54" height="54" viewBox="0 0 54 54" fill="none" xmlns="http://www.w3.org/2000/svg">
<g filter="url(#filter0_d_693_1617)">
<rect x="13" y="9" width="27.9616" height="27.9616" rx="13.9808" fill="white" shape-rendering="crispEdges"/>
<rect x="12.5" y="8.5" width="28.9616" height="28.9616" rx="14.4808" stroke="black" stroke-opacity="0.02" shape-rendering="crispEdges"/>
<g clip-path="url(#clip0_693_1617)">
<path d="M32.75 21.75H28.5C28.3619 21.75 28.25 21.6381 28.25 21.5V17.25C28.25 16.5597 27.6903 16 27 16C26.3097 16 25.75 16.5597 25.75 17.25V21.5C25.75 21.6381 25.6381 21.75 25.5 21.75H21.25C20.5597 21.75 20 22.3097 20 23C20 23.6903 20.5597 24.25 21.25 24.25H25.5C25.6381 24.25 25.75 24.3619 25.75 24.5V28.75C25.75 29.4403 26.3097 30 27 30C27.6903 30 28.25 29.4403 28.25 28.75V24.5C28.25 24.3619 28.3619 24.25 28.5 24.25H32.75C33.4403 24.25 34 23.6903 34 23C34 22.3097 33.4403 21.75 32.75 21.75Z" fill="#03A878"/>
</g>
</g>
<defs>
<filter id="filter0_d_693_1617" x="0" y="0" width="53.9619" height="53.9616" filterUnits="userSpaceOnUse" color-interpolation-filters="sRGB">
<feFlood flood-opacity="0" result="BackgroundImageFix"/>
<feColorMatrix in="SourceAlpha" type="matrix" values="0 0 0 0 0 0 0 0 0 0 0 0 0 0 0 0 0 0 127 0" result="hardAlpha"/>
<feOffset dy="4"/>
<feGaussianBlur stdDeviation="6"/>
<feComposite in2="hardAlpha" operator="out"/>
<feColorMatrix type="matrix" values="0 0 0 0 0 0 0 0 0 0 0 0 0 0 0 0 0 0 0.06 0"/>
<feBlend mode="normal" in2="BackgroundImageFix" result="effect1_dropShadow_693_1617"/>
<feBlend mode="normal" in="SourceGraphic" in2="effect1_dropShadow_693_1617" result="shape"/>
</filter>
<clipPath id="clip0_693_1617">
<rect width="14" height="14" fill="white" transform="translate(20 16)"/>
</clipPath>
</defs>
</svg>
