<svg width="13" height="13" viewBox="0 0 13 13" fill="none" xmlns="http://www.w3.org/2000/svg">
<g clip-path="url(#clip0_2240_8324)">
<path d="M12.8158 7.68581C12.6616 7.56488 12.4494 7.54962 12.2794 7.64734C11.4735 8.1106 10.6216 8.34553 9.74743 8.34553C6.93877 8.34553 4.65382 6.06046 4.65382 3.25172C4.65382 2.37374 4.88907 1.52301 5.3531 0.723255C5.45165 0.553467 5.43703 0.340785 5.31617 0.186001C5.19537 0.0312182 4.99256 -0.034632 4.80392 0.0198691C3.4471 0.410995 2.22589 1.24082 1.36529 2.35643C0.472108 3.51435 0 4.90112 0 6.36688C0 10.0239 2.97512 12.9992 6.63208 12.9992C8.09784 12.9992 9.48493 12.5273 10.6434 11.6344C11.7598 10.774 12.59 9.55347 12.9811 8.19761C13.0355 8.00922 12.9701 7.8068 12.8158 7.68581ZM6.63208 12.0374C3.50545 12.0374 0.961785 9.49358 0.961785 6.36688C0.961785 4.25749 2.16883 2.3379 4.00333 1.37316C3.79636 1.98133 3.69204 2.60964 3.69204 3.25172C3.69204 6.59078 6.4085 9.30731 9.74743 9.30731C10.3886 9.30731 11.018 9.20254 11.6291 8.99486C10.6645 10.8298 8.74327 12.0374 6.63208 12.0374Z" fill="#1F2D61"/>
</g>
<defs>
<clipPath id="clip0_2240_8324">
<rect width="13" height="13" fill="white"/>
</clipPath>
</defs>
</svg>
