<svg width="19" height="19" viewBox="0 0 19 19" fill="none" xmlns="http://www.w3.org/2000/svg">
<g clip-path="url(#clip0_1109_7510)">
<path d="M4.94755 14.6706C3.68015 14.6706 2.55277 13.8591 2.1434 12.651L2.11571 12.5599C2.01917 12.24 1.97873 11.971 1.97873 11.7018V6.30396L0.0581228 12.715C-0.188893 13.658 0.373995 14.6356 1.31842 14.8961L13.5603 18.1746C13.7131 18.2142 13.8659 18.2332 14.0164 18.2332C14.8048 18.2332 15.5253 17.7099 15.7272 16.9387L16.4404 14.6706H4.94755Z" fill="#1D1D1D"/>
<path d="M7.12444 6.35776C7.99769 6.35776 8.70771 5.64759 8.70771 4.77434C8.70771 3.90109 7.99769 3.19092 7.12444 3.19092C6.25118 3.19092 5.54102 3.90109 5.54102 4.77434C5.54102 5.64759 6.25118 6.35776 7.12444 6.35776Z" fill="#1D1D1D"/>
<path d="M17.0205 0.815918H5.14518C4.05434 0.815918 3.16602 1.70425 3.16602 2.79523V11.5037C3.16602 12.5947 4.05434 13.483 5.14518 13.483H17.0205C18.1115 13.483 18.9998 12.5947 18.9998 11.5037V2.79523C18.9998 1.70425 18.1115 0.815918 17.0205 0.815918ZM5.14518 2.39934H17.0205C17.2391 2.39934 17.4164 2.57663 17.4164 2.79523V8.41541L14.9155 5.49718C14.6502 5.18609 14.2662 5.01982 13.8538 5.01039C13.4437 5.01271 13.059 5.19479 12.7961 5.50993L9.85572 9.03918L8.89782 8.08359C8.35638 7.54216 7.47516 7.54216 6.93445 8.08359L4.74944 10.2679V2.79523C4.74944 2.57663 4.92672 2.39934 5.14518 2.39934Z" fill="#1D1D1D"/>
</g>
<defs>
<clipPath id="clip0_1109_7510">
<rect width="19" height="19" fill="white"/>
</clipPath>
</defs>
</svg>
