<svg width="19" height="19" viewBox="0 0 19 19" fill="none" xmlns="http://www.w3.org/2000/svg">
<path d="M17.4147 4.81151C17.1455 4.66624 16.8415 4.59783 16.536 4.61377C16.2305 4.62971 15.9353 4.72938 15.6827 4.90188L12.4688 7.05874V5.34375C12.4682 4.8715 12.2804 4.41874 11.9464 4.08481C11.6125 3.75087 11.1598 3.56303 10.6875 3.5625H2.375C1.90275 3.56303 1.44999 3.75087 1.11606 4.08481C0.782123 4.41874 0.594284 4.8715 0.59375 5.34375V13.6562C0.594284 14.1285 0.782123 14.5813 1.11606 14.9152C1.44999 15.2491 1.90275 15.437 2.375 15.4375H10.6875C11.1598 15.437 11.6125 15.2491 11.9464 14.9152C12.2804 14.5813 12.4682 14.1285 12.4688 13.6562V11.9411L15.6833 14.0981C15.9353 14.2718 16.2306 14.3722 16.5362 14.3881C16.8419 14.4041 17.146 14.335 17.4147 14.1885C17.7207 14.0185 17.9747 13.7685 18.1494 13.4651C18.3241 13.1618 18.4129 12.8166 18.4062 12.4666V6.53362C18.4129 6.1836 18.3241 5.83836 18.1494 5.53497C17.9748 5.23158 17.7207 4.98148 17.4147 4.81151ZM11.2812 13.6562C11.2811 13.8137 11.2184 13.9646 11.1071 14.0759C10.9958 14.1872 10.8449 14.2498 10.6875 14.25H2.375C2.21759 14.2498 2.06667 14.1872 1.95536 14.0759C1.84405 13.9646 1.78144 13.8137 1.78125 13.6562V5.34375C1.78144 5.18634 1.84405 5.03542 1.95536 4.92411C2.06667 4.8128 2.21759 4.75019 2.375 4.75H10.6875C10.8449 4.75019 10.9958 4.8128 11.1071 4.92411C11.2184 5.03542 11.2811 5.18634 11.2812 5.34375V13.6562ZM17.2188 12.4664C17.2252 12.6012 17.1948 12.7353 17.1308 12.8542C17.0669 12.9731 16.9718 13.0724 16.8557 13.1413C16.7768 13.186 16.6867 13.207 16.5962 13.2018C16.5056 13.1967 16.4185 13.1656 16.3451 13.1124L12.4688 10.5113V8.48872L16.3444 5.8881C16.4182 5.8356 16.5054 5.80503 16.5959 5.79991C16.6863 5.79478 16.7764 5.81531 16.8557 5.85913C16.9717 5.92808 17.0668 6.02726 17.1307 6.14607C17.1946 6.26489 17.2251 6.39885 17.2188 6.53362V12.4664Z" fill="black"/>
</svg>
