<svg width="24" height="24" viewBox="0 0 24 24" fill="none" xmlns="http://www.w3.org/2000/svg">
<g clip-path="url(#clip0_693_1633)">
<path d="M12.0005 1.91903C17.4793 1.91903 21.9315 6.37117 21.9315 11.85C21.9315 17.3288 17.4793 21.781 12.0005 21.781C9.99513 21.781 8.04731 21.1669 6.36816 20.0059L5.58136 19.4589L4.66982 19.766L2.95229 20.3417L3.59517 18.4131L3.87343 17.5879L3.43205 16.8395C2.5397 15.3138 2.06954 13.5963 2.06954 11.8596C2.06954 6.37117 6.52169 1.91903 12.0005 1.91903ZM12.0005 0C5.45662 0 0.150511 5.30611 0.150511 11.85C0.150511 13.9417 0.726219 15.9951 1.77209 17.799L0.169701 22.6157C0.0833449 22.8844 0.284843 23.1339 0.543912 23.1339C0.582292 23.1339 0.630268 23.1339 0.668649 23.1147L5.27432 21.5795C7.25092 22.942 9.59213 23.7 11.9909 23.7C18.5252 23.7 23.8409 18.3939 23.8409 11.85C23.8409 5.30611 18.5348 0 12.0005 0Z" fill="#828282"/>
<path d="M8.03762 10.6602C7.38516 10.6602 6.85742 11.1975 6.85742 11.8404C6.85742 12.4929 7.39475 13.0206 8.03762 13.0206C8.6805 13.0206 9.21783 12.4833 9.21783 11.8404C9.21783 11.1975 8.6805 10.6602 8.03762 10.6602Z" fill="#828282"/>
<path d="M12.0005 10.6602C11.348 10.6602 10.8203 11.1975 10.8203 11.8404C10.8203 12.4929 11.3576 13.0206 12.0005 13.0206C12.6434 13.0206 13.1807 12.4833 13.1807 11.8404C13.1807 11.188 12.6434 10.6602 12.0005 10.6602Z" fill="#828282"/>
<path d="M15.9341 10.6602C15.2816 10.6602 14.7539 11.1975 14.7539 11.8404C14.7539 12.4929 15.2912 13.0206 15.9341 13.0206C16.577 13.0206 17.1143 12.4833 17.1143 11.8404C17.1143 11.188 16.577 10.6602 15.9341 10.6602Z" fill="#828282"/>
</g>
<defs>
<clipPath id="clip0_693_1633">
<rect width="23.7" height="23.7" fill="white" transform="translate(0.150391)"/>
</clipPath>
</defs>
</svg>
