<svg width="18" height="18" viewBox="0 0 18 18" fill="none" xmlns="http://www.w3.org/2000/svg">
<path d="M14.8073 11.3835V7.96353C14.8073 5.42321 13.1815 3.20807 10.9431 2.38066C10.9692 2.25 10.9837 2.11648 10.9837 1.98291C10.9838 0.888403 10.0954 0 9.00085 0C7.90634 0 7.01794 0.888403 7.01794 1.98291C7.01794 2.11357 7.03244 2.24418 7.05566 2.36903C6.28633 2.64194 5.57504 3.0745 4.96827 3.66095C3.82441 4.76418 3.19442 6.24772 3.19442 7.83869V11.3835C3.19442 11.5084 3.0928 11.6129 2.96505 11.6129C1.89377 11.6129 0.979234 12.42 0.880522 13.4477C0.825349 14.0197 1.01409 14.5887 1.40021 15.0126C1.78342 15.4336 2.33215 15.6774 2.90406 15.6774H6.40536C6.55052 16.981 7.65956 18 9.00085 18C10.3421 18 11.4512 16.981 11.5963 15.6774H15.0976C15.6696 15.6774 16.2183 15.4336 16.6015 15.0126C16.9847 14.5887 17.1734 14.0197 17.1212 13.4477C17.0225 12.42 16.1051 11.6129 15.0366 11.6129C14.9089 11.6128 14.8073 11.5112 14.8073 11.3835ZM9.00085 1.16127C9.45373 1.16127 9.82244 1.52998 9.82244 1.98286C9.82244 2.02058 9.81662 2.05544 9.8108 2.09316C9.61338 2.06412 9.41305 2.0438 9.21272 2.03798C8.86723 2.02635 8.52756 2.04962 8.19079 2.09607C8.18498 2.05835 8.17916 2.02349 8.17916 1.98577C8.17925 1.52998 8.54797 1.16127 9.00085 1.16127ZM9.00085 16.8386C8.30119 16.8386 7.71474 16.3393 7.57826 15.6774H10.4234C10.287 16.3393 9.70055 16.8386 9.00085 16.8386ZM15.9657 13.558C15.9889 13.8077 15.9105 14.0487 15.745 14.2316C15.5737 14.4145 15.3473 14.5161 15.0976 14.5161H2.90411C2.65442 14.5161 2.428 14.4144 2.25957 14.2316C2.09119 14.0487 2.01279 13.8077 2.03602 13.558C2.07665 13.1196 2.48604 12.7742 2.96505 12.7742C3.73152 12.7742 4.35569 12.15 4.35569 11.3835V7.83869C4.35569 6.56707 4.86083 5.37968 5.77537 4.49709C6.64923 3.65227 7.78732 3.19353 9.00085 3.19353C9.05893 3.19353 9.11406 3.19353 9.17214 3.19644C11.637 3.28351 13.646 5.42321 13.646 7.96353V11.3835C13.646 12.15 14.2702 12.7742 15.0366 12.7742C15.5157 12.7742 15.9221 13.1196 15.9657 13.558Z" fill="#434343"/>
</svg>
