<svg width="27" height="27" viewBox="0 0 27 27" fill="none" xmlns="http://www.w3.org/2000/svg">
<g clip-path="url(#clip0_693_3173)">
<path d="M13.5001 26.6837C20.7812 26.6837 26.6837 20.7812 26.6837 13.5001C26.6837 6.21894 20.7812 0.316406 13.5001 0.316406C6.21894 0.316406 0.316406 6.21894 0.316406 13.5001C0.316406 20.7812 6.21894 26.6837 13.5001 26.6837Z" fill="url(#paint0_linear_693_3173)"/>
<path fill-rule="evenodd" clip-rule="evenodd" d="M9.26674 21.2357C7.93914 21.2194 6.875 19.656 6.875 17.8703C6.875 14.0164 10.1872 12.0895 13.4993 12.0895C16.8115 12.0895 20.1233 14.0164 20.1233 17.8703C20.1233 19.656 19.0595 21.2357 17.7316 21.2357C15.6976 21.2774 15.5158 19.4108 13.4996 19.4094C11.4905 19.4081 11.2968 21.2608 9.26689 21.2357H9.26674Z" fill="white"/>
<path d="M16.2296 9.80441C17.3504 9.80441 18.259 8.89987 18.259 7.78405C18.259 6.66824 17.3504 5.76369 16.2296 5.76369C15.1088 5.76369 14.2002 6.66824 14.2002 7.78405C14.2002 8.89987 15.1088 9.80441 16.2296 9.80441Z" fill="white"/>
<path d="M10.7696 9.80441C11.8904 9.80441 12.799 8.89987 12.799 7.78405C12.799 6.66824 11.8904 5.76369 10.7696 5.76369C9.64883 5.76369 8.74023 6.66824 8.74023 7.78405C8.74023 8.89987 9.64883 9.80441 10.7696 9.80441Z" fill="white"/>
<path d="M6.5697 12.6673C7.42314 12.6673 8.11499 11.9786 8.11499 11.1291C8.11499 10.2795 7.42314 9.59077 6.5697 9.59077C5.71626 9.59077 5.02441 10.2795 5.02441 11.1291C5.02441 11.9786 5.71626 12.6673 6.5697 12.6673Z" fill="white"/>
<path d="M20.4301 12.6673C21.2835 12.6673 21.9753 11.9786 21.9753 11.1291C21.9753 10.2795 21.2835 9.59077 20.4301 9.59077C19.5766 9.59077 18.8848 10.2795 18.8848 11.1291C18.8848 11.9786 19.5766 12.6673 20.4301 12.6673Z" fill="white"/>
</g>
<defs>
<linearGradient id="paint0_linear_693_3173" x1="4.00787" y1="22.9923" x2="22.9923" y2="4.00787" gradientUnits="userSpaceOnUse">
<stop stop-color="#8A2387"/>
<stop offset="0.471" stop-color="#E94057"/>
<stop offset="1" stop-color="#F27121"/>
</linearGradient>
<clipPath id="clip0_693_3173">
<rect width="27" height="27" fill="white"/>
</clipPath>
</defs>
</svg>
