<svg width="22" height="22" viewBox="0 0 22 22" fill="none" xmlns="http://www.w3.org/2000/svg">
<g clip-path="url(#clip0_594_9135)">
<path d="M14.7118 11.6596C13.7219 10.1153 12.0358 9.19312 10.2016 9.19312C8.36754 9.19312 6.68136 10.1153 5.69156 11.6596L3.30613 15.381C2.91035 15.9985 2.72773 16.7116 2.77791 17.4433C2.8281 18.1751 3.10656 18.8566 3.58307 19.4143C4.05993 19.9719 4.69002 20.3529 5.40522 20.5164C6.12041 20.6797 6.85357 20.61 7.52529 20.3148L7.5691 20.2953C9.25948 19.5667 11.1916 19.5733 12.8778 20.3148C13.3126 20.506 13.7734 20.6027 14.2383 20.6027C14.4911 20.6027 14.7454 20.574 14.9973 20.5166C15.7125 20.3532 16.3426 19.9722 16.8196 19.4146C17.2963 18.8571 17.5749 18.1754 17.6253 17.4436C17.6756 16.7116 17.493 15.9985 17.0972 15.3808L14.7118 11.6596ZM15.8396 18.5764C15.2328 19.2857 14.2512 19.51 13.3969 19.1343C12.3814 18.6877 11.2914 18.4645 10.2011 18.4645C9.11178 18.4645 8.02195 18.6875 7.00715 19.1337L6.97828 19.1464C6.13048 19.5049 5.16335 19.2778 4.5633 18.5764C3.9572 17.8669 3.88822 16.8625 4.39176 16.0768L6.77736 12.3555C7.52898 11.1829 8.80898 10.4828 10.2016 10.4828C11.5942 10.4828 12.8744 11.1829 13.6262 12.3555L16.0114 16.0767C16.5152 16.8627 16.446 17.8673 15.8396 18.5764Z" fill="#ADADAD"/>
<path d="M3.94861 11.6547C4.65827 11.3821 5.19739 10.8102 5.46678 10.0443C5.72292 9.31554 5.70194 8.49275 5.40737 7.72737C5.11263 6.9625 4.57653 6.33811 3.89792 5.96901C3.18474 5.58145 2.4014 5.51834 1.69292 5.79143C0.267566 6.33945 -0.386533 8.10083 0.235003 9.71871C0.731494 11.0064 1.88947 11.8193 3.0602 11.8193C3.35913 11.8193 3.65891 11.7663 3.94861 11.6547ZM1.43846 9.25545C1.07222 8.30208 1.39398 7.28795 2.15618 6.99489C2.29381 6.94185 2.43933 6.9155 2.58788 6.9155C2.81716 6.9155 3.05399 6.97811 3.28192 7.10215C3.69181 7.32488 4.01927 7.7116 4.20391 8.1908C4.38837 8.67034 4.40482 9.17656 4.25006 9.61649C4.10823 10.0197 3.83682 10.3161 3.48603 10.4509L3.48535 10.4512C2.72417 10.7446 1.80588 10.208 1.43846 9.25545Z" fill="#ADADAD"/>
<path d="M8.57716 8.73927C10.359 8.73927 11.8087 7.08766 11.8087 5.05756C11.8087 3.02695 10.359 1.375 8.57716 1.375C6.79547 1.375 5.34595 3.02695 5.34595 5.05756C5.34595 7.08766 6.79547 8.73927 8.57716 8.73927ZM8.57716 2.66457C9.64786 2.66457 10.5191 3.73811 10.5191 5.05756C10.5191 6.37649 9.64786 7.44971 8.57716 7.44971C7.50647 7.44971 6.63551 6.37649 6.63551 5.05756C6.63551 3.73811 7.50647 2.66457 8.57716 2.66457Z" fill="#ADADAD"/>
<path d="M14.158 9.64387H14.1581C14.4322 9.73485 14.7119 9.77832 14.9903 9.77832C16.2898 9.77832 17.5562 8.8325 18.0394 7.37895C18.3177 6.54223 18.2994 5.65752 17.9879 4.88794C17.6619 4.08244 17.0579 3.49766 16.2868 3.24119C15.5157 2.98506 14.6813 3.09181 13.9379 3.54198C13.2278 3.97217 12.6836 4.66974 12.4058 5.50645C11.8192 7.27153 12.6052 9.12758 14.158 9.64387ZM13.6296 5.91315C13.811 5.3668 14.1578 4.91664 14.6061 4.64506C15.0209 4.3938 15.4734 4.32985 15.8801 4.46496C16.2866 4.60025 16.6106 4.92218 16.7925 5.37167C16.989 5.85742 16.9974 6.42575 16.8157 6.97209C16.4533 8.06242 15.4435 8.71199 14.5648 8.4201C13.6868 8.12805 13.2672 7.00348 13.6296 5.91315Z" fill="#ADADAD"/>
<path d="M20.9633 9.21399L20.9628 9.21349C19.734 8.30578 17.8962 8.69921 16.8658 10.091C15.8364 11.4834 15.9974 13.3554 17.2243 14.2638C17.6718 14.5953 18.2005 14.7538 18.7417 14.7538C19.6848 14.7538 20.666 14.2724 21.3218 13.3872C22.3512 11.9947 22.1904 10.1227 20.9633 9.21399ZM20.2853 12.6199C19.6769 13.4412 18.6482 13.7136 17.9917 13.2274C17.3358 12.7418 17.2958 11.6787 17.9026 10.8579C18.3059 10.3131 18.8951 10.0099 19.4381 10.0099C19.7127 10.0099 19.9755 10.0875 20.1964 10.2508C20.8518 10.7369 20.8916 11.7997 20.2853 12.6199Z" fill="#ADADAD"/>
</g>
<defs>
<clipPath id="clip0_594_9135">
<rect width="22" height="22" fill="white"/>
</clipPath>
</defs>
</svg>
