<svg width="70" height="94" viewBox="0 0 70 94" fill="none" xmlns="http://www.w3.org/2000/svg">
<path d="M69.1497 32.9509C58.2164 28.608 44.3783 33.2639 38.2907 43.3347C31.6759 54.2775 34.7215 69.2546 45.075 76.7807C49.0736 79.6971 53.8843 80.7615 58.5778 79.796C63.2542 78.8587 67.2605 75.9799 69.8112 71.7604L77.7693 58.5952C80.6431 53.8412 81.3032 48.5555 79.6731 43.6908C78.043 38.8261 74.2785 35.0141 69.1497 32.9509Z" fill="#E6F7F2"/>
<path d="M32.0753 44.3403C34.827 39.7882 33.3674 33.8673 28.8153 31.1157C24.2633 28.364 18.3424 29.8235 15.5907 34.3756C12.8391 38.9277 14.2986 44.8485 18.8507 47.6002C23.4027 50.3519 29.3236 48.8923 32.0753 44.3403Z" fill="#E6F7F2"/>
<path d="M46.6915 27.5948C48.9831 23.8039 47.7676 18.8733 43.9768 16.5818C40.186 14.2903 35.2553 15.5056 32.9638 19.2965C30.6723 23.0874 31.8878 28.018 35.6786 30.3095C39.4694 32.601 44.4 31.3856 46.6915 27.5948Z" fill="#E6F7F2"/>
<path d="M63.801 24.0714C65.6324 21.0418 64.6611 17.1015 61.6314 15.2701C58.6019 13.4388 54.6614 14.41 52.83 17.4397C50.9987 20.4693 51.9701 24.4097 54.9996 26.241C58.0293 28.0724 61.9696 27.1011 63.801 24.0714Z" fill="#E6F7F2"/>
<path d="M30.0709 67.4805C32.3624 63.6897 31.147 58.759 27.3562 56.4675C23.5654 54.176 18.6347 55.3915 16.3432 59.1822C14.0517 62.973 15.2672 67.9037 19.058 70.1952C22.8488 72.4867 27.7795 71.2713 30.0709 67.4805Z" fill="#E6F7F2"/>
</svg>
