<svg width="19" height="19" viewBox="0 0 19 19" fill="none" xmlns="http://www.w3.org/2000/svg">
<mask id="mask0_2262_128" style="mask-type:alpha" maskUnits="userSpaceOnUse" x="0" y="0" width="19" height="19">
<rect x="0.863281" y="0.183105" width="18" height="18" fill="#D9D9D9"/>
</mask>
<g mask="url(#mask0_2262_128)">
<path d="M4.23828 9.27686C3.71328 9.27686 3.26953 9.09561 2.90703 8.73311C2.54453 8.37061 2.36328 7.92686 2.36328 7.40186C2.36328 6.87686 2.54453 6.43311 2.90703 6.07061C3.26953 5.70811 3.71328 5.52686 4.23828 5.52686C4.76328 5.52686 5.20703 5.70811 5.56953 6.07061C5.93203 6.43311 6.11328 6.87686 6.11328 7.40186C6.11328 7.92686 5.93203 8.37061 5.56953 8.73311C5.20703 9.09561 4.76328 9.27686 4.23828 9.27686ZM7.61328 6.27686C7.08828 6.27686 6.64453 6.09561 6.28203 5.73311C5.91953 5.37061 5.73828 4.92686 5.73828 4.40186C5.73828 3.87686 5.91953 3.43311 6.28203 3.07061C6.64453 2.70811 7.08828 2.52686 7.61328 2.52686C8.13828 2.52686 8.58203 2.70811 8.94453 3.07061C9.30703 3.43311 9.48828 3.87686 9.48828 4.40186C9.48828 4.92686 9.30703 5.37061 8.94453 5.73311C8.58203 6.09561 8.13828 6.27686 7.61328 6.27686ZM12.1133 6.27686C11.5883 6.27686 11.1445 6.09561 10.782 5.73311C10.4195 5.37061 10.2383 4.92686 10.2383 4.40186C10.2383 3.87686 10.4195 3.43311 10.782 3.07061C11.1445 2.70811 11.5883 2.52686 12.1133 2.52686C12.6383 2.52686 13.082 2.70811 13.4445 3.07061C13.807 3.43311 13.9883 3.87686 13.9883 4.40186C13.9883 4.92686 13.807 5.37061 13.4445 5.73311C13.082 6.09561 12.6383 6.27686 12.1133 6.27686ZM15.4883 9.27686C14.9633 9.27686 14.5195 9.09561 14.157 8.73311C13.7945 8.37061 13.6133 7.92686 13.6133 7.40186C13.6133 6.87686 13.7945 6.43311 14.157 6.07061C14.5195 5.70811 14.9633 5.52686 15.4883 5.52686C16.0133 5.52686 16.457 5.70811 16.8195 6.07061C17.182 6.43311 17.3633 6.87686 17.3633 7.40186C17.3633 7.92686 17.182 8.37061 16.8195 8.73311C16.457 9.09561 16.0133 9.27686 15.4883 9.27686ZM5.85078 16.7769C5.28828 16.7769 4.81641 16.5612 4.43516 16.13C4.05391 15.6987 3.86328 15.1894 3.86328 14.6019C3.86328 13.9519 4.08516 13.3831 4.52891 12.8956C4.97266 12.4081 5.41328 11.9269 5.85078 11.4519C6.21328 11.0644 6.52578 10.6425 6.78828 10.1862C7.05078 9.72998 7.36328 9.30186 7.72578 8.90186C8.00078 8.57686 8.31953 8.30811 8.68203 8.09561C9.04453 7.88311 9.43828 7.77686 9.86328 7.77686C10.2883 7.77686 10.682 7.87686 11.0445 8.07686C11.407 8.27686 11.7258 8.53936 12.0008 8.86436C12.3508 9.26436 12.6602 9.69561 12.9289 10.1581C13.1977 10.6206 13.5133 11.0519 13.8758 11.4519C14.3133 11.9269 14.7539 12.4081 15.1977 12.8956C15.6414 13.3831 15.8633 13.9519 15.8633 14.6019C15.8633 15.1894 15.6727 15.6987 15.2914 16.13C14.9102 16.5612 14.4383 16.7769 13.8758 16.7769C13.2008 16.7769 12.532 16.7206 11.8695 16.6081C11.207 16.4956 10.5383 16.4394 9.86328 16.4394C9.18828 16.4394 8.51953 16.4956 7.85703 16.6081C7.19453 16.7206 6.52578 16.7769 5.85078 16.7769Z" fill="#8A8A8A"/>
</g>
</svg>
