<svg width="65" height="72" viewBox="0 0 65 72" fill="none" xmlns="http://www.w3.org/2000/svg">
<path d="M38.6013 61.7624C40.572 50.1174 33.0986 37.508 21.9346 33.6434C9.80379 29.4442 -4.26167 35.5755 -9.47915 47.3189C-11.5038 51.8562 -11.5398 56.8026 -9.60756 61.208C-7.70653 65.6026 -4.03997 68.9322 0.637703 70.5514L15.232 75.6034C20.5022 77.4277 25.83 76.9672 30.2642 74.3465C34.6984 71.7258 37.6514 67.2305 38.6013 61.7624Z" fill="#E6F7F2"/>
<path d="M19.6438 27.752C24.6901 29.4988 30.1969 26.824 31.9437 21.7778C33.6905 16.7315 31.0158 11.2247 25.9696 9.47786C20.9233 7.73105 15.4164 10.4058 13.6696 15.452C11.9228 20.4983 14.5976 26.0052 19.6438 27.752Z" fill="#E6F7F2"/>
<path d="M39.1497 38.5899C43.3522 40.0446 47.938 37.8172 49.3927 33.6148C50.8474 29.4125 48.62 24.8266 44.4176 23.3719C40.2152 21.9172 35.6293 24.1446 34.1747 28.347C32.72 32.5493 34.9473 37.1352 39.1497 38.5899Z" fill="#E6F7F2"/>
<path d="M46.1972 54.6488C49.5557 55.8114 53.2205 54.0314 54.3831 50.6728C55.5457 47.3143 53.7657 43.6494 50.4071 42.4868C47.0486 41.3242 43.3837 43.1044 42.2212 46.4628C41.0586 49.8214 42.8386 53.4862 46.1972 54.6488Z" fill="#E6F7F2"/>
<path d="M-3.49504 30.6376C0.707284 32.0923 5.29323 29.8649 6.74791 25.6625C8.20258 21.4602 5.97516 16.8743 1.77283 15.4196C-2.4295 13.9649 -7.01544 16.1923 -8.47012 20.3947C-9.9248 24.597 -7.69737 29.1829 -3.49504 30.6376Z" fill="#E6F7F2"/>
</svg>
