<svg width="36" height="36" viewBox="0 0 36 36" fill="none" xmlns="http://www.w3.org/2000/svg">
<path d="M20.1138 23.7081C20.704 22.8324 21.6927 22.3095 22.758 22.3095H25.0659C26.0842 22.3095 27.0203 21.8503 27.6329 21.0499L29.6136 18.472C29.9473 18.0415 30.0315 17.4828 29.8412 16.977C29.6509 16.4706 29.2183 16.1039 28.6847 15.9948L26.9592 15.637C26.4449 15.535 25.9794 15.2773 25.6175 14.8928L22.0367 11.0852C21.5397 10.5552 20.8685 10.2229 20.1459 10.149L16.8088 9.80456C15.9209 9.71782 15.026 9.84028 14.2205 10.1585C14.0399 10.2331 13.8168 10.355 13.5841 10.5068C12.1357 11.4609 11.2697 13.1197 11.2697 14.9425V23.2017C11.2697 23.8102 11.5989 24.3325 12.1498 24.5997C12.6982 24.8657 13.3128 24.8032 13.7936 24.4326L16.9187 22.0276C17.4677 21.6047 17.667 20.8847 17.4137 20.2361L14.63 13.1389C14.5015 12.8104 14.6654 12.4405 14.9958 12.3129C15.3269 12.1854 15.6991 12.348 15.8284 12.6758L18.612 19.7743C19.0723 20.9542 18.7085 22.2642 17.7062 23.0353L14.5818 25.4397C13.7178 26.1055 12.5696 26.2229 11.5841 25.7452C10.5966 25.2662 9.9833 24.291 9.9833 23.2011V18.0319C9.85601 18.5887 9.75958 19.1327 9.72229 19.5951C9.52171 20.789 9.00741 21.7884 8.22631 22.5403C7.95823 22.8031 7.62457 23.1124 7.24399 23.4658C6.11702 24.5124 4.59403 25.9308 3.02026 27.7453C6.25074 32.5458 11.7583 35.7149 18 35.7149C19.5262 35.7149 21.0087 35.5242 22.4243 35.1677C22.0257 33.5044 20.9418 29.45 19.8155 26.7286C19.4002 25.7299 19.5108 24.5997 20.1125 23.7075L20.1138 23.7081Z" fill="#556080"/>
<path d="M18.0006 0C8.07522 0 0 8.01113 0 17.8578C0 21.0346 0.844102 24.0174 2.31565 26.6043C3.83607 24.8867 5.28062 23.5429 6.3658 22.5352C6.73738 22.1902 7.06204 21.8885 7.32755 21.629C7.91385 21.0645 8.30022 20.3088 8.44744 19.4388C8.57666 17.8189 9.42076 14.9763 10.0572 13.9775C10.3195 12.114 11.3269 10.4621 12.8743 9.44294C13.1797 9.24395 13.4683 9.08706 13.7345 8.97736C14.7387 8.58003 15.8425 8.42887 16.938 8.53602L20.2777 8.88106C21.3095 8.98693 22.2681 9.4608 22.9765 10.2166L26.5567 14.0235C26.7335 14.2116 26.9617 14.3379 27.2157 14.3883L28.9437 14.7467C29.9119 14.9438 30.6982 15.6109 31.0447 16.5318C31.3912 17.4522 31.2375 18.4681 30.6339 19.2481L28.6551 21.8235C27.8104 22.9268 26.4674 23.5863 25.0646 23.5863H22.7567C22.1119 23.5863 21.5378 23.8899 21.181 24.4186C20.8184 24.9562 20.7522 25.6387 21.0048 26.2446C22.1414 28.9921 23.2337 33.0522 23.658 34.808C30.819 32.4489 36 25.7452 36 17.8591C36 8.0124 27.9248 0.00127546 17.9994 0.00127546L18.0006 0Z" fill="#556080"/>
</svg>
