<svg width="13" height="14" viewBox="0 0 13 14" fill="none" xmlns="http://www.w3.org/2000/svg">
<path d="M12.8623 9.64175C12.7546 9.40166 12.5817 9.19662 12.3632 9.04997L10.366 7.63209C10.2056 7.52011 10.0339 7.42514 9.85384 7.34872C9.41877 7.17098 8.97268 7.21103 8.63924 7.41631C8.34084 7.55399 7.95383 7.97454 7.69649 8.22638C6.74824 7.63059 5.41547 6.29883 4.77413 5.30251C5.01094 5.05018 5.42449 4.66167 5.56768 4.3833C5.69985 4.16601 5.76694 3.93521 5.76694 3.69639C5.76694 3.51515 5.72538 3.3254 5.64528 3.13915C5.56781 2.9549 5.46883 2.78046 5.35039 2.61947L3.96005 0.659875C3.80977 0.441158 3.603 0.26727 3.36176 0.15671C3.14195 0.0530427 2.90186 -0.000483165 2.65883 3.2862e-06C1.09677 0.0170258 -0.0442427 1.74531 0.00131749 3.22827C0.00532278 4.7618 0.768832 6.21272 1.70707 7.53596C2.75707 8.97547 4.02453 10.2429 5.46404 11.2929C7.11923 12.4665 9.19647 13.5269 11.145 12.7514C12.0823 12.3638 12.9935 11.3911 13 10.3116C12.9987 10.0814 12.9519 9.85378 12.8623 9.64175ZM11.897 10.7527C11.6742 11.2313 11.2237 11.6394 10.763 11.8266C9.29661 12.4465 7.37557 11.4416 6.05432 10.4844C4.69931 9.49676 3.50644 8.30406 2.51864 6.94919C1.70657 5.79516 1.01316 4.55002 1.00264 3.22827C1.00715 2.52334 1.23395 1.91604 1.76064 1.42238C2.04802 1.13901 2.34191 1.00133 2.65883 1.00133C2.75496 1.00133 2.84858 1.02185 2.9357 1.06341C3.02081 1.10296 3.08489 1.15603 3.13997 1.23514C3.28316 1.45943 4.66348 3.3234 4.72206 3.52767C4.74764 3.58081 4.76245 3.63849 4.76562 3.69739C4.76562 3.74946 4.74759 3.80553 4.70403 3.87713C4.5999 4.07639 4.17483 4.47141 4.00861 4.65616C3.72324 4.9175 3.66867 5.34607 3.87744 5.76312C4.00411 5.99543 4.21138 6.28281 4.49676 6.62025C5.06801 7.29164 5.77996 8.00308 6.37825 8.50775C6.70368 8.78311 6.99456 8.98888 7.22386 9.11004C7.55831 9.3063 8.05496 9.32383 8.33283 9.00441C8.50806 8.83969 8.94364 8.36456 9.13089 8.28846C9.30962 8.17982 9.35618 8.22788 9.47434 8.27644C9.65958 8.3185 11.5841 9.74088 11.7879 9.87105C11.8915 9.94265 11.9271 10.0047 11.9386 10.0303C11.9802 10.1339 11.9987 10.221 11.9987 10.3126C11.9992 10.4608 11.9651 10.609 11.897 10.7527Z" fill="#8A8A8A"/>
</svg>
