<svg width="23" height="23" viewBox="0 0 23 23" fill="none" xmlns="http://www.w3.org/2000/svg">
<path d="M17.4482 0H5.13182C2.30213 0 0 2.30213 0 5.13182V13.3427C0 15.8204 1.76637 17.8936 4.10545 18.3709V21.5536C4.10545 21.9324 4.31381 22.2803 4.64737 22.4589C4.79928 22.54 4.96555 22.58 5.13182 22.58C5.33093 22.58 5.52902 22.5215 5.70145 22.4076L11.601 18.4745H17.4482C20.2779 18.4745 22.58 16.1724 22.58 13.3427V5.13182C22.58 2.30213 20.2779 0 17.4482 0ZM10.7204 16.5942L6.15818 19.6354V17.4482C6.15818 16.8816 5.69837 16.4218 5.13182 16.4218C3.43421 16.4218 2.05273 15.0403 2.05273 13.3427V5.13182C2.05273 3.43421 3.43421 2.05273 5.13182 2.05273H17.4482C19.1458 2.05273 20.5273 3.43421 20.5273 5.13182V13.3427C20.5273 15.0403 19.1458 16.4218 17.4482 16.4218H11.29C11.2182 16.4208 11.1155 16.428 10.9985 16.4629C10.8753 16.4988 10.7819 16.5522 10.7204 16.5942Z" fill="#4F4F4F"/>
<path d="M17.4482 6.15823H5.13183C4.56528 6.15823 4.10547 6.61804 4.10547 7.1846C4.10547 7.75115 4.56528 8.21096 5.13183 8.21096H17.4482C18.0147 8.21096 18.4746 7.75115 18.4746 7.1846C18.4746 6.61804 18.0147 6.15823 17.4482 6.15823Z" fill="#4F4F4F"/>
<path d="M15.3955 10.2635H7.18457C6.61801 10.2635 6.1582 10.7233 6.1582 11.2899C6.1582 11.8564 6.61801 12.3162 7.18457 12.3162H15.3955C15.962 12.3162 16.4218 11.8564 16.4218 11.2899C16.4218 10.7233 15.962 10.2635 15.3955 10.2635Z" fill="#4F4F4F"/>
</svg>
