<svg width="18" height="24" viewBox="0 0 18 24" fill="none" xmlns="http://www.w3.org/2000/svg">
<path d="M17.2177 5.16016L17.809 3.72281C17.9123 3.47172 17.7813 3.18565 17.5237 3.09978L17.0616 2.94576C16.0136 2.5964 15.0613 2.00789 14.2802 1.22673L13.9849 0.931413C13.8593 0.805892 13.6736 0.762031 13.5052 0.818199L12.473 1.16224C11.7059 1.41795 10.8621 1.28077 10.2155 0.79525L9.28142 0.093944C9.11467 -0.031253 8.88538 -0.0313455 8.71863 0.0938515C8.48165 0.271792 8.12735 0.537824 7.78442 0.795297C7.1378 1.28082 6.29404 1.418 5.5269 1.16228L4.49474 0.818245C4.32628 0.762078 4.14061 0.805938 4.01505 0.931459L3.71968 1.22682C2.93861 2.00789 1.98636 2.5964 0.938376 2.94576L0.476267 3.09978C0.218701 3.18565 0.0877211 3.47172 0.190988 3.72281L0.782273 5.16016C1.70436 7.40168 1.6686 9.93583 0.628437 12.1251C0.222912 12.9785 0 13.9088 0 14.8825C0 18.2123 2.60406 21.0351 6.20761 22.0143C7.02972 22.2377 7.7822 22.6648 8.38463 23.2672L8.66852 23.5511C8.8516 23.7341 9.1484 23.7341 9.33143 23.5511L9.61532 23.2672C10.2177 22.6648 10.9702 22.2377 11.7923 22.0143C15.3959 21.0351 18 18.2124 18 14.8825C18 13.9088 17.7771 12.9785 17.3716 12.125C16.3314 9.93583 16.2956 7.40173 17.2177 5.16016Z" fill="#B2CAEC"/>
<path d="M9.14284 21.6883C9.05873 21.7535 8.94126 21.7535 8.85715 21.6883C8.19373 21.1738 7.42599 20.791 6.60097 20.5668C5.11475 20.163 3.79176 19.3706 2.87564 18.3357C1.97567 17.319 1.5 16.125 1.5 14.8826C1.5 14.1549 1.66258 13.4438 1.98325 12.7688C3.19275 10.2233 3.26058 7.24203 2.16943 4.58953L2.07731 4.36551C2.02915 4.24845 2.08273 4.11451 2.1983 4.06283C3.04724 3.68312 3.83558 3.16554 4.52027 2.53669C4.58347 2.47867 4.67263 2.45859 4.75406 2.4857L5.05261 2.58522C5.45754 2.72023 5.87912 2.78865 6.30565 2.78861C7.15829 2.78856 8.00339 2.50666 8.68513 1.99477L8.85932 1.86397C8.94269 1.80137 9.05739 1.80137 9.14076 1.86397L9.31491 1.99472C9.99669 2.50666 10.8418 2.78861 11.6945 2.78861C12.121 2.78861 12.5426 2.72018 12.9474 2.58522L13.246 2.4857C13.3274 2.45859 13.4166 2.47862 13.4798 2.53669C14.1645 3.16554 14.9527 3.68312 15.8017 4.06283C15.9173 4.11451 15.9708 4.24845 15.9227 4.36551L15.8306 4.58953C14.7394 7.24198 14.8073 10.2232 16.0167 12.7688C16.3375 13.4437 16.5 14.1549 16.5 14.8826C16.5 16.125 16.0244 17.319 15.1244 18.3357C14.2083 19.3706 12.8853 20.163 11.3991 20.5668C10.574 20.791 9.80626 21.1739 9.14284 21.6883Z" fill="#0055A3"/>
<path d="M16.0164 12.7687C14.8069 10.2231 14.739 7.24191 15.8302 4.58945L15.9223 4.36543C15.9705 4.24838 15.9169 4.11444 15.8014 4.06276C14.9524 3.68305 14.1641 3.16547 13.4794 2.53661C13.4162 2.4786 13.327 2.45852 13.2456 2.48563L12.947 2.58515C12.6737 2.67629 12.3927 2.73709 12.1077 2.76693C12.5888 3.13854 13.1094 3.45968 13.6574 3.72284C13.8906 3.83485 13.9976 4.10731 13.8992 4.3466C12.8074 6.99938 12.8751 9.98121 14.0848 12.5272C14.4055 13.2022 14.5681 13.9134 14.5681 14.641C14.5681 15.8834 14.0924 17.0775 13.1924 18.0942C12.2763 19.1291 10.9533 19.9215 9.46711 20.3253C9.45827 20.3277 9.44944 20.3301 9.4406 20.3325C8.60581 20.5631 7.74734 20.6699 6.89062 20.6528C7.60563 20.8832 8.27177 21.2345 8.85676 21.6882C8.94088 21.7534 9.05839 21.7535 9.14251 21.6882C9.80592 21.1737 10.5737 20.7909 11.3987 20.5667C12.8849 20.1629 14.2079 19.3706 15.124 18.3356C16.024 17.319 16.4997 16.1249 16.4997 14.8825C16.4997 14.1549 16.3371 13.4437 16.0164 12.7687Z" fill="#004281"/>
<path d="M9.00017 16.3237C11.4532 16.3237 13.4417 14.3351 13.4417 11.8821C13.4417 9.42908 11.4532 7.44052 9.00017 7.44052C6.54716 7.44052 4.55859 9.42908 4.55859 11.8821C4.55859 14.3351 6.54716 16.3237 9.00017 16.3237Z" fill="#FFC344"/>
<path d="M9.9729 7.54755C10.9284 8.36221 11.5343 9.57476 11.5343 10.9288C11.5343 13.3818 9.54577 15.3704 7.09277 15.3704C6.75831 15.3704 6.43246 15.3334 6.11914 15.2633C6.89461 15.9245 7.90035 16.3236 8.99927 16.3236C11.4523 16.3236 13.4408 14.3351 13.4408 11.8821C13.4408 9.76353 11.9576 7.99143 9.9729 7.54755Z" fill="#FEB237"/>
<path d="M10.7818 11.9971L11.3669 13.0172C11.4553 13.1712 11.3444 13.3632 11.1669 13.3637L9.99093 13.367C9.90876 13.3672 9.83283 13.411 9.79156 13.4821L9.20074 14.4989C9.11154 14.6523 8.88988 14.6523 8.80072 14.4989L8.2099 13.4821C8.16863 13.411 8.09271 13.3672 8.01054 13.367L6.83454 13.3637C6.65701 13.3632 6.54621 13.1712 6.63453 13.0172L7.21971 11.9971C7.26061 11.9259 7.26061 11.8382 7.21971 11.7669L6.63453 10.7468C6.54621 10.5929 6.65706 10.4009 6.83454 10.4004L8.01054 10.3971C8.09271 10.3969 8.16863 10.3531 8.2099 10.282L8.80072 9.26521C8.88992 9.11174 9.11159 9.11174 9.20074 9.26521L9.79156 10.282C9.83283 10.3531 9.90876 10.3969 9.99093 10.3971L11.1669 10.4004C11.3445 10.4009 11.4553 10.5929 11.3669 10.7468L10.7818 11.7669C10.7409 11.8382 10.7409 11.9259 10.7818 11.9971Z" fill="#FFE177"/>
<path d="M11.1667 13.3638C11.3443 13.3633 11.4551 13.1713 11.3668 13.0173L11.1754 12.6838C11.0727 12.9223 10.9497 13.15 10.8086 13.3648L11.1667 13.3638Z" fill="#FFE177"/>
</svg>
