<svg width="20" height="18" viewBox="0 0 20 18" fill="none" xmlns="http://www.w3.org/2000/svg">
<path d="M5.48133 11.1517C4.24385 11.1517 3.24066 10.1491 3.24066 8.91232C3.24066 7.67557 4.24385 6.67299 5.48133 6.67299H14.5187C15.7562 6.67299 16.7593 7.67557 16.7593 8.91232C16.7593 10.1491 15.7562 11.1517 14.5187 11.1517M7.16183 6.67299C6.22415 6.67299 5.46587 5.90549 5.48155 4.96478C5.49694 4.04389 6.26795 3.31398 7.1895 3.31398H9.47718C10.4053 3.31398 11.1577 2.56205 11.1577 1.63448V1.07464C13.0139 1.07464 14.5187 2.57851 14.5187 4.43365C14.5187 5.29397 14.195 6.0787 13.6629 6.67299M4.95851 1H6.07884M16.1618 3.23934H17.2822M2.71784 3.23934H3.83817M3.80083 11.1517C2.25399 11.1517 1 12.4049 1 13.9508C1 15.4968 2.25399 16.75 3.80083 16.75H16.1992C17.746 16.75 19 15.4968 19 13.9508C19 12.4049 17.746 11.1517 16.1992 11.1517H3.80083Z" stroke="#FA9700" stroke-width="1.4" stroke-miterlimit="10"/>
</svg>
