<svg width="18" height="15" viewBox="0 0 18 15" fill="none" xmlns="http://www.w3.org/2000/svg">
<path d="M17.3686 14.0196H0.351561C0.157394 14.0196 0 13.8622 0 13.668V0.351561C0 0.157394 0.157394 0 0.351561 0H17.6483C17.8425 0 17.9999 0.157394 17.9999 0.351561V13.3882C17.9999 13.7369 17.7172 14.0196 17.3686 14.0196Z" fill="#FFF5F5"/>
<path d="M17.9993 0.351561V13.3882C17.9993 13.7369 17.7166 14.0196 17.3679 14.0196H16.8164C16.9179 14.0196 16.9997 13.9374 16.9997 13.8363V0.183339C16.9997 0.0818785 16.9179 0 16.8164 0H17.6477C17.8419 0 17.9993 0.157429 17.9993 0.351561Z" fill="#EFE2DD"/>
<path d="M17.6483 14.0196H0.351561C0.157394 14.0196 0 13.8622 0 13.668V12.5392H17.9999V13.668C17.9999 13.8622 17.8425 14.0196 17.6483 14.0196Z" fill="#C9F0FF"/>
<path d="M1.50781 14.0196L2.78159 12.5392H4.61733L3.381 14.0196H1.50781Z" fill="#FF5757"/>
<path d="M5.4668 14.0196L6.74061 12.5392H8.57635L7.34002 14.0196H5.4668Z" fill="#0091D0"/>
<path d="M9.42383 14.0196L10.6976 12.5392H12.5334L11.297 14.0196H9.42383Z" fill="#FF5757"/>
<path d="M13.3828 14.0196L14.6566 12.5392H16.4923L15.256 14.0196H13.3828Z" fill="#0091D0"/>
<path d="M4.61855 12.5391L3.38201 14.0196H2.35742L3.59393 12.5391H4.61855Z" fill="#F72C2C"/>
<path d="M8.5752 12.5391L7.33904 14.0196H6.31445L7.55061 12.5391H8.5752Z" fill="#007BAF"/>
<path d="M12.5346 12.5391L11.298 14.0196H10.2734L11.5096 12.5391H12.5346Z" fill="#F72C2C"/>
<path d="M16.4916 12.5391L15.2554 14.0196H14.2305L15.467 12.5391H16.4916Z" fill="#007BAF"/>
<path d="M17.9999 1.48054H0V0.351683C0 0.157516 0.157394 0.00012207 0.351561 0.00012207H17.6483C17.8425 0.00012207 17.9999 0.157516 17.9999 0.351683V1.48054Z" fill="#C9F0FF"/>
<path d="M17.9993 0.309444V1.48042H16.9997V0.183339C16.9997 0.0818785 16.9179 0 16.8164 0H17.6899C17.8609 3.51561e-05 17.9993 0.138796 17.9993 0.309444Z" fill="#9AE7FD"/>
<path d="M1.50781 1.48049L2.78159 7.24792e-05H4.61733L3.381 1.48049H1.50781Z" fill="#FF5757"/>
<path d="M5.4668 1.48049L6.74061 7.24792e-05H8.57635L7.34002 1.48049H5.4668Z" fill="#0091D0"/>
<path d="M9.42383 1.48049L10.6976 7.24792e-05H12.5334L11.297 1.48049H9.42383Z" fill="#FF5757"/>
<path d="M13.3828 1.48049L14.6566 7.24792e-05H16.4923L15.256 1.48049H13.3828Z" fill="#0091D0"/>
<path d="M4.61855 0L3.38201 1.48053H2.35742L3.59393 0H4.61855Z" fill="#F72C2C"/>
<path d="M8.5752 0L7.33904 1.48053H6.31445L7.55061 0H8.5752Z" fill="#007BAF"/>
<path d="M12.5346 0L11.298 1.48053H10.2734L11.5096 0H12.5346Z" fill="#F72C2C"/>
<path d="M16.4916 0L15.2554 1.48053H14.2305L15.467 0H16.4916Z" fill="#007BAF"/>
<path d="M2.3146 4.18506H1.5918C1.44614 4.18506 1.32812 4.06701 1.32812 3.92139C1.32812 3.77577 1.44614 3.65772 1.5918 3.65772H2.3146C2.46026 3.65772 2.57827 3.77577 2.57827 3.92139C2.57827 4.06701 2.46026 4.18506 2.3146 4.18506Z" fill="#7CA1B1"/>
<path d="M7.64396 4.18506H3.23437C3.08872 4.18506 2.9707 4.06701 2.9707 3.92139C2.9707 3.77577 3.08872 3.65772 3.23437 3.65772H7.644C7.78965 3.65772 7.90767 3.77577 7.90767 3.92139C7.90767 4.06701 7.78961 4.18506 7.64396 4.18506Z" fill="#7CA1B1"/>
<path d="M7.32722 5.40836H5.54101C5.39536 5.40836 5.27734 5.29031 5.27734 5.14469C5.27734 4.99907 5.39536 4.88102 5.54101 4.88102H7.32722C7.47287 4.88102 7.59089 4.99907 7.59089 5.14469C7.59089 5.29031 7.47287 5.40836 7.32722 5.40836Z" fill="#7CA1B1"/>
<path d="M4.67067 5.40836H4.05664C3.91099 5.40836 3.79297 5.29031 3.79297 5.14469C3.79297 4.99907 3.91099 4.88102 4.05664 4.88102H4.67067C4.81633 4.88102 4.93435 4.99907 4.93435 5.14469C4.93435 5.29031 4.81629 5.40836 4.67067 5.40836Z" fill="#7CA1B1"/>
<path d="M3.09602 5.40836H1.5918C1.44614 5.40836 1.32812 5.29031 1.32812 5.14469C1.32812 4.99907 1.44614 4.88102 1.5918 4.88102H3.09602C3.24167 4.88102 3.35969 4.99907 3.35969 5.14469C3.35969 5.29031 3.24163 5.40836 3.09602 5.40836Z" fill="#7CA1B1"/>
<path d="M16.4531 7.00959H13.4196C13.3183 7.00959 13.2363 6.92753 13.2363 6.82635V3.29001C13.2363 3.18879 13.3184 3.10677 13.4196 3.10677H16.4531C16.5544 3.10677 16.6364 3.18883 16.6364 3.29001V6.82639C16.6364 6.92757 16.5544 7.00959 16.4531 7.00959Z" fill="#FFC143"/>
<path d="M16.4536 7.00959H15.7422V3.10677H16.4536C16.5548 3.10677 16.6368 3.18883 16.6368 3.29001V6.82639C16.6368 6.92757 16.5548 7.00959 16.4536 7.00959Z" fill="#FFB509"/>
<path d="M4.46556 9.83236H1.5918C1.44614 9.83236 1.32812 9.7143 1.32812 9.56869C1.32812 9.42307 1.44614 9.30502 1.5918 9.30502H4.46556C4.61121 9.30502 4.72923 9.42307 4.72923 9.56869C4.72923 9.7143 4.61121 9.83236 4.46556 9.83236Z" fill="#7CA1B1"/>
<path d="M11.0859 9.83232H6.0332C5.88755 9.83232 5.76953 9.71426 5.76953 9.56865C5.76953 9.42303 5.88755 9.30498 6.0332 9.30498H11.0859C11.2315 9.30498 11.3495 9.42303 11.3495 9.56865C11.3495 9.71426 11.2315 9.83232 11.0859 9.83232Z" fill="#7CA1B1"/>
<path d="M2.81593 11.005H1.5918C1.44614 11.005 1.32812 10.887 1.32812 10.7413C1.32812 10.5957 1.44614 10.4777 1.5918 10.4777H2.81593C2.96158 10.4777 3.0796 10.5957 3.0796 10.7413C3.0796 10.887 2.96158 11.005 2.81593 11.005Z" fill="#7CA1B1"/>
<path d="M10.269 11.005H9.52344C9.37778 11.005 9.25977 10.887 9.25977 10.7413C9.25977 10.5957 9.37778 10.4777 9.52344 10.4777H10.269C10.4146 10.4777 10.5326 10.5957 10.5326 10.7413C10.5326 10.887 10.4146 11.005 10.269 11.005Z" fill="#7CA1B1"/>
<path d="M7.97414 11.005H4.3125C4.16685 11.005 4.04883 10.887 4.04883 10.7413C4.04883 10.5957 4.16685 10.4777 4.3125 10.4777H7.97414C8.11979 10.4777 8.23781 10.5957 8.23781 10.7413C8.23781 10.887 8.11979 11.005 7.97414 11.005Z" fill="#7CA1B1"/>
<path d="M13.0194 11.005H11.623C11.4774 11.005 11.3594 10.887 11.3594 10.7413C11.3594 10.5957 11.4774 10.4777 11.623 10.4777H13.0194C13.1651 10.4777 13.2831 10.5957 13.2831 10.7413C13.2831 10.887 13.1651 11.005 13.0194 11.005Z" fill="#7CA1B1"/>
<path d="M15.179 4.94906C14.7188 4.94906 14.4785 4.82043 14.2665 4.70691C14.0789 4.6065 13.9308 4.52719 13.6029 4.52719C13.2751 4.52719 13.127 4.6065 12.9394 4.70691C12.7274 4.82043 12.4871 4.94906 12.0269 4.94906C11.5668 4.94906 11.3266 4.82039 11.1146 4.70691C10.9271 4.6065 10.779 4.52719 10.4512 4.52719C10.3055 4.52719 10.1875 4.40914 10.1875 4.26352C10.1875 4.11791 10.3055 3.99985 10.4512 3.99985C10.9113 3.99985 11.1515 4.12852 11.3635 4.24201C11.551 4.34241 11.6991 4.42172 12.0269 4.42172C12.3548 4.42172 12.5029 4.34241 12.6905 4.24201C12.9025 4.12849 13.1428 3.99985 13.6029 3.99985C14.0631 3.99985 14.3034 4.12849 14.5154 4.24201C14.7029 4.34241 14.8511 4.42172 15.179 4.42172C15.3246 4.42172 15.4426 4.53978 15.4426 4.68539C15.4426 4.83101 15.3246 4.94906 15.179 4.94906Z" fill="#FF5757"/>
<path d="M15.179 6.11659C14.7188 6.11659 14.4785 5.98795 14.2665 5.87443C14.0789 5.77403 13.9308 5.69471 13.6029 5.69471C13.2751 5.69471 13.127 5.77403 12.9394 5.87443C12.7274 5.98795 12.4871 6.11659 12.0269 6.11659C11.5668 6.11659 11.3266 5.98792 11.1146 5.87443C10.9271 5.77403 10.779 5.69471 10.4512 5.69471C10.3055 5.69471 10.1875 5.57666 10.1875 5.43104C10.1875 5.28543 10.3055 5.16737 10.4512 5.16737C10.9113 5.16737 11.1515 5.29604 11.3635 5.40953C11.551 5.50993 11.6991 5.58925 12.0269 5.58925C12.3548 5.58925 12.5029 5.50993 12.6905 5.40953C12.9025 5.29601 13.1428 5.16737 13.6029 5.16737C14.0631 5.16737 14.3034 5.29601 14.5154 5.40953C14.7029 5.50993 14.8511 5.58925 15.179 5.58925C15.3246 5.58925 15.4426 5.7073 15.4426 5.85292C15.4426 5.99853 15.3246 6.11659 15.179 6.11659Z" fill="#FF5757"/>
<path d="M17.9993 12.5393V13.6681C17.9993 13.8622 17.8419 14.0196 17.6477 14.0196H16.8164C16.9179 14.0196 16.9997 13.9374 16.9997 13.8363V12.5392L17.9993 12.5393Z" fill="#9AE7FD"/>
</svg>
