<svg width="44" height="44" viewBox="0 0 44 44" fill="none" xmlns="http://www.w3.org/2000/svg">
<path d="M42.2645 19.5308H31.8925V16.0597H42.2645C43.223 16.0597 44 16.8367 44 17.7952C44 18.7538 43.223 19.5308 42.2645 19.5308Z" fill="#B3DAFE"/>
<path d="M30.0339 19.5201L30.268 19.492L30.9412 19.4073L32.0199 18.2361L32.044 17.2499L31.4754 16.5572L30.3416 16.1098L30.0423 16.0597H29.81H1.73551C0.776997 16.0597 0 16.8368 0 17.7953C0 18.7538 0.776997 19.5308 1.73551 19.5308H29.8946L30.0339 19.5201Z" fill="#FE9738"/>
<path d="M31.8925 16.0597H29.8099C30.7684 16.0597 31.5454 16.8367 31.5454 17.7952C31.5454 18.7537 30.7684 19.5307 29.8099 19.5307H31.8925C32.851 19.5307 33.628 18.7537 33.628 17.7952C33.628 16.8368 32.851 16.0597 31.8925 16.0597Z" fill="#FE860A"/>
<path d="M8.31605 27V23.3636H9.75071C10.0265 23.3636 10.2615 23.4163 10.4556 23.5217C10.6497 23.6258 10.7977 23.7708 10.8995 23.9567C11.0025 24.1413 11.054 24.3544 11.054 24.5959C11.054 24.8374 11.0019 25.0504 10.8977 25.2351C10.7936 25.4197 10.6426 25.5636 10.445 25.6665C10.2485 25.7695 10.0105 25.821 9.73118 25.821H8.81676V25.2049H9.60689C9.75485 25.2049 9.87678 25.1795 9.97266 25.1286C10.0697 25.0765 10.1419 25.0049 10.1893 24.9137C10.2378 24.8214 10.2621 24.7154 10.2621 24.5959C10.2621 24.4751 10.2378 24.3698 10.1893 24.2798C10.1419 24.1887 10.0697 24.1183 9.97266 24.0685C9.87559 24.0176 9.75249 23.9922 9.60334 23.9922H9.08487V27H8.31605ZM11.5534 27V23.3636H12.988C13.2626 23.3636 13.497 23.4128 13.6911 23.511C13.8865 23.6081 14.035 23.746 14.1368 23.9247C14.2398 24.1023 14.2913 24.3112 14.2913 24.5515C14.2913 24.793 14.2392 25.0007 14.135 25.1747C14.0309 25.3475 13.8799 25.4801 13.6823 25.5724C13.4858 25.6648 13.2478 25.7109 12.9685 25.7109H12.0079V25.093H12.8442C12.991 25.093 13.1129 25.0729 13.21 25.0327C13.307 24.9924 13.3792 24.9321 13.4266 24.8516C13.4751 24.7711 13.4994 24.671 13.4994 24.5515C13.4994 24.4308 13.4751 24.329 13.4266 24.2461C13.3792 24.1632 13.3064 24.1005 13.2082 24.0579C13.1111 24.0141 12.9886 23.9922 12.8406 23.9922H12.3222V27H11.5534ZM13.5171 25.3452L14.4209 27H13.5722L12.6879 25.3452H13.5171ZM18.1762 25.1818C18.1762 25.5784 18.1011 25.9157 17.9507 26.1939C17.8016 26.4721 17.598 26.6845 17.3399 26.8313C17.0831 26.9769 16.7942 27.0497 16.4735 27.0497C16.1503 27.0497 15.8603 26.9763 15.6034 26.8295C15.3466 26.6828 15.1436 26.4703 14.9944 26.1921C14.8453 25.9139 14.7707 25.5772 14.7707 25.1818C14.7707 24.7853 14.8453 24.4479 14.9944 24.1697C15.1436 23.8916 15.3466 23.6797 15.6034 23.5341C15.8603 23.3873 16.1503 23.3139 16.4735 23.3139C16.7942 23.3139 17.0831 23.3873 17.3399 23.5341C17.598 23.6797 17.8016 23.8916 17.9507 24.1697C18.1011 24.4479 18.1762 24.7853 18.1762 25.1818ZM17.3968 25.1818C17.3968 24.925 17.3583 24.7083 17.2813 24.532C17.2056 24.3556 17.0985 24.2218 16.96 24.1307C16.8215 24.0395 16.6593 23.994 16.4735 23.994C16.2876 23.994 16.1254 24.0395 15.9869 24.1307C15.8485 24.2218 15.7407 24.3556 15.6638 24.532C15.588 24.7083 15.5502 24.925 15.5502 25.1818C15.5502 25.4387 15.588 25.6553 15.6638 25.8317C15.7407 26.008 15.8485 26.1418 15.9869 26.233C16.1254 26.3241 16.2876 26.3697 16.4735 26.3697C16.6593 26.3697 16.8215 26.3241 16.96 26.233C17.0985 26.1418 17.2056 26.008 17.2813 25.8317C17.3583 25.6553 17.3968 25.4387 17.3968 25.1818ZM21.157 24.5391C21.1321 24.4527 21.0972 24.3763 21.0522 24.31C21.0072 24.2425 20.9522 24.1857 20.8871 24.1396C20.8232 24.0922 20.7498 24.0561 20.6669 24.0312C20.5852 24.0064 20.4947 23.994 20.3952 23.994C20.2094 23.994 20.046 24.0401 19.9052 24.1325C19.7655 24.2248 19.6566 24.3591 19.5785 24.5355C19.5004 24.7107 19.4613 24.925 19.4613 25.1783C19.4613 25.4316 19.4998 25.647 19.5767 25.8246C19.6536 26.0021 19.7625 26.1377 19.9034 26.2312C20.0443 26.3235 20.2106 26.3697 20.4023 26.3697C20.5763 26.3697 20.7249 26.3389 20.848 26.2773C20.9723 26.2146 21.067 26.1264 21.1321 26.0128C21.1984 25.8991 21.2315 25.7648 21.2315 25.6097L21.3878 25.6328H20.4503V25.054H21.9719V25.5121C21.9719 25.8317 21.9045 26.1063 21.7695 26.3359C21.6346 26.5644 21.4487 26.7408 21.212 26.8651C20.9753 26.9882 20.7042 27.0497 20.3988 27.0497C20.0579 27.0497 19.7584 26.9746 19.5004 26.8242C19.2423 26.6727 19.0411 26.4579 18.8967 26.1797C18.7534 25.9003 18.6818 25.5689 18.6818 25.1854C18.6818 24.8906 18.7244 24.6278 18.8097 24.397C18.8961 24.165 19.0168 23.9685 19.1719 23.8075C19.3269 23.6465 19.5075 23.524 19.7134 23.44C19.9194 23.3559 20.1425 23.3139 20.3828 23.3139C20.5888 23.3139 20.7805 23.3441 20.9581 23.4045C21.1357 23.4637 21.2931 23.5477 21.4304 23.6566C21.5689 23.7655 21.6819 23.8951 21.7695 24.0455C21.8571 24.1946 21.9134 24.3591 21.9382 24.5391H21.157ZM22.5494 27V23.3636H23.9841C24.2587 23.3636 24.4931 23.4128 24.6872 23.511C24.8825 23.6081 25.0311 23.746 25.1329 23.9247C25.2359 24.1023 25.2874 24.3112 25.2874 24.5515C25.2874 24.793 25.2353 25.0007 25.1311 25.1747C25.027 25.3475 24.876 25.4801 24.6784 25.5724C24.4819 25.6648 24.2439 25.7109 23.9646 25.7109H23.004V25.093H23.8403C23.9871 25.093 24.109 25.0729 24.2061 25.0327C24.3031 24.9924 24.3753 24.9321 24.4227 24.8516C24.4712 24.7711 24.4955 24.671 24.4955 24.5515C24.4955 24.4308 24.4712 24.329 24.4227 24.2461C24.3753 24.1632 24.3025 24.1005 24.2043 24.0579C24.1072 24.0141 23.9847 23.9922 23.8367 23.9922H23.3183V27H22.5494ZM24.5132 25.3452L25.417 27H24.5683L23.684 25.3452H24.5132ZM25.8307 27V23.3636H28.281V23.9975H26.5995V24.864H28.1549V25.4979H26.5995V26.3661H28.2881V27H25.8307ZM30.8649 24.4094C30.8507 24.2662 30.7897 24.1549 30.682 24.0756C30.5743 23.9963 30.4281 23.9567 30.2434 23.9567C30.118 23.9567 30.012 23.9744 29.9256 24.0099C29.8392 24.0443 29.7729 24.0922 29.7267 24.1538C29.6818 24.2153 29.6593 24.2852 29.6593 24.3633C29.6569 24.4284 29.6705 24.4852 29.7001 24.5337C29.7309 24.5823 29.7729 24.6243 29.8262 24.6598C29.8794 24.6941 29.941 24.7243 30.0108 24.7504C30.0807 24.7752 30.1552 24.7965 30.2346 24.8143L30.5613 24.8924C30.7199 24.9279 30.8655 24.9753 30.998 25.0344C31.1306 25.0936 31.2454 25.1664 31.3425 25.2528C31.4396 25.3393 31.5147 25.4411 31.568 25.5582C31.6225 25.6754 31.6503 25.8098 31.6515 25.9613C31.6503 26.1838 31.5935 26.3768 31.481 26.5401C31.3697 26.7023 31.2087 26.8284 30.998 26.9183C30.7885 27.0071 30.5358 27.0515 30.2399 27.0515C29.9463 27.0515 29.6906 27.0065 29.4728 26.9165C29.2562 26.8266 29.0869 26.6934 28.965 26.517C28.8443 26.3395 28.781 26.1199 28.775 25.8583H29.519C29.5273 25.9802 29.5622 26.082 29.6238 26.1637C29.6865 26.2442 29.7699 26.3052 29.8741 26.3466C29.9795 26.3868 30.0984 26.407 30.231 26.407C30.3612 26.407 30.4743 26.388 30.5701 26.3501C30.6672 26.3123 30.7424 26.2596 30.7956 26.1921C30.8489 26.1246 30.8755 26.0471 30.8755 25.9595C30.8755 25.8778 30.8513 25.8092 30.8027 25.7536C30.7554 25.6979 30.6855 25.6506 30.5932 25.6115C30.5021 25.5724 30.3902 25.5369 30.2576 25.505L29.8617 25.4055C29.5551 25.331 29.313 25.2144 29.1355 25.0558C28.9579 24.8971 28.8697 24.6835 28.8709 24.4148C28.8697 24.1946 28.9283 24.0022 29.0467 23.8377C29.1663 23.6732 29.3302 23.5447 29.5385 23.4524C29.7469 23.3601 29.9836 23.3139 30.2488 23.3139C30.5186 23.3139 30.7542 23.3601 30.9554 23.4524C31.1578 23.5447 31.3153 23.6732 31.4277 23.8377C31.5402 24.0022 31.5982 24.1928 31.6017 24.4094H30.8649ZM34.1412 24.4094C34.127 24.2662 34.0661 24.1549 33.9584 24.0756C33.8506 23.9963 33.7045 23.9567 33.5198 23.9567C33.3943 23.9567 33.2884 23.9744 33.202 24.0099C33.1156 24.0443 33.0493 24.0922 33.0031 24.1538C32.9581 24.2153 32.9356 24.2852 32.9356 24.3633C32.9333 24.4284 32.9469 24.4852 32.9765 24.5337C33.0073 24.5823 33.0493 24.6243 33.1025 24.6598C33.1558 24.6941 33.2174 24.7243 33.2872 24.7504C33.357 24.7752 33.4316 24.7965 33.5109 24.8143L33.8376 24.8924C33.9962 24.9279 34.1418 24.9753 34.2744 25.0344C34.407 25.0936 34.5218 25.1664 34.6189 25.2528C34.7159 25.3393 34.7911 25.4411 34.8444 25.5582C34.8988 25.6754 34.9266 25.8098 34.9278 25.9613C34.9266 26.1838 34.8698 26.3768 34.7574 26.5401C34.6461 26.7023 34.4851 26.8284 34.2744 26.9183C34.0649 27.0071 33.8122 27.0515 33.5162 27.0515C33.2227 27.0515 32.967 27.0065 32.7492 26.9165C32.5326 26.8266 32.3633 26.6934 32.2414 26.517C32.1206 26.3395 32.0573 26.1199 32.0514 25.8583H32.7954C32.8037 25.9802 32.8386 26.082 32.9001 26.1637C32.9629 26.2442 33.0463 26.3052 33.1505 26.3466C33.2558 26.3868 33.3748 26.407 33.5074 26.407C33.6376 26.407 33.7506 26.388 33.8465 26.3501C33.9436 26.3123 34.0187 26.2596 34.072 26.1921C34.1253 26.1246 34.1519 26.0471 34.1519 25.9595C34.1519 25.8778 34.1276 25.8092 34.0791 25.7536C34.0318 25.6979 33.9619 25.6506 33.8696 25.6115C33.7784 25.5724 33.6666 25.5369 33.534 25.505L33.1381 25.4055C32.8315 25.331 32.5894 25.2144 32.4118 25.0558C32.2343 24.8971 32.1461 24.6835 32.1473 24.4148C32.1461 24.1946 32.2047 24.0022 32.3231 23.8377C32.4426 23.6732 32.6066 23.5447 32.8149 23.4524C33.0232 23.3601 33.26 23.3139 33.5251 23.3139C33.795 23.3139 34.0306 23.3601 34.2318 23.4524C34.4342 23.5447 34.5916 23.6732 34.7041 23.8377C34.8166 24.0022 34.8746 24.1928 34.8781 24.4094H34.1412Z" fill="#FE860A"/>
</svg>
