<svg width="20" height="23" viewBox="0 0 20 23" fill="none" xmlns="http://www.w3.org/2000/svg">
<path fill-rule="evenodd" clip-rule="evenodd" d="M11.6389 0.460286C10.6331 -0.153429 9.36686 -0.153429 8.36114 0.460286C7.69371 0.868286 6.91086 1.34714 6.47086 1.61571C6.328 1.70371 6.17029 1.76543 6.00571 1.79857C5.29486 1.94029 3.76343 2.24657 2.52686 2.49343C1.05714 2.78829 0 4.07743 0 5.57571V9.79171C0 15.674 4.00343 20.8009 9.70971 22.2271C9.89943 22.2751 10.0994 22.2751 10.2891 22.2271C15.9954 20.8009 20 15.674 20 9.79171C20 8.19057 20 6.68771 20 5.57571C20 4.07743 18.9429 2.78829 17.4731 2.49343C16.2366 2.24657 14.7051 1.94029 13.9943 1.79857C13.8297 1.76543 13.672 1.70371 13.5291 1.61571C13.0891 1.34714 12.3063 0.868286 11.6389 0.460286ZM10 20.5311C14.8766 19.2523 18.2857 14.8431 18.2857 9.79171C18.2857 8.19057 18.2857 6.68771 18.2857 5.57571C18.2857 4.89457 17.8046 4.30829 17.1371 4.17457C15.9006 3.92771 14.3691 3.62143 13.6583 3.47857C13.296 3.40657 12.9509 3.27171 12.6354 3.07857C12.1954 2.81 11.4114 2.33114 10.7451 1.92314C10.288 1.64429 9.712 1.64429 9.25486 1.92314C8.58857 2.33114 7.80457 2.81 7.36457 3.07857C7.04914 3.27171 6.704 3.40657 6.34171 3.47857C5.63086 3.62143 4.09943 3.92771 2.86286 4.17457C2.19543 4.30829 1.71429 4.89457 1.71429 5.57571V9.79171C1.71429 14.8431 5.12343 19.2523 10 20.5311Z" fill="#4F4F4F"/>
<path fill-rule="evenodd" clip-rule="evenodd" d="M8.85728 12.2157L12.823 8.25114C13.1567 7.91629 13.7007 7.91629 14.0344 8.25114C14.3693 8.58486 14.3693 9.12886 14.0344 9.46257L9.46299 14.034C9.12813 14.3689 8.58642 14.3689 8.25156 14.034L6.53728 12.3197C6.20242 11.986 6.20242 11.442 6.53728 11.1083C6.87099 10.7734 7.41499 10.7734 7.7487 11.1083L8.85728 12.2157Z" fill="#4F4F4F"/>
</svg>
