<svg width="32" height="33" viewBox="0 0 32 33" fill="none" xmlns="http://www.w3.org/2000/svg">
<path d="M13.5684 29.5804C13.0929 29.1048 12.7929 28.4819 12.7178 27.8136C12.6427 27.1453 12.7968 26.4713 13.1548 25.902L15.3774 22.369C15.4082 22.3201 15.4509 22.2799 15.5015 22.252C15.552 22.2241 15.6089 22.2095 15.6666 22.2095C15.7244 22.2095 15.7812 22.2241 15.8318 22.252C15.8824 22.2799 15.9251 22.3201 15.9559 22.369L18.1781 25.902C18.5363 26.4713 18.6904 27.1453 18.6153 27.8136C18.5401 28.4819 18.2402 29.1048 17.7647 29.5804C17.2082 30.1368 16.4535 30.4494 15.6665 30.4494C14.8796 30.4494 14.1249 30.1368 13.5684 29.5804Z" fill="url(#paint0_linear_693_3236)"/>
<path d="M13.5684 29.5804C13.0929 29.1048 12.7929 28.4819 12.7178 27.8136C12.6427 27.1453 12.7968 26.4713 13.1548 25.902L15.3774 22.369C15.4082 22.3201 15.4509 22.2799 15.5015 22.252C15.552 22.2241 15.6089 22.2095 15.6666 22.2095C15.7244 22.2095 15.7812 22.2241 15.8318 22.252C15.8824 22.2799 15.9251 22.3201 15.9559 22.369L18.1781 25.902C18.5363 26.4713 18.6904 27.1453 18.6153 27.8136C18.5401 28.4819 18.2402 29.1048 17.7647 29.5804C17.2082 30.1368 16.4535 30.4494 15.6665 30.4494C14.8796 30.4494 14.1249 30.1368 13.5684 29.5804Z" fill="url(#paint1_linear_693_3236)"/>
<path d="M4.94269 23.4973C4.59093 23.1455 4.36909 22.6847 4.31354 22.1903C4.25798 21.696 4.372 21.1974 4.63691 20.7763L6.28093 18.1629C6.30368 18.1267 6.33524 18.0968 6.37266 18.0762C6.41009 18.0555 6.45214 18.0446 6.4949 18.0446C6.53765 18.0446 6.57971 18.0555 6.61713 18.0762C6.65455 18.0968 6.68611 18.1267 6.70886 18.1629L8.35288 20.7766C8.61779 21.1977 8.73181 21.6963 8.67623 22.1906C8.62066 22.685 8.39879 23.1458 8.047 23.4976C7.63531 23.9092 7.07696 24.1404 6.49479 24.1403C5.91262 24.1403 5.35431 23.909 4.94269 23.4973Z" fill="url(#paint2_linear_693_3236)"/>
<path d="M23.2864 23.4973C22.9347 23.1455 22.7129 22.6847 22.6573 22.1903C22.6017 21.696 22.7157 21.1974 22.9806 20.7763L24.6247 18.1629C24.6474 18.1267 24.679 18.0968 24.7164 18.0762C24.7538 18.0555 24.7959 18.0446 24.8387 18.0446C24.8814 18.0446 24.9235 18.0555 24.9609 18.0762C24.9983 18.0968 25.0299 18.1267 25.0526 18.1629L26.6966 20.7763C26.9616 21.1974 27.0756 21.696 27.02 22.1903C26.9644 22.6847 26.7426 23.1455 26.3908 23.4973C25.9791 23.9089 25.4208 24.1402 24.8386 24.1402C24.2564 24.1402 23.6981 23.9089 23.2864 23.4973Z" fill="url(#paint3_linear_693_3236)"/>
<path d="M17.7655 28.4177C17.209 28.9742 16.4542 29.2868 15.6672 29.2868C14.8802 29.2868 14.1254 28.9742 13.5689 28.4177C13.1552 28.0043 12.8732 27.4778 12.7584 26.9044C12.6727 27.3346 12.6834 27.7785 12.7899 28.204C12.8964 28.6296 13.0959 29.0262 13.3741 29.3654C13.6523 29.7045 14.0023 29.9777 14.3988 30.1653C14.7954 30.3529 15.2286 30.4502 15.6672 30.4502C16.1059 30.4502 16.5391 30.3529 16.9356 30.1653C17.3322 29.9777 17.6822 29.7045 17.9604 29.3654C18.2386 29.0262 18.4381 28.6296 18.5446 28.204C18.6511 27.7785 18.6618 27.3346 18.5761 26.9044C18.4613 27.4778 18.1792 28.0044 17.7655 28.4177ZM8.04773 22.3349C7.7763 22.6065 7.43835 22.8022 7.06764 22.9023C6.69693 23.0024 6.30644 23.0034 5.93519 22.9054C5.56393 22.8073 5.22491 22.6135 4.95199 22.3434C4.67908 22.0733 4.48182 21.7363 4.37994 21.3661C4.29061 21.6917 4.27764 22.0335 4.34202 22.3649C4.40641 22.6963 4.54642 23.0084 4.75115 23.2769C4.95588 23.5454 5.21981 23.763 5.52239 23.9127C5.82498 24.0625 6.15805 24.1404 6.49567 24.1404C6.83329 24.1404 7.16636 24.0625 7.46894 23.9127C7.77153 23.763 8.03546 23.5454 8.24019 23.2769C8.44492 23.0084 8.58493 22.6963 8.64932 22.3649C8.7137 22.0335 8.70073 21.6917 8.6114 21.3661C8.51078 21.7325 8.31652 22.0664 8.04773 22.3349ZM26.3911 22.3349C26.1197 22.6066 25.7817 22.8022 25.411 22.9023C25.0403 23.0025 24.6498 23.0036 24.2785 22.9055C23.9073 22.8074 23.5683 22.6136 23.2954 22.3435C23.0225 22.0733 22.8252 21.7363 22.7234 21.3661C22.6341 21.6917 22.6211 22.0335 22.6855 22.3649C22.7499 22.6963 22.8899 23.0084 23.0946 23.2769C23.2993 23.5454 23.5633 23.763 23.8658 23.9127C24.1684 24.0625 24.5015 24.1404 24.8391 24.1404C25.1767 24.1404 25.5098 24.0625 25.8124 23.9127C26.115 23.763 26.3789 23.5454 26.5836 23.2769C26.7884 23.0084 26.9284 22.6963 26.9928 22.3649C27.0571 22.0335 27.0442 21.6917 26.9548 21.3661C26.8542 21.7325 26.6599 22.0664 26.3911 22.3349Z" fill="#25739E"/>
<path d="M4.9427 32.3571C4.59093 32.0053 4.36909 31.5445 4.31354 31.0501C4.25798 30.5557 4.37201 30.0571 4.63692 29.636L6.28094 27.0226C6.30371 26.9864 6.33528 26.9566 6.37269 26.9359C6.41011 26.9153 6.45216 26.9044 6.49491 26.9044C6.53765 26.9044 6.5797 26.9153 6.61712 26.9359C6.65454 26.9566 6.68611 26.9864 6.70887 27.0226L8.35289 29.636C8.61781 30.0571 8.73183 30.5557 8.67626 31.0501C8.62068 31.5445 8.39881 32.0053 8.04701 32.3571C7.63535 32.7687 7.07703 33 6.49486 33C5.91269 33 5.35436 32.7687 4.9427 32.3571Z" fill="url(#paint4_linear_693_3236)"/>
<path d="M23.2865 32.3571C22.9347 32.0053 22.7129 31.5445 22.6573 31.0501C22.6017 30.5557 22.7157 30.0571 22.9806 29.636L24.6247 27.0226C24.6475 26.9864 24.679 26.9566 24.7165 26.9359C24.7539 26.9153 24.7959 26.9044 24.8387 26.9044C24.8814 26.9044 24.9235 26.9153 24.9609 26.9359C24.9983 26.9566 25.0299 26.9864 25.0526 27.0226L26.6966 29.636C26.9616 30.0571 27.0756 30.5557 27.02 31.0501C26.9644 31.5445 26.7426 32.0053 26.3908 32.3571C25.9791 32.7687 25.4208 33 24.8386 33C24.2564 33 23.6981 32.7687 23.2865 32.3571Z" fill="url(#paint5_linear_693_3236)"/>
<path d="M8.04763 31.1943C7.77621 31.4659 7.43827 31.6615 7.06758 31.7616C6.69689 31.8617 6.30642 31.8628 5.93518 31.7648C5.56395 31.6667 5.22494 31.473 4.95202 31.2029C4.67911 30.9328 4.48185 30.5958 4.37994 30.2256C4.29061 30.5512 4.27763 30.893 4.34202 31.2244C4.40641 31.5559 4.54642 31.868 4.75115 32.1364C4.95588 32.4049 5.21981 32.6225 5.52239 32.7723C5.82498 32.922 6.15805 33 6.49567 33C6.83329 33 7.16636 32.922 7.46894 32.7723C7.77153 32.6225 8.03546 32.4049 8.24019 32.1364C8.44492 31.868 8.58493 31.5559 8.64932 31.2244C8.7137 30.893 8.70073 30.5512 8.6114 30.2256C8.51073 30.592 8.31644 30.9258 8.04763 31.1943ZM26.391 31.1943C26.1196 31.466 25.7816 31.6616 25.4109 31.7617C25.0402 31.8618 24.6498 31.8629 24.2785 31.7649C23.9073 31.6668 23.5682 31.473 23.2953 31.2029C23.0224 30.9328 22.8252 30.5958 22.7233 30.2256C22.634 30.5512 22.621 30.893 22.6854 31.2244C22.7498 31.5559 22.8898 31.868 23.0945 32.1364C23.2992 32.4049 23.5632 32.6225 23.8657 32.7723C24.1683 32.922 24.5014 33 24.839 33C25.1766 33 25.5097 32.922 25.8123 32.7723C26.1149 32.6225 26.3788 32.4049 26.5835 32.1364C26.7883 31.868 26.9283 31.5559 26.9927 31.2244C27.057 30.893 27.0441 30.5512 26.9547 30.2256C26.8541 30.592 26.6598 30.9259 26.391 31.1943Z" fill="#25739E"/>
<path d="M25.7109 7.09006C25.5665 6.26387 25.2201 5.48619 24.7025 4.82625C24.1849 4.16631 23.5121 3.64458 22.7441 3.30749C21.9761 2.97041 21.1367 2.82842 20.3006 2.89417C19.4644 2.95993 18.6575 3.23138 17.9516 3.68437C17.3076 2.35405 16.2313 1.28158 14.8987 0.642319C13.5661 0.00306097 12.0561 -0.165161 10.6154 0.165161C9.17482 0.495482 7.88889 1.3048 6.96791 2.46079C6.04694 3.61677 5.54541 5.05102 5.54534 6.52903C5.54534 6.72037 5.55511 6.90937 5.57143 7.09651C4.55236 7.24747 3.58349 7.63746 2.74403 8.23461C1.90456 8.83176 1.21835 9.61911 0.741482 10.5323C0.264617 11.4455 0.0106438 12.4585 0.000327385 13.4887C-0.00998903 14.5188 0.223644 15.5367 0.682125 16.4593C1.14061 17.3818 1.81092 18.1828 2.63825 18.7966C3.46559 19.4104 4.42646 19.8198 5.44229 19.9911C6.45813 20.1624 7.5001 20.0909 8.483 19.7824C9.46591 19.4739 10.3618 18.9371 11.0975 18.216C12.3173 19.4127 13.9578 20.083 15.6666 20.083C17.3753 20.083 19.0159 19.4127 20.2356 18.216C20.9728 18.9388 21.8709 19.4765 22.8563 19.7849C23.8416 20.0933 24.886 20.1636 25.9037 19.99C26.9215 19.8164 27.8836 19.4039 28.7109 18.7863C29.5383 18.1687 30.2074 17.3637 30.6633 16.4373C31.1192 15.511 31.3488 14.4897 31.3334 13.4574C31.318 12.425 31.0579 11.4111 30.5745 10.4988C30.0912 9.58646 29.3983 8.8018 28.5529 8.20923C27.7074 7.61665 26.7334 7.23307 25.7109 7.08996V7.09006Z" fill="url(#paint6_linear_693_3236)"/>
<path d="M24.8042 17.5868C23.0951 17.5889 21.4539 16.9184 20.2351 15.7203C19.0153 16.9169 17.3748 17.5872 15.6661 17.5872C13.9574 17.5872 12.3169 16.9169 11.0971 15.7203C10.2557 16.5454 9.20655 17.1274 8.06108 17.4043C6.9156 17.6813 5.71651 17.643 4.59105 17.2935C3.4656 16.9439 2.45577 16.2962 1.66874 15.419C0.881706 14.5419 0.346838 13.468 0.120895 12.3114C-0.14477 13.6781 0.0335961 15.0939 0.629932 16.352C1.22627 17.6101 2.20932 18.6445 3.43544 19.3041C4.66156 19.9637 6.06648 20.2139 7.44493 20.0182C8.82338 19.8224 10.1031 19.191 11.0971 18.2161C12.3168 19.4127 13.9574 20.0831 15.6661 20.0831C17.3748 20.0831 19.0154 19.4127 20.2351 18.2161C21.2283 19.193 22.5082 19.8263 23.8874 20.0233C25.2666 20.2202 26.6726 19.9704 27.8996 19.3104C29.1265 18.6504 30.1099 17.615 30.7058 16.3557C31.3017 15.0964 31.4788 13.6794 31.2111 12.3122C30.9202 13.7977 30.1221 15.1361 28.9534 16.0983C27.7847 17.0604 26.318 17.5866 24.8042 17.5868Z" fill="#5F6377"/>
<path d="M5.57164 8.7647C5.55485 8.57594 5.54615 8.38654 5.54555 8.19702C5.54578 6.71914 6.04738 5.28505 6.96835 4.1292C7.88931 2.97336 9.17515 2.16415 10.6157 1.83386C12.0562 1.50356 13.5661 1.67174 14.8986 2.31088C16.2312 2.95002 17.3075 4.02231 17.9516 5.35246C18.6574 4.8995 19.4643 4.62807 20.3005 4.56233C21.1366 4.49659 21.976 4.63858 22.744 4.97566C23.512 5.31275 24.1847 5.83447 24.7024 6.49439C25.22 7.15432 25.5664 7.93198 25.7109 8.75816C27.1298 8.95805 28.4435 9.61931 29.4493 10.6399C30.4551 11.6605 31.097 12.9838 31.2762 14.4055C31.5034 12.6982 31.0456 10.9704 30.0028 9.59964C28.9599 8.22891 27.4169 7.32674 25.7109 7.09029C25.5665 6.26408 25.2201 5.48637 24.7025 4.8264C24.1849 4.16643 23.5121 3.64468 22.7441 3.30758C21.9761 2.97049 21.1366 2.82851 20.3005 2.89429C19.4643 2.96007 18.6574 3.23156 17.9516 3.6846C17.3076 2.35429 16.2313 1.28182 14.8987 0.642562C13.5661 0.00330243 12.056 -0.164926 10.6154 0.165383C9.17479 0.495692 7.88886 1.30499 6.96788 2.46096C6.04689 3.61693 5.54535 5.05117 5.54525 6.52916C5.54525 6.72041 5.55503 6.90941 5.57135 7.09665C3.87605 7.34556 2.34694 8.25201 1.31492 9.61983C0.2829 10.9877 -0.169019 12.7068 0.0569584 14.4054C0.234906 12.9923 0.870155 11.6761 1.86582 10.6577C2.86149 9.63932 4.16292 8.97451 5.57164 8.7647Z" fill="#CFD1E5"/>
<path d="M9.36415 5.98303C10.0517 5.98303 10.6092 5.42562 10.6092 4.73802C10.6092 4.05042 10.0517 3.49301 9.36415 3.49301C8.67655 3.49301 8.11914 4.05042 8.11914 4.73802C8.11914 5.42562 8.67655 5.98303 9.36415 5.98303Z" fill="#CFD1E5"/>
<path d="M12.6053 4.58083C12.951 4.58083 13.2311 4.30064 13.2311 3.955C13.2311 3.60937 12.951 3.32918 12.6053 3.32918C12.2597 3.32918 11.9795 3.60937 11.9795 3.955C11.9795 4.30064 12.2597 4.58083 12.6053 4.58083Z" fill="#CFD1E5"/>
<path d="M16.1472 24.731C16.4124 24.731 16.6274 24.516 16.6274 24.2507C16.6274 23.9855 16.4124 23.7705 16.1472 23.7705C15.882 23.7705 15.667 23.9855 15.667 24.2507C15.667 24.516 15.882 24.731 16.1472 24.731Z" fill="#40BBFF"/>
<path d="M15.6671 23.3915C15.816 23.3915 15.9367 23.2708 15.9367 23.1219C15.9367 22.973 15.816 22.8523 15.6671 22.8523C15.5182 22.8523 15.3975 22.973 15.3975 23.1219C15.3975 23.2708 15.5182 23.3915 15.6671 23.3915Z" fill="#40BBFF"/>
<defs>
<linearGradient id="paint0_linear_693_3236" x1="15.6666" y1="30.4495" x2="15.6666" y2="22.2092" gradientUnits="userSpaceOnUse">
<stop stop-color="#2980B9"/>
<stop offset="0.611" stop-color="#3191D1"/>
<stop offset="1" stop-color="#3498DB"/>
</linearGradient>
<linearGradient id="paint1_linear_693_3236" x1="15.6666" y1="30.4495" x2="15.6666" y2="22.2092" gradientUnits="userSpaceOnUse">
<stop stop-color="#2980B9"/>
<stop offset="0.611" stop-color="#3191D1"/>
<stop offset="1" stop-color="#3498DB"/>
</linearGradient>
<linearGradient id="paint2_linear_693_3236" x1="15.6666" y1="30.4495" x2="15.6666" y2="22.2092" gradientUnits="userSpaceOnUse">
<stop stop-color="#2980B9"/>
<stop offset="0.611" stop-color="#3191D1"/>
<stop offset="1" stop-color="#3498DB"/>
</linearGradient>
<linearGradient id="paint3_linear_693_3236" x1="15.6669" y1="30.4495" x2="15.6669" y2="22.2092" gradientUnits="userSpaceOnUse">
<stop stop-color="#2980B9"/>
<stop offset="0.611" stop-color="#3191D1"/>
<stop offset="1" stop-color="#3498DB"/>
</linearGradient>
<linearGradient id="paint4_linear_693_3236" x1="15.6666" y1="30.4495" x2="15.6666" y2="22.2092" gradientUnits="userSpaceOnUse">
<stop stop-color="#2980B9"/>
<stop offset="0.611" stop-color="#3191D1"/>
<stop offset="1" stop-color="#3498DB"/>
</linearGradient>
<linearGradient id="paint5_linear_693_3236" x1="15.6669" y1="30.4495" x2="15.6669" y2="22.2092" gradientUnits="userSpaceOnUse">
<stop stop-color="#2980B9"/>
<stop offset="0.611" stop-color="#3191D1"/>
<stop offset="1" stop-color="#3498DB"/>
</linearGradient>
<linearGradient id="paint6_linear_693_3236" x1="15.6666" y1="20.0831" x2="15.6666" y2="0.000457261" gradientUnits="userSpaceOnUse">
<stop stop-color="#70748E"/>
<stop offset="0.436" stop-color="#999CB4"/>
<stop offset="0.79" stop-color="#B3B5CD"/>
<stop offset="1" stop-color="#BDBFD6"/>
</linearGradient>
</defs>
</svg>
