<svg width="108" height="16" viewBox="0 0 108 16" fill="none" xmlns="http://www.w3.org/2000/svg">
<g clip-path="url(#clip0_693_1681)">
<path d="M15.9583 6.13752C15.8536 5.81354 15.5662 5.58343 15.2262 5.55279L10.6082 5.13347L8.78208 0.859312C8.64744 0.546072 8.34079 0.343307 8.00008 0.343307C7.65938 0.343307 7.35273 0.546071 7.21808 0.860044L5.39198 5.13347L0.773211 5.55279C0.433847 5.58416 0.147219 5.81354 0.0418692 6.13752C-0.0634802 6.46151 0.0338123 6.81686 0.290533 7.04087L3.78122 10.1022L2.7519 14.6364C2.67658 14.9698 2.80598 15.3144 3.0826 15.5144C3.23128 15.6218 3.40524 15.6765 3.58066 15.6765C3.73191 15.6765 3.88193 15.6357 4.01658 15.5551L8.00008 13.1743L11.9821 15.5551C12.2735 15.7304 12.6408 15.7144 12.9168 15.5144C13.1936 15.3138 13.3229 14.969 13.2475 14.6364L12.2182 10.1022L15.7089 7.04148C15.9656 6.81686 16.0636 6.46212 15.9583 6.13752Z" fill="#FFC107"/>
</g>
<g clip-path="url(#clip1_693_1681)">
<path d="M38.9583 6.13752C38.8536 5.81354 38.5662 5.58343 38.2262 5.55279L33.6082 5.13347L31.7821 0.859312C31.6474 0.546072 31.3408 0.343307 31.0001 0.343307C30.6594 0.343307 30.3527 0.546071 30.2181 0.860044L28.392 5.13347L23.7732 5.55279C23.4338 5.58416 23.1472 5.81354 23.0419 6.13752C22.9365 6.46151 23.0338 6.81686 23.2905 7.04087L26.7812 10.1022L25.7519 14.6364C25.6766 14.9698 25.806 15.3144 26.0826 15.5144C26.2313 15.6218 26.4052 15.6765 26.5807 15.6765C26.7319 15.6765 26.8819 15.6357 27.0166 15.5551L31.0001 13.1743L34.9821 15.5551C35.2735 15.7304 35.6408 15.7144 35.9168 15.5144C36.1936 15.3138 36.3229 14.969 36.2475 14.6364L35.2182 10.1022L38.7089 7.04148C38.9656 6.81686 39.0636 6.46212 38.9583 6.13752Z" fill="#FFC107"/>
</g>
<g clip-path="url(#clip2_693_1681)">
<path d="M61.9583 6.13752C61.8536 5.81354 61.5662 5.58343 61.2262 5.55279L56.6082 5.13347L54.7821 0.859312C54.6474 0.546072 54.3408 0.343307 54.0001 0.343307C53.6594 0.343307 53.3527 0.546071 53.2181 0.860044L51.392 5.13347L46.7732 5.55279C46.4338 5.58416 46.1472 5.81354 46.0419 6.13752C45.9365 6.46151 46.0338 6.81686 46.2905 7.04087L49.7812 10.1022L48.7519 14.6364C48.6766 14.9698 48.806 15.3144 49.0826 15.5144C49.2313 15.6218 49.4052 15.6765 49.5807 15.6765C49.7319 15.6765 49.8819 15.6357 50.0166 15.5551L54.0001 13.1743L57.9821 15.5551C58.2735 15.7304 58.6408 15.7144 58.9168 15.5144C59.1936 15.3138 59.3229 14.969 59.2475 14.6364L58.2182 10.1022L61.7089 7.04148C61.9656 6.81686 62.0636 6.46212 61.9583 6.13752Z" fill="#FFC107"/>
</g>
<g clip-path="url(#clip3_693_1681)">
<path d="M84.9583 6.13752C84.8536 5.81354 84.5662 5.58343 84.2262 5.55279L79.6082 5.13347L77.7821 0.859312C77.6474 0.546072 77.3408 0.343307 77.0001 0.343307C76.6594 0.343307 76.3527 0.546071 76.2181 0.860044L74.392 5.13347L69.7732 5.55279C69.4338 5.58416 69.1472 5.81354 69.0419 6.13752C68.9365 6.46151 69.0338 6.81686 69.2905 7.04087L72.7812 10.1022L71.7519 14.6364C71.6766 14.9698 71.806 15.3144 72.0826 15.5144C72.2313 15.6218 72.4052 15.6765 72.5807 15.6765C72.7319 15.6765 72.8819 15.6357 73.0166 15.5551L77.0001 13.1743L80.9821 15.5551C81.2735 15.7304 81.6408 15.7144 81.9168 15.5144C82.1936 15.3138 82.3229 14.969 82.2475 14.6364L81.2182 10.1022L84.7089 7.04148C84.9656 6.81686 85.0636 6.46212 84.9583 6.13752Z" fill="#FFC107"/>
</g>
<g clip-path="url(#clip4_693_1681)">
<path d="M107.958 6.13752C107.854 5.81354 107.566 5.58343 107.226 5.55279L102.608 5.13347L100.782 0.859312C100.647 0.546072 100.341 0.343307 100 0.343307C99.6594 0.343307 99.3527 0.546071 99.2181 0.860044L97.392 5.13347L92.7732 5.55279C92.4338 5.58416 92.1472 5.81354 92.0419 6.13752C91.9365 6.46151 92.0338 6.81686 92.2905 7.04087L95.7812 10.1022L94.7519 14.6364C94.6766 14.9698 94.806 15.3144 95.0826 15.5144C95.2313 15.6218 95.4052 15.6765 95.5807 15.6765C95.7319 15.6765 95.8819 15.6357 96.0166 15.5551L100 13.1743L103.982 15.5551C104.274 15.7304 104.641 15.7144 104.917 15.5144C105.194 15.3138 105.323 14.969 105.248 14.6364L104.218 10.1022L107.709 7.04148C107.966 6.81686 108.064 6.46212 107.958 6.13752Z" fill="#D7D7D7"/>
</g>
<defs>
<clipPath id="clip0_693_1681">
<rect width="16" height="16" fill="white"/>
</clipPath>
<clipPath id="clip1_693_1681">
<rect width="16" height="16" fill="white" transform="translate(23)"/>
</clipPath>
<clipPath id="clip2_693_1681">
<rect width="16" height="16" fill="white" transform="translate(46)"/>
</clipPath>
<clipPath id="clip3_693_1681">
<rect width="16" height="16" fill="white" transform="translate(69)"/>
</clipPath>
<clipPath id="clip4_693_1681">
<rect width="16" height="16" fill="white" transform="translate(92)"/>
</clipPath>
</defs>
</svg>
