<svg width="52" height="52" viewBox="0 0 52 52" fill="none" xmlns="http://www.w3.org/2000/svg">
<g clip-path="url(#clip0_3571_954)">
<path d="M26 0C11.663 0 0 11.663 0 26C0 40.337 11.663 52 26 52C40.337 52 52 40.337 52 26C52 11.663 40.337 0 26 0Z" fill="#F44336"/>
<path d="M35.5746 32.5107C36.4216 33.3581 36.4216 34.7272 35.5746 35.5746C35.1521 35.9971 34.5975 36.2094 34.0424 36.2094C33.4878 36.2094 32.9332 35.9971 32.5107 35.5746L25.9999 29.0635L19.4892 35.5746C19.0667 35.9971 18.5121 36.2094 17.9575 36.2094C17.4024 36.2094 16.8478 35.9971 16.4253 35.5746C15.5783 34.7272 15.5783 33.3581 16.4253 32.5107L22.9364 25.9999L16.4253 19.4892C15.5783 18.6418 15.5783 17.2727 16.4253 16.4253C17.2727 15.5783 18.6418 15.5783 19.4892 16.4253L25.9999 22.9364L32.5107 16.4253C33.3581 15.5783 34.7272 15.5783 35.5746 16.4253C36.4216 17.2727 36.4216 18.6418 35.5746 19.4892L29.0635 25.9999L35.5746 32.5107Z" fill="#FAFAFA"/>
</g>
<defs>
<clipPath id="clip0_3571_954">
<rect width="52" height="52" fill="white"/>
</clipPath>
</defs>
</svg>
