<svg width="29" height="29" viewBox="0 0 29 29" fill="none" xmlns="http://www.w3.org/2000/svg">
<path d="M15.3239 14.9672L13.9159 10.2896L12.5033 5.61196L11.0953 0.943707C10.7164 -0.314569 8.92958 -0.314569 8.55069 0.943707L7.14273 5.61196L5.73009 10.2896L4.32213 14.9672L2.9095 19.6448L0.935547 26.1934H11.694V24.7901C11.694 22.8536 12.3489 21.0714 13.4435 19.6448C14.1548 18.7297 15.0463 17.9703 16.0629 17.4136L15.3239 14.9672Z" fill="#E6E6E6"/>
<path d="M28.5337 26.6612V24.7902C28.5347 23.0413 27.9905 21.3356 26.9769 19.9104C25.9634 18.4852 24.5308 17.4113 22.8785 16.8382C22.7849 16.2489 22.5043 15.725 22.0973 15.3227C21.8378 15.0608 21.5288 14.8532 21.1884 14.7119C20.8479 14.5705 20.4827 14.4983 20.114 14.4994C19.451 14.4992 18.8094 14.734 18.3032 15.1623C17.797 15.5905 17.4591 16.1843 17.3495 16.8382C16.9005 16.9926 16.4702 17.1844 16.0632 17.4136C15.0466 17.9703 14.1551 18.7297 13.4437 19.6448C12.3082 21.1196 11.693 22.9289 11.6943 24.7902V26.6612C11.4371 26.6612 11.2266 26.8717 11.2266 27.129V28.5323C11.2266 28.7895 11.4371 29 11.6943 29H28.5337C28.791 29 29.0015 28.7895 29.0015 28.5323V27.129C29.0015 26.8717 28.791 26.6612 28.5337 26.6612Z" fill="#FFC008"/>
<path d="M13.916 10.2896L15.324 14.9672H4.32227L5.73023 10.2896H13.916ZM11.0954 0.943707L12.5034 5.61196H7.14286L8.55082 0.943707C8.92971 -0.314569 10.7166 -0.314569 11.0954 0.943707Z" fill="#FF7F00"/>
<path d="M16.0632 17.4136C15.0466 17.9703 14.155 18.7297 13.4437 19.6448H13.2706L12.3164 14.9672H15.3241L16.0632 17.4136Z" fill="#CCCCCC"/>
<path d="M15.3235 14.9672H12.3158L11.3662 10.2896H13.9155L15.3235 14.9672Z" fill="#FF5500"/>
<path d="M13.9156 10.2896H11.3663L10.4121 5.61196H12.503L13.9156 10.2896Z" fill="#CCCCCC"/>
<path d="M12.5026 5.61198H10.4117L9.28906 0.111118C9.96264 -0.174216 10.842 0.101763 11.0946 0.943732L12.5026 5.61198Z" fill="#FF5500"/>
<path d="M29.0015 27.1289V28.5322C29.0015 28.7895 28.791 29 28.5337 29H11.6943C11.4371 29 11.2266 28.7895 11.2266 28.5322V27.1289C11.2266 26.8716 11.4371 26.6611 11.6943 26.6611H28.5337C28.791 26.6611 29.0015 26.8716 29.0015 27.1289Z" fill="#F9AF0B"/>
<path d="M29.0015 27.1289V28.5322C29.0015 28.7895 28.791 29 28.5337 29H11.6943C11.4371 29 11.2266 28.7895 11.2266 28.5322V28.0644H27.5982C27.8555 28.0644 28.0659 27.8539 28.0659 27.5967V26.6611H28.5337C28.791 26.6611 29.0015 26.8716 29.0015 27.1289Z" fill="#FF7F00"/>
<path d="M22.9207 17.306V24.3224C22.9207 24.8369 22.4998 25.2579 21.9852 25.2579H18.2431C17.7286 25.2579 17.3076 24.8369 17.3076 24.3224V17.306C17.3076 17.147 17.3217 16.9879 17.3497 16.8382C17.5696 15.5098 18.7249 14.4994 20.1142 14.4994C20.8907 14.4994 21.5923 14.8128 22.0975 15.3227C22.5044 15.725 22.7851 16.2489 22.8786 16.8382C22.9067 16.9879 22.9207 17.147 22.9207 17.306Z" fill="#FF9700"/>
<path d="M22.9207 17.306V24.3224C22.9207 24.8369 22.4998 25.2579 21.9852 25.2579H18.2431C17.7286 25.2579 17.3076 24.8369 17.3076 24.3224V23.8546H20.5819C21.0965 23.8546 21.5175 23.4337 21.5175 22.9191V17.306C21.5175 17.147 21.5034 16.9879 21.4754 16.8382C21.3818 16.2489 21.1012 15.725 20.6942 15.3227C20.3481 14.9719 19.9084 14.7146 19.4125 14.593C19.6371 14.5322 19.8709 14.4994 20.1142 14.4994C20.8907 14.4994 21.5923 14.8128 22.0975 15.3227C22.5044 15.725 22.7851 16.2489 22.8786 16.8382C22.9067 16.9879 22.9207 17.147 22.9207 17.306Z" fill="#FF7F00"/>
<path d="M28.5327 24.7901V26.6612H11.6934V25.7256H25.2584C26.2922 25.7256 27.1295 24.8883 27.1295 23.8546C27.1295 22.6945 26.8956 21.586 26.4652 20.5756C26.0396 19.5699 25.4268 18.6625 24.6644 17.9C24.4726 17.7082 24.2761 17.5305 24.0656 17.3621C24.8047 17.7503 25.4783 18.2461 26.0676 18.8355C27.5879 20.3604 28.5327 22.4653 28.5327 24.7901Z" fill="#FF9700"/>
<path d="M13.4435 19.6447C12.3079 21.1195 11.6927 22.9288 11.694 24.7901V26.1934H0.935547L2.9095 19.6447H13.4435Z" fill="#FF7F00"/>
<path d="M13.4435 19.6447C12.3079 21.1195 11.6927 22.9288 11.694 24.7901V26.1934H0.935547L2.9095 19.6447H13.4435Z" fill="#FF7F00"/>
<path d="M11.694 26.1935V26.6612C11.4367 26.6612 11.2263 26.8717 11.2263 27.129V28.5323C11.2263 28.7895 11.4367 29 11.694 29H0.467761C0.210492 29 0 28.7895 0 28.5323V26.6612C0 26.4039 0.210492 26.1935 0.467761 26.1935H0.935521H11.694Z" fill="#F9AF0B"/>
<path d="M11.2263 27.129V28.5323C11.2263 28.7895 11.4367 29 11.694 29H0.467761C0.210492 29 0 28.7895 0 28.5323V27.5967H8.88745C9.40199 27.5967 9.82297 27.1757 9.82297 26.6612V26.1935H11.694V26.6612C11.4367 26.6612 11.2263 26.8717 11.2263 27.129Z" fill="#FF7F00"/>
<path d="M8.23633 6.46283C7.99076 6.39828 7.72881 6.52036 7.6507 6.77062L7.03512 8.75158C6.96262 8.98546 7.09827 9.27314 7.34291 9.33722C7.58849 9.40177 7.85043 9.27968 7.92855 9.02943L8.54412 7.04847C8.61709 6.81459 8.48097 6.52691 8.23633 6.46283Z" fill="white"/>
<path d="M20.1018 15.9434C20.1448 15.7727 20.076 15.5903 19.8351 15.4822C19.6415 15.3957 19.409 15.4355 19.2266 15.5435C18.6554 15.8808 17.9688 16.8939 18.2494 17.4927C18.3907 17.7944 18.6232 17.5104 18.7509 17.3608C18.9988 17.0698 19.2766 16.8107 19.5624 16.5581C19.7584 16.385 20.0339 16.2138 20.1018 15.9434Z" fill="#FFC008"/>
</svg>
