<svg width="17" height="17" viewBox="0 0 17 17" fill="none" xmlns="http://www.w3.org/2000/svg">
<path d="M15.72 7.36041L1.17001 0.0854281C1.02699 0.0138762 0.865967 -0.0136478 0.707305 0.00633864C0.548643 0.0263251 0.399475 0.0929239 0.278672 0.197709C0.15787 0.302493 0.0708627 0.440755 0.0286586 0.595001C-0.0135455 0.749247 -0.00904982 0.912546 0.0415769 1.06424L2.38129 8.08346L0.0415769 15.1027C-0.00904982 15.2544 -0.0135455 15.4177 0.0286586 15.5719C0.0708627 15.7262 0.15787 15.8644 0.278672 15.9692C0.399475 16.074 0.548643 16.1406 0.707305 16.1606C0.865967 16.1806 1.02699 16.153 1.17001 16.0815L15.72 8.80651C15.8543 8.73939 15.9672 8.63619 16.0462 8.50848C16.1251 8.38077 16.1669 8.2336 16.1669 8.08346C16.1669 7.93332 16.1251 7.78615 16.0462 7.65844C15.9672 7.53073 15.8543 7.42753 15.72 7.36041ZM2.19222 13.7631L3.81608 8.89179H8.08342C8.29781 8.89179 8.50341 8.80663 8.655 8.65504C8.80659 8.50345 8.89175 8.29785 8.89175 8.08346C8.89175 7.86908 8.80659 7.66348 8.655 7.51189C8.50341 7.36029 8.29781 7.27513 8.08342 7.27513H3.81608L2.19222 2.4038L13.5511 8.08346L2.19222 13.7631Z" fill="#FE8807"/>
</svg>
