<svg width="54" height="51" viewBox="0 0 54 51" fill="none" xmlns="http://www.w3.org/2000/svg">
<path d="M14.0311 46.1044L14.0126 46.2783C13.8628 47.6861 14.8852 49.0199 16.2937 49.1631C16.3817 49.1721 16.4691 49.1764 16.5559 49.1764C17.8489 49.1764 18.9599 48.2004 19.0999 46.8859L20.2039 36.5121C20.2509 36.0701 20.1821 35.6234 20.0044 35.2161L15.3944 24.6576" stroke="url(#paint0_linear_693_1757)" stroke-width="2" stroke-miterlimit="10" stroke-linecap="round" stroke-linejoin="round"/>
<path d="M6.76053 24.6576L5.82602 35.8918L1.24748 45.5492C0.641559 46.8275 1.1865 48.355 2.46473 48.961C2.81911 49.129 3.19252 49.2085 3.56021 49.2085C4.51904 49.2085 5.43845 48.6676 5.87654 47.7438L10.6545 37.6655C10.7864 37.3872 10.867 37.0875 10.8926 36.7806L11.5656 28.6908L15.0381 36.6443" stroke="url(#paint1_linear_693_1757)" stroke-width="2" stroke-miterlimit="10" stroke-linecap="round" stroke-linejoin="round"/>
<path d="M47.4863 46.3428C49.4668 46.751 52.7139 44.98 52.9996 42.3439" stroke="url(#paint2_linear_693_1757)" stroke-width="2" stroke-miterlimit="10" stroke-linecap="round" stroke-linejoin="round"/>
<path d="M38.2656 30.4122C36.9421 30.0485 36.1643 28.6807 36.5279 27.3574L37.8499 22.5472L39.145 22.9031C41.0766 23.434 42.2121 25.4302 41.6812 27.3618L41.3204 28.6746C40.9567 29.998 39.589 30.776 38.2656 30.4122Z" stroke="url(#paint3_linear_693_1757)" stroke-width="2" stroke-miterlimit="10" stroke-linecap="round" stroke-linejoin="round"/>
<path d="M38.3984 44.4167C38.3984 41.5891 40.4042 39.2299 43.0706 38.6842" stroke="url(#paint4_linear_693_1757)" stroke-width="2" stroke-miterlimit="10" stroke-linecap="round" stroke-linejoin="round"/>
<path d="M38.4844 22.7216L37.8593 22.5499C36.2713 22.1135 34.5702 22.4934 33.3189 23.5643C32.6876 24.1045 31.8294 24.2962 31.0283 24.076C30.4486 23.9168 29.8495 24.2575 29.6902 24.8372L29.3918 25.9233C28.9743 27.4425 29.8673 29.0124 31.3865 29.43L33.33 29.9642L32.7984 31.0867C31.5622 33.6971 31.776 36.763 33.3626 39.1764C33.7632 39.7859 33.7998 40.5653 33.4581 41.2097L31.0795 45.6947C30.2654 47.2298 31.3781 49.0793 33.1158 49.0793C33.9 49.0793 34.6305 48.6806 35.0546 48.0207L39.2873 41.3159" stroke="url(#paint5_linear_693_1757)" stroke-width="2" stroke-miterlimit="10" stroke-linecap="round" stroke-linejoin="round"/>
<path d="M39.7675 30.4267L41.3711 32.4083C42.0533 33.2514 42.9649 33.8791 43.9959 34.2157C47.1321 35.2393 49.254 38.1641 49.254 41.463C49.254 45.6734 45.8408 49.0867 41.6303 49.0866H38.6387C37.3491 49.0866 36.3037 48.0412 36.3037 46.7516C36.3037 45.4619 37.3491 44.4165 38.6387 44.4165H40.9601" stroke="url(#paint6_linear_693_1757)" stroke-width="2" stroke-miterlimit="10" stroke-linecap="round" stroke-linejoin="round"/>
<path d="M6.58691 12.183C7.28595 10.1834 9.18902 8.74911 11.427 8.74911C14.2581 8.74911 16.553 11.0441 16.553 13.8751V15.1674" stroke="url(#paint7_linear_693_1757)" stroke-width="2" stroke-miterlimit="10" stroke-linecap="round" stroke-linejoin="round"/>
<path d="M16.5529 20.0474V24.6566H6.30078V19.8224" stroke="url(#paint8_linear_693_1757)" stroke-width="2" stroke-miterlimit="10" stroke-linecap="round" stroke-linejoin="round"/>
<path d="M13.8375 8.74926C15.9774 8.74926 17.7121 7.01453 17.7121 4.87463C17.7121 2.73473 15.9774 1 13.8375 1C11.6976 1 9.96289 2.73473 9.96289 4.87463C9.96289 7.01453 11.6976 8.74926 13.8375 8.74926Z" stroke="url(#paint9_linear_693_1757)" stroke-width="2" stroke-miterlimit="10" stroke-linecap="round" stroke-linejoin="round"/>
<path d="M10.7852 13.7785L10.2707 15.3319H17.5896C18.8295 15.3319 19.8346 16.337 19.8346 17.577C19.8346 18.8169 18.8295 19.822 17.5896 19.822H7.16208C6.44117 19.822 5.76411 19.4758 5.34209 18.8914C4.91996 18.307 4.80422 17.5554 5.03083 16.8711L6.58406 12.1813" stroke="url(#paint10_linear_693_1757)" stroke-width="2" stroke-miterlimit="10" stroke-linecap="round" stroke-linejoin="round"/>
<circle cx="14.5296" cy="41.3735" r="1.05691" fill="black" stroke="url(#paint11_linear_693_1757)" stroke-width="2" stroke-miterlimit="10" stroke-linecap="round" stroke-linejoin="round"/>
<path d="M33.3301 29.964L36.7032 29.1298" stroke="url(#paint12_linear_693_1757)" stroke-width="2" stroke-miterlimit="10" stroke-linecap="round" stroke-linejoin="round"/>
<defs>
<linearGradient id="paint0_linear_693_1757" x1="13.998" y1="36.917" x2="20.2183" y2="36.917" gradientUnits="userSpaceOnUse">
<stop stop-color="#FBAB51"/>
<stop offset="1" stop-color="#FE8705"/>
</linearGradient>
<linearGradient id="paint1_linear_693_1757" x1="1" y1="36.9331" x2="15.0381" y2="36.9331" gradientUnits="userSpaceOnUse">
<stop stop-color="#FBAB51"/>
<stop offset="1" stop-color="#FE8705"/>
</linearGradient>
<linearGradient id="paint2_linear_693_1757" x1="47.4863" y1="44.3726" x2="52.9996" y2="44.3726" gradientUnits="userSpaceOnUse">
<stop stop-color="#FBAB51"/>
<stop offset="1" stop-color="#FE8705"/>
</linearGradient>
<linearGradient id="paint3_linear_693_1757" x1="36.4385" y1="26.5244" x2="41.8118" y2="26.5244" gradientUnits="userSpaceOnUse">
<stop stop-color="#FBAB51"/>
<stop offset="1" stop-color="#FE8705"/>
</linearGradient>
<linearGradient id="paint4_linear_693_1757" x1="38.3984" y1="41.5505" x2="43.0706" y2="41.5505" gradientUnits="userSpaceOnUse">
<stop stop-color="#FBAB51"/>
<stop offset="1" stop-color="#FE8705"/>
</linearGradient>
<linearGradient id="paint5_linear_693_1757" x1="29.2891" y1="35.7259" x2="39.2873" y2="35.7259" gradientUnits="userSpaceOnUse">
<stop stop-color="#FBAB51"/>
<stop offset="1" stop-color="#FE8705"/>
</linearGradient>
<linearGradient id="paint6_linear_693_1757" x1="36.3037" y1="39.7567" x2="49.254" y2="39.7567" gradientUnits="userSpaceOnUse">
<stop stop-color="#FBAB51"/>
<stop offset="1" stop-color="#FE8705"/>
</linearGradient>
<linearGradient id="paint7_linear_693_1757" x1="6.58691" y1="11.9583" x2="16.553" y2="11.9583" gradientUnits="userSpaceOnUse">
<stop stop-color="#FBAB51"/>
<stop offset="1" stop-color="#FE8705"/>
</linearGradient>
<linearGradient id="paint8_linear_693_1757" x1="6.30078" y1="22.2395" x2="16.5529" y2="22.2395" gradientUnits="userSpaceOnUse">
<stop stop-color="#FBAB51"/>
<stop offset="1" stop-color="#FE8705"/>
</linearGradient>
<linearGradient id="paint9_linear_693_1757" x1="9.96289" y1="4.87463" x2="17.7121" y2="4.87463" gradientUnits="userSpaceOnUse">
<stop stop-color="#FBAB51"/>
<stop offset="1" stop-color="#FE8705"/>
</linearGradient>
<linearGradient id="paint10_linear_693_1757" x1="4.91699" y1="16.0017" x2="19.8346" y2="16.0017" gradientUnits="userSpaceOnUse">
<stop stop-color="#FBAB51"/>
<stop offset="1" stop-color="#FE8705"/>
</linearGradient>
<linearGradient id="paint11_linear_693_1757" x1="13.4727" y1="41.3735" x2="15.5865" y2="41.3735" gradientUnits="userSpaceOnUse">
<stop stop-color="#FBAB51"/>
<stop offset="1" stop-color="#FE8705"/>
</linearGradient>
<linearGradient id="paint12_linear_693_1757" x1="33.3301" y1="29.5469" x2="36.7032" y2="29.5469" gradientUnits="userSpaceOnUse">
<stop stop-color="#FBAB51"/>
<stop offset="1" stop-color="#FE8705"/>
</linearGradient>
</defs>
</svg>
