<svg width="18" height="18" viewBox="0 0 18 18" fill="none" xmlns="http://www.w3.org/2000/svg">
<g clip-path="url(#clip0_693_2424)">
<path d="M17.8423 5.23437L12.9673 0.171929C12.8083 0.00699849 12.5646 -0.044774 12.3524 0.0406437C12.1394 0.126885 11.9999 0.333151 11.9999 0.562626V3.00019H11.8124C7.78048 3.00019 4.5 6.28067 4.5 10.3126V11.4376C4.5 11.6985 4.68374 11.916 4.93794 11.9754C4.97927 11.9858 5.02047 11.9903 5.06167 11.9903C5.27398 11.9903 5.47722 11.8658 5.57541 11.6701C6.62995 9.56033 8.75015 8.25008 11.1089 8.25008H11.9999V10.6875C11.9999 10.9171 12.1394 11.1234 12.3524 11.2088C12.5632 11.295 12.8083 11.2426 12.9673 11.0775L17.8423 6.01508C18.0523 5.79686 18.0523 5.45341 17.8423 5.23437Z" fill="black"/>
<path d="M15.7498 17.9999H2.24997C1.00949 17.9999 0 16.9906 0 15.75V5.25017C0 4.00969 1.00949 3.0002 2.24997 3.0002H4.49995C4.91468 3.0002 5.24989 3.33541 5.24989 3.75014C5.24989 4.16487 4.91468 4.50009 4.49995 4.50009H2.24997C1.83593 4.50009 1.49989 4.83613 1.49989 5.25017V15.75C1.49989 16.164 1.83593 16.5 2.24997 16.5H15.7498C16.1637 16.5 16.4998 16.164 16.4998 15.75V9.75012C16.4998 9.33539 16.835 9.00004 17.2497 9.00004C17.6646 9.00004 17.9998 9.33539 17.9998 9.75012V15.75C17.9998 16.9906 16.9903 17.9999 15.7498 17.9999Z" fill="black"/>
</g>
<defs>
<clipPath id="clip0_693_2424">
<rect width="18" height="18" fill="white"/>
</clipPath>
</defs>
</svg>
