<svg width="21" height="24" viewBox="0 0 21 24" fill="none" xmlns="http://www.w3.org/2000/svg">
<path d="M12.5029 21.8022H4.19273C2.80553 21.8022 1.67709 20.6738 1.67709 19.2866V4.19273C1.67709 2.80553 2.80553 1.67709 4.19273 1.67709H15.9324C17.3196 1.67709 18.448 2.80553 18.448 4.19273V16.1838C18.448 16.4079 18.5387 16.6091 18.6818 16.7595C18.8345 16.92 19.0472 17.0223 19.2866 17.0223C19.7501 17.0223 20.1251 16.6473 20.1251 16.1838V4.19273C20.1251 1.881 18.2441 0 15.9324 0H4.19273C1.881 0 0 1.881 0 4.19273V19.2866C0 21.5983 1.881 23.4793 4.19273 23.4793H12.5029C12.9663 23.4793 13.3414 23.1042 13.3414 22.6407C13.3414 22.4165 13.2507 22.2153 13.1076 22.0649C12.9549 21.9045 12.7421 21.8022 12.5029 21.8022Z" fill="#4F4F4F"/>
<path d="M15.0935 10.9012H5.03093C4.56744 10.9012 4.19238 11.2766 4.19238 11.7397C4.19238 12.2028 4.56744 12.5783 5.03093 12.5783H15.0935C15.557 12.5783 15.932 12.2028 15.932 11.7397C15.932 11.2766 15.557 10.9012 15.0935 10.9012Z" fill="#4F4F4F"/>
<path d="M15.0935 6.70847H5.03093C4.56744 6.70847 4.19238 7.08393 4.19238 7.54701C4.19238 8.0101 4.56744 8.38556 5.03093 8.38556H15.0935C15.557 8.38556 15.932 8.0101 15.932 7.54701C15.932 7.08393 15.557 6.70847 15.0935 6.70847Z" fill="#4F4F4F"/>
<path d="M15.0935 15.0938H5.03093C4.56744 15.0938 4.19238 15.4689 4.19238 15.9324C4.19238 16.3959 4.56744 16.7709 5.03093 16.7709H15.0935C15.557 16.7709 15.932 16.3959 15.932 15.9324C15.932 15.4689 15.557 15.0938 15.0935 15.0938Z" fill="#4F4F4F"/>
<path d="M14.6742 20.1652C14.4995 20.3399 14.4251 20.5715 14.4367 20.8002C14.447 21.0002 14.5214 21.1981 14.6742 21.351L16.3734 23.0493C16.5372 23.2131 16.7517 23.295 16.9663 23.295C17.1808 23.295 17.3954 23.2131 17.5592 23.0493L20.5448 20.0637C20.8724 19.7361 20.8724 19.2055 20.5448 18.8779C20.2173 18.5503 19.6866 18.5503 19.3591 18.8779L16.9663 21.2707L15.86 20.1652C15.7167 20.0219 15.533 19.9528 15.3459 19.9349C15.1055 19.9119 14.8585 19.9809 14.6742 20.1652Z" fill="#4F4F4F"/>
</svg>
