<svg width="14" height="17" viewBox="0 0 14 17" fill="none" xmlns="http://www.w3.org/2000/svg">
<path d="M4.61328 2.43311V0.933105H9.11328V2.43311H4.61328ZM6.11328 10.6831H7.61328V6.18311H6.11328V10.6831ZM6.86328 16.6831C5.93828 16.6831 5.06641 16.505 4.24766 16.1487C3.42891 15.7925 2.71328 15.3081 2.10078 14.6956C1.48828 14.0831 1.00391 13.3675 0.647656 12.5487C0.291406 11.73 0.113281 10.8581 0.113281 9.93311C0.113281 9.00811 0.291406 8.13623 0.647656 7.31748C1.00391 6.49873 1.48828 5.78311 2.10078 5.17061C2.71328 4.55811 3.42891 4.07373 4.24766 3.71748C5.06641 3.36123 5.93828 3.18311 6.86328 3.18311C7.63828 3.18311 8.38203 3.30811 9.09453 3.55811C9.80703 3.80811 10.4758 4.17061 11.1008 4.64561L12.1508 3.59561L13.2008 4.64561L12.1508 5.69561C12.6258 6.32061 12.9883 6.98936 13.2383 7.70186C13.4883 8.41436 13.6133 9.15811 13.6133 9.93311C13.6133 10.8581 13.4352 11.73 13.0789 12.5487C12.7227 13.3675 12.2383 14.0831 11.6258 14.6956C11.0133 15.3081 10.2977 15.7925 9.47891 16.1487C8.66016 16.505 7.78828 16.6831 6.86328 16.6831ZM6.86328 15.1831C8.31328 15.1831 9.55078 14.6706 10.5758 13.6456C11.6008 12.6206 12.1133 11.3831 12.1133 9.93311C12.1133 8.48311 11.6008 7.24561 10.5758 6.22061C9.55078 5.19561 8.31328 4.68311 6.86328 4.68311C5.41328 4.68311 4.17578 5.19561 3.15078 6.22061C2.12578 7.24561 1.61328 8.48311 1.61328 9.93311C1.61328 11.3831 2.12578 12.6206 3.15078 13.6456C4.17578 14.6706 5.41328 15.1831 6.86328 15.1831Z" fill="#8A8A8A"/>
</svg>
