<svg width="29" height="17" viewBox="0 0 29 17" fill="none" xmlns="http://www.w3.org/2000/svg">
<g clip-path="url(#clip0_3728_2)">
<path d="M10.7546 9.96638C10.1901 8.71674 9.27758 7.86366 8.18497 7.56429C7.09236 7.26491 5.87239 7.53368 4.7498 8.32106C3.74074 9.02879 2.97194 10.0585 2.69326 11.0756C2.55789 11.5697 2.60581 11.9874 2.83568 12.3172C3.06256 12.6428 3.42802 12.832 3.86107 12.9506C4.32186 13.0769 4.85923 13.1232 5.38721 13.1687C5.84858 13.2085 6.28436 13.2461 6.60417 13.3337C6.8802 13.4094 7.2496 13.5882 7.64061 13.7776C8.55442 14.2202 9.5902 14.7217 10.3642 14.3703C10.7322 14.2033 10.9864 13.8716 11.1199 13.3845C11.3986 12.3674 11.262 11.0896 10.7546 9.96638Z" fill="#1D1D1D"/>
<path d="M12.3561 4.45943C12.1722 3.9198 11.8017 3.53773 11.3398 3.41115C10.8778 3.28457 10.3643 3.42447 9.93099 3.79494C9.53293 4.13529 9.22635 4.64147 9.06776 5.22027C8.90917 5.79907 8.91489 6.39082 9.08389 6.88655C9.26786 7.42616 9.63831 7.80825 10.1003 7.93483C10.5623 8.06141 11.0757 7.92151 11.509 7.55104C11.9071 7.21069 12.2137 6.7045 12.3723 6.12571C12.5309 5.54691 12.5252 4.95513 12.3561 4.45943Z" fill="#1D1D1D"/>
<path d="M8.60419 3.43135C8.42023 2.89172 8.04979 2.50966 7.5878 2.38308C7.12581 2.25649 6.61234 2.39639 6.17904 2.76686C5.78097 3.10721 5.4744 3.6134 5.31581 4.1922C5.15722 4.771 5.16293 5.36275 5.33194 5.85848C5.5159 6.39811 5.88632 6.78019 6.34831 6.90677C6.81031 7.03336 7.32375 6.89346 7.75709 6.52296C8.15515 6.18261 8.46172 5.67645 8.62032 5.09763C8.77889 4.51882 8.77317 3.92705 8.60419 3.43135Z" fill="#1D1D1D"/>
<path d="M14.4908 8.8613C14.4824 8.40396 14.2999 8.02334 13.9771 7.78961C13.7174 7.60152 13.3855 7.5304 13.0426 7.58937C12.57 7.67061 12.1167 7.98154 11.7991 8.44243C11.5395 8.81906 11.4007 9.25431 11.4084 9.66807C11.4168 10.1254 11.5992 10.506 11.922 10.7398C12.0337 10.8207 12.1588 10.8799 12.2923 10.9165C12.4692 10.965 12.6612 10.9736 12.8566 10.94C13.3292 10.8588 13.7825 10.5479 14.1001 10.087L14.1001 10.087C14.3597 9.71035 14.4985 9.27508 14.4908 8.8613Z" fill="#1D1D1D"/>
<path d="M4.62812 6.47756C4.58972 5.9191 4.35824 5.42058 3.99311 5.10982C3.72811 4.88428 3.40629 4.7763 3.08698 4.8057C2.69011 4.84228 2.33915 5.07675 2.09876 5.46589C1.88127 5.81796 1.77879 6.26318 1.81016 6.71951L1.81015 6.71953C1.84858 7.278 2.08003 7.77651 2.44517 8.08728C2.59623 8.21583 2.76573 8.30622 2.94271 8.35471C3.07622 8.39129 3.21399 8.40403 3.3513 8.39139C3.74821 8.35482 4.09915 8.12035 4.33954 7.73121C4.55698 7.37915 4.65946 6.93393 4.62812 6.47756Z" fill="#1D1D1D"/>
</g>
<g clip-path="url(#clip1_3728_2)">
<path d="M24.3425 7.95992C23.8776 6.93086 23.1261 6.22837 22.2264 5.98184C21.3267 5.73532 20.322 5.95664 19.3976 6.60503C18.5667 7.18783 17.9336 8.03581 17.7041 8.87336C17.5926 9.28022 17.6321 9.6242 17.8214 9.89579C18.0082 10.1639 18.3091 10.3197 18.6658 10.4174C19.0452 10.5213 19.4877 10.5595 19.9225 10.597C20.3024 10.6297 20.6613 10.6607 20.9246 10.7329C21.1519 10.7951 21.4561 10.9424 21.7781 11.0984C22.5306 11.4628 23.3836 11.8759 24.021 11.5865C24.324 11.4489 24.5333 11.1758 24.6432 10.7747C24.8727 9.93713 24.7603 8.88489 24.3425 7.95992Z" fill="#1D1D1D"/>
<path d="M25.6614 3.42506C25.5099 2.98069 25.2049 2.66606 24.8245 2.56183C24.444 2.45759 24.0212 2.5728 23.6644 2.87787C23.3366 3.15814 23.0841 3.57497 22.9535 4.0516C22.8229 4.52823 22.8276 5.01553 22.9668 5.42375C23.1183 5.8681 23.4234 6.18275 23.8038 6.28698C24.1842 6.39122 24.607 6.27601 24.9639 5.97094C25.2917 5.69067 25.5441 5.27384 25.6747 4.79721C25.8053 4.32058 25.8006 3.83326 25.6614 3.42506Z" fill="#1D1D1D"/>
<path d="M22.5716 2.57844C22.4201 2.13407 22.1151 1.81945 21.7346 1.71521C21.3542 1.61097 20.9313 1.72617 20.5745 2.03125C20.2467 2.31152 19.9943 2.72835 19.8637 3.20498C19.7331 3.68161 19.7378 4.16891 19.877 4.57713C20.0285 5.0215 20.3335 5.33614 20.7139 5.44038C21.0944 5.54462 21.5172 5.42942 21.874 5.12432C22.2018 4.84405 22.4543 4.42724 22.5849 3.95059C22.7155 3.47395 22.7108 2.98664 22.5716 2.57844Z" fill="#1D1D1D"/>
<path d="M27.4186 7.04991C27.4116 6.6733 27.2614 6.35987 26.9956 6.16739C26.7817 6.01251 26.5084 5.95394 26.226 6.0025C25.8369 6.0694 25.4636 6.32544 25.202 6.70498C24.9882 7.01512 24.874 7.37354 24.8803 7.71427C24.8872 8.09088 25.0375 8.40431 25.3033 8.5968C25.3953 8.66341 25.4982 8.71219 25.6081 8.74231C25.7539 8.78224 25.9119 8.78936 26.0729 8.76169C26.462 8.69479 26.8353 8.43875 27.0969 8.05924L27.0969 8.05922C27.3106 7.74908 27.4249 7.39064 27.4186 7.04991Z" fill="#1D1D1D"/>
<path d="M19.297 5.08696C19.2654 4.62708 19.0748 4.21656 18.7741 3.96065C18.5559 3.77493 18.2909 3.68601 18.0279 3.71022C17.7011 3.74034 17.4121 3.93343 17.2142 4.25387C17.0351 4.5438 16.9507 4.91042 16.9765 5.2862L16.9765 5.28622C17.0081 5.7461 17.1987 6.15662 17.4994 6.41253C17.6238 6.5184 17.7634 6.59282 17.9091 6.63275C18.0191 6.66288 18.1325 6.67337 18.2456 6.66296C18.5724 6.63285 18.8614 6.43976 19.0594 6.11932C19.2384 5.8294 19.3228 5.46277 19.297 5.08696Z" fill="#1D1D1D"/>
</g>
<defs>
<clipPath id="clip0_3728_2">
<rect width="13" height="13" fill="white" transform="translate(3.43555 0.300171) rotate(15.3229)"/>
</clipPath>
<clipPath id="clip1_3728_2">
<rect width="10.7052" height="10.7052" fill="white" transform="translate(18.3154) rotate(15.3229)"/>
</clipPath>
</defs>
</svg>
