<svg width="26" height="21" viewBox="0 0 26 21" fill="none" xmlns="http://www.w3.org/2000/svg">
<path d="M21.6627 6.76292C20.4611 1.97588 15.6063 -0.930621 10.8193 0.271038C7.07835 1.21013 4.362 4.44338 4.08212 8.2902C1.42589 8.72824 -0.372332 11.2366 0.0657105 13.8928C0.45511 16.2543 2.50127 17.9836 4.89453 17.9741H8.95659V16.3493H4.89453C3.09981 16.3493 1.64489 14.8944 1.64489 13.0997C1.64489 11.305 3.09981 9.85003 4.89453 9.85003C5.34324 9.85003 5.70694 9.48632 5.70694 9.03762C5.70288 4.99948 8.9732 1.72261 13.0113 1.7186C16.5069 1.7151 19.5161 4.18635 20.1922 7.6159C20.2248 7.7829 20.309 7.93546 20.4329 8.05207C20.5567 8.16868 20.7141 8.24345 20.8828 8.26583C23.1038 8.58211 24.6479 10.639 24.3316 12.86C24.0476 14.8543 22.3448 16.3393 20.3304 16.3493H17.0807V17.9741H20.3304C23.4711 17.9647 26.0095 15.4108 26 12.2701C25.9921 9.65561 24.2025 7.38335 21.6627 6.76292Z" fill="#03A878"/>
<path d="M12.442 10.0857L9.19238 13.3353L10.3379 14.4808L12.2064 12.6204V20.4114H13.8313V12.6204L15.6917 14.4808L16.8372 13.3353L13.5875 10.0857C13.2706 9.77067 12.7589 9.77067 12.442 10.0857Z" fill="#03A878"/>
</svg>
