<svg width="12" height="12" viewBox="0 0 12 12" fill="none" xmlns="http://www.w3.org/2000/svg">
<path d="M0.9 11V11.1H1H1.78125H1.88125V11C1.88125 8.729 3.729 6.88125 6 6.88125C8.271 6.88125 10.1187 8.729 10.1187 11V11.1H10.2188H11H11.1V11C11.1 9.63793 10.5694 8.35689 9.60626 7.39374L9.53555 7.46445L9.60626 7.39374C9.09659 6.88409 8.49767 6.49572 7.84472 6.2428C8.5417 5.69504 8.99062 4.84443 8.99062 3.89062C8.99062 2.24151 7.64912 0.9 6 0.9C4.35088 0.9 3.00938 2.24151 3.00938 3.89062C3.00938 4.84443 3.4583 5.69504 4.1553 6.2428C3.50234 6.49572 2.90343 6.88409 2.39376 7.39374L2.46447 7.46445L2.39376 7.39374C1.43063 8.35689 0.9 9.63793 0.9 11ZM6 5.9C4.89212 5.9 3.99062 4.99852 3.99062 3.89062C3.99062 2.78273 4.89212 1.88125 6 1.88125C7.10788 1.88125 8.00938 2.78273 8.00938 3.89062C8.00938 4.99852 7.10788 5.9 6 5.9Z" fill="#8A8A8A" stroke="#8A8A8A" stroke-width="0.2"/>
</svg>
