<svg width="24" height="25" viewBox="0 0 24 25" fill="none" xmlns="http://www.w3.org/2000/svg">
<path d="M22.2044 12.25C22.2987 11.8185 22.4739 11.4088 22.7206 11.0425C23.0008 10.6804 23.2024 10.2638 23.3124 9.81928C23.4224 9.37481 23.4384 8.91226 23.3594 8.46125C23.1548 8.03955 22.8635 7.66573 22.5047 7.36419C22.1459 7.06265 21.7275 6.84016 21.2769 6.71125C20.8877 6.57776 20.5238 6.37956 20.2006 6.125C20.0351 5.73087 19.9431 5.30976 19.9294 4.8825C19.9441 4.41687 19.8605 3.95336 19.6841 3.52218C19.5077 3.091 19.2424 2.70182 18.9056 2.38C18.4981 2.16097 18.0489 2.03059 17.5874 1.99741C17.126 1.96424 16.6628 2.02902 16.2281 2.1875C15.8138 2.30841 15.3798 2.34705 14.9506 2.30125C14.6101 2.0878 14.3132 1.81166 14.0756 1.4875C13.8101 1.08407 13.4609 0.742449 13.0518 0.485799C12.6427 0.22915 12.1831 0.063472 11.7044 0C11.2354 0.0630705 10.785 0.224234 10.3824 0.47299C9.97989 0.721747 9.63428 1.05252 9.36811 1.44375C9.13055 1.76791 8.83363 2.04405 8.49311 2.2575C8.06393 2.3033 7.62994 2.26466 7.21561 2.14375C6.78096 1.98527 6.31772 1.92049 5.85627 1.95366C5.39482 1.98684 4.94561 2.11722 4.53811 2.33625C4.19492 2.65496 3.92314 3.04275 3.74065 3.47408C3.55817 3.90542 3.46911 4.37051 3.47936 4.83875C3.47099 5.28078 3.37895 5.71723 3.20811 6.125C2.88807 6.39506 2.52403 6.60816 2.13186 6.755C1.68122 6.88391 1.26283 7.1064 0.903999 7.40794C0.545164 7.70948 0.253948 8.0833 0.0493555 8.505C-0.0296585 8.95601 -0.0136593 9.41856 0.0963298 9.86303C0.206319 10.3075 0.407876 10.7241 0.688105 11.0863C0.929887 11.4393 1.10486 11.8338 1.20436 12.25C1.11 12.6815 0.934834 13.0912 0.688105 13.4575C0.407876 13.8196 0.206319 14.2362 0.0963298 14.6807C-0.0136593 15.1252 -0.0296585 15.5877 0.0493555 16.0387C0.253948 16.4605 0.545164 16.8343 0.903999 17.1358C1.26283 17.4374 1.68122 17.6598 2.13186 17.7887C2.52403 17.9356 2.88807 18.1487 3.20811 18.4187C3.37364 18.8129 3.46557 19.234 3.47936 19.6612C3.46465 20.1269 3.54822 20.5904 3.72461 21.0216C3.901 21.4528 4.16626 21.8419 4.50311 22.1637C4.91061 22.3828 5.35982 22.5132 5.82127 22.5463C6.28272 22.5795 6.74596 22.5147 7.18061 22.3562C7.59494 22.2353 8.02893 22.1967 8.45811 22.2425C8.79863 22.4559 9.09555 22.7321 9.33311 23.0562C9.60308 23.4516 9.95421 23.7848 10.3631 24.0337C10.772 24.2827 11.2292 24.4416 11.7044 24.5C12.1733 24.4369 12.6238 24.2758 13.0263 24.027C13.4288 23.7783 13.7744 23.4475 14.0406 23.0562C14.2782 22.7321 14.5751 22.4559 14.9156 22.2425C15.3448 22.1967 15.7788 22.2353 16.1931 22.3562C16.6277 22.5147 17.091 22.5795 17.5524 22.5463C18.0139 22.5132 18.4631 22.3828 18.8706 22.1637C19.2075 21.8419 19.4727 21.4528 19.6491 21.0216C19.8255 20.5904 19.9091 20.1269 19.8944 19.6612C19.9081 19.234 20.0001 18.8129 20.1656 18.4187C20.4856 18.1487 20.8497 17.9356 21.2419 17.7887C21.6925 17.6598 22.1109 17.4374 22.4697 17.1358C22.8285 16.8343 23.1198 16.4605 23.3244 16.0387C23.4034 15.5877 23.3874 15.1252 23.2774 14.6807C23.1674 14.2362 22.9658 13.8196 22.6856 13.4575C22.4512 13.0886 22.288 12.679 22.2044 12.25ZM21.1981 14.315C21.3906 14.665 21.7581 15.3037 21.6969 15.4962C21.6356 15.6887 20.9794 16.0037 20.5594 16.1963C19.8845 16.4423 19.2826 16.8546 18.8094 17.395C18.4342 18.0196 18.229 18.7315 18.2144 19.46C18.1619 19.8975 18.0831 20.615 17.8994 20.7463C17.7156 20.8775 17.0244 20.7463 16.6044 20.6413C15.8984 20.436 15.1521 20.4119 14.4344 20.5713C13.7682 20.8525 13.1864 21.3017 12.7456 21.875C12.4306 22.225 11.9494 22.75 11.7044 22.75C11.4594 22.75 10.9781 22.225 10.6631 21.875C10.2296 21.3053 9.65721 20.8564 9.00061 20.5713C8.7451 20.495 8.47976 20.4566 8.21311 20.4575C7.74751 20.4751 7.28462 20.5366 6.83061 20.6413C6.41061 20.7288 5.70186 20.8687 5.53561 20.7463C5.36936 20.6237 5.27311 19.8713 5.22061 19.46C5.20592 18.7315 5.00078 18.0196 4.62561 17.395C4.15239 16.8546 3.55048 16.4423 2.87561 16.1963C2.45561 16.0037 1.81686 15.715 1.73811 15.4962C1.65936 15.2775 2.04436 14.665 2.23686 14.315C2.64691 13.6985 2.89379 12.988 2.95436 12.25C2.88593 11.5097 2.62996 10.799 2.21061 10.185C2.01811 9.835 1.65061 9.19625 1.71186 9.00375C1.77311 8.81125 2.42936 8.49625 2.84936 8.30375C3.52423 8.05772 4.12614 7.64542 4.59936 7.105C4.97453 6.4804 5.17967 5.76847 5.19436 5.04C5.24686 4.6025 5.32561 3.885 5.50936 3.75375C5.69311 3.6225 6.38436 3.75375 6.80436 3.85875C7.51032 4.06404 8.25663 4.08812 8.97436 3.92875C9.64051 3.64746 10.2224 3.19826 10.6631 2.625C10.9781 2.275 11.4594 1.75 11.7044 1.75C11.9494 1.75 12.4306 2.275 12.7456 2.625C13.1791 3.19469 13.7515 3.6436 14.4081 3.92875C15.1258 4.08812 15.8721 4.06404 16.5781 3.85875C16.9965 3.72761 17.439 3.69174 17.8731 3.75375C18.0569 3.885 18.1356 4.62875 18.1881 5.04C18.2028 5.76847 18.4079 6.4804 18.7831 7.105C19.2563 7.64542 19.8582 8.05772 20.5331 8.30375C20.9531 8.49625 21.5919 8.785 21.6706 9.00375C21.7494 9.2225 21.3644 9.87875 21.1719 10.185C20.7618 10.8015 20.5149 11.512 20.4544 12.25C20.5228 12.9903 20.7787 13.701 21.1981 14.315Z" fill="#4F4F4F"/>
<path d="M15.021 9.00367L10.3923 13.6412L8.826 12.0662C8.74442 11.9846 8.64756 11.9199 8.54097 11.8757C8.43438 11.8316 8.32013 11.8088 8.20475 11.8088C8.08937 11.8088 7.97513 11.8316 7.86853 11.8757C7.76194 11.9199 7.66509 11.9846 7.5835 12.0662C7.50192 12.1478 7.4372 12.2446 7.39305 12.3512C7.3489 12.4578 7.32617 12.572 7.32617 12.6874C7.32617 12.8028 7.3489 12.917 7.39305 13.0236C7.4372 13.1302 7.50192 13.2271 7.5835 13.3087L9.771 15.4962C9.85234 15.5782 9.94912 15.6433 10.0557 15.6877C10.1624 15.7321 10.2767 15.755 10.3923 15.755C10.5078 15.755 10.6221 15.7321 10.7288 15.6877C10.8354 15.6433 10.9322 15.5782 11.0135 15.4962L16.2635 10.2462C16.3451 10.1646 16.4098 10.0677 16.454 9.96114C16.4981 9.85454 16.5208 9.74029 16.5208 9.62492C16.5208 9.50954 16.4981 9.39529 16.454 9.2887C16.4098 9.18211 16.3451 9.08525 16.2635 9.00367C16.1819 8.92208 16.0851 8.85737 15.9785 8.81322C15.8719 8.76906 15.7576 8.74634 15.6423 8.74634C15.5269 8.74634 15.4126 8.76906 15.306 8.81322C15.1994 8.85737 15.1026 8.92208 15.021 9.00367Z" fill="#4F4F4F"/>
</svg>
