<svg width="21" height="19" viewBox="0 0 21 19" fill="none" xmlns="http://www.w3.org/2000/svg">
<path d="M0.78125 3.125C0.349781 3.125 0 3.47478 0 3.90625C0 4.33772 0.349781 4.6875 0.78125 4.6875V3.125ZM0.78125 13.5417C0.349781 13.5417 0 13.8915 0 14.3229C0 14.7544 0.349781 15.1042 0.78125 15.1042V13.5417ZM7.03125 15.1042C7.46272 15.1042 7.8125 14.7544 7.8125 14.3229C7.8125 13.8915 7.46272 13.5417 7.03125 13.5417V15.1042ZM19.5312 15.1042C19.9627 15.1042 20.3125 14.7544 20.3125 14.3229C20.3125 13.8915 19.9627 13.5417 19.5312 13.5417V15.1042ZM13.2812 3.125C12.8498 3.125 12.5 3.47478 12.5 3.90625C12.5 4.33772 12.8498 4.6875 13.2812 4.6875V3.125ZM19.5312 4.6875C19.9627 4.6875 20.3125 4.33772 20.3125 3.90625C20.3125 3.47478 19.9627 3.125 19.5312 3.125V4.6875ZM0.78125 4.6875H3.90625V3.125H0.78125V4.6875ZM0.78125 15.1042H7.03125V13.5417H0.78125V15.1042ZM16.4062 15.1042H19.5312V13.5417H16.4062V15.1042ZM13.2812 4.6875H19.5312V3.125H13.2812V4.6875ZM15.625 14.3229C15.625 15.6173 14.5756 16.6667 13.2812 16.6667V18.2292C15.4386 18.2292 17.1875 16.4803 17.1875 14.3229H15.625ZM13.2812 16.6667C11.9869 16.6667 10.9375 15.6173 10.9375 14.3229H9.375C9.375 16.4803 11.1239 18.2292 13.2812 18.2292V16.6667ZM10.9375 14.3229C10.9375 13.0285 11.9869 11.9792 13.2812 11.9792V10.4167C11.1239 10.4167 9.375 12.1655 9.375 14.3229H10.9375ZM13.2812 11.9792C14.5756 11.9792 15.625 13.0285 15.625 14.3229H17.1875C17.1875 12.1655 15.4386 10.4167 13.2812 10.4167V11.9792ZM9.375 3.90625C9.375 5.20067 8.32562 6.25 7.03125 6.25V7.8125C9.18865 7.8125 10.9375 6.06361 10.9375 3.90625H9.375ZM7.03125 6.25C5.73683 6.25 4.6875 5.20067 4.6875 3.90625H3.125C3.125 6.06361 4.87389 7.8125 7.03125 7.8125V6.25ZM4.6875 3.90625C4.6875 2.61183 5.73683 1.5625 7.03125 1.5625V0C4.87389 0 3.125 1.74889 3.125 3.90625H4.6875ZM7.03125 1.5625C8.32562 1.5625 9.375 2.61183 9.375 3.90625H10.9375C10.9375 1.74889 9.18865 0 7.03125 0V1.5625Z" fill="#4F4F4F"/>
</svg>
