<svg width="20" height="18" viewBox="0 0 20 18" fill="none" xmlns="http://www.w3.org/2000/svg">
<path fill-rule="evenodd" clip-rule="evenodd" d="M4.65137 5.81388C4.65137 5.42857 4.96373 5.11621 5.34904 5.11621H10.9304C11.3157 5.11621 11.628 5.42857 11.628 5.81388C11.628 6.19919 11.3157 6.51155 10.9304 6.51155H5.34904C4.96373 6.51155 4.65137 6.19919 4.65137 5.81388Z" fill="#434343"/>
<path fill-rule="evenodd" clip-rule="evenodd" d="M16.4368 7.39549C16.1029 7.39549 15.8091 7.52497 15.5972 7.74265L15.5846 7.75521C15.3372 7.99678 15.199 8.34069 15.2338 8.70608L15.2345 8.71427C15.2837 9.30496 15.8516 9.81407 16.5484 9.81407H18.3557C18.5061 9.8043 18.6042 9.68672 18.6042 9.56291V7.64665C18.6042 7.52274 18.5061 7.40516 18.3557 7.39549H16.4368ZM14.6036 6.76284C15.0796 6.27749 15.7321 6.00015 16.4368 6.00015H18.3717C18.38 6.00015 18.3883 6.00029 18.3966 6.00059C19.2831 6.03225 19.9996 6.74963 19.9996 7.64665V9.56291C19.9996 10.4599 19.2831 11.1773 18.3966 11.2089C18.3883 11.2092 18.38 11.2094 18.3717 11.2094H16.5484C15.2373 11.2094 13.9646 10.2506 13.8443 8.83426C13.7692 8.03223 14.0745 7.28293 14.6036 6.76284Z" fill="#434343"/>
<path fill-rule="evenodd" clip-rule="evenodd" d="M5.34879 1.39534C5.12158 1.39534 4.90598 1.41156 4.7014 1.44304L4.68218 1.44572C3.65212 1.57498 2.84238 2.01599 2.28793 2.6665C1.73205 3.31868 1.39534 4.22589 1.39534 5.34879V11.8604C1.39534 13.0972 1.80455 14.0736 2.47005 14.7391C3.13555 15.4046 4.112 15.8138 5.34879 15.8138H13.7208C14.9576 15.8138 15.9341 15.4046 16.5996 14.7391C17.2651 14.0736 17.6743 13.0972 17.6743 11.8604V11.2092H16.5487C15.2374 11.2092 13.9648 10.2504 13.8445 8.83406C13.7694 8.03202 14.0748 7.28272 14.6039 6.76273C15.0798 6.27729 15.7322 5.99995 16.4371 5.99995H17.6743V5.34879C17.6743 4.21829 17.3317 3.30542 16.767 2.65113C16.2037 1.99833 15.3813 1.55851 14.3379 1.43717C14.3265 1.43584 14.3151 1.43423 14.3038 1.43234C14.1364 1.40445 13.9483 1.39534 13.7208 1.39534H5.34879ZM4.49887 0.062446C4.77496 0.0205022 5.05846 0 5.34879 0H13.7208C13.9717 0 14.2425 0.00906975 14.5157 0.0531252C15.865 0.21371 17.0133 0.80083 17.8234 1.73952C18.6355 2.68056 19.0696 3.93048 19.0696 5.34879V6.69762C19.0696 7.08291 18.7572 7.39528 18.3719 7.39528H16.4371C16.103 7.39528 15.8092 7.52477 15.5973 7.74244L15.5849 7.755C15.3373 7.99658 15.1991 8.34057 15.2339 8.70587L15.2347 8.71406C15.284 9.30475 15.8519 9.81386 16.5487 9.81386H18.3719C18.7572 9.81386 19.0696 10.1262 19.0696 10.5115V11.8604C19.0696 13.4142 18.5486 14.7633 17.5862 15.7257C16.6238 16.6881 15.2747 17.2091 13.7208 17.2091H5.34879C3.7949 17.2091 2.44579 16.6881 1.4834 15.7257C0.521009 14.7633 0 13.4142 0 11.8604V5.34879C0 3.94148 0.426071 2.69987 1.226 1.76137C2.02544 0.823425 3.16101 0.232463 4.49887 0.062446Z" fill="#434343"/>
</svg>
