<svg width="63" height="63" viewBox="0 0 63 63" fill="none" xmlns="http://www.w3.org/2000/svg">
<g clip-path="url(#clip0_693_2602)">
<path d="M61.0952 15.9789C59.4427 9.89051 53.1107 3.55852 47.0224 1.906C43.2904 0.974531 38.2885 0.0159961 31.5 0C24.7127 0.0172266 19.7109 0.974531 15.9789 1.906C9.89051 3.55975 3.55852 9.89051 1.906 15.9789C0.974531 19.7109 0.0172266 24.7127 0 31.5C0.0172266 38.2885 0.974531 43.2904 1.906 47.0224C3.55852 53.1107 9.89051 59.4415 15.9789 61.0952C19.7109 62.0267 24.7152 62.984 31.5 63.0012C38.2885 62.984 43.2904 62.0267 47.0224 61.0952C53.1107 59.4415 59.4427 53.1107 61.0952 47.0224C62.0267 43.2904 62.984 38.286 63.0012 31.5C62.984 24.7127 62.0267 19.7109 61.0952 15.9789Z" fill="white"/>
<path d="M43.4351 18.7696C42.4002 15.8435 39.7633 13.5142 36.761 13.1291C34.6495 12.8658 31.7678 12.6505 27.8278 12.7034C23.8878 12.7563 21.0012 13.0602 18.8835 13.3801C15.3841 13.9314 12.2587 17.0088 11.6582 20.5328C11.6582 20.5328 10.7317 25.5052 10.5508 32.2014H44.4699C44.4699 32.2014 44.4699 23.3334 43.4351 18.7696Z" fill="url(#paint0_linear_693_2602)"/>
<path d="M52.0955 27.1417C51.6968 24.0261 48.9221 21.3905 45.6749 20.9598C39.9532 20.3926 31.5012 20.3446 31.4987 20.3655C27.843 20.3274 19.2838 20.6768 17.3237 20.9598C15.3377 21.2158 13.5437 22.3133 12.3428 23.817C11.567 24.7712 11.0689 25.9206 10.9031 27.1392C10.6706 29.0218 10.486 31.5935 10.5795 35.1127C10.673 38.6318 11.0028 41.2109 11.3325 43.0996C11.901 46.2263 14.7139 48.9727 17.8442 49.4981C19.7403 49.8598 27.9808 50.3594 31.5024 50.2979C35.0215 50.3619 43.262 49.8598 45.1606 49.4981C48.2909 48.9727 51.1038 46.2263 51.6722 43.0996C52.002 41.2109 52.3256 38.633 52.4253 35.1127C52.5249 31.5923 52.3281 29.0243 52.0955 27.1417Z" fill="url(#paint1_linear_693_2602)"/>
<path d="M45.1351 38.2344C44.5611 38.2346 44 38.0646 43.5227 37.7459C43.0454 37.4272 42.6733 36.974 42.4535 36.4438C42.2338 35.9136 42.1762 35.3301 42.2881 34.7672C42.4 34.2042 42.6764 33.6871 43.0822 33.2813C43.4881 32.8754 44.0052 32.5991 44.5681 32.4871C45.1311 32.3752 45.7146 32.4328 46.2448 32.6526C46.775 32.8723 47.2281 33.2444 47.5468 33.7217C47.8656 34.199 48.0356 34.7602 48.0353 35.3341C48.0353 36.1033 47.7298 36.841 47.1859 37.3849C46.642 37.9288 45.9043 38.2344 45.1351 38.2344Z" fill="url(#paint2_linear_693_2602)"/>
</g>
<defs>
<linearGradient id="paint0_linear_693_2602" x1="20.9482" y1="38.2011" x2="36.0424" y2="12.0574" gradientUnits="userSpaceOnUse">
<stop stop-color="#34344F"/>
<stop offset="0.54" stop-color="#353551"/>
<stop offset="1" stop-color="#666684"/>
</linearGradient>
<linearGradient id="paint1_linear_693_2602" x1="46.6396" y1="50.0087" x2="16.3602" y2="19.7293" gradientUnits="userSpaceOnUse">
<stop stop-color="#1EB4EB"/>
<stop offset="0.5" stop-color="#1EB4EB"/>
<stop offset="1" stop-color="#92F4FE"/>
</linearGradient>
<linearGradient id="paint2_linear_693_2602" x1="47.1863" y1="37.3853" x2="43.0839" y2="33.2829" gradientUnits="userSpaceOnUse">
<stop stop-color="#BCE4ED"/>
<stop offset="0.57" stop-color="white"/>
<stop offset="1" stop-color="white"/>
</linearGradient>
<clipPath id="clip0_693_2602">
<rect width="63" height="63" fill="white"/>
</clipPath>
</defs>
</svg>
